<?xml version="1.0" encoding="UTF-8"?>
<svg width="479px" height="329px" viewBox="0 0 479 329" version="1.1" xmlns="http://www.w3.org/2000/svg" xmlns:xlink="http://www.w3.org/1999/xlink">
    <!-- Generator: Sketch 52.5 (67469) - http://www.bohemiancoding.com/sketch -->
    <title>Authorize the certificate</title>
    <desc>Created with Sketch.</desc>
    <defs>
        <path d="M5.383,4.069 C4.584,5.595 0.018,12.144 0.275,12.98 C0.532,13.816 2.983,13.635 4.641,12.83 C6.297,12.025 6.973,8.752 8.089,8.048 C9.205,7.343 11.652,8.25 13.623,9.587 C15.593,10.923 15.315,14.438 15.315,14.438 C19.386,15.739 30.092,10.588 28.467,9.335 C26.844,8.081 14.75,1.719 11.623,0.906 C11.195,0.795 10.783,0.744 10.387,0.744 C7.89,0.744 6.073,2.75 5.383,4.069" id="path-1"></path>
        <linearGradient x1="55.7207028%" y1="47.8093212%" x2="20.1982503%" y2="101.570056%" id="linearGradient-3">
            <stop stop-color="#FFEFE6" offset="0%"></stop>
            <stop stop-color="#FFD6C1" offset="100%"></stop>
        </linearGradient>
        <path d="M10.335,4.04 C8.193,5.286 7.359,4.995 4.086,5.492 C0.811,5.992 -0.479,9.55 0.161,10.105 C0.541,10.436 1.343,10.239 2.325,10.043 C2.993,9.91 3.744,9.775 4.503,9.808 C6.375,9.888 9.032,11.705 12.834,11.278 C16.634,10.85 21.515,8.446 21.515,8.446 C21.515,8.446 24.926,2.995 22.94,0.703 C22.539,0.241 21.876,0.05 21.053,0.05 C17.794,0.05 12.046,3.045 10.335,4.04" id="path-4"></path>
        <linearGradient x1="65.2242531%" y1="41.3393999%" x2="24.0873288%" y2="104.991201%" id="linearGradient-6">
            <stop stop-color="#FFEFE6" offset="0%"></stop>
            <stop stop-color="#FFD6C1" offset="100%"></stop>
        </linearGradient>
        <path d="M22.929,0.316 L21.31,14.022 C21.31,14.022 0.627,25.236 0.253,26.482 C-0.122,27.728 32.773,27.603 32.773,26.482 C32.773,25.361 33.52,0.316 33.52,0.316 L22.929,0.316 Z" id="path-7"></path>
        <linearGradient x1="113.648597%" y1="44.5946782%" x2="14.5965172%" y2="58.0454386%" id="linearGradient-9">
            <stop stop-color="#FFEFE6" offset="0%"></stop>
            <stop stop-color="#FFD6C1" offset="100%"></stop>
        </linearGradient>
        <path d="M1.736,7.008 L8.948,18.775 C8.948,18.775 -0.361,40.383 0.116,41.594 C0.595,42.803 26.356,22.35 25.664,21.468 C24.968,20.589 10.057,0.454 10.057,0.454 L1.736,7.008 Z" id="path-10"></path>
        <linearGradient x1="82.0640489%" y1="16.1802367%" x2="-10.3317977%" y2="72.6351667%" id="linearGradient-12">
            <stop stop-color="#FFEFE6" offset="0%"></stop>
            <stop stop-color="#FFD6C1" offset="100%"></stop>
        </linearGradient>
        <polygon id="path-13" points="0.313339732 0.2952 28.9102936 0.2952 28.9102936 29 0.313339732 29"></polygon>
        <path d="M14.284,0.555 C14.284,0.555 -0.917,68.636 0.08,134.674 L20.265,135.921 C20.265,135.921 24.251,80.847 43.44,37.736 L43.44,0.555 L14.284,0.555 Z" id="path-15"></path>
        <linearGradient x1="38.2793456%" y1="88.5151939%" x2="62.7724455%" y2="11.1975201%" id="linearGradient-17">
            <stop stop-color="#EFF9FF" offset="0%"></stop>
            <stop stop-color="#A7C3D1" offset="100%"></stop>
        </linearGradient>
        <path d="M0.249,2.084 C0.249,2.084 14.952,100.767 61.303,129.674 L77.749,118.211 C77.749,118.211 41.616,82.326 38.875,0.589 L0.249,2.084 Z" id="path-18"></path>
        <linearGradient x1="84.6691409%" y1="85.7458753%" x2="18.6463443%" y2="5.18043832%" id="linearGradient-20">
            <stop stop-color="#EFF9FF" offset="0%"></stop>
            <stop stop-color="#D3DBDF" offset="100%"></stop>
        </linearGradient>
        <path d="M10.295,0.706 C9.341,1.078 7.43,3.363 5.143,5.979 C2.858,8.595 0.797,10.979 0.797,10.979 L3.442,13.663 C3.442,13.663 6.847,9.135 7.969,7.848 C9.089,6.561 11.748,3.321 12.245,1.992 C12.618,0.998 11.876,0.562 11.079,0.562 C10.81,0.562 10.535,0.611 10.295,0.706" id="path-21"></path>
        <linearGradient x1="70.3804746%" y1="43.6901221%" x2="12.5034928%" y2="65.971493%" id="linearGradient-23">
            <stop stop-color="#FFEFE6" offset="0%"></stop>
            <stop stop-color="#FFD6C1" offset="100%"></stop>
        </linearGradient>
        <path d="M7.233,1.864 C3.873,2.751 0.833,3.569 0.833,3.569 L1.519,7.275 C1.519,7.275 6.877,5.43 8.526,4.995 C10.178,4.554 14.191,3.359 15.35,2.538 C16.508,1.716 15.453,0.604 14.454,0.378 C14.342,0.353 14.205,0.341 14.047,0.341 C12.803,0.341 10.213,1.076 7.233,1.864" id="path-24"></path>
        <linearGradient x1="62.3044337%" y1="56.1503692%" x2="14.5708642%" y2="37.0404817%" id="linearGradient-26">
            <stop stop-color="#FFEFE6" offset="0%"></stop>
            <stop stop-color="#FFD6C1" offset="100%"></stop>
        </linearGradient>
        <path d="M0.176,3.859 C0.176,3.859 5.075,3.536 6.551,3.546 C8.033,3.554 11.658,3.468 12.814,3.045 C13.968,2.624 13.337,1.456 12.555,1.036 C11.772,0.623 9.193,0.658 6.185,0.635 C3.175,0.614 0.446,0.604 0.446,0.604 L0.176,3.859 Z" id="path-27"></path>
        <linearGradient x1="59.8426232%" y1="82.5410261%" x2="16.9518069%" y2="-1.61503226%" id="linearGradient-29">
            <stop stop-color="#FFEFE6" offset="0%"></stop>
            <stop stop-color="#FFD6C1" offset="100%"></stop>
        </linearGradient>
        <path d="M13.149,0.51 C12.127,0.579 9.616,2.178 6.647,3.983 C3.678,5.788 0.995,7.437 0.995,7.437 L2.704,10.793 C2.704,10.793 7.317,7.505 8.775,6.617 C10.233,5.729 13.745,3.444 14.621,2.329 C15.462,1.256 14.277,0.506 13.277,0.506 C13.234,0.506 13.191,0.507 13.149,0.51" id="path-30"></path>
        <linearGradient x1="65.8696277%" y1="47.7270331%" x2="13.7446206%" y2="55.1638505%" id="linearGradient-32">
            <stop stop-color="#FFEFE6" offset="0%"></stop>
            <stop stop-color="#FFD6C1" offset="100%"></stop>
        </linearGradient>
        <path d="M4.891,3.569 L0.313,12.063 L2.859,16.568 C2.859,16.568 13.241,14.161 14.488,13.164 C15.734,12.166 14.737,8.179 13.409,5.189 C12.081,2.199 9.942,0.539 9.333,0.207 C9.307,0.193 9.274,0.186 9.237,0.186 C8.4,0.186 4.891,3.569 4.891,3.569" id="path-33"></path>
        <linearGradient x1="106.131886%" y1="43.3111629%" x2="14.2973511%" y2="52.4384318%" id="linearGradient-35">
            <stop stop-color="#FFEFE6" offset="0%"></stop>
            <stop stop-color="#FFD6C1" offset="100%"></stop>
        </linearGradient>
        <path d="M6.366,1.397 C6.126,2.455 5.209,4.897 4.257,7.044 C3.303,9.192 3.113,10.445 2.807,12.983 C2.501,15.517 0.392,17.545 0.392,17.545 L2.549,22.412 C12.694,18.948 8.654,10.037 8.32,9.125 C7.99,8.216 8.375,6.708 8.729,3.869 C8.98,1.86 7.814,0.925 7.025,0.925 C6.698,0.925 6.436,1.086 6.366,1.397" id="path-36"></path>
        <linearGradient x1="69.1867613%" y1="47.6482408%" x2="4.86122774%" y2="54.8427687%" id="linearGradient-38">
            <stop stop-color="#FFEFE6" offset="0%"></stop>
            <stop stop-color="#FFD6C1" offset="100%"></stop>
        </linearGradient>
        <path d="M0.892,0.297 L0.892,9.435 L0.892,16.08 C0.892,17.491 1.727,23.308 6.252,23.639 C10.776,23.97 16.842,18.32 17.673,14.251 C18.502,10.182 20.413,0.297 20.413,0.297 L0.892,0.297 Z" id="path-39"></path>
        <linearGradient x1="22.1891363%" y1="87.4821574%" x2="31.9730419%" y2="60.4573404%" id="linearGradient-41">
            <stop stop-color="#FFEFE6" offset="0%"></stop>
            <stop stop-color="#FFD6C1" offset="100%"></stop>
        </linearGradient>
        <path d="M21.378,0.742 C10.289,0.746 5.56,2.734 2.695,12.579 C2.695,12.579 0.203,23.73 0.826,32.265 C1.449,40.8 6.993,47.592 13.908,47.964 C23.432,48.476 30.231,42.73 32.599,36.19 C32.599,36.19 39.327,32.888 41.694,21.487 C44.06,10.089 32.66,0.742 21.386,0.742 C21.384,0.742 21.381,0.742 21.378,0.742" id="path-42"></path>
        <linearGradient x1="35.2628139%" y1="49.4956034%" x2="110.098243%" y2="54.7680724%" id="linearGradient-44">
            <stop stop-color="#FFEFE6" offset="0%"></stop>
            <stop stop-color="#FFD6C1" offset="100%"></stop>
        </linearGradient>
        <path d="M1.367,5.524 C-0.625,15.366 3.797,13.685 7.536,11.318 C11.273,8.949 12.821,2.208 8.221,0.788 C7.776,0.651 7.352,0.589 6.948,0.589 C3.334,0.59 1.367,5.524 1.367,5.524" id="path-45"></path>
        <linearGradient x1="-157.024436%" y1="37.0380527%" x2="146.272858%" y2="56.8969649%" id="linearGradient-47">
            <stop stop-color="#FFEFE6" offset="0%"></stop>
            <stop stop-color="#FFD6C1" offset="100%"></stop>
        </linearGradient>
    </defs>
    <g id="new" stroke="none" stroke-width="1" fill="none" fill-rule="evenodd">
        <g id="Authorize-the-certificate" transform="translate(-0.259573, -0.195322)">
            <rect id="Rectangle-Copy" fill="#39ADED" fill-rule="nonzero" opacity="0.664434524" x="0.40580866" y="37.8764143" width="334.153688" height="192.073062" rx="30"></rect>
            <rect id="Rectangle" fill="#F4F4F4" fill-rule="nonzero" x="18.2521203" y="0.609146539" width="334.153688" height="211.96021" rx="15"></rect>
            <path d="M307.106926,176.811064 L65.7054302,176.811064 C59.1100316,176.811064 53.7640695,171.18337 53.7640695,164.240394 L53.7640695,51.2973803 C53.7640695,44.3551829 59.1100316,38.7267108 65.7054302,38.7267108 L307.106926,38.7267108 C313.701586,38.7267108 319.047548,44.3551829 319.047548,51.2973803 L319.047548,164.240394 C319.047548,171.18337 313.701586,176.811064 307.106926,176.811064" id="Fill-107" stroke-opacity="0.302734375" stroke="#FFFFFF" stroke-width="21" fill="#FFFFFF"></path>
            <g id="Group-25" transform="translate(53.764070, 38.726711)">
                <path d="M254.400917,138.137927 L12.6319174,138.137927 C6.02791738,138.137927 0.672917378,132.783927 0.672917378,126.178927 L0.672917378,18.7269268 C0.672917378,12.1219268 6.02791738,6.76792684 12.6319174,6.76792684 L254.400917,6.76792684 C261.004917,6.76792684 266.359917,12.1219268 266.359917,18.7269268 L266.359917,126.178927 C266.359917,132.783927 261.004917,138.137927 254.400917,138.137927" id="Fill-2" fill="#FFFFFF"></path>
                <path d="M103.460517,72.4456268 C103.460517,83.1486268 99.4495174,92.9226268 92.8425174,100.310627 C85.1805174,108.923627 74.0135174,114.327627 61.6015174,114.327627 C49.1895174,114.327627 38.0225174,108.923627 30.3595174,100.310627 C23.7535174,92.9226268 19.7415174,83.1486268 19.7415174,72.4456268 C19.7415174,49.3326268 38.4865174,30.5866268 61.6015174,30.5866268 C84.7165174,30.5866268 103.460517,49.3326268 103.460517,72.4456268" id="Fill-4" fill="#7A96CC"></path>
                <path d="M72.6841174,81.2698268 C72.6771174,81.2678268 72.6731174,81.2668268 72.6671174,81.2648268 C77.0541174,77.9228268 79.8991174,72.6598268 79.8991174,66.7188268 C79.8991174,56.6158268 71.7061174,48.4238268 61.6031174,48.4238268 C51.4981174,48.4238268 43.3081174,56.6158268 43.3081174,66.7188268 C43.3081174,72.6598268 46.1511174,77.9218268 50.5381174,81.2638268 C50.5321174,81.2668268 50.5251174,81.2678268 50.5191174,81.2698268 C41.3781174,84.4148268 34.0111174,91.4018268 30.3601174,100.310827 C38.0231174,108.922827 49.1891174,114.327827 61.6011174,114.327827 C74.0131174,114.327827 85.1801174,108.922827 92.8421174,100.310827 C89.1921174,91.4018268 81.8241174,84.4148268 72.6841174,81.2698268" id="Fill-6" fill="#A9C2E2"></path>
                <path d="M236.565017,75.2307268 L119.440017,75.2307268 C116.621017,75.2307268 114.336017,72.9467268 114.336017,70.1267268 C114.336017,67.3087268 116.621017,65.0237268 119.440017,65.0237268 L236.565017,65.0237268 C239.383017,65.0237268 241.669017,67.3087268 241.669017,70.1267268 C241.669017,72.9467268 239.383017,75.2307268 236.565017,75.2307268" id="Fill-8" fill="#F4F4F4"></path>
                <path d="M236.565017,52.3625268 L119.440017,52.3625268 C116.621017,52.3625268 114.336017,50.0775268 114.336017,47.2585268 C114.336017,44.4405268 116.621017,42.1555268 119.440017,42.1555268 L236.565017,42.1555268 C239.383017,42.1555268 241.669017,44.4405268 241.669017,47.2585268 C241.669017,50.0775268 239.383017,52.3625268 236.565017,52.3625268" id="Fill-10" fill="#F4F4F4"></path>
                <path d="M196.588417,99.1252268 L119.440417,99.1252268 C116.620417,99.1252268 114.335417,96.8402268 114.335417,94.0212268 C114.335417,91.2032268 116.620417,88.9182268 119.440417,88.9182268 L196.588417,88.9182268 C199.406417,88.9182268 201.692417,91.2032268 201.692417,94.0212268 C201.692417,96.8402268 199.406417,99.1252268 196.588417,99.1252268" id="Fill-12" fill="#008EFF"></path>
                <polygon id="Fill-14" fill="#DD361F" points="136.924317 118.869427 126.998317 111.307427 116.600317 118.869427 116.600317 92.4004268 136.924317 92.4004268"></polygon>
                <path d="M140.877517,91.8166268 C140.877517,99.7006268 134.485517,106.094627 126.599517,106.094627 C118.712517,106.094627 112.319517,99.7006268 112.319517,91.8166268 C112.319517,83.9306268 118.712517,77.5376268 126.599517,77.5376268 C134.485517,77.5376268 140.877517,83.9306268 140.877517,91.8166268" id="Fill-16" fill="#FFD400"></path>
                <g id="Group-21" transform="translate(196.110317, 77.037027)">
                    <mask id="mask-2" fill="white">
                        <use xlink:href="#path-1"></use>
                    </mask>
                    <g id="Clip-20"></g>
                    <path d="M5.383,4.069 C4.584,5.595 0.018,12.144 0.275,12.98 C0.532,13.816 2.983,13.635 4.641,12.83 C6.297,12.025 6.973,8.752 8.089,8.048 C9.205,7.343 11.652,8.25 13.623,9.587 C15.593,10.923 15.315,14.438 15.315,14.438 C19.386,15.739 30.092,10.588 28.467,9.335 C26.844,8.081 14.75,1.719 11.623,0.906 C11.195,0.795 10.783,0.744 10.387,0.744 C7.89,0.744 6.073,2.75 5.383,4.069" id="Fill-19" fill="url(#linearGradient-3)" mask="url(#mask-2)"></path>
                </g>
                <polygon id="Fill-22" fill="#1B8775" points="199.982917 96.8088268 195.734917 97.7148268 196.734917 93.4878268 227.289917 63.6098268 230.541917 66.9318268"></polygon>
                <g id="Group-26" transform="translate(202.110317, 86.037027)">
                    <mask id="mask-5" fill="white">
                        <use xlink:href="#path-4"></use>
                    </mask>
                    <g id="Clip-25"></g>
                    <path d="M10.335,4.04 C8.193,5.286 7.359,4.995 4.086,5.492 C0.811,5.992 -0.479,9.55 0.161,10.105 C0.541,10.436 1.343,10.239 2.325,10.043 C2.993,9.91 3.744,9.775 4.503,9.808 C6.375,9.888 9.032,11.705 12.834,11.278 C16.634,10.85 21.515,8.446 21.515,8.446 C21.515,8.446 24.926,2.995 22.94,0.703 C22.539,0.241 21.876,0.05 21.053,0.05 C17.794,0.05 12.046,3.045 10.335,4.04" id="Fill-24" fill="url(#linearGradient-6)" mask="url(#mask-5)"></path>
                </g>
                <path d="M301.357917,55.0549268 C301.357917,55.0549268 271.412917,84.6419268 224.607917,85.8049268 L222.107917,96.0549268 C222.107917,96.0549268 286.688917,97.8609268 316.778917,73.7389268 L301.357917,55.0549268 Z" id="Fill-27" fill="#6DB8FF"></path>
                <g id="Group-31" transform="translate(265.110317, 257.037027)">
                    <mask id="mask-8" fill="white">
                        <use xlink:href="#path-7"></use>
                    </mask>
                    <g id="Clip-30"></g>
                    <path d="M22.929,0.316 L21.31,14.022 C21.31,14.022 0.627,25.236 0.253,26.482 C-0.122,27.728 32.773,27.603 32.773,26.482 C32.773,25.361 33.52,0.316 33.52,0.316 L22.929,0.316 Z" id="Fill-29" fill="url(#linearGradient-9)" mask="url(#mask-8)"></path>
                </g>
                <path d="M279.815917,273.737527 C279.815917,273.737527 283.179917,275.482527 283.616917,282.272527 L298.090917,278.369527 C298.090917,278.369527 298.879917,281.649527 299.128917,282.646527 C299.377917,283.643527 299.191917,284.702527 297.197917,285.076527 C295.204917,285.450527 276.327917,287.631527 261.251917,285.885527 C261.251917,285.885527 264.926917,279.593527 279.815917,273.737527" id="Fill-32" fill="#18417F"></path>
                <g id="Group-36" transform="translate(365.110317, 244.037027)">
                    <mask id="mask-11" fill="white">
                        <use xlink:href="#path-10"></use>
                    </mask>
                    <g id="Clip-35"></g>
                    <path d="M1.736,7.008 L8.948,18.775 C8.948,18.775 -0.361,40.383 0.116,41.594 C0.595,42.803 26.356,22.35 25.664,21.468 C24.968,20.589 10.057,0.454 10.057,0.454 L1.736,7.008 Z" id="Fill-34" fill="url(#linearGradient-12)" mask="url(#mask-11)"></path>
                </g>
                <g id="Group-39" transform="translate(363.110317, 261.037027)">
                    <mask id="mask-14" fill="white">
                        <use xlink:href="#path-13"></use>
                    </mask>
                    <g id="Clip-38"></g>
                    <path d="M7.4175,7.9662 C7.4175,7.9662 11.1405,7.2532 15.6845,12.3202 L24.6405,0.2952 C24.6405,0.2952 27.2875,2.3822 28.1015,3.0132 C28.9155,3.6422 29.4215,4.5882 28.0875,6.1142 C26.7545,7.6432 13.2735,21.0392 0.3535,29.0002 C0.3535,29.0002 -0.6535,21.7802 7.4175,7.9662" id="Fill-37" fill="#18417F" mask="url(#mask-14)"></path>
                </g>
                <g id="Group-42" transform="translate(280.110317, 128.037027)">
                    <mask id="mask-16" fill="white">
                        <use xlink:href="#path-15"></use>
                    </mask>
                    <g id="Clip-41"></g>
                    <path d="M14.284,0.555 C14.284,0.555 -0.917,68.636 0.08,134.674 L20.265,135.921 C20.265,135.921 24.251,80.847 43.44,37.736 L43.44,0.555 L14.284,0.555 Z" id="Fill-40" fill="url(#linearGradient-17)" mask="url(#mask-16)"></path>
                </g>
                <g id="Group-45" transform="translate(305.110317, 133.037027)">
                    <mask id="mask-19" fill="white">
                        <use xlink:href="#path-18"></use>
                    </mask>
                    <g id="Clip-44"></g>
                    <path d="M0.249,2.084 C0.249,2.084 14.952,100.767 61.303,129.674 L77.749,118.211 C77.749,118.211 41.616,82.326 38.875,0.589 L0.249,2.084 Z" id="Fill-43" fill="url(#linearGradient-20)" mask="url(#mask-19)"></path>
                </g>
                <path d="M316.323717,55.0120268 L310.095717,56.0330268 L290.805717,133.461027 C290.805717,133.461027 318.647717,151.238027 350.380717,133.461027 L335.243717,53.9630268 L330.644717,52.9600268 L316.323717,55.0120268 Z" id="Fill-46" fill="#194280"></path>
                <g id="Group-50" transform="translate(405.110317, 63.037027)">
                    <mask id="mask-22" fill="white">
                        <use xlink:href="#path-21"></use>
                    </mask>
                    <g id="Clip-49"></g>
                    <path d="M10.295,0.706 C9.341,1.078 7.43,3.363 5.143,5.979 C2.858,8.595 0.797,10.979 0.797,10.979 L3.442,13.663 C3.442,13.663 6.847,9.135 7.969,7.848 C9.089,6.561 11.748,3.321 12.245,1.992 C12.618,0.998 11.876,0.562 11.079,0.562 C10.81,0.562 10.535,0.611 10.295,0.706" id="Fill-48" fill="url(#linearGradient-23)" mask="url(#mask-22)"></path>
                </g>
                <g id="Group-53" transform="translate(409.110317, 75.037027)">
                    <mask id="mask-25" fill="white">
                        <use xlink:href="#path-24"></use>
                    </mask>
                    <g id="Clip-52"></g>
                    <path d="M7.233,1.864 C3.873,2.751 0.833,3.569 0.833,3.569 L1.519,7.275 C1.519,7.275 6.877,5.43 8.526,4.995 C10.178,4.554 14.191,3.359 15.35,2.538 C16.508,1.716 15.453,0.604 14.454,0.378 C14.342,0.353 14.205,0.341 14.047,0.341 C12.803,0.341 10.213,1.076 7.233,1.864" id="Fill-51" fill="url(#linearGradient-26)" mask="url(#mask-25)"></path>
                </g>
                <g id="Group-56" transform="translate(410.110317, 81.037027)">
                    <mask id="mask-28" fill="white">
                        <use xlink:href="#path-27"></use>
                    </mask>
                    <g id="Clip-55"></g>
                    <path d="M0.176,3.859 C0.176,3.859 5.075,3.536 6.551,3.546 C8.033,3.554 11.658,3.468 12.814,3.045 C13.968,2.624 13.337,1.456 12.555,1.036 C11.772,0.623 9.193,0.658 6.185,0.635 C3.175,0.614 0.446,0.604 0.446,0.604 L0.176,3.859 Z" id="Fill-54" fill="url(#linearGradient-29)" mask="url(#mask-28)"></path>
                </g>
                <g id="Group-59" transform="translate(408.110317, 68.037027)">
                    <mask id="mask-31" fill="white">
                        <use xlink:href="#path-30"></use>
                    </mask>
                    <g id="Clip-58"></g>
                    <path d="M13.149,0.51 C12.127,0.579 9.616,2.178 6.647,3.983 C3.678,5.788 0.995,7.437 0.995,7.437 L2.704,10.793 C2.704,10.793 7.317,7.505 8.775,6.617 C10.233,5.729 13.745,3.444 14.621,2.329 C15.462,1.256 14.277,0.506 13.277,0.506 C13.234,0.506 13.191,0.507 13.149,0.51" id="Fill-57" fill="url(#linearGradient-32)" mask="url(#mask-31)"></path>
                </g>
                <g id="Group-62" transform="translate(398.110317, 72.037027)">
                    <mask id="mask-34" fill="white">
                        <use xlink:href="#path-33"></use>
                    </mask>
                    <g id="Clip-61"></g>
                    <path d="M4.891,3.569 L0.313,12.063 L2.859,16.568 C2.859,16.568 13.241,14.161 14.488,13.164 C15.734,12.166 14.737,8.179 13.409,5.189 C12.081,2.199 9.942,0.539 9.333,0.207 C9.307,0.193 9.274,0.186 9.237,0.186 C8.4,0.186 4.891,3.569 4.891,3.569" id="Fill-60" fill="url(#linearGradient-35)" mask="url(#mask-34)"></path>
                </g>
                <g id="Group-65" transform="translate(396.110317, 64.037027)">
                    <mask id="mask-37" fill="white">
                        <use xlink:href="#path-36"></use>
                    </mask>
                    <g id="Clip-64"></g>
                    <path d="M6.366,1.397 C6.126,2.455 5.209,4.897 4.257,7.044 C3.303,9.192 3.113,10.445 2.807,12.983 C2.501,15.517 0.392,17.545 0.392,17.545 L2.549,22.412 C12.694,18.948 8.654,10.037 8.32,9.125 C7.99,8.216 8.375,6.708 8.729,3.869 C8.98,1.86 7.814,0.925 7.025,0.925 C6.698,0.925 6.436,1.086 6.366,1.397" id="Fill-63" fill="url(#linearGradient-38)" mask="url(#mask-37)"></path>
                </g>
                <g id="Group-70" transform="translate(282.110317, 54.037027)">
                    <path d="M16.0308,13.7367 C16.0308,13.7367 15.2008,21.2897 15.7188,26.9647 C18.2538,27.0307 20.7668,26.9707 23.2508,26.7597 L16.0308,13.7367 Z" id="Fill-66" fill="#41A5F7"></path>
                    <path d="M30.8922,0.975 C30.8922,0.975 17.7682,62.646 16.1062,99.195 C16.1062,99.195 7.1322,94.706 0.9872,83.412 C0.9872,83.412 12.1172,19.546 19.4272,0.975 L30.8922,0.975 Z" id="Fill-68" fill="#6DB8FF"></path>
                </g>
                <g id="Group-73" transform="translate(312.110317, 43.037027)">
                    <mask id="mask-40" fill="white">
                        <use xlink:href="#path-39"></use>
                    </mask>
                    <g id="Clip-72"></g>
                    <path d="M0.892,0.297 L0.892,9.435 L0.892,16.08 C0.892,17.491 1.727,23.308 6.252,23.639 C10.776,23.97 16.842,18.32 17.673,14.251 C18.502,10.182 20.413,0.297 20.413,0.297 L0.892,0.297 Z" id="Fill-71" fill="url(#linearGradient-41)" mask="url(#mask-40)"></path>
                </g>
                <path d="M318.247617,31.2004268 C316.196617,39.2874268 310.944617,42.8004268 308.298617,42.3474268 C305.650617,41.8984268 298.894617,36.4914268 298.894617,28.3284268 C298.894617,18.9814268 305.485617,14.3714268 309.424617,14.3084268 C314.828617,14.2234268 321.343617,18.9814268 318.247617,31.2004268" id="Fill-74" fill="#544DB8"></path>
                <g id="Group-78" transform="translate(300.110317, 8.037027)">
                    <mask id="mask-43" fill="white">
                        <use xlink:href="#path-42"></use>
                    </mask>
                    <g id="Clip-77"></g>
                    <path d="M21.378,0.742 C10.289,0.746 5.56,2.734 2.695,12.579 C2.695,12.579 0.203,23.73 0.826,32.265 C1.449,40.8 6.993,47.592 13.908,47.964 C23.432,48.476 30.231,42.73 32.599,36.19 C32.599,36.19 39.327,32.888 41.694,21.487 C44.06,10.089 32.66,0.742 21.386,0.742 C21.384,0.742 21.381,0.742 21.378,0.742" id="Fill-76" fill="url(#linearGradient-44)" mask="url(#mask-43)"></path>
                </g>
                <path d="M325.014217,27.5852268 C327.022217,35.5052268 332.165217,38.9402268 334.756217,38.4992268 C337.346217,38.0592268 343.961217,32.7682268 343.961217,24.7732268 C343.961217,15.6212268 337.509217,11.1082268 333.653217,11.0462268 C328.361217,10.9602268 321.983217,15.6212268 325.014217,27.5852268" id="Fill-79" fill="#544DB8"></path>
                <g id="Group-83" transform="translate(330.110317, 32.037027)">
                    <mask id="mask-46" fill="white">
                        <use xlink:href="#path-45"></use>
                    </mask>
                    <g id="Clip-82"></g>
                    <path d="M1.367,5.524 C-0.625,15.366 3.797,13.685 7.536,11.318 C11.273,8.949 12.821,2.208 8.221,0.788 C7.776,0.651 7.352,0.589 6.948,0.589 C3.334,0.59 1.367,5.524 1.367,5.524" id="Fill-81" fill="url(#linearGradient-47)" mask="url(#mask-46)"></path>
                </g>
                <g id="Group-92" transform="translate(295.110317, 0.037027)">
                    <path d="M34.4097,21.0355 C31.4657,23.8765 20.9567,29.3395 11.3627,27.6035 C1.7697,25.8695 -0.4913,16.8835 0.6077,14.7805 C1.7057,12.6765 5.1757,13.4795 9.6217,7.9895 C14.0667,2.4995 20.7327,-0.7375 27.7377,1.1395 C37.6447,3.7965 42.9057,12.8375 34.4097,21.0355" id="Fill-84" fill="#544DB8"></path>
                    <path d="M35.5347,52.9232 C35.5347,52.9232 29.1877,116.8122 46.6317,156.1852 C46.6317,156.1852 61.0857,151.4062 69.4327,139.6942 C69.4327,139.6942 48.8787,96.0852 54.6057,54.9752 L35.5347,52.9232 Z" id="Fill-86" fill="#6DB8FF"></path>
                    <path d="M56.7711,99.7982 C55.8951,95.4642 55.1471,90.9202 54.5941,86.2472 L44.0781,80.9522 C44.0781,80.9522 47.8441,93.0992 56.7711,99.7982" id="Fill-88" fill="#41A5F7"></path>
                    <path d="M54.606,54.975 C54.606,54.975 64.658,81.593 77.7,85.33 C90.742,89.069 102.121,79.35 102.121,79.35 L106.94,88.652 C106.94,88.652 96.847,108.516 76.619,104.554 C57.762,100.861 45.637,86.02 43.725,80.026 L54.606,54.975 Z" id="Fill-90" fill="#6DB8FF"></path>
                </g>
            </g>
        </g>
    </g>
</svg>