<?xml version="1.0" encoding="UTF-8"?>
<svg width="72px" height="65px" viewBox="0 0 72 65" version="1.1" xmlns="http://www.w3.org/2000/svg" xmlns:xlink="http://www.w3.org/1999/xlink">
    <!-- Generator: Sketch 52.5 (67469) - http://www.bohemiancoding.com/sketch -->
    <title>Avoid multiple verification,</title>
    <desc>Created with Sketch.</desc>
    <g id="new" stroke="none" stroke-width="1" fill="none" fill-rule="evenodd">
        <g id="landing-page" transform="translate(-968.000000, -1174.000000)" fill="#415BF6">
            <path d="M1010.15303,1187.38368 C1011.19579,1180.12383 1017.4563,1174.52673 1025.00023,1174.52673 C1033.27153,1174.52673 1040,1181.2552 1040,1189.52651 C1040,1197.79781 1033.27153,1204.52628 1025.00023,1204.52628 C1017.4563,1204.52628 1011.19579,1198.92919 1010.15303,1191.66933 L991.57215,1191.66933 C979.863752,1191.66933 972.286722,1199.24208 972.286722,1210.95476 C972.286722,1212.13331 971.322451,1213.09759 970.143897,1213.09759 C968.965343,1213.09759 968.001071,1212.13331 968.001071,1210.95476 C968.001071,1196.85497 977.472359,1187.38368 991.57215,1187.38368 L1010.15303,1187.38368 Z M975.316677,1230.24019 L980.228033,1235.15154 C981.059449,1235.98296 981.059449,1237.3458 980.228033,1238.1815 C979.812325,1238.60149 979.263761,1238.81149 978.715198,1238.81149 C978.166635,1238.81149 977.618072,1238.60149 977.198078,1238.18578 L968.626776,1229.61448 C967.791075,1228.78307 967.791075,1227.42023 968.626776,1226.58453 L977.198078,1218.01323 C978.029494,1217.18181 979.392331,1217.18181 980.228033,1218.01323 C981.059449,1218.84893 981.059449,1220.21177 980.228033,1221.04318 L975.316677,1225.95454 L1016.42892,1225.95454 C1028.13732,1225.95454 1035.71435,1218.37751 1035.71435,1206.66911 C1035.71435,1205.48627 1036.67862,1204.52628 1037.85718,1204.52628 C1039.03573,1204.52628 1040,1205.48627 1040,1206.66911 C1040,1220.7689 1030.52871,1230.24019 1016.42892,1230.24019 L975.316677,1230.24019 Z M1025.00023,1178.81238 C1019.09031,1178.81238 1014.2861,1183.62088 1014.2861,1189.52651 C1014.2861,1195.43213 1019.09031,1200.24063 1025.00023,1200.24063 C1030.91014,1200.24063 1035.71435,1195.43213 1035.71435,1189.52651 C1035.71435,1183.62088 1030.91014,1178.81238 1025.00023,1178.81238 Z" id="Avoid-multiple-verification,"></path>
        </g>
    </g>
</svg>