<?xml version="1.0" encoding="UTF-8"?>
<svg width="20px" height="20px" viewBox="0 0 20 20" version="1.1" xmlns="http://www.w3.org/2000/svg" xmlns:xlink="http://www.w3.org/1999/xlink">
    <!-- Generator: Sketch 51.2 (57519) - http://www.bohemiancoding.com/sketch -->
    <title>3</title>
    <desc>Created with Sketch.</desc>
    <defs></defs>
    <g id="Page-1" stroke="none" stroke-width="1" fill="none" fill-rule="evenodd">
        <g id="Register" transform="translate(-73.000000, -246.000000)" fill="#0A090B">
            <path d="M82,265.333333 L90,265.333333 L90,254.666667 L82,254.666667 L82,265.333333 Z M78.6666667,265.333333 L78.6666667,262.333333 C78.6666667,262.14925 78.8159167,262 79,262 L79.6666667,262 C79.85075,262 80,262.14925 80,262.333333 L80,265.333333 L78.6666667,265.333333 Z M77,246.666667 L85,246.666667 L85,254 L81.6666667,254 C81.4825833,254 81.3333333,254.14925 81.3333333,254.333333 L81.3333333,265.333333 L80.6666667,265.333333 L80.6666667,262.333333 C80.6666667,261.781042 80.2189583,261.333333 79.6666667,261.333333 L79,261.333333 C78.4477083,261.333333 78,261.781042 78,262.333333 L78,265.333333 L77,265.333333 L77,246.666667 Z M92.6666667,265.333333 L90.6666667,265.333333 L90.6666667,254.333333 C90.6666667,254.14925 90.5174167,254 90.3333333,254 L85.6666667,254 L85.6666667,246.333333 C85.6666667,246.14925 85.5174167,246 85.3333333,246 L76.6666667,246 C76.4825833,246 76.3333333,246.14925 76.3333333,246.333333 L76.3333333,265.333333 L73.3333333,265.333333 C73.14925,265.333333 73,265.482583 73,265.666667 C73,265.85075 73.14925,266 73.3333333,266 L92.6666667,266 C92.85075,266 93,265.85075 93,265.666667 C93,265.482583 92.85075,265.333333 92.6666667,265.333333 Z M82,252.666667 L83.3333333,252.666667 L83.3333333,251.333333 L82,251.333333 L82,252.666667 Z M81.6666667,253.333333 L83.6666667,253.333333 C83.85075,253.333333 84,253.184083 84,253 L84,251 C84,250.815917 83.85075,250.666667 83.6666667,250.666667 L81.6666667,250.666667 C81.4825833,250.666667 81.3333333,250.815917 81.3333333,251 L81.3333333,253 C81.3333333,253.184083 81.4825833,253.333333 81.6666667,253.333333 Z M82,249.333333 L83.3333333,249.333333 L83.3333333,248 L82,248 L82,249.333333 Z M81.6666667,250 L83.6666667,250 C83.85075,250 84,249.85075 84,249.666667 L84,247.666667 C84,247.482583 83.85075,247.333333 83.6666667,247.333333 L81.6666667,247.333333 C81.4825833,247.333333 81.3333333,247.482583 81.3333333,247.666667 L81.3333333,249.666667 C81.3333333,249.85075 81.4825833,250 81.6666667,250 Z M78.6666667,252.666667 L80,252.666667 L80,251.333333 L78.6666667,251.333333 L78.6666667,252.666667 Z M78.3333333,253.333333 L80.3333333,253.333333 C80.5174167,253.333333 80.6666667,253.184083 80.6666667,253 L80.6666667,251 C80.6666667,250.815917 80.5174167,250.666667 80.3333333,250.666667 L78.3333333,250.666667 C78.14925,250.666667 78,250.815917 78,251 L78,253 C78,253.184083 78.14925,253.333333 78.3333333,253.333333 Z M78.6666667,249.333333 L80,249.333333 L80,248 L78.6666667,248 L78.6666667,249.333333 Z M78.3333333,250 L80.3333333,250 C80.5174167,250 80.6666667,249.85075 80.6666667,249.666667 L80.6666667,247.666667 C80.6666667,247.482583 80.5174167,247.333333 80.3333333,247.333333 L78.3333333,247.333333 C78.14925,247.333333 78,247.482583 78,247.666667 L78,249.666667 C78,249.85075 78.14925,250 78.3333333,250 Z M78.6666667,256 L80,256 L80,254.666667 L78.6666667,254.666667 L78.6666667,256 Z M78.3333333,256.666667 L80.3333333,256.666667 C80.5174167,256.666667 80.6666667,256.517417 80.6666667,256.333333 L80.6666667,254.333333 C80.6666667,254.14925 80.5174167,254 80.3333333,254 L78.3333333,254 C78.14925,254 78,254.14925 78,254.333333 L78,256.333333 C78,256.517417 78.14925,256.666667 78.3333333,256.666667 Z M78.6666667,259.333333 L80,259.333333 L80,258 L78.6666667,258 L78.6666667,259.333333 Z M78.3333333,260 L80.3333333,260 C80.5174167,260 80.6666667,259.85075 80.6666667,259.666667 L80.6666667,257.666667 C80.6666667,257.482583 80.5174167,257.333333 80.3333333,257.333333 L78.3333333,257.333333 C78.14925,257.333333 78,257.482583 78,257.666667 L78,259.666667 C78,259.85075 78.14925,260 78.3333333,260 Z M87,260.666667 L88.3333333,260.666667 L88.3333333,259.333333 L87,259.333333 L87,260.666667 Z M88.6666667,258.666667 L86.6666667,258.666667 C86.4825833,258.666667 86.3333333,258.815917 86.3333333,259 L86.3333333,261 C86.3333333,261.184083 86.4825833,261.333333 86.6666667,261.333333 L88.6666667,261.333333 C88.85075,261.333333 89,261.184083 89,261 L89,259 C89,258.815917 88.85075,258.666667 88.6666667,258.666667 Z M87,257.333333 L88.3333333,257.333333 L88.3333333,256 L87,256 L87,257.333333 Z M88.6666667,255.333333 L86.6666667,255.333333 C86.4825833,255.333333 86.3333333,255.482583 86.3333333,255.666667 L86.3333333,257.666667 C86.3333333,257.85075 86.4825833,258 86.6666667,258 L88.6666667,258 C88.85075,258 89,257.85075 89,257.666667 L89,255.666667 C89,255.482583 88.85075,255.333333 88.6666667,255.333333 Z M87,264 L88.3333333,264 L88.3333333,262.666667 L87,262.666667 L87,264 Z M88.6666667,262 L86.6666667,262 C86.4825833,262 86.3333333,262.14925 86.3333333,262.333333 L86.3333333,264.333333 C86.3333333,264.517417 86.4825833,264.666667 86.6666667,264.666667 L88.6666667,264.666667 C88.85075,264.666667 89,264.517417 89,264.333333 L89,262.333333 C89,262.14925 88.85075,262 88.6666667,262 Z M83.6666667,260.666667 L85,260.666667 L85,259.333333 L83.6666667,259.333333 L83.6666667,260.666667 Z M85.3333333,258.666667 L83.3333333,258.666667 C83.14925,258.666667 83,258.815917 83,259 L83,261 C83,261.184083 83.14925,261.333333 83.3333333,261.333333 L85.3333333,261.333333 C85.5174167,261.333333 85.6666667,261.184083 85.6666667,261 L85.6666667,259 C85.6666667,258.815917 85.5174167,258.666667 85.3333333,258.666667 Z M83.6666667,257.333333 L85,257.333333 L85,256 L83.6666667,256 L83.6666667,257.333333 Z M85.3333333,255.333333 L83.3333333,255.333333 C83.14925,255.333333 83,255.482583 83,255.666667 L83,257.666667 C83,257.85075 83.14925,258 83.3333333,258 L85.3333333,258 C85.5174167,258 85.6666667,257.85075 85.6666667,257.666667 L85.6666667,255.666667 C85.6666667,255.482583 85.5174167,255.333333 85.3333333,255.333333 Z M83.6666667,264 L85,264 L85,262.666667 L83.6666667,262.666667 L83.6666667,264 Z M85.3333333,262 L83.3333333,262 C83.14925,262 83,262.14925 83,262.333333 L83,264.333333 C83,264.517417 83.14925,264.666667 83.3333333,264.666667 L85.3333333,264.666667 C85.5174167,264.666667 85.6666667,264.517417 85.6666667,264.333333 L85.6666667,262.333333 C85.6666667,262.14925 85.5174167,262 85.3333333,262 Z" id="3"></path>
        </g>
    </g>
</svg>