<?xml version="1.0" encoding="UTF-8"?>
<svg width="39px" height="39px" viewBox="0 0 39 39" version="1.1" xmlns="http://www.w3.org/2000/svg" xmlns:xlink="http://www.w3.org/1999/xlink">
    <!-- Generator: Sketch 52.5 (67469) - http://www.bohemiancoding.com/sketch -->
    <title>Group 34</title>
    <desc>Created with Sketch.</desc>
    <g id="new" stroke="none" stroke-width="1" fill="none" fill-rule="evenodd">
        <g id="Group-34">
            <circle id="Oval-4-Copy-2" fill="#415BF6" cx="19.8083964" cy="19.3676492" r="19"></circle>
            <g id="photo-camera-copy" transform="translate(9.808396, 10.276740)" fill="#FFFFFF">
                <path d="M19.1549108,3.45618213 C18.6357471,2.93712754 18.0095289,2.67752751 17.2758197,2.67752751 L14.9502559,2.67752751 L14.420874,1.26567284 C14.2893104,0.926581901 14.0489103,0.634109148 13.6992012,0.388290944 C13.3496376,0.142581831 12.9914921,0.0196363654 12.6246193,0.0196363654 L7.30894611,0.0196363654 C6.94210971,0.0196363654 6.5838915,0.142581831 6.23432783,0.388290944 C5.88476416,0.634109148 5.64432778,0.926581901 5.51280049,1.26567284 L4.9833459,2.67752751 L2.65778206,2.67752751 C1.92400017,2.67752751 1.29774557,2.93712754 0.778581888,3.45618213 C0.259527296,3.97527308 0,4.60160041 0,5.33530957 L0,14.6376013 C0,15.3713468 0.259527296,15.9977469 0.778581888,16.5166924 C1.29774557,17.0358561 1.92403654,17.2954561 2.65778206,17.2954561 L17.2755652,17.2954561 C18.0092743,17.2954561 18.6354562,17.0358561 19.1546563,16.5166924 C19.6736745,15.9977469 19.9332745,15.3713468 19.9332745,14.6376013 L19.9332745,5.33530957 C19.93342,4.60160041 19.6738199,3.97527308 19.1549108,3.45618213 Z M13.252583,13.2724739 C12.3424375,14.1826558 11.2472374,14.6378559 9.9666918,14.6378559 C8.68614623,14.6378559 7.59101886,14.1826558 6.6808006,13.2724739 C5.77058233,12.3624375 5.31556411,11.2669828 5.31556411,9.98672817 C5.31556411,8.70607351 5.77072779,7.6109825 6.6808006,6.70076424 C7.59090977,5.79054597 8.68618259,5.33552775 9.9666918,5.33552775 C11.247201,5.33552775 12.3424375,5.79065506 13.252583,6.70076424 C14.1627649,7.61087341 14.6178559,8.70607351 14.6178559,9.98672817 C14.6178559,11.2669828 14.1628013,12.3623284 13.252583,13.2724739 Z" id="Shape" fill-rule="nonzero"></path>
                <path d="M9.9666918,6.99647335 C9.143019,6.99647335 8.43876439,7.28890974 7.85389161,7.87385525 C7.26901883,8.45872803 6.97658244,9.16287355 6.97658244,9.98672817 C6.97658244,10.8102555 7.26901883,11.5145101 7.85389161,12.0993829 C8.43876439,12.6841466 9.14298264,12.976583 9.9666918,12.976583 C10.7902555,12.976583 11.4945828,12.6841466 12.0794556,12.0993829 C12.6643284,11.5145101 12.9568012,10.8102919 12.9568012,9.98672817 C12.9568012,9.16290991 12.6643284,8.45876439 12.0794556,7.87385525 C11.4946192,7.28894611 10.7902555,6.99647335 9.9666918,6.99647335 Z" id="Path"></path>
            </g>
        </g>
    </g>
</svg>