<?xml version="1.0" encoding="UTF-8"?>
<svg width="21px" height="21px" viewBox="0 0 21 21" version="1.1" xmlns="http://www.w3.org/2000/svg" xmlns:xlink="http://www.w3.org/1999/xlink">
    <!-- Generator: Sketch 52.5 (67469) - http://www.bohemiancoding.com/sketch -->
    <title>Company Name</title>
    <desc>Created with Sketch.</desc>
    <g id="new" stroke="none" stroke-width="1" fill="none" fill-rule="evenodd">
        <g id="register" transform="translate(-676.000000, -303.000000)" fill="#0A090B">
            <path d="M685.424701,322.660015 L693.424701,322.660015 L693.424701,311.993349 L685.424701,311.993349 L685.424701,322.660015 Z M682.091368,322.660015 L682.091368,319.660015 C682.091368,319.475932 682.240618,319.326682 682.424701,319.326682 L683.091368,319.326682 C683.275451,319.326682 683.424701,319.475932 683.424701,319.660015 L683.424701,322.660015 L682.091368,322.660015 Z M680.424701,303.993349 L688.424701,303.993349 L688.424701,311.326682 L685.091368,311.326682 C684.907284,311.326682 684.758034,311.475932 684.758034,311.660015 L684.758034,322.660015 L684.091368,322.660015 L684.091368,319.660015 C684.091368,319.107724 683.643659,318.660015 683.091368,318.660015 L682.424701,318.660015 C681.872409,318.660015 681.424701,319.107724 681.424701,319.660015 L681.424701,322.660015 L680.424701,322.660015 L680.424701,303.993349 Z M696.091368,322.660015 L694.091368,322.660015 L694.091368,311.660015 C694.091368,311.475932 693.942118,311.326682 693.758034,311.326682 L689.091368,311.326682 L689.091368,303.660015 C689.091368,303.475932 688.942118,303.326682 688.758034,303.326682 L680.091368,303.326682 C679.907284,303.326682 679.758034,303.475932 679.758034,303.660015 L679.758034,322.660015 L676.758034,322.660015 C676.573951,322.660015 676.424701,322.809265 676.424701,322.993349 C676.424701,323.177432 676.573951,323.326682 676.758034,323.326682 L696.091368,323.326682 C696.275451,323.326682 696.424701,323.177432 696.424701,322.993349 C696.424701,322.809265 696.275451,322.660015 696.091368,322.660015 Z M685.424701,309.993349 L686.758034,309.993349 L686.758034,308.660015 L685.424701,308.660015 L685.424701,309.993349 Z M685.091368,310.660015 L687.091368,310.660015 C687.275451,310.660015 687.424701,310.510765 687.424701,310.326682 L687.424701,308.326682 C687.424701,308.142599 687.275451,307.993349 687.091368,307.993349 L685.091368,307.993349 C684.907284,307.993349 684.758034,308.142599 684.758034,308.326682 L684.758034,310.326682 C684.758034,310.510765 684.907284,310.660015 685.091368,310.660015 Z M685.424701,306.660015 L686.758034,306.660015 L686.758034,305.326682 L685.424701,305.326682 L685.424701,306.660015 Z M685.091368,307.326682 L687.091368,307.326682 C687.275451,307.326682 687.424701,307.177432 687.424701,306.993349 L687.424701,304.993349 C687.424701,304.809265 687.275451,304.660015 687.091368,304.660015 L685.091368,304.660015 C684.907284,304.660015 684.758034,304.809265 684.758034,304.993349 L684.758034,306.993349 C684.758034,307.177432 684.907284,307.326682 685.091368,307.326682 Z M682.091368,309.993349 L683.424701,309.993349 L683.424701,308.660015 L682.091368,308.660015 L682.091368,309.993349 Z M681.758034,310.660015 L683.758034,310.660015 C683.942118,310.660015 684.091368,310.510765 684.091368,310.326682 L684.091368,308.326682 C684.091368,308.142599 683.942118,307.993349 683.758034,307.993349 L681.758034,307.993349 C681.573951,307.993349 681.424701,308.142599 681.424701,308.326682 L681.424701,310.326682 C681.424701,310.510765 681.573951,310.660015 681.758034,310.660015 Z M682.091368,306.660015 L683.424701,306.660015 L683.424701,305.326682 L682.091368,305.326682 L682.091368,306.660015 Z M681.758034,307.326682 L683.758034,307.326682 C683.942118,307.326682 684.091368,307.177432 684.091368,306.993349 L684.091368,304.993349 C684.091368,304.809265 683.942118,304.660015 683.758034,304.660015 L681.758034,304.660015 C681.573951,304.660015 681.424701,304.809265 681.424701,304.993349 L681.424701,306.993349 C681.424701,307.177432 681.573951,307.326682 681.758034,307.326682 Z M682.091368,313.326682 L683.424701,313.326682 L683.424701,311.993349 L682.091368,311.993349 L682.091368,313.326682 Z M681.758034,313.993349 L683.758034,313.993349 C683.942118,313.993349 684.091368,313.844099 684.091368,313.660015 L684.091368,311.660015 C684.091368,311.475932 683.942118,311.326682 683.758034,311.326682 L681.758034,311.326682 C681.573951,311.326682 681.424701,311.475932 681.424701,311.660015 L681.424701,313.660015 C681.424701,313.844099 681.573951,313.993349 681.758034,313.993349 Z M682.091368,316.660015 L683.424701,316.660015 L683.424701,315.326682 L682.091368,315.326682 L682.091368,316.660015 Z M681.758034,317.326682 L683.758034,317.326682 C683.942118,317.326682 684.091368,317.177432 684.091368,316.993349 L684.091368,314.993349 C684.091368,314.809265 683.942118,314.660015 683.758034,314.660015 L681.758034,314.660015 C681.573951,314.660015 681.424701,314.809265 681.424701,314.993349 L681.424701,316.993349 C681.424701,317.177432 681.573951,317.326682 681.758034,317.326682 Z M690.424701,317.993349 L691.758034,317.993349 L691.758034,316.660015 L690.424701,316.660015 L690.424701,317.993349 Z M692.091368,315.993349 L690.091368,315.993349 C689.907284,315.993349 689.758034,316.142599 689.758034,316.326682 L689.758034,318.326682 C689.758034,318.510765 689.907284,318.660015 690.091368,318.660015 L692.091368,318.660015 C692.275451,318.660015 692.424701,318.510765 692.424701,318.326682 L692.424701,316.326682 C692.424701,316.142599 692.275451,315.993349 692.091368,315.993349 Z M690.424701,314.660015 L691.758034,314.660015 L691.758034,313.326682 L690.424701,313.326682 L690.424701,314.660015 Z M692.091368,312.660015 L690.091368,312.660015 C689.907284,312.660015 689.758034,312.809265 689.758034,312.993349 L689.758034,314.993349 C689.758034,315.177432 689.907284,315.326682 690.091368,315.326682 L692.091368,315.326682 C692.275451,315.326682 692.424701,315.177432 692.424701,314.993349 L692.424701,312.993349 C692.424701,312.809265 692.275451,312.660015 692.091368,312.660015 Z M690.424701,321.326682 L691.758034,321.326682 L691.758034,319.993349 L690.424701,319.993349 L690.424701,321.326682 Z M692.091368,319.326682 L690.091368,319.326682 C689.907284,319.326682 689.758034,319.475932 689.758034,319.660015 L689.758034,321.660015 C689.758034,321.844099 689.907284,321.993349 690.091368,321.993349 L692.091368,321.993349 C692.275451,321.993349 692.424701,321.844099 692.424701,321.660015 L692.424701,319.660015 C692.424701,319.475932 692.275451,319.326682 692.091368,319.326682 Z M687.091368,317.993349 L688.424701,317.993349 L688.424701,316.660015 L687.091368,316.660015 L687.091368,317.993349 Z M688.758034,315.993349 L686.758034,315.993349 C686.573951,315.993349 686.424701,316.142599 686.424701,316.326682 L686.424701,318.326682 C686.424701,318.510765 686.573951,318.660015 686.758034,318.660015 L688.758034,318.660015 C688.942118,318.660015 689.091368,318.510765 689.091368,318.326682 L689.091368,316.326682 C689.091368,316.142599 688.942118,315.993349 688.758034,315.993349 Z M687.091368,314.660015 L688.424701,314.660015 L688.424701,313.326682 L687.091368,313.326682 L687.091368,314.660015 Z M688.758034,312.660015 L686.758034,312.660015 C686.573951,312.660015 686.424701,312.809265 686.424701,312.993349 L686.424701,314.993349 C686.424701,315.177432 686.573951,315.326682 686.758034,315.326682 L688.758034,315.326682 C688.942118,315.326682 689.091368,315.177432 689.091368,314.993349 L689.091368,312.993349 C689.091368,312.809265 688.942118,312.660015 688.758034,312.660015 Z M687.091368,321.326682 L688.424701,321.326682 L688.424701,319.993349 L687.091368,319.993349 L687.091368,321.326682 Z M688.758034,319.326682 L686.758034,319.326682 C686.573951,319.326682 686.424701,319.475932 686.424701,319.660015 L686.424701,321.660015 C686.424701,321.844099 686.573951,321.993349 686.758034,321.993349 L688.758034,321.993349 C688.942118,321.993349 689.091368,321.844099 689.091368,321.660015 L689.091368,319.660015 C689.091368,319.475932 688.942118,319.326682 688.758034,319.326682 Z" id="Company-Name"></path>
        </g>
    </g>
</svg>