<?xml version="1.0" encoding="UTF-8"?>
<svg width="490px" height="414px" viewBox="0 0 490 414" version="1.1" xmlns="http://www.w3.org/2000/svg" xmlns:xlink="http://www.w3.org/1999/xlink">
    <!-- Generator: Sketch 52.5 (67469) - http://www.bohemiancoding.com/sketch -->
    <title>Creating issuers</title>
    <desc>Created with Sketch.</desc>
    <defs>
        <polygon id="path-1" points="0.0650594192 0.628862507 79.8227322 0.628862507 79.8227322 154.516121 0.0650594192 154.516121"></polygon>
    </defs>
    <g id="new" stroke="none" stroke-width="1" fill="none" fill-rule="evenodd">
        <g id="landing-page" transform="translate(-757.000000, -2010.000000)">
            <g id="Creating-issuers" transform="translate(757.000000, 2008.000000)">
                <g id="Group-5" transform="translate(0.000000, 0.907572)">
                    <rect id="Rectangle-Copy" fill="#39ADED" fill-rule="nonzero" opacity="0.664434524" x="64.2895922" y="83.1050866" width="334.153688" height="192.073062" rx="30"></rect>
                    <rect id="Rectangle" fill="#F4F4F4" fill-rule="nonzero" x="82.1359038" y="65.7249666" width="334.153688" height="192.073062" rx="15"></rect>
                    <g id="Group-3" transform="translate(0.064838, 0.617337)">
                        <path d="M130.206523,202.490874 L7.86756899,202.490874 C3.89363067,202.490874 0.671787754,199.269031 0.671787754,195.294381 L0.671787754,32.8631213 C0.671787754,28.88776 3.89363067,25.665917 7.86756899,25.665917 L130.206523,25.665917 C134.180461,25.665917 137.402304,28.88776 137.402304,32.8631213 L137.402304,195.294381 C137.402304,199.269031 134.180461,202.490874 130.206523,202.490874" id="Fill-7" fill="#544DB8"></path>
                        <path d="M31.219384,49.3685201 L22.1095662,49.3685201 C21.6257205,49.3685201 21.2329517,48.5801363 21.2329517,47.6067527 C21.2329517,46.633369 21.6257205,45.8456968 22.1095662,45.8456968 L31.219384,45.8456968 C31.7039412,45.8456968 32.0959985,46.633369 32.0959985,47.6067527 C32.0959985,48.5801363 31.7039412,49.3685201 31.219384,49.3685201" id="Fill-9" fill="#00CCFF"></path>
                        <path d="M87.6205619,49.3685201 L35.5082489,49.3685201 C35.0244032,49.3685201 34.6309229,48.5801363 34.6309229,47.6067527 C34.6309229,46.633369 35.0244032,45.8456968 35.5082489,45.8456968 L87.6205619,45.8456968 C88.1051191,45.8456968 88.4971764,46.633369 88.4971764,47.6067527 C88.4971764,48.5801363 88.1051191,49.3685201 87.6205619,49.3685201" id="Fill-11" fill="#00CCFF"></path>
                        <path d="M52.1319053,56.649259 L35.5082489,56.649259 C35.0244032,56.649259 34.6309229,55.8608752 34.6309229,54.8874915 C34.6309229,53.9148194 35.0244032,53.1264356 35.5082489,53.1264356 L52.1319053,53.1264356 C52.6164625,53.1264356 53.0085198,53.9148194 53.0085198,54.8874915 C53.0085198,55.8608752 52.6164625,56.649259 52.1319053,56.649259" id="Fill-13" fill="#FF56A9"></path>
                        <path d="M79.4726009,56.649259 L55.515125,56.649259 C55.0312793,56.649259 54.639222,55.8608752 54.639222,54.8874915 C54.639222,53.9148194 55.0312793,53.1264356 55.515125,53.1264356 L79.4726009,53.1264356 C79.9571581,53.1264356 80.3492154,53.9148194 80.3492154,54.8874915 C80.3492154,55.8608752 79.9571581,56.649259 79.4726009,56.649259" id="Fill-15" fill="#E3EAFF"></path>
                        <path d="M87.6205619,92.0989945 L35.5082489,92.0989945 C35.0244032,92.0989945 34.6309229,91.3106107 34.6309229,90.3372271 C34.6309229,89.364555 35.0244032,88.5754596 35.5082489,88.5754596 L87.6205619,88.5754596 C88.1051191,88.5754596 88.4971764,89.364555 88.4971764,90.3372271 C88.4971764,91.3106107 88.1051191,92.0989945 87.6205619,92.0989945" id="Fill-17" fill="#E3EAFF"></path>
                        <path d="M31.219384,99.3797334 L22.1095662,99.3797334 C21.6257205,99.3797334 21.2329517,98.5913495 21.2329517,97.6179659 C21.2329517,96.6452938 21.6257205,95.85691 22.1095662,95.85691 L31.219384,95.85691 C31.7039412,95.85691 32.0959985,96.6452938 32.0959985,97.6179659 C32.0959985,98.5913495 31.7039412,99.3797334 31.219384,99.3797334" id="Fill-19" fill="#00CCFF"></path>
                        <path d="M52.1319053,99.3797334 L35.5082489,99.3797334 C35.0244032,99.3797334 34.6309229,98.5913495 34.6309229,97.6179659 C34.6309229,96.6452938 35.0244032,95.85691 35.5082489,95.85691 L52.1319053,95.85691 C52.6164625,95.85691 53.0085198,96.6452938 53.0085198,97.6179659 C53.0085198,98.5913495 52.6164625,99.3797334 52.1319053,99.3797334" id="Fill-21" fill="#E3EAFF"></path>
                        <path d="M79.4726009,99.3797334 L55.515125,99.3797334 C55.0312793,99.3797334 54.639222,98.5913495 54.639222,97.6179659 C54.639222,96.6452938 55.0312793,95.85691 55.515125,95.85691 L79.4726009,95.85691 C79.9571581,95.85691 80.3492154,96.6452938 80.3492154,97.6179659 C80.3492154,98.5913495 79.9571581,99.3797334 79.4726009,99.3797334" id="Fill-23" fill="#FF56A9"></path>
                        <path d="M100.543582,63.9299978 L35.5083201,63.9299978 C35.0244744,63.9299978 34.630994,63.141614 34.630994,62.1682304 C34.630994,61.1955583 35.0244744,60.4071744 35.5083201,60.4071744 L100.543582,60.4071744 C101.028139,60.4071744 101.420196,61.1955583 101.420196,62.1682304 C101.420196,63.141614 101.028139,63.9299978 100.543582,63.9299978" id="Fill-25" fill="#FF56A9"></path>
                        <path d="M86.9132223,71.2107367 L71.771699,71.2107367 C71.2593918,71.2107367 70.8438538,70.7951986 70.8438538,70.2828914 L70.8438538,68.6157585 C70.8438538,68.1034513 71.2593918,67.6879133 71.771699,67.6879133 L86.9132223,67.6879133 C87.4255294,67.6879133 87.841779,68.1034513 87.841779,68.6157585 L87.841779,70.2828914 C87.841779,70.7951986 87.4255294,71.2107367 86.9132223,71.2107367" id="Fill-27" fill="#00CCFF"></path>
                        <path d="M57.1113176,71.2107367 L35.5083201,71.2107367 C35.0244744,71.2107367 34.630994,70.4223528 34.630994,69.4489692 C34.630994,68.4762971 35.0244744,67.6879133 35.5083201,67.6879133 L57.1113176,67.6879133 C57.5958748,67.6879133 57.9879321,68.4762971 57.9879321,69.4489692 C57.9879321,70.4223528 57.5958748,71.2107367 57.1113176,71.2107367" id="Fill-29" fill="#E3EAFF"></path>
                        <path d="M68.6084868,71.2107367 L60.0422839,71.2107367 C59.5577267,71.2107367 59.1656694,70.4223528 59.1656694,69.4489692 C59.1656694,68.4762971 59.5577267,67.6879133 60.0422839,67.6879133 L68.6084868,67.6879133 C69.0937556,67.6879133 69.4858129,68.4762971 69.4858129,69.4489692 C69.4858129,70.4223528 69.0937556,71.2107367 68.6084868,71.2107367" id="Fill-31" fill="#00CCFF"></path>
                        <path d="M31.219384,78.2489834 L22.1095662,78.2489834 C21.6257205,78.2489834 21.2329517,77.4613112 21.2329517,76.487216 C21.2329517,75.5145439 21.6257205,74.7261601 22.1095662,74.7261601 L31.219384,74.7261601 C31.7039412,74.7261601 32.0959985,75.5145439 32.0959985,76.487216 C32.0959985,77.4613112 31.7039412,78.2489834 31.219384,78.2489834" id="Fill-33" fill="#E3EAFF"></path>
                        <path d="M100.543582,78.2489834 L35.5083201,78.2489834 C35.0244744,78.2489834 34.630994,77.4613112 34.630994,76.487216 C34.630994,75.5145439 35.0244744,74.7261601 35.5083201,74.7261601 L100.543582,74.7261601 C101.028139,74.7261601 101.420196,75.5145439 101.420196,76.487216 C101.420196,77.4613112 101.028139,78.2489834 100.543582,78.2489834" id="Fill-35" fill="#E3EAFF"></path>
                        <path d="M31.219384,106.122692 L22.1095662,106.122692 C21.6257205,106.122692 21.2329517,105.334308 21.2329517,104.360925 C21.2329517,103.388252 21.6257205,102.599869 22.1095662,102.599869 L31.219384,102.599869 C31.7039412,102.599869 32.0959985,103.388252 32.0959985,104.360925 C32.0959985,105.334308 31.7039412,106.122692 31.219384,106.122692" id="Fill-37" fill="#E3EAFF"></path>
                        <path d="M93.2676813,106.122692 L71.9350681,106.122692 C71.3323956,106.122692 70.8435692,105.633866 70.8435692,105.031905 L70.8435692,103.691367 C70.8435692,103.087983 71.3323956,102.599869 71.9350681,102.599869 L93.2676813,102.599869 C93.8710653,102.599869 94.3591802,103.087983 94.3591802,103.690656 L94.3591802,105.031905 C94.3591802,105.633866 93.8710653,106.122692 93.2676813,106.122692" id="Fill-39" fill="#E3EAFF"></path>
                        <path d="M57.1113176,106.122692 L35.5083201,106.122692 C35.0244744,106.122692 34.630994,105.334308 34.630994,104.360925 C34.630994,103.388252 35.0244744,102.599869 35.5083201,102.599869 L57.1113176,102.599869 C57.5958748,102.599869 57.9879321,103.388252 57.9879321,104.360925 C57.9879321,105.334308 57.5958748,106.122692 57.1113176,106.122692" id="Fill-41" fill="#E3EAFF"></path>
                        <path d="M68.6084868,106.122692 L60.0422839,106.122692 C59.5577267,106.122692 59.1656694,105.334308 59.1656694,104.360925 C59.1656694,103.388252 59.5577267,102.599869 60.0422839,102.599869 L68.6084868,102.599869 C69.0937556,102.599869 69.4858129,103.388252 69.4858129,104.360925 C69.4858129,105.334308 69.0937556,106.122692 68.6084868,106.122692" id="Fill-43" fill="#E3EAFF"></path>
                        <path d="M31.219384,113.160939 L22.1095662,113.160939 C21.6257205,113.160939 21.2329517,112.373266 21.2329517,111.399171 C21.2329517,110.426499 21.6257205,109.638115 22.1095662,109.638115 L31.219384,109.638115 C31.7039412,109.638115 32.0959985,110.426499 32.0959985,111.399171 C32.0959985,112.373266 31.7039412,113.160939 31.219384,113.160939" id="Fill-45" fill="#FFC359"></path>
                        <path d="M46.7682626,113.160939 L35.5081778,113.160939 C35.0243321,113.160939 34.6308517,112.373266 34.6308517,111.399171 C34.6308517,110.426499 35.0243321,109.638115 35.5081778,109.638115 L46.7682626,109.638115 C47.2528198,109.638115 47.6448771,110.426499 47.6448771,111.399171 C47.6448771,112.373266 47.2528198,113.160939 46.7682626,113.160939" id="Fill-47" fill="#00CCFF"></path>
                        <path d="M22.1097797,85.5297223 C21.6252225,85.5297223 21.2331652,84.74205 21.2331652,83.7686664 C21.2331652,82.7959943 21.6252225,82.0068989 22.1097797,82.0068989 L31.2195974,82.0068989 C31.7034431,82.0068989 32.096212,82.7959943 32.096212,83.7686664 C32.096212,84.74205 31.7034431,85.5297223 31.2195974,85.5297223" id="Fill-49" fill="#00CCFF"></path>
                        <path d="M96.2549302,85.5297223 L72.0035892,85.5297223 C71.3632052,85.5297223 70.8437826,85.0110113 70.8437826,84.3699157 L70.8437826,83.167417 C70.8437826,82.5263214 71.3632052,82.0068989 72.0035892,82.0068989 L96.2549302,82.0068989 C96.8953142,82.0068989 97.4147367,82.5263214 97.4147367,83.167417 L97.4147367,84.3699157 C97.4147367,85.0110113 96.8953142,85.5297223 96.2549302,85.5297223" id="Fill-51" fill="#E3EAFF"></path>
                        <path d="M57.1113176,85.5297223 L35.5083201,85.5297223 C35.0244744,85.5297223 34.630994,84.74205 34.630994,83.7686664 C34.630994,82.7959943 35.0244744,82.0068989 35.5083201,82.0068989 L57.1113176,82.0068989 C57.5958748,82.0068989 57.9879321,82.7959943 57.9879321,83.7686664 C57.9879321,84.74205 57.5958748,85.5297223 57.1113176,85.5297223" id="Fill-53" fill="#FFC359"></path>
                        <path d="M68.6084868,85.5297223 L60.0422839,85.5297223 C59.5577267,85.5297223 59.1656694,84.74205 59.1656694,83.7686664 C59.1656694,82.7959943 59.5577267,82.0068989 60.0422839,82.0068989 L68.6084868,82.0068989 C69.0937556,82.0068989 69.4858129,82.7959943 69.4858129,83.7686664 C69.4858129,84.74205 69.0937556,85.5297223 68.6084868,85.5297223" id="Fill-55" fill="#FFC359"></path>
                        <path d="M87.6205619,120.646672 L35.5082489,120.646672 C35.0244032,120.646672 34.6309229,119.858288 34.6309229,118.884904 C34.6309229,117.912232 35.0244032,117.123848 35.5082489,117.123848 L87.6205619,117.123848 C88.1051191,117.123848 88.4971764,117.912232 88.4971764,118.884904 C88.4971764,119.858288 88.1051191,120.646672 87.6205619,120.646672" id="Fill-57" fill="#E3EAFF"></path>
                        <path d="M52.1319053,127.92741 L35.5082489,127.92741 C35.0244032,127.92741 34.6309229,127.139027 34.6309229,126.165643 C34.6309229,125.192971 35.0244032,124.404587 35.5082489,124.404587 L52.1319053,124.404587 C52.6164625,124.404587 53.0085198,125.192971 53.0085198,126.165643 C53.0085198,127.139027 52.6164625,127.92741 52.1319053,127.92741" id="Fill-59" fill="#E3EAFF"></path>
                        <path d="M79.4726009,127.92741 L55.515125,127.92741 C55.0312793,127.92741 54.639222,127.139027 54.639222,126.165643 C54.639222,125.192971 55.0312793,124.404587 55.515125,124.404587 L79.4726009,124.404587 C79.9571581,124.404587 80.3492154,125.192971 80.3492154,126.165643 C80.3492154,127.139027 79.9571581,127.92741 79.4726009,127.92741" id="Fill-61" fill="#E3EAFF"></path>
                        <path d="M87.6205619,163.377146 L35.5082489,163.377146 C35.0244032,163.377146 34.6309229,162.588762 34.6309229,161.615379 C34.6309229,160.642706 35.0244032,159.854323 35.5082489,159.854323 L87.6205619,159.854323 C88.1051191,159.854323 88.4971764,160.642706 88.4971764,161.615379 C88.4971764,162.588762 88.1051191,163.377146 87.6205619,163.377146" id="Fill-63" fill="#E3EAFF"></path>
                        <path d="M31.219384,170.657885 L22.1095662,170.657885 C21.6257205,170.657885 21.2329517,169.869501 21.2329517,168.896117 C21.2329517,167.923445 21.6257205,167.135061 22.1095662,167.135061 L31.219384,167.135061 C31.7039412,167.135061 32.0959985,167.923445 32.0959985,168.896117 C32.0959985,169.869501 31.7039412,170.657885 31.219384,170.657885" id="Fill-65" fill="#FF56A9"></path>
                        <path d="M52.1319053,170.657885 L35.5082489,170.657885 C35.0244032,170.657885 34.6309229,169.869501 34.6309229,168.896117 C34.6309229,167.923445 35.0244032,167.135061 35.5082489,167.135061 L52.1319053,167.135061 C52.6164625,167.135061 53.0085198,167.923445 53.0085198,168.896117 C53.0085198,169.869501 52.6164625,170.657885 52.1319053,170.657885" id="Fill-67" fill="#00CCFF"></path>
                        <path d="M79.4726009,170.657885 L55.515125,170.657885 C55.0312793,170.657885 54.639222,169.869501 54.639222,168.896117 C54.639222,167.923445 55.0312793,167.135061 55.515125,167.135061 L79.4726009,167.135061 C79.9571581,167.135061 80.3492154,167.923445 80.3492154,168.896117 C80.3492154,169.869501 79.9571581,170.657885 79.4726009,170.657885" id="Fill-69" fill="#E3EAFF"></path>
                        <path d="M31.219384,135.208149 L22.1095662,135.208149 C21.6257205,135.208149 21.2329517,134.419765 21.2329517,133.446382 C21.2329517,132.47371 21.6257205,131.685326 22.1095662,131.685326 L31.219384,131.685326 C31.7039412,131.685326 32.0959985,132.47371 32.0959985,133.446382 C32.0959985,134.419765 31.7039412,135.208149 31.219384,135.208149" id="Fill-71" fill="#FF56A9"></path>
                        <path d="M82.0297252,135.208149 L35.690118,135.208149 C35.1059455,135.208149 34.6313498,134.734265 34.6313498,134.149381 L34.6313498,132.744094 C34.6313498,132.15921 35.1052339,131.685326 35.690118,131.685326 L82.0297252,131.685326 C82.6138977,131.685326 83.0877819,132.15921 83.0877819,132.744094 L83.0877819,134.149381 C83.0877819,134.734265 82.6138977,135.208149 82.0297252,135.208149" id="Fill-73" fill="#FF56A9"></path>
                        <path d="M31.219384,142.4896 L22.1095662,142.4896 C21.6257205,142.4896 21.2329517,141.700504 21.2329517,140.727121 C21.2329517,139.754449 21.6257205,138.966065 22.1095662,138.966065 L31.219384,138.966065 C31.7039412,138.966065 32.0959985,139.754449 32.0959985,140.727121 C32.0959985,141.700504 31.7039412,142.4896 31.219384,142.4896" id="Fill-75" fill="#E3EAFF"></path>
                        <path d="M57.1113176,142.4896 L35.5083201,142.4896 C35.0244744,142.4896 34.630994,141.700504 34.630994,140.727121 C34.630994,139.754449 35.0244744,138.966065 35.5083201,138.966065 L57.1113176,138.966065 C57.5958748,138.966065 57.9879321,139.754449 57.9879321,140.727121 C57.9879321,141.700504 57.5958748,142.4896 57.1113176,142.4896" id="Fill-77" fill="#E3EAFF"></path>
                        <path d="M68.6084868,142.4896 L60.0422839,142.4896 C59.5577267,142.4896 59.1656694,141.700504 59.1656694,140.727121 C59.1656694,139.754449 59.5577267,138.966065 60.0422839,138.966065 L68.6084868,138.966065 C69.0937556,138.966065 69.4858129,139.754449 69.4858129,140.727121 C69.4858129,141.700504 69.0937556,142.4896 68.6084868,142.4896" id="Fill-79" fill="#E3EAFF"></path>
                        <path d="M31.219384,149.527135 L22.1095662,149.527135 C21.6257205,149.527135 21.2329517,148.739463 21.2329517,147.766079 C21.2329517,146.793407 21.6257205,146.004312 22.1095662,146.004312 L31.219384,146.004312 C31.7039412,146.004312 32.0959985,146.793407 32.0959985,147.766079 C32.0959985,148.739463 31.7039412,149.527135 31.219384,149.527135" id="Fill-81" fill="#E3EAFF"></path>
                        <path d="M94.4614993,149.527135 L35.8194044,149.527135 C35.1633666,149.527135 34.6311363,148.995616 34.6311363,148.339578 L34.6311363,147.19258 C34.6311363,146.536542 35.162655,146.004312 35.8194044,146.004312 L94.4614993,146.004312 C95.1175371,146.004312 95.6490558,146.536542 95.6490558,147.19258 L95.6490558,148.339578 C95.6490558,148.995616 95.1175371,149.527135 94.4614993,149.527135" id="Fill-83" fill="#E3EAFF"></path>
                        <path d="M31.219384,177.400843 L22.1095662,177.400843 C21.6257205,177.400843 21.2329517,176.61246 21.2329517,175.639076 C21.2329517,174.666404 21.6257205,173.87802 22.1095662,173.87802 L31.219384,173.87802 C31.7039412,173.87802 32.0959985,174.666404 32.0959985,175.639076 C32.0959985,176.61246 31.7039412,177.400843 31.219384,177.400843" id="Fill-85" fill="#E3EAFF"></path>
                        <path d="M100.476199,177.400843 L71.7208241,177.400843 C71.2362669,177.400843 70.843498,176.61246 70.843498,175.639076 C70.843498,174.666404 71.2362669,173.87802 71.7208241,173.87802 L100.476199,173.87802 C100.960045,173.87802 101.352814,174.666404 101.352814,175.639076 C101.352814,176.61246 100.960045,177.400843 100.476199,177.400843" id="Fill-87" fill="#E3EAFF"></path>
                        <path d="M57.1113176,177.400843 L35.5083201,177.400843 C35.0244744,177.400843 34.630994,176.61246 34.630994,175.639076 C34.630994,174.666404 35.0244744,173.87802 35.5083201,173.87802 L57.1113176,173.87802 C57.5958748,173.87802 57.9879321,174.666404 57.9879321,175.639076 C57.9879321,176.61246 57.5958748,177.400843 57.1113176,177.400843" id="Fill-89" fill="#E3EAFF"></path>
                        <path d="M68.6084868,177.400843 L60.0422839,177.400843 C59.5577267,177.400843 59.1656694,176.61246 59.1656694,175.639076 C59.1656694,174.666404 59.5577267,173.87802 60.0422839,173.87802 L68.6084868,173.87802 C69.0937556,173.87802 69.4858129,174.666404 69.4858129,175.639076 C69.4858129,176.61246 69.0937556,177.400843 68.6084868,177.400843" id="Fill-91" fill="#E3EAFF"></path>
                        <path d="M73.9749045,184.439731 L35.5966931,184.439731 C35.0630397,184.439731 34.6311363,184.007116 34.6311363,183.474174 L34.6311363,181.881752 C34.6311363,181.348811 35.0630397,180.916196 35.5966931,180.916196 L73.9749045,180.916196 C74.5078463,180.916196 74.9404612,181.348811 74.9404612,181.881752 L74.9404612,183.474174 C74.9404612,184.007116 74.5078463,184.439731 73.9749045,184.439731" id="Fill-93" fill="#FFC359"></path>
                        <path d="M97.7828863,156.808585 L72.0373161,156.808585 C71.3784321,156.808585 70.8440673,156.27422 70.8440673,155.614625 L70.8440673,154.479011 C70.8440673,153.820127 71.3784321,153.28505 72.0373161,153.28505 L97.7828863,153.28505 C98.4424818,153.28505 98.9761351,153.820127 98.9761351,154.479011 L98.9761351,155.614625 C98.9761351,156.27422 98.4424818,156.808585 97.7828863,156.808585" id="Fill-95" fill="#FF56A9"></path>
                        <path d="M57.1113176,156.808585 L35.5083201,156.808585 C35.0244744,156.808585 34.630994,156.020201 34.630994,155.046818 C34.630994,154.074146 35.0244744,153.28505 35.5083201,153.28505 L57.1113176,153.28505 C57.5958748,153.28505 57.9879321,154.074146 57.9879321,155.046818 C57.9879321,156.020201 57.5958748,156.808585 57.1113176,156.808585" id="Fill-97" fill="#FFC359"></path>
                        <path d="M68.6084868,156.808585 L60.0422839,156.808585 C59.5577267,156.808585 59.1656694,156.020201 59.1656694,155.046818 C59.1656694,154.074146 59.5577267,153.28505 60.0422839,153.28505 L68.6084868,153.28505 C69.0937556,153.28505 69.4858129,154.074146 69.4858129,155.046818 C69.4858129,156.020201 69.0937556,156.808585 68.6084868,156.808585" id="Fill-99" fill="#FFC359"></path>
                        <path d="M155.16314,29.3175999 C155.16314,45.2154878 142.275769,58.1028594 126.377881,58.1028594 C110.479993,58.1028594 97.5926212,45.2154878 97.5926212,29.3175999 C97.5926212,13.419712 110.479993,0.532340361 126.377881,0.532340361 C142.275769,0.532340361 155.16314,13.419712 155.16314,29.3175999" id="Fill-101" fill="#FF4DD1"></path>
                        <polygon id="Fill-103" fill="#F9FBFC" points="124.291865 26.6173142 112.858877 30.8061369 124.291865 34.9608058 124.291865 39.2528015 107.948555 33.0375192 107.948555 28.574043 124.291865 22.3608954"></polygon>
                        <polygon id="Fill-105" fill="#F9FBFC" points="128.026016 22.3606107 144.368615 28.5737583 144.368615 33.0379462 128.026016 39.2525168 128.026016 34.9605212 139.458293 30.8058523 128.026016 26.6170295"></polygon>
                    </g>
                    <g id="Group-126" opacity="0.921595982" transform="translate(115.514347, 96.000000)">
                        <path d="M253.767484,131.841472 L12.3659878,131.841472 C5.77058922,131.841472 0.424627175,126.49551 0.424627175,119.900112 L0.424627175,12.6112151 C0.424627175,6.01655575 5.77058922,0.669854395 12.3659878,0.669854395 L253.767484,0.669854395 C260.362143,0.669854395 265.708105,6.01655575 265.708105,12.6112151 L265.708105,119.900112 C265.708105,126.49551 260.362143,131.841472 253.767484,131.841472" id="Fill-107" stroke-opacity="0.302734375" stroke="#FFFFFF" stroke-width="21" fill="#FFFFFF"></path>
                        <path d="M103.056526,66.2492314 C103.056526,76.935241 99.0509362,86.6941539 92.4540589,94.0710049 C84.8036627,102.671416 73.6533654,108.066912 61.2602854,108.066912 C48.8672053,108.066912 37.7176474,102.671416 30.0665118,94.0710049 C23.4696346,86.6941539 19.4640444,76.935241 19.4640444,66.2492314 C19.4640444,43.1701418 38.1804564,24.4529905 61.2602854,24.4529905 C84.3401143,24.4529905 103.056526,43.1701418 103.056526,66.2492314" id="Fill-109" fill="#A5A5A5"></path>
                        <path d="M72.3260793,75.0596075 C72.3201648,75.0573896 72.315729,75.0566503 72.3098145,75.0544323 C76.6894963,71.7171799 79.5299314,66.4621531 79.5299314,60.5313956 C79.5299314,50.4420105 71.350188,42.2637458 61.2622815,42.2637458 C51.1728963,42.2637458 42.9953709,50.4420105 42.9953709,60.5313956 C42.9953709,66.4621531 45.8335881,71.7171799 50.2132699,75.0529537 C50.2073554,75.0566503 50.2007016,75.0573896 50.1947871,75.0596075 C41.068725,78.1994638 33.7118354,85.1763472 30.06629,94.0710049 C37.7174256,102.671416 48.8677228,108.066912 61.2608029,108.066912 C73.6531436,108.066912 84.8034409,102.671416 92.4545764,94.0710049 C88.809031,85.1763472 81.4528808,78.1994638 72.3260793,75.0596075" id="Fill-111" fill="#CACACA"></path>
                        <path d="M235.959021,69.0296344 L119.011018,69.0296344 C116.196459,69.0296344 113.914943,66.7481189 113.914943,63.9335597 C113.914943,61.1190005 116.196459,58.8382243 119.011018,58.8382243 L235.959021,58.8382243 C238.77358,58.8382243 241.055095,61.1190005 241.055095,63.9335597 C241.055095,66.7481189 238.77358,69.0296344 235.959021,69.0296344" id="Fill-113" fill="#EDEDED"></path>
                        <path d="M235.959021,46.1961441 L119.011018,46.1961441 C116.196459,46.1961441 113.914943,43.9146285 113.914943,41.09933 C113.914943,38.2855101 116.196459,36.0039946 119.011018,36.0039946 L235.959021,36.0039946 C238.77358,36.0039946 241.055095,38.2855101 241.055095,41.09933 C241.055095,43.9146285 238.77358,46.1961441 235.959021,46.1961441" id="Fill-115" fill="#EDEDED"></path>
                        <path d="M196.043367,92.8875888 L119.011536,92.8875888 C116.196237,92.8875888 113.914722,90.6068126 113.914722,87.7915141 C113.914722,84.9776942 116.196237,82.6954393 119.011536,82.6954393 L196.043367,82.6954393 C198.857926,82.6954393 201.139441,84.9776942 201.139441,87.7915141 C201.139441,90.6068126 198.857926,92.8875888 196.043367,92.8875888" id="Fill-117" fill="#EDEDED"></path>
                        <g id="Group-123" transform="translate(111.575540, 70.656711)">
                            <polygon id="Fill-119" fill="#797979" points="24.8933603 41.9460994 14.9836278 34.3947709 4.59999666 41.9460994 4.59999666 15.517189 24.8933603 15.517189"></polygon>
                            <path d="M28.8411362,14.9337982 C28.8411362,22.8052486 22.4586594,29.1899435 14.5842517,29.1899435 C6.70910474,29.1899435 0.327367168,22.8052486 0.327367168,14.9337982 C0.327367168,7.06012988 6.70910474,0.676174373 14.5842517,0.676174373 C22.4586594,0.676174373 28.8411362,7.06012988 28.8411362,14.9337982" id="Fill-121" fill="#D3D3D3"></path>
                        </g>
                    </g>
                    <g id="Group-4" transform="translate(401.305151, 264.500000) scale(-1, 1) translate(-401.305151, -264.500000) translate(312.305151, 114.000000)">
                        <g id="Group-128" transform="translate(37.760129, 145.809971)">
                            <mask id="mask-2" fill="white">
                                <use xlink:href="#path-1"></use>
                            </mask>
                            <g id="Clip-127"></g>
                            <path d="M0.0650594192,12.9757315 C0.0650594192,12.9757315 51.3377962,96.0226015 44.9287041,153.794626 L79.8227322,154.516194 L64.8679375,145.850723 L69.1404191,145.128416 C69.1404191,145.128416 56.3222349,55.5822579 44.2160078,23.8073855 C31.5360748,-9.47272536 27.837299,2.86564562 27.837299,2.86564562 L0.0650594192,12.9757315 Z" id="Fill-126" fill="#B4BFD8" mask="url(#mask-2)"></path>
                            <polygon id="Path-2" fill="#D8D8D8" fill-rule="nonzero" mask="url(#mask-2)" points="42.9989947 153.803794 80.1429884 155.190029 64.5468614 145.190029 45.6831517 148.190029"></polygon>
                        </g>
                        <path d="M19.3099429,153.6293 C19.3099429,153.6293 22.1585105,211.311128 17.8852895,233.386972 C13.6128079,255.462816 0.794623683,298.901807 0.794623683,298.901807 L33.5520412,299.613764 L24.9479331,293.54032 L19.488117,290.356105 C19.488117,290.356105 42.8104402,227.690577 44.9463113,197.780987 C47.0821825,167.872137 50.6434464,150.780732 50.6434464,150.780732 L19.3099429,153.6293 Z" id="Fill-129" fill="#B4BFD8"></path>
                        <polygon id="Path-2-Copy" fill="#D8D8D8" fill-rule="nonzero" points="1.00658534 299 32.65826 299 19.6990404 289.613764 3.27396402 289.613764"></polygon>
                        <path d="M102.288574,16.9245258 C102.288574,16.9245258 21.8189446,51.3121254 14.7333824,66.0724811 C14.7333824,66.0724811 11.7813113,71.3859134 11.7813113,86.7369791 C11.7813113,102.088045 17.095483,158.767367 17.095483,158.767367 L79.088977,162.310148 C79.088977,162.310148 59.0151889,93.2318314 58.424479,91.4597015 C57.8345083,89.6890503 47.796875,79.0614463 38.3506909,76.7000851 L105.985132,24.4411066 L102.288574,16.9245258 Z" id="Fill-135" fill="#6DB8FF"></path>
                        <polygon id="Fill-131" fill="#F7D3A9" points="102.642409 25.1096661 108.681106 22.8488513 114.35754 13.3353898 111.504537 12.2197687 109.09586 15.7662463 108.884417 0.39521922 105.777829 1.18110743 104.001264 15.9518135 99.8655547 19.9352243"></polygon>
                        <polyline id="Fill-133" fill="#F7D3A9" points="152.170149 115.572053 156.736137 110.918087 165.823755 109.996165 165.911733 112.71831 162.487242 113.771829 177.765116 114.693751 176.798835 117.240679 161.872874 117.460255 154.496762 119.479315 153.136429 116.274399"></polyline>
                        <path d="M47.5578556,85.0314612 C47.5578556,85.0314612 93.0388254,120.377209 100.294429,121.923109 C107.550033,123.46901 154.403905,111.191262 154.403905,111.191262 L156.554562,120.677369 C156.554562,120.677369 105.264082,140.198152 99.5528998,140.601077 C93.8424571,141.003262 29.4136707,113.381842 25.653532,103.035177 C21.8919147,92.6870326 33.8517582,84.1561163 47.5578556,85.0314612" id="Fill-141" fill="#6DB8FF"></path>
                        <path d="M44.1233836,69.5709035 C44.1233836,69.5709035 46.7072776,77.233868 48.1334096,81.867873 C48.1334096,81.867873 35.4800919,81.6002422 31.0250003,75.7190186 L35.7477227,64.4031155 L44.1233836,69.5709035 Z" id="Fill-137" fill="#F7D3A9"></path>
                        <path d="M53.7474461,45.6183172 C53.7474461,45.6183172 57.4898413,67.413962 53.7474461,72.3688282 C50.0050508,77.3214765 37.173559,68.9007175 31.8268577,60.9745581 C26.4801563,53.0491379 25.4111118,35.2162033 34.499469,33.7294477 C43.5885656,32.2434314 51.6086177,37.6921578 53.7474461,45.6183172" id="Fill-139" fill="#F7D3A9"></path>
                        <path d="M50.2870243,40.7586743 C50.2870243,40.7586743 52.7799829,32.2129718 47.4384567,27.9397508 C42.0976699,23.6680085 32.8400103,24.3799656 31.4160962,25.8038797 C31.4160962,28.2968383 37.1132312,29.7200131 35.6885778,31.1446665 C34.2646637,32.5693199 26.7872663,31.1446665 25.007004,38.6213245 C23.2260024,46.0994612 25.7189611,47.522636 25.7189611,47.522636 C25.7189611,47.522636 21.8020883,52.1522051 26.4309182,58.5612972 C31.059748,64.9703893 41.5210068,70.2542492 44.1233836,69.5711253 C46.7264997,68.8872621 45.3025856,58.9176454 45.3025856,58.9176454 C45.3025856,58.9176454 39.2491024,58.2056883 38.8927542,54.2888156 C38.5371453,50.3719428 41.7413217,50.0155946 43.1659751,51.4402481 C44.5898892,52.8641622 44.9462374,56.0683386 46.0145426,55.3563815 C47.0828479,54.6444245 45.6581945,47.1670271 45.6581945,47.1670271 C45.6581945,47.1670271 49.5750672,43.9628507 50.2870243,40.7586743" id="Fill-143" fill="#544DB8"></path>
                    </g>
                </g>
            </g>
        </g>
    </g>
</svg>