<?xml version="1.0" encoding="UTF-8"?>
<svg width="61px" height="73px" viewBox="0 0 61 73" version="1.1" xmlns="http://www.w3.org/2000/svg" xmlns:xlink="http://www.w3.org/1999/xlink">
    <!-- Generator: Sketch 52.5 (67469) - http://www.bohemiancoding.com/sketch -->
    <title>Digitally verify</title>
    <desc>Created with Sketch.</desc>
    <g id="new" stroke="none" stroke-width="1" fill="none" fill-rule="evenodd">
        <g id="landing-page" transform="translate(-604.000000, -1170.000000)" fill="#415BF6" fill-rule="nonzero">
            <path d="M634.240001,1235.85311 C634.048001,1235.85311 633.856001,1235.85311 633.664001,1235.75711 C632.704001,1235.27711 609.472,1224.71711 609.472,1211.08511 L609.472,1178.15711 C609.472,1177.38911 610.144,1176.71711 610.912,1176.71711 L657.664002,1176.71711 C658.432002,1176.71711 659.104002,1177.38911 659.104002,1178.15711 L659.104002,1211.08511 C659.104002,1224.71711 635.872001,1235.27711 634.912001,1235.75711 C634.624001,1235.85311 634.432001,1235.85311 634.240001,1235.85311 Z M612.352,1179.59711 L612.352,1211.08511 C612.352,1221.74111 630.688001,1231.14911 634.240001,1232.78111 C637.792001,1231.05311 656.128002,1221.74111 656.128002,1210.98911 L656.128002,1179.59711 L612.352,1179.59711 Z M663.040002,1206.38111 C662.272002,1206.38111 661.600002,1205.70911 661.600002,1204.94111 L661.600002,1173.74111 L606.88,1173.74111 L606.88,1194.09311 C606.88,1194.86111 606.208,1195.53311 605.44,1195.53311 C604.672,1195.53311 604,1194.86111 604,1194.09311 L604,1172.30111 C604,1171.53311 604.672,1170.86111 605.44,1170.86111 L663.040002,1170.86111 C663.808002,1170.86111 664.480002,1171.53311 664.480002,1172.30111 L664.480002,1204.94111 C664.480002,1205.70911 663.904002,1206.38111 663.040002,1206.38111 Z M634.240001,1242.47711 C634.048001,1242.47711 633.856001,1242.47711 633.664001,1242.38111 C632.416001,1241.80511 604,1228.94111 604,1212.23711 L604,1200.90911 C604,1200.14111 604.672,1199.46911 605.44,1199.46911 C606.208,1199.46911 606.88,1200.14111 606.88,1200.90911 L606.88,1212.14111 C606.88,1225.77311 630.208001,1237.48511 634.240001,1239.40511 C638.272001,1237.48511 661.600002,1225.77311 661.600002,1212.14111 C661.600002,1211.37311 662.272002,1210.70111 663.040002,1210.70111 C663.808002,1210.70111 664.480002,1211.37311 664.480002,1212.14111 C664.480002,1228.84511 635.968001,1241.70911 634.816001,1242.28511 C634.624001,1242.38111 634.432001,1242.47711 634.240001,1242.47711 Z M629.440001,1213.38911 C629.152001,1213.38911 628.768001,1213.29311 628.480001,1213.00511 L620.608001,1206.28511 C620.032001,1205.80511 619.936001,1204.84511 620.416001,1204.26911 C620.896001,1203.69311 621.856001,1203.59711 622.432001,1204.07711 L629.248001,1209.93311 L645.856002,1193.32511 C646.432002,1192.74911 647.296002,1192.74911 647.872002,1193.32511 C648.448002,1193.90111 648.448002,1194.76511 647.872002,1195.34111 L630.400001,1213.00511 C630.112001,1213.29311 629.728001,1213.38911 629.440001,1213.38911 Z" id="Digitally-verify"></path>
        </g>
    </g>
</svg>