<?xml version="1.0" encoding="UTF-8"?>
<svg width="20px" height="14px" viewBox="0 0 20 14" version="1.1" xmlns="http://www.w3.org/2000/svg" xmlns:xlink="http://www.w3.org/1999/xlink">
    <!-- Generator: Sketch 51.2 (57519) - http://www.bohemiancoding.com/sketch -->
    <title>5</title>
    <desc>Created with Sketch.</desc>
    <defs></defs>
    <g id="Page-1" stroke="none" stroke-width="1" fill="none" fill-rule="evenodd">
        <g id="Register" transform="translate(-73.000000, -427.000000)" fill="#000000" fill-rule="nonzero">
            <g id="5" transform="translate(73.000000, 427.000000)">
                <g id="Group" transform="translate(3.212617, 6.683638)">
                    <path d="M12.9205023,4.11902746 C12.841472,4.11902746 12.7624416,4.09055492 12.7007593,4.03297712 L9.00367991,0.617537757 C8.87453271,0.498585812 8.86810748,0.298012586 8.98954439,0.17083524 C9.11098131,0.0423924485 9.31337617,0.0366979405 9.44380841,0.156915332 L13.1408879,3.57235469 C13.270035,3.69130664 13.2764603,3.89187986 13.1550234,4.01905721 C13.0914136,4.08549314 13.0066005,4.11902746 12.9205023,4.11902746 Z" id="Shape"></path>
                    <path d="M0.579556075,4.11902746 C0.494100467,4.11902746 0.40864486,4.08549314 0.345035047,4.01905721 C0.223598131,3.89187986 0.230023364,3.69130664 0.359170561,3.57235469 L4.05753505,0.156915332 C4.18732477,0.0379633867 4.39100467,0.0430251716 4.51179907,0.17083524 C4.63323598,0.298012586 4.62681075,0.498585812 4.49766355,0.617537757 L0.799299065,4.03297712 C0.737616822,4.09055492 0.658586449,4.11902746 0.579556075,4.11902746 Z" id="Shape"></path>
                </g>
                <path d="M18.3196262,13.9783032 L1.60630841,13.9783032 C0.720911215,13.9783032 0,13.2690206 0,12.3964954 L0,1.61046453 C0,0.737939359 0.720911215,0.0286567506 1.60630841,0.0286567506 L18.3196262,0.0286567506 C19.2050234,0.0286567506 19.9259346,0.737939359 19.9259346,1.61046453 L19.9259346,12.3964954 C19.9259346,13.2690206 19.2050234,13.9783032 18.3196262,13.9783032 Z M1.60630841,0.661379863 C1.07494159,0.661379863 0.642523364,1.08720252 0.642523364,1.61046453 L0.642523364,12.3964954 C0.642523364,12.9197574 1.07494159,13.3455801 1.60630841,13.3455801 L18.3196262,13.3455801 C18.850993,13.3455801 19.2834112,12.9197574 19.2834112,12.3964954 L19.2834112,1.61046453 C19.2834112,1.08720252 18.850993,0.661379863 18.3196262,0.661379863 L1.60630841,0.661379863 Z" id="Shape"></path>
                <path d="M9.96296729,8.5931968 C9.53568925,8.5931968 9.10841121,8.45336499 8.78329439,8.1743341 L0.533294393,1.08720252 C0.399649533,0.972679634 0.385514019,0.77273913 0.501810748,0.6405 C0.619392523,0.508893593 0.821787383,0.496871854 0.955432243,0.610129291 L9.20543224,7.69662815 C9.61600467,8.04905492 10.3099299,8.04905492 10.7198598,7.69662815 L18.9595794,0.621518307 C19.0925818,0.506995423 19.2949766,0.519649886 19.4132009,0.651889016 C19.5294977,0.784128146 19.5160047,0.983435927 19.3823598,1.09859153 L11.1426402,8.17370137 C10.8168808,8.45336499 10.3902453,8.5931968 9.96296729,8.5931968 Z" id="Shape"></path>
            </g>
        </g>
    </g>
</svg>