<?xml version="1.0" encoding="UTF-8"?>
<svg width="230px" height="58px" viewBox="0 0 230 58" version="1.1" xmlns="http://www.w3.org/2000/svg" xmlns:xlink="http://www.w3.org/1999/xlink">
    <!-- Generator: Sketch 52.5 (67469) - http://www.bohemiancoding.com/sketch -->
    <title>Group 7</title>
    <desc>Created with Sketch.</desc>
    <g id="new" stroke="none" stroke-width="1" fill="none" fill-rule="evenodd">
        <g id="landing-page" transform="translate(-1019.000000, -3793.000000)">
            <g id="Group-7" transform="translate(1020.000000, 3794.000000)">
                <g id="facebook" transform="translate(0.000000, 0.205270)">
                    <path d="M24.9813266,21.8733632 C24.9813266,22.3773715 24.9813266,24.6269716 24.9813266,24.6269716 L23,24.6269716 L23,27.9940946 L24.9813266,27.9940946 L24.9813266,38 L29.051392,38 L29.051392,27.9943736 L31.7825948,27.9943736 C31.7825948,27.9943736 32.0383839,26.3798638 32.1623738,24.6145562 C31.8068905,24.6145562 29.0667822,24.6145562 29.0667822,24.6145562 C29.0667822,24.6145562 29.0667822,22.6556711 29.0667822,22.3123187 C29.0667822,21.9682222 29.5105428,21.505366 29.9491428,21.505366 C30.3869207,21.505366 31.3108852,21.505366 32.1666667,21.505366 C32.1666667,21.0469273 32.1666667,19.4629213 32.1666667,18 C31.0242242,18 29.7244996,18 29.1515886,18 C24.8807189,17.9997675 24.9813266,21.3702384 24.9813266,21.8733632 Z" id="Facebook" fill="#005CC7" fill-rule="nonzero"></path>
                    <circle id="Oval-8" stroke="#005CC7" opacity="0.200000003" cx="28" cy="28" r="28"></circle>
                </g>
                <g id="twitter" transform="translate(86.000000, 0.205270)">
                    <path d="M37.5467238,21.8465127 C37.2325313,21.9826797 36.9095001,22.0976021 36.5794367,22.1909017 C36.9702096,21.7590758 37.2681441,21.2509712 37.4500145,20.694956 C37.4907885,20.5703254 37.4485306,20.4339062 37.3436922,20.3523951 C37.2389829,20.270821 37.0934995,20.2610498 36.9782096,20.3278094 C36.2772441,20.734041 35.5209885,21.0259805 34.7280234,21.1966935 C33.9292518,20.4340323 32.8443521,20 31.7228074,20 C29.3553958,20 27.4293376,21.8819413 27.4293376,24.1951412 C27.4293376,24.3773276 27.441144,24.5585053 27.4644988,24.7371615 C24.5267665,24.4851264 21.7956141,23.074222 19.9201364,20.8262689 C19.8532979,20.7461447 19.7503305,20.7029621 19.6449115,20.7112204 C19.539428,20.7192895 19.4446541,20.7774127 19.391364,20.8667407 C19.0109781,21.5045192 18.809882,22.2339582 18.809882,22.9761314 C18.809882,23.9869822 19.1792356,24.9460769 19.8316851,25.6954997 C19.6332987,25.6283618 19.4407832,25.5444552 19.2570418,25.4447885 C19.158397,25.3911413 19.0380103,25.3919608 18.9400106,25.4468689 C18.8419464,25.5017769 18.7804627,25.6027675 18.7778821,25.713151 C18.7774305,25.7317479 18.7774305,25.7503448 18.7774305,25.7691938 C18.7774305,27.2780628 19.6085245,28.6365177 20.8791655,29.3769257 C20.7700046,29.3662719 20.6609082,29.350827 20.5525214,29.3305911 C20.4407799,29.3097248 20.325877,29.3479902 20.2505224,29.4312664 C20.1750388,29.5144796 20.1500712,29.6304737 20.1848452,29.7363813 C20.6551663,31.171178 21.8660655,32.2265352 23.3299317,32.5482928 C22.1158066,33.2913485 20.7273596,33.6805592 19.269816,33.6805592 C18.9656879,33.6805592 18.659818,33.663097 18.3604641,33.6284879 C18.2117549,33.6112149 18.0695618,33.6970127 18.0189168,33.835197 C17.9682719,33.9734443 18.0219491,34.1275778 18.1484648,34.2068194 C20.0209103,35.3799359 22.186,36 24.4095411,36 C28.7807526,36 31.5152597,33.9858632 33.0394483,32.2961947 C34.9400872,30.1893257 36.0301482,27.4006131 36.0301482,24.6451857 C36.0301482,24.5300742 36.0283417,24.4138279 36.0247288,24.2979599 C36.7745973,23.7459162 37.4202081,23.0778153 37.9455612,22.3099218 C38.0253674,22.1932972 38.0167223,22.0391638 37.924271,21.9318062 C37.8319487,21.8243856 37.6780782,21.7896504 37.5467238,21.8465127 Z" id="XMLID_827_" fill="#005CC7" fill-rule="nonzero"></path>
                    <circle id="Oval-8-Copy" stroke="#005CC7" opacity="0.200000003" cx="28" cy="28" r="28"></circle>
                </g>
                <g id="telegram" transform="translate(172.000000, 0.205270)">
                    <path d="M17.3532595,29.1145539 L21.9616655,30.7861287 L23.7454012,36.3610899 C23.8595346,36.7181461 24.3088019,36.8501227 24.6070023,36.6131867 L27.1758056,34.578012 C27.4450727,34.364789 27.8286065,34.3541635 28.1100069,34.5526792 L32.7432129,37.8217742 C33.0622134,38.0471128 33.5141473,37.8772342 33.5941474,37.50262 L36.9882185,21.6362003 C37.0755519,21.2269884 36.6618181,20.8856114 36.2608842,21.0363123 L17.3478594,28.1269642 C16.8811255,28.3018964 16.8851922,28.9440921 17.3532595,29.1145539 Z M23.4579341,29.8963067 L32.4644792,24.5053483 C32.6263461,24.4087468 32.7928797,24.6214515 32.6538795,24.7467548 L25.2208698,31.4615616 C24.9596027,31.6979145 24.7910692,32.0142179 24.7433358,32.3575386 L24.4901355,34.1811101 C24.4566021,34.4245899 24.1046683,34.4487565 24.0355349,34.2131163 L23.0617336,30.8877838 C22.9502001,30.5085048 23.1127337,30.1033746 23.4579341,29.8963067 Z" id="XMLID_497_" fill="#005CC7" fill-rule="nonzero"></path>
                    <circle id="Oval-8-Copy-2" stroke="#005CC7" opacity="0.200000003" cx="28" cy="28" r="28"></circle>
                </g>
            </g>
        </g>
    </g>
</svg>