<?xml version="1.0" encoding="UTF-8"?>
<svg width="421px" height="265px" viewBox="0 0 421 265" version="1.1" xmlns="http://www.w3.org/2000/svg" xmlns:xlink="http://www.w3.org/1999/xlink">
    <!-- Generator: Sketch 52.5 (67469) - http://www.bohemiancoding.com/sketch -->
    <title>Group 27 Copy</title>
    <desc>Created with Sketch.</desc>
    <defs>
        <linearGradient x1="50%" y1="0%" x2="50%" y2="100%" id="linearGradient-1">
            <stop stop-color="#7D858D" offset="0%"></stop>
            <stop stop-color="#414447" offset="100%"></stop>
        </linearGradient>
        <linearGradient x1="57.1042352%" y1="0%" x2="50%" y2="100%" id="linearGradient-2">
            <stop stop-color="#57B6D7" offset="0%"></stop>
            <stop stop-color="#3999C4" offset="27.5127019%"></stop>
            <stop stop-color="#0364A1" offset="100%"></stop>
        </linearGradient>
        <linearGradient x1="58.6831826%" y1="0%" x2="46.0516036%" y2="100%" id="linearGradient-3">
            <stop stop-color="#0D98C9" offset="0%"></stop>
            <stop stop-color="#005387" offset="100%"></stop>
        </linearGradient>
        <radialGradient cx="89.2094984%" cy="8.33604742%" fx="89.2094984%" fy="8.33604742%" r="135.706816%" gradientTransform="translate(0.892095,0.083360),scale(0.630382,1.000000),rotate(135.786710),scale(1.000000,0.700448),translate(-0.892095,-0.083360)" id="radialGradient-4">
            <stop stop-color="#FFFFFF" stop-opacity="0.499971694" offset="0%"></stop>
            <stop stop-color="#FFFFFF" stop-opacity="0" offset="100%"></stop>
        </radialGradient>
        <rect id="path-5" x="0.0293558638" y="0.232365752" width="419.424887" height="264.397803" rx="15.4524958"></rect>
    </defs>
    <g id="new" stroke="none" stroke-width="1" fill="none" fill-rule="evenodd">
        <g id="Group-27-Copy" transform="translate(0.598936, 0.000000)">
            <g id="Card-BG">
                <use fill="url(#linearGradient-1)" xlink:href="#path-5"></use>
                <use fill="url(#linearGradient-2)" xlink:href="#path-5"></use>
                <rect stroke="url(#radialGradient-4)" stroke-width="1.1037497" stroke-linejoin="square" fill="url(#linearGradient-3)" x="0.581230715" y="0.784240604" width="418.321137" height="263.294053" rx="15.4524958"></rect>
            </g>
            <path d="M323.918084,37.7821812 L325.083643,37.7821812 L326.388275,41.4841577 L326.40152,41.4841577 L327.67304,37.7821812 L328.825355,37.7821812 L328.825355,42.5106449 L328.037278,42.5106449 L328.037278,38.8616484 L328.024033,38.8616484 L326.712778,42.5106449 L326.030661,42.5106449 L324.719406,38.8616484 L324.706161,38.8616484 L324.706161,42.5106449 L323.918084,42.5106449 L323.918084,37.7821812 Z M332.096869,38.3450935 C331.845213,38.3450935 331.627776,38.3958655 331.444553,38.497411 C331.261329,38.5989565 331.112325,38.7347163 330.997534,38.9046946 C330.882744,39.0746729 330.797756,39.2678272 330.742568,39.4841632 C330.68738,39.7004993 330.659787,39.921247 330.659787,40.1464131 C330.659787,40.3715791 330.68738,40.5923269 330.742568,40.8086629 C330.797756,41.0249989 330.882744,41.2181532 330.997534,41.3881315 C331.112325,41.5581098 331.261329,41.6938696 331.444553,41.7954151 C331.627776,41.8969606 331.845213,41.9477326 332.096869,41.9477326 C332.348525,41.9477326 332.565962,41.8969606 332.749185,41.7954151 C332.932408,41.6938696 333.081413,41.5581098 333.196204,41.3881315 C333.310994,41.2181532 333.395982,41.0249989 333.45117,40.8086629 C333.506358,40.5923269 333.533951,40.3715791 333.533951,40.1464131 C333.533951,39.921247 333.506358,39.7004993 333.45117,39.4841632 C333.395982,39.2678272 333.310994,39.0746729 333.196204,38.9046946 C333.081413,38.7347163 332.932408,38.5989565 332.749185,38.497411 C332.565962,38.3958655 332.348525,38.3450935 332.096869,38.3450935 Z M332.096869,37.6695987 C332.450071,37.6695987 332.766844,37.735823 333.047197,37.8682737 C333.327551,38.0007243 333.564855,38.17953 333.759116,38.404696 C333.953377,38.6298621 334.102382,38.8925519 334.206135,39.1927733 C334.309888,39.4929947 334.361763,39.8108715 334.361763,40.1464131 C334.361763,40.4863697 334.309888,40.8064539 334.206135,41.1066753 C334.102382,41.4068967 333.953377,41.6695865 333.759116,41.8947526 C333.564855,42.1199187 333.327551,42.2976206 333.047197,42.4278637 C332.766844,42.5581068 332.450071,42.6232274 332.096869,42.6232274 C331.743667,42.6232274 331.426894,42.5581068 331.14654,42.4278637 C330.866187,42.2976206 330.628883,42.1199187 330.434622,41.8947526 C330.240361,41.6695865 330.091356,41.4068967 329.987603,41.1066753 C329.88385,40.8064539 329.831975,40.4863697 329.831975,40.1464131 C329.831975,39.8108715 329.88385,39.4929947 329.987603,39.1927733 C330.091356,38.8925519 330.240361,38.6298621 330.434622,38.404696 C330.628883,38.17953 330.866187,38.0007243 331.14654,37.8682737 C331.426894,37.735823 331.743667,37.6695987 332.096869,37.6695987 Z M335.348516,37.7821812 L336.222685,37.7821812 L338.38162,41.2656153 L338.394865,41.2656153 L338.394865,37.7821812 L339.182942,37.7821812 L339.182942,42.5106449 L338.308772,42.5106449 L336.15646,39.0338334 L336.136593,39.0338334 L336.136593,42.5106449 L335.348516,42.5106449 L335.348516,37.7821812 Z M339.977642,37.7821812 L343.805446,37.7821812 L343.805446,38.497411 L342.302139,38.497411 L342.302139,42.5106449 L341.474326,42.5106449 L341.474326,38.497411 L339.977642,38.497411 L339.977642,37.7821812 Z M344.600146,37.7821812 L345.427958,37.7821812 L345.427958,39.6629707 L347.58027,39.6629707 L347.58027,37.7821812 L348.408082,37.7821812 L348.408082,42.5106449 L347.58027,42.5106449 L347.58027,40.3782005 L345.427958,40.3782005 L345.427958,42.5106449 L344.600146,42.5106449 L344.600146,37.7821812 Z M350.918009,37.6695987 L351.639861,37.6695987 L349.739204,42.6232274 L349.017352,42.6232274 L350.918009,37.6695987 Z M353.494161,40.6563454 L351.719331,37.7821812 L352.679593,37.7821812 L353.931246,39.9013806 L355.16303,37.7821812 L356.09018,37.7821812 L354.321973,40.6563454 L354.321973,42.5106449 L353.494161,42.5106449 L353.494161,40.6563454 Z M356.818655,37.7821812 L360.222619,37.7821812 L360.222619,38.497411 L357.646467,38.497411 L357.646467,39.7358182 L360.030566,39.7358182 L360.030566,40.411313 L357.646467,40.411313 L357.646467,41.7954151 L360.268976,41.7954151 L360.268976,42.5106449 L356.818655,42.5106449 L356.818655,37.7821812 Z M362.520626,37.7821812 L363.401418,37.7821812 L365.222605,42.5106449 L364.33519,42.5106449 L363.891483,41.2589928 L362.004071,41.2589928 L361.560363,42.5106449 L360.706061,42.5106449 L362.520626,37.7821812 Z M362.229236,40.6298554 L363.67294,40.6298554 L362.964333,38.5967485 L362.944466,38.5967485 L362.229236,40.6298554 Z M365.937835,37.7821812 L368.196107,37.7821812 C368.717079,37.7821812 369.107803,37.8947625 369.368289,38.1199286 C369.628775,38.3450947 369.759016,38.6585564 369.759016,39.0603234 C369.759016,39.2854894 369.725904,39.4720213 369.659679,39.6199244 C369.593453,39.7678276 369.516192,39.8870314 369.427891,39.9775394 C369.339591,40.0680473 369.252396,40.1331679 369.166303,40.1729031 C369.08021,40.2126382 369.017297,40.239128 368.977561,40.252373 L368.977561,40.265618 C369.048202,40.2744481 369.12436,40.2965228 369.206038,40.331843 C369.287715,40.3671632 369.363873,40.4234538 369.434514,40.5007167 C369.505154,40.5779796 369.563652,40.6784198 369.61001,40.8020404 C369.656368,40.925661 369.679546,41.0801844 369.679546,41.2656153 C369.679546,41.5437616 369.700517,41.7965177 369.74246,42.0238913 C369.784403,42.2512649 369.849523,42.4135145 369.937824,42.5106449 L369.050409,42.5106449 C368.988599,42.4090994 368.952175,42.2965181 368.941138,42.1728975 C368.9301,42.0492769 368.924581,41.9300732 368.924581,41.8152826 C368.924581,41.5989466 368.911337,41.4124148 368.884846,41.2556815 C368.858356,41.0989483 368.809792,40.9687071 368.739151,40.8649541 C368.668511,40.7612011 368.572486,40.6850432 368.451073,40.6364779 C368.32966,40.5879127 368.174033,40.5636304 367.984187,40.5636304 L366.765647,40.5636304 L366.765647,42.5106449 L365.937835,42.5106449 L365.937835,37.7821812 Z M366.765647,39.9344931 L368.123259,39.9344931 C368.38816,39.9344931 368.589041,39.87158 368.725906,39.7457519 C368.862772,39.6199238 368.931204,39.4311845 368.931204,39.1795283 C368.931204,39.0294176 368.909129,38.9069026 368.864979,38.8119797 C368.820829,38.7170567 368.760123,38.6431062 368.68286,38.590126 C368.605597,38.5371457 368.517298,38.5018261 368.41796,38.484166 C368.318622,38.4665059 368.215975,38.457676 368.110014,38.457676 L366.765647,38.457676 L366.765647,39.9344931 Z" id="MONTH/YEAR" fill="#D3DDE5" opacity="0.799999952"></path>
            <path d="M292.204043,54.7567103 L291.674244,54.7567103 L291.548416,54.2004205 C291.327665,54.4520767 291.106917,54.6264674 290.886166,54.7235978 C290.665415,54.8207283 290.411555,54.8692928 290.124579,54.8692928 C289.771377,54.8692928 289.454604,54.8041722 289.174251,54.6739291 C288.893897,54.543686 288.656593,54.3659841 288.462332,54.140818 C288.268071,53.9156519 288.119066,53.6529621 288.015313,53.3527407 C287.91156,53.0525193 287.859685,52.7324351 287.859685,52.3924785 C287.859685,52.0569369 287.91156,51.7390601 288.015313,51.4388387 C288.119066,51.1386173 288.268071,50.8759275 288.462332,50.6507614 C288.656593,50.4255954 288.893897,50.2467897 289.174251,50.1143391 C289.454604,49.9818885 289.771377,49.9156641 290.124579,49.9156641 C290.38065,49.9156641 290.624576,49.94988 290.856365,50.0183129 C291.088154,50.0867457 291.294553,50.1882896 291.475569,50.3229478 C291.656585,50.4576059 291.806693,50.6264779 291.925899,50.8295689 C292.045104,51.0326598 292.120158,51.2666524 292.151063,51.5315537 L291.343119,51.5315537 C291.321044,51.377028 291.273583,51.2412681 291.200735,51.1242701 C291.127887,51.007272 291.036277,50.9090393 290.925901,50.8295689 C290.815526,50.7500985 290.691907,50.6904966 290.555041,50.6507614 C290.418176,50.6110262 290.27469,50.591159 290.124579,50.591159 C289.872923,50.591159 289.655486,50.6419309 289.472263,50.7434764 C289.28904,50.8450219 289.140035,50.9807817 289.025244,51.1507601 C288.910454,51.3207384 288.825466,51.5138926 288.770278,51.7302286 C288.71509,51.9465647 288.687497,52.1673124 288.687497,52.3924785 C288.687497,52.6176445 288.71509,52.8383923 288.770278,53.0547283 C288.825466,53.2710643 288.910454,53.4642186 289.025244,53.6341969 C289.140035,53.8041752 289.28904,53.939935 289.472263,54.0414805 C289.655486,54.143026 289.872923,54.193798 290.124579,54.193798 C290.3365,54.198213 290.524136,54.1706195 290.687491,54.1110168 C290.850847,54.051414 290.988814,53.9653224 291.101398,53.8527393 C291.213981,53.7401563 291.298968,53.602189 291.356364,53.4388332 C291.413759,53.2754774 291.444664,53.0944643 291.449079,52.8957883 L290.190804,52.8957883 L290.190804,52.266651 L292.204043,52.266651 L292.204043,54.7567103 Z M295.382843,50.591159 C295.131186,50.591159 294.91375,50.6419309 294.730527,50.7434764 C294.547303,50.8450219 294.398298,50.9807817 294.283508,51.1507601 C294.168717,51.3207384 294.083729,51.5138926 294.028542,51.7302286 C293.973354,51.9465647 293.94576,52.1673124 293.94576,52.3924785 C293.94576,52.6176445 293.973354,52.8383923 294.028542,53.0547283 C294.083729,53.2710643 294.168717,53.4642186 294.283508,53.6341969 C294.398298,53.8041752 294.547303,53.939935 294.730527,54.0414805 C294.91375,54.143026 295.131186,54.193798 295.382843,54.193798 C295.634499,54.193798 295.851935,54.143026 296.035159,54.0414805 C296.218382,53.939935 296.367387,53.8041752 296.482177,53.6341969 C296.596968,53.4642186 296.681956,53.2710643 296.737143,53.0547283 C296.792331,52.8383923 296.819925,52.6176445 296.819925,52.3924785 C296.819925,52.1673124 296.792331,51.9465647 296.737143,51.7302286 C296.681956,51.5138926 296.596968,51.3207384 296.482177,51.1507601 C296.367387,50.9807817 296.218382,50.8450219 296.035159,50.7434764 C295.851935,50.6419309 295.634499,50.591159 295.382843,50.591159 Z M295.382843,49.9156641 C295.736044,49.9156641 296.052817,49.9818885 296.333171,50.1143391 C296.613525,50.2467897 296.850829,50.4255954 297.04509,50.6507614 C297.239351,50.8759275 297.388355,51.1386173 297.492108,51.4388387 C297.595861,51.7390601 297.647737,52.0569369 297.647737,52.3924785 C297.647737,52.7324351 297.595861,53.0525193 297.492108,53.3527407 C297.388355,53.6529621 297.239351,53.9156519 297.04509,54.140818 C296.850829,54.3659841 296.613525,54.543686 296.333171,54.6739291 C296.052817,54.8041722 295.736044,54.8692928 295.382843,54.8692928 C295.029641,54.8692928 294.712868,54.8041722 294.432514,54.6739291 C294.15216,54.543686 293.914856,54.3659841 293.720596,54.140818 C293.526335,53.9156519 293.37733,53.6529621 293.273577,53.3527407 C293.169824,53.0525193 293.117948,52.7324351 293.117948,52.3924785 C293.117948,52.0569369 293.169824,51.7390601 293.273577,51.4388387 C293.37733,51.1386173 293.526335,50.8759275 293.720596,50.6507614 C293.914856,50.4255954 294.15216,50.2467897 294.432514,50.1143391 C294.712868,49.9818885 295.029641,49.9156641 295.382843,49.9156641 Z M300.680841,50.591159 C300.429185,50.591159 300.211748,50.6419309 300.028525,50.7434764 C299.845302,50.8450219 299.696297,50.9807817 299.581506,51.1507601 C299.466716,51.3207384 299.381728,51.5138926 299.32654,51.7302286 C299.271353,51.9465647 299.243759,52.1673124 299.243759,52.3924785 C299.243759,52.6176445 299.271353,52.8383923 299.32654,53.0547283 C299.381728,53.2710643 299.466716,53.4642186 299.581506,53.6341969 C299.696297,53.8041752 299.845302,53.939935 300.028525,54.0414805 C300.211748,54.143026 300.429185,54.193798 300.680841,54.193798 C300.932497,54.193798 301.149934,54.143026 301.333157,54.0414805 C301.516381,53.939935 301.665385,53.8041752 301.780176,53.6341969 C301.894966,53.4642186 301.979954,53.2710643 302.035142,53.0547283 C302.09033,52.8383923 302.117923,52.6176445 302.117923,52.3924785 C302.117923,52.1673124 302.09033,51.9465647 302.035142,51.7302286 C301.979954,51.5138926 301.894966,51.3207384 301.780176,51.1507601 C301.665385,50.9807817 301.516381,50.8450219 301.333157,50.7434764 C301.149934,50.6419309 300.932497,50.591159 300.680841,50.591159 Z M300.680841,49.9156641 C301.034043,49.9156641 301.350816,49.9818885 301.63117,50.1143391 C301.911523,50.2467897 302.148827,50.4255954 302.343088,50.6507614 C302.537349,50.8759275 302.686354,51.1386173 302.790107,51.4388387 C302.89386,51.7390601 302.945736,52.0569369 302.945736,52.3924785 C302.945736,52.7324351 302.89386,53.0525193 302.790107,53.3527407 C302.686354,53.6529621 302.537349,53.9156519 302.343088,54.140818 C302.148827,54.3659841 301.911523,54.543686 301.63117,54.6739291 C301.350816,54.8041722 301.034043,54.8692928 300.680841,54.8692928 C300.327639,54.8692928 300.010866,54.8041722 299.730513,54.6739291 C299.450159,54.543686 299.212855,54.3659841 299.018594,54.140818 C298.824333,53.9156519 298.675328,53.6529621 298.571575,53.3527407 C298.467822,53.0525193 298.415947,52.7324351 298.415947,52.3924785 C298.415947,52.0569369 298.467822,51.7390601 298.571575,51.4388387 C298.675328,51.1386173 298.824333,50.8759275 299.018594,50.6507614 C299.212855,50.4255954 299.450159,50.2467897 299.730513,50.1143391 C300.010866,49.9818885 300.327639,49.9156641 300.680841,49.9156641 Z M303.9656,50.0282466 L305.92586,50.0282466 C306.287891,50.0282466 306.601353,50.090056 306.866254,50.2136766 C307.131156,50.3372971 307.347489,50.5061692 307.515259,50.7202977 C307.68303,50.9344262 307.807753,51.1849749 307.88943,51.4719512 C307.971108,51.7589276 308.011947,52.0657669 308.011947,52.3924785 C308.011947,52.71919 307.971108,53.0260294 307.88943,53.3130057 C307.807753,53.5999821 307.68303,53.8505308 307.515259,54.0646593 C307.347489,54.2787878 307.131156,54.4476598 306.866254,54.5712804 C306.601353,54.694901 306.287891,54.7567103 305.92586,54.7567103 L303.9656,54.7567103 L303.9656,50.0282466 Z M304.793413,54.0812155 L305.60798,54.0812155 C305.930276,54.0812155 306.19407,54.0381697 306.399368,53.9520768 C306.604667,53.8659839 306.765813,53.7467801 306.882811,53.5944619 C306.999809,53.4421437 307.079278,53.263338 307.121221,53.0580395 C307.163163,52.8527411 307.184134,52.6308896 307.184134,52.3924785 C307.184134,52.1540673 307.163163,51.9322159 307.121221,51.7269174 C307.079278,51.5216189 306.999809,51.3428133 306.882811,51.190495 C306.765813,51.0381768 306.604667,50.918973 306.399368,50.8328801 C306.19407,50.7467872 305.930276,50.7037414 305.60798,50.7037414 L304.793413,50.7037414 L304.793413,54.0812155 Z M288.488822,59.0503428 L292.316626,59.0503428 L292.316626,59.7655726 L290.813319,59.7655726 L290.813319,63.7788065 L289.985507,63.7788065 L289.985507,59.7655726 L288.488822,59.7655726 L288.488822,59.0503428 Z M293.111326,59.0503428 L293.939138,59.0503428 L293.939138,60.9311322 L296.09145,60.9311322 L296.09145,59.0503428 L296.919262,59.0503428 L296.919262,63.7788065 L296.09145,63.7788065 L296.09145,61.6463621 L293.939138,61.6463621 L293.939138,63.7788065 L293.111326,63.7788065 L293.111326,59.0503428 Z M298.177537,59.0503428 L300.435809,59.0503428 C300.956781,59.0503428 301.347505,59.1629241 301.607991,59.3880902 C301.868477,59.6132562 301.998718,59.926718 301.998718,60.3284849 C301.998718,60.553651 301.965606,60.7401828 301.899381,60.888086 C301.833156,61.0359892 301.755894,61.155193 301.667593,61.2457009 C301.579293,61.3362088 301.492098,61.4013294 301.406005,61.4410646 C301.319912,61.4807998 301.256999,61.5072895 301.217264,61.5205346 L301.217264,61.5337796 C301.287904,61.5426096 301.364062,61.5646844 301.44574,61.6000046 C301.527418,61.6353247 301.603576,61.6916154 301.674216,61.7688783 C301.744856,61.8461411 301.803354,61.9465814 301.849712,62.0702019 C301.89607,62.1938225 301.919248,62.3483459 301.919248,62.5337768 C301.919248,62.8119231 301.940219,63.0646793 301.982162,63.2920529 C302.024105,63.5194264 302.089225,63.681676 302.177526,63.7788065 L301.290111,63.7788065 C301.228301,63.677261 301.191877,63.5646797 301.18084,63.4410591 C301.169802,63.3174385 301.164284,63.1982347 301.164284,63.0834442 C301.164284,62.8671081 301.151039,62.6805763 301.124549,62.5238431 C301.098058,62.3671098 301.049494,62.2368687 300.978854,62.1331157 C300.908213,62.0293627 300.812188,61.9532047 300.690775,61.9046395 C300.569362,61.8560743 300.413735,61.831792 300.223889,61.831792 L299.005349,61.831792 L299.005349,63.7788065 L298.177537,63.7788065 L298.177537,59.0503428 Z M299.005349,61.2026547 L300.362961,61.2026547 C300.627862,61.2026547 300.828743,61.1397416 300.965609,61.0139135 C301.102474,60.8880854 301.170906,60.6993461 301.170906,60.4476899 C301.170906,60.2975792 301.148831,60.1750642 301.104681,60.0801412 C301.060531,59.9852183 300.999825,59.9112678 300.922562,59.8582875 C300.845299,59.8053073 300.757,59.7699876 300.657662,59.7523276 C300.558324,59.7346675 300.455677,59.7258376 300.349716,59.7258376 L299.005349,59.7258376 L299.005349,61.2026547 Z M303.051696,59.0503428 L303.879508,59.0503428 L303.879508,61.805302 C303.879508,61.9642428 303.887234,62.1253886 303.902687,62.2887444 C303.918139,62.4521002 303.962289,62.5988974 304.035136,62.7291405 C304.107984,62.8593836 304.218358,62.9664463 304.366261,63.0503317 C304.514165,63.1342171 304.722771,63.1761591 304.992087,63.1761591 C305.261404,63.1761591 305.47001,63.1342171 305.617914,63.0503317 C305.765817,62.9664463 305.876191,62.8593836 305.949038,62.7291405 C306.021886,62.5988974 306.066036,62.4521002 306.081488,62.2887444 C306.096941,62.1253886 306.104667,61.9642428 306.104667,61.805302 L306.104667,59.0503428 L306.932479,59.0503428 L306.932479,62.0768244 C306.932479,62.3814609 306.886122,62.6463582 306.793407,62.8715242 C306.700692,63.0966903 306.569347,63.2854296 306.399368,63.4377478 C306.22939,63.590066 306.025198,63.7037511 305.786787,63.7788065 C305.548376,63.8538618 305.283479,63.891389 304.992087,63.891389 C304.700696,63.891389 304.435799,63.8538618 304.197388,63.7788065 C303.958977,63.7037511 303.754785,63.590066 303.584807,63.4377478 C303.414828,63.2854296 303.283483,63.0966903 303.190768,62.8715242 C303.098053,62.6463582 303.051696,62.3814609 303.051696,62.0768244 L303.051696,59.0503428 Z" id="GOOD-THRU" fill="#D3DDE5" opacity="0.799999952"></path>
            <path d="M37.6230707,144.694013 L39.0248329,144.694013 L40.44867,150.720486 L40.470745,150.720486 L42.0601445,144.694013 L43.4729442,144.694013 L45.0181937,150.720486 L45.0402687,150.720486 L46.5082558,144.694013 L47.910018,144.694013 L45.7356311,152.574786 L44.3338689,152.574786 L42.7555069,146.548312 L42.7334319,146.548312 L41.1219573,152.574786 L39.6981202,152.574786 L37.6230707,144.694013 Z M53.4508414,151.305473 C53.4508414,151.459999 53.4710766,151.570373 53.5115477,151.636598 C53.5520187,151.702824 53.63112,151.735936 53.7488539,151.735936 L53.8813038,151.735936 C53.9328124,151.735936 53.9916785,151.728578 54.0579038,151.713861 L54.0579038,152.585823 C54.0137536,152.60054 53.9567271,152.617096 53.8868226,152.635492 C53.8169181,152.653888 53.7451751,152.670444 53.6715914,152.685161 C53.5980077,152.699877 53.5244251,152.710915 53.4508414,152.718273 C53.3772578,152.725631 53.3147126,152.729311 53.263204,152.729311 C53.0056611,152.729311 52.7922716,152.677803 52.6230292,152.574786 C52.4537867,152.471768 52.3434128,152.291491 52.2919043,152.033948 C52.0417197,152.276774 51.7345125,152.453373 51.3702733,152.563748 C51.006034,152.674124 50.6546772,152.729311 50.3161923,152.729311 C50.0586494,152.729311 49.8121478,152.694359 49.57668,152.624454 C49.3412122,152.55455 49.1333414,152.451534 48.9530614,152.315404 C48.7727814,152.179275 48.6292954,152.006356 48.522599,151.796642 C48.4159027,151.586929 48.3625553,151.342267 48.3625553,151.062649 C48.3625553,150.709447 48.4269401,150.422475 48.5557115,150.201724 C48.684483,149.980973 48.8537229,149.808054 49.0634364,149.682961 C49.2731499,149.557869 49.5086141,149.46773 49.7698362,149.412543 C50.0310583,149.357355 50.294116,149.315045 50.5590172,149.285612 C50.7871266,149.241461 51.0041952,149.210189 51.2102295,149.191793 C51.4162639,149.173397 51.5983807,149.142124 51.7565856,149.097974 C51.9147906,149.053824 52.0398809,148.98576 52.1318605,148.89378 C52.2238401,148.801801 52.2698293,148.663833 52.2698293,148.479874 C52.2698293,148.31799 52.2311984,148.185541 52.1539355,148.082524 C52.0766727,147.979507 51.9810153,147.900406 51.8669606,147.845218 C51.7529059,147.79003 51.625976,147.753239 51.486167,147.734843 C51.346358,147.716447 51.2139093,147.707249 51.0888171,147.707249 C50.7356154,147.707249 50.4449642,147.780832 50.2168548,147.927999 C49.9887454,148.075167 49.8599759,148.303273 49.8305424,148.612324 L48.5722678,148.612324 C48.5943429,148.244406 48.682642,147.939038 48.8371677,147.696212 C48.9916934,147.453386 49.1885268,147.258392 49.4276738,147.111225 C49.6668207,146.964057 49.9372367,146.861042 50.2389298,146.802175 C50.5406229,146.743308 50.8496697,146.713875 51.1660796,146.713875 C51.4456975,146.713875 51.7216322,146.743308 51.9938918,146.802175 C52.2661515,146.861042 52.5108135,146.956699 52.7278854,147.08915 C52.9449572,147.2216 53.1197159,147.39268 53.2521665,147.602393 C53.3846171,147.812107 53.4508414,148.067806 53.4508414,148.369499 L53.4508414,151.305473 Z M52.1925668,149.716074 C52.0012492,149.841166 51.765785,149.916588 51.486167,149.942343 C51.206549,149.968097 50.9269352,150.006728 50.6473172,150.058236 C50.5148666,150.080311 50.3860971,150.111584 50.2610048,150.152055 C50.1359125,150.192526 50.0255387,150.247713 49.9298799,150.317617 C49.8342211,150.387522 49.758799,150.4795 49.7036112,150.593555 C49.6484234,150.70761 49.62083,150.845577 49.62083,151.007461 C49.62083,151.14727 49.6613004,151.265002 49.7422424,151.360661 C49.8231845,151.45632 49.9206814,151.531742 50.0347361,151.58693 C50.1487908,151.642117 50.2738812,151.680748 50.410011,151.702823 C50.5461408,151.724898 50.6693916,151.735936 50.7797672,151.735936 C50.9195762,151.735936 51.0704204,151.71754 51.2323045,151.680748 C51.3941886,151.643957 51.5468725,151.581411 51.6903607,151.493111 C51.8338488,151.404811 51.9534205,151.292597 52.0490793,151.156467 C52.1447381,151.020337 52.1925668,150.852937 52.1925668,150.654261 L52.1925668,149.716074 Z M55.2830659,144.694013 L56.5413406,144.694013 L56.5413406,152.574786 L55.2830659,152.574786 L55.2830659,144.694013 Z M58.3846025,144.694013 L59.6428772,144.694013 L59.6428772,152.574786 L58.3846025,152.574786 L58.3846025,144.694013 Z M65.3713381,149.219387 C65.3566214,149.020711 65.3143114,148.829396 65.2444069,148.645437 C65.1745024,148.461477 65.078845,148.301435 64.957432,148.165306 C64.8360189,148.029176 64.6888537,147.918802 64.5159321,147.834181 C64.3430104,147.749559 64.1498562,147.707249 63.9364635,147.707249 C63.7157125,147.707249 63.5151999,147.74588 63.3349199,147.823143 C63.1546399,147.900406 63.0001165,148.007101 62.871345,148.143231 C62.7425736,148.27936 62.639558,148.439402 62.5622951,148.623362 C62.4850323,148.807321 62.4427223,149.005994 62.4353639,149.219387 L65.3713381,149.219387 Z M62.4353639,150.047199 C62.4353639,150.26795 62.4666365,150.481339 62.5291826,150.687374 C62.5917288,150.893408 62.6855465,151.073685 62.8106388,151.228211 C62.9357311,151.382737 63.0939336,151.505988 63.2852512,151.597967 C63.4765687,151.689947 63.7046747,151.735936 63.969576,151.735936 C64.3374944,151.735936 64.6336643,151.656835 64.8580945,151.49863 C65.0825247,151.340425 65.2499251,151.103121 65.3603006,150.786711 L66.5523503,150.786711 C66.486125,151.095763 66.372072,151.371697 66.2101879,151.614523 C66.0483038,151.85735 65.85331,152.061541 65.6252005,152.227104 C65.3970911,152.392668 65.1413917,152.517758 64.8580945,152.602379 C64.5747973,152.687001 64.2786275,152.729311 63.969576,152.729311 C63.5207155,152.729311 63.1233696,152.655728 62.7775263,152.508561 C62.431683,152.361393 62.1391923,152.155362 61.9000453,151.890461 C61.6608983,151.62556 61.480621,151.309154 61.3592079,150.941236 C61.2377949,150.573318 61.1770892,150.168613 61.1770892,149.727111 C61.1770892,149.322401 61.241474,148.937932 61.3702454,148.573693 C61.4990169,148.209454 61.6829733,147.88937 61.9221203,147.613431 C62.1612673,147.337492 62.4500789,147.118584 62.7885638,146.9567 C63.1270487,146.794816 63.5096781,146.713875 63.9364635,146.713875 C64.385324,146.713875 64.7881886,146.807692 65.1450694,146.995331 C65.5019503,147.182969 65.7981202,147.43131 66.0335879,147.740362 C66.2690557,148.049413 66.4401352,148.404449 66.5468315,148.80548 C66.6535279,149.206511 66.6811214,149.620413 66.6296128,150.047199 L62.4353639,150.047199 Z M67.457425,146.8684 L68.4066498,146.8684 L68.4066498,145.157588 L69.6649244,145.157588 L69.6649244,146.8684 L70.8017866,146.8684 L70.8017866,147.806587 L69.6649244,147.806587 L69.6649244,150.852936 C69.6649244,150.985387 69.6704431,151.09944 69.6814807,151.195099 C69.6925182,151.290757 69.7182721,151.371698 69.7587431,151.437923 C69.7992142,151.504149 69.8599198,151.553817 69.9408618,151.58693 C70.0218039,151.620042 70.1321778,151.636598 70.2719868,151.636598 C70.3602872,151.636598 70.4485863,151.634759 70.5368867,151.63108 C70.6251871,151.6274 70.7134862,151.614523 70.8017866,151.592448 L70.8017866,152.563748 C70.6619776,152.578465 70.5258498,152.593181 70.3933992,152.607898 C70.2609486,152.622615 70.1248208,152.629973 69.9850118,152.629973 C69.6538853,152.629973 69.3871484,152.598701 69.1847933,152.536154 C68.9824382,152.473608 68.8242356,152.38163 68.7101809,152.260217 C68.5961262,152.138804 68.5188645,151.98612 68.4783935,151.802161 C68.4379225,151.618202 68.4140081,151.408491 68.4066498,151.173024 L68.4066498,147.806587 L67.457425,147.806587 L67.457425,146.8684 Z M77.9430471,144.694013 L79.4110342,144.694013 L82.4463459,152.574786 L80.9673213,152.574786 L80.227809,150.488699 L77.0821223,150.488699 L76.34261,152.574786 L74.9187729,152.574786 L77.9430471,144.694013 Z M77.4573972,149.440136 L79.8635716,149.440136 L78.6825594,146.051625 L78.6494469,146.051625 L77.4573972,149.440136 Z M88.8370566,152.574786 L87.645007,152.574786 L87.645007,151.802161 L87.622932,151.802161 C87.4536895,152.133287 87.2071879,152.370591 86.8834197,152.514079 C86.5596515,152.657568 86.2174925,152.729311 85.8569324,152.729311 C85.408072,152.729311 85.0162448,152.650209 84.681439,152.492004 C84.3466333,152.333799 84.068859,152.11857 83.848108,151.846311 C83.6273569,151.574051 83.4617961,151.252127 83.3514206,150.88053 C83.2410451,150.508932 83.1858582,150.109747 83.1858582,149.682961 C83.1858582,149.167876 83.2557616,148.722701 83.3955706,148.347424 C83.5353796,147.972147 83.7211756,147.663101 83.9529642,147.420275 C84.1847528,147.177448 84.4496501,146.999011 84.747664,146.884956 C85.0456779,146.770901 85.349206,146.713875 85.6582575,146.713875 C85.8348583,146.713875 86.0151356,146.730431 86.1990949,146.763543 C86.3830541,146.796656 86.5596522,146.850003 86.7288947,146.923587 C86.8981372,146.997171 87.0545002,147.090989 87.1979883,147.205043 C87.3414765,147.319098 87.4610482,147.453386 87.556707,147.607912 L87.578782,147.607912 L87.578782,144.694013 L88.8370566,144.694013 L88.8370566,152.574786 Z M84.4441328,149.782299 C84.4441328,150.025125 84.4754054,150.264268 84.5379515,150.499736 C84.6004977,150.735204 84.696155,150.944914 84.8249265,151.128874 C84.9536979,151.312833 85.1174191,151.459998 85.3160951,151.570373 C85.514771,151.680749 85.7502353,151.735936 86.0224949,151.735936 C86.3021129,151.735936 86.5430958,151.67707 86.745451,151.559336 C86.9478061,151.441602 87.1133669,151.287079 87.2421383,151.095761 C87.3709098,150.904443 87.4665671,150.689214 87.5291132,150.450067 C87.5916594,150.21092 87.622932,149.966258 87.622932,149.716074 C87.622932,149.083254 87.4812855,148.590251 87.1979883,148.237049 C86.9146912,147.883848 86.5302222,147.707249 86.0445699,147.707249 C85.7502352,147.707249 85.501894,147.767955 85.2995388,147.889368 C85.0971837,148.010781 84.9316229,148.168984 84.8028515,148.363981 C84.67408,148.558977 84.5821018,148.779725 84.5269141,149.02623 C84.4717263,149.272736 84.4441328,149.524756 84.4441328,149.782299 Z M96.0224672,152.574786 L94.8304175,152.574786 L94.8304175,151.802161 L94.8083425,151.802161 C94.6391,152.133287 94.3925984,152.370591 94.0688302,152.514079 C93.745062,152.657568 93.402903,152.729311 93.042343,152.729311 C92.5934825,152.729311 92.2016553,152.650209 91.8668495,152.492004 C91.5320438,152.333799 91.2542696,152.11857 91.0335185,151.846311 C90.8127675,151.574051 90.6472067,151.252127 90.5368311,150.88053 C90.4264556,150.508932 90.3712687,150.109747 90.3712687,149.682961 C90.3712687,149.167876 90.4411721,148.722701 90.5809811,148.347424 C90.7207901,147.972147 90.9065861,147.663101 91.1383747,147.420275 C91.3701633,147.177448 91.6350606,146.999011 91.9330745,146.884956 C92.2310884,146.770901 92.5346166,146.713875 92.843668,146.713875 C93.0202689,146.713875 93.2005462,146.730431 93.3845054,146.763543 C93.5684646,146.796656 93.7450628,146.850003 93.9143052,146.923587 C94.0835477,146.997171 94.2399107,147.090989 94.3833989,147.205043 C94.526887,147.319098 94.6464587,147.453386 94.7421175,147.607912 L94.7641925,147.607912 L94.7641925,144.694013 L96.0224672,144.694013 L96.0224672,152.574786 Z M91.6295433,149.782299 C91.6295433,150.025125 91.6608159,150.264268 91.7233621,150.499736 C91.7859082,150.735204 91.8815656,150.944914 92.010337,151.128874 C92.1391084,151.312833 92.3028297,151.459998 92.5015056,151.570373 C92.7001816,151.680749 92.9356458,151.735936 93.2079054,151.735936 C93.4875234,151.735936 93.7285064,151.67707 93.9308615,151.559336 C94.1332166,151.441602 94.2987774,151.287079 94.4275488,151.095761 C94.5563203,150.904443 94.6519776,150.689214 94.7145238,150.450067 C94.7770699,150.21092 94.8083425,149.966258 94.8083425,149.716074 C94.8083425,149.083254 94.666696,148.590251 94.3833989,148.237049 C94.1001017,147.883848 93.7156327,147.707249 93.2299804,147.707249 C92.9356457,147.707249 92.6873045,147.767955 92.4849494,147.889368 C92.2825942,148.010781 92.1170334,148.168984 91.988262,148.363981 C91.8594906,148.558977 91.7675123,148.779725 91.7123246,149.02623 C91.6571368,149.272736 91.6295433,149.524756 91.6295433,149.782299 Z M97.8326166,146.8684 L99.0136288,146.8684 L99.0136288,147.972149 L99.0357038,147.972149 C99.0724957,147.817624 99.1442387,147.666779 99.250935,147.519612 C99.3576313,147.372445 99.4864009,147.238156 99.6372474,147.116743 C99.788094,146.99533 99.9554943,146.897833 100.139454,146.82425 C100.323413,146.750666 100.511048,146.713875 100.702366,146.713875 C100.849533,146.713875 100.950709,146.717554 101.005897,146.724912 C101.061085,146.732271 101.118111,146.739629 101.176978,146.746987 L101.176978,147.961112 C101.088678,147.946395 100.998539,147.933518 100.90656,147.922481 C100.81458,147.911443 100.724441,147.905924 100.636141,147.905924 C100.422748,147.905924 100.222236,147.948234 100.034597,148.032856 C99.8469589,148.117477 99.6832377,148.242567 99.5434287,148.408131 C99.4036197,148.573694 99.2932458,148.777885 99.2123038,149.020712 C99.1313617,149.263538 99.0908913,149.543152 99.0908913,149.859561 L99.0908913,152.574786 L97.8326166,152.574786 L97.8326166,146.8684 Z M105.878952,149.219387 C105.864235,149.020711 105.821925,148.829396 105.752021,148.645437 C105.682116,148.461477 105.586459,148.301435 105.465046,148.165306 C105.343633,148.029176 105.196468,147.918802 105.023546,147.834181 C104.850624,147.749559 104.65747,147.707249 104.444077,147.707249 C104.223326,147.707249 104.022814,147.74588 103.842534,147.823143 C103.662254,147.900406 103.50773,148.007101 103.378959,148.143231 C103.250187,148.27936 103.147172,148.439402 103.069909,148.623362 C102.992646,148.807321 102.950336,149.005994 102.942978,149.219387 L105.878952,149.219387 Z M102.942978,150.047199 C102.942978,150.26795 102.97425,150.481339 103.036796,150.687374 C103.099343,150.893408 103.19316,151.073685 103.318253,151.228211 C103.443345,151.382737 103.601547,151.505988 103.792865,151.597967 C103.984183,151.689947 104.212289,151.735936 104.47719,151.735936 C104.845108,151.735936 105.141278,151.656835 105.365708,151.49863 C105.590139,151.340425 105.757539,151.103121 105.867914,150.786711 L107.059964,150.786711 C106.993739,151.095763 106.879686,151.371697 106.717802,151.614523 C106.555918,151.85735 106.360924,152.061541 106.132814,152.227104 C105.904705,152.392668 105.649005,152.517758 105.365708,152.602379 C105.082411,152.687001 104.786241,152.729311 104.47719,152.729311 C104.028329,152.729311 103.630983,152.655728 103.28514,152.508561 C102.939297,152.361393 102.646806,152.155362 102.407659,151.890461 C102.168512,151.62556 101.988235,151.309154 101.866822,150.941236 C101.745409,150.573318 101.684703,150.168613 101.684703,149.727111 C101.684703,149.322401 101.749088,148.937932 101.877859,148.573693 C102.006631,148.209454 102.190587,147.88937 102.429734,147.613431 C102.668881,147.337492 102.957693,147.118584 103.296178,146.9567 C103.634663,146.794816 104.017292,146.713875 104.444077,146.713875 C104.892938,146.713875 105.295802,146.807692 105.652683,146.995331 C106.009564,147.182969 106.305734,147.43131 106.541202,147.740362 C106.77667,148.049413 106.947749,148.404449 107.054445,148.80548 C107.161142,149.206511 107.188735,149.620413 107.137227,150.047199 L102.942978,150.047199 Z M109.488213,150.742561 C109.525005,151.11048 109.664812,151.368019 109.907638,151.515186 C110.150464,151.662353 110.441116,151.735936 110.779601,151.735936 C110.897334,151.735936 111.031623,151.726738 111.182469,151.708342 C111.333316,151.689946 111.474962,151.654994 111.607413,151.603486 C111.739863,151.551977 111.848398,151.476555 111.933019,151.377217 C112.01764,151.277879 112.056271,151.14727 112.048913,150.985386 C112.041554,150.823502 111.982688,150.691053 111.872313,150.588036 C111.761937,150.485019 111.620291,150.402239 111.447369,150.339692 C111.274447,150.277146 111.077614,150.223799 110.856863,150.179649 C110.636112,150.135499 110.411685,150.08767 110.183576,150.036161 C109.948108,149.984653 109.721842,149.922108 109.50477,149.848524 C109.287698,149.77494 109.092704,149.675604 108.919782,149.550511 C108.746861,149.425419 108.608893,149.265377 108.505876,149.07038 C108.402859,148.875384 108.351351,148.634401 108.351351,148.347424 C108.351351,148.038373 108.426773,147.778994 108.57762,147.569281 C108.728466,147.359567 108.919781,147.190327 109.15157,147.061556 C109.383358,146.932784 109.640897,146.842646 109.924195,146.791137 C110.207492,146.739629 110.477908,146.713875 110.735451,146.713875 C111.029785,146.713875 111.311239,146.745147 111.579819,146.807693 C111.8484,146.87024 112.091222,146.971416 112.308294,147.111225 C112.525366,147.251034 112.705643,147.43315 112.849131,147.657581 C112.992619,147.882011 113.082758,148.152427 113.11955,148.468837 L111.806088,148.468837 C111.747221,148.167144 111.609254,147.964792 111.392182,147.861774 C111.17511,147.758757 110.926769,147.707249 110.647151,147.707249 C110.55885,147.707249 110.453995,147.714608 110.332582,147.729324 C110.211169,147.744041 110.097116,147.771635 109.99042,147.812106 C109.883723,147.852577 109.793585,147.911443 109.720001,147.988706 C109.646417,148.065968 109.609626,148.167145 109.609626,148.292237 C109.609626,148.446763 109.662973,148.571853 109.76967,148.667512 C109.876366,148.76317 110.016173,148.842272 110.189094,148.904818 C110.362016,148.967364 110.55885,149.020711 110.779601,149.064862 C111.000352,149.109012 111.228458,149.15684 111.463925,149.208349 C111.692035,149.259858 111.916462,149.322403 112.137213,149.395986 C112.357964,149.46957 112.554797,149.568907 112.727719,149.693999 C112.90064,149.819091 113.040447,149.977294 113.147144,150.168611 C113.25384,150.359929 113.307187,150.595393 113.307187,150.875011 C113.307187,151.213496 113.229926,151.500468 113.0754,151.735936 C112.920874,151.971404 112.720362,152.162718 112.473856,152.309886 C112.227351,152.457053 111.953256,152.563748 111.651563,152.629973 C111.34987,152.696198 111.05186,152.729311 110.757526,152.729311 C110.396966,152.729311 110.064004,152.68884 109.758632,152.607898 C109.45326,152.526956 109.188363,152.403705 108.963932,152.238142 C108.739502,152.072579 108.562904,151.866547 108.434132,151.620042 C108.305361,151.373537 108.237297,151.081046 108.229939,150.742561 L109.488213,150.742561 Z M115.658174,150.742561 C115.694966,151.11048 115.834773,151.368019 116.077599,151.515186 C116.320425,151.662353 116.611076,151.735936 116.949561,151.735936 C117.067295,151.735936 117.201583,151.726738 117.35243,151.708342 C117.503277,151.689946 117.644923,151.654994 117.777374,151.603486 C117.909824,151.551977 118.018359,151.476555 118.10298,151.377217 C118.187601,151.277879 118.226232,151.14727 118.218874,150.985386 C118.211515,150.823502 118.152649,150.691053 118.042274,150.588036 C117.931898,150.485019 117.790252,150.402239 117.61733,150.339692 C117.444408,150.277146 117.247575,150.223799 117.026824,150.179649 C116.806073,150.135499 116.581646,150.08767 116.353537,150.036161 C116.118069,149.984653 115.891802,149.922108 115.67473,149.848524 C115.457659,149.77494 115.262665,149.675604 115.089743,149.550511 C114.916821,149.425419 114.778854,149.265377 114.675837,149.07038 C114.57282,148.875384 114.521312,148.634401 114.521312,148.347424 C114.521312,148.038373 114.596734,147.778994 114.747581,147.569281 C114.898427,147.359567 115.089742,147.190327 115.321531,147.061556 C115.553319,146.932784 115.810858,146.842646 116.094155,146.791137 C116.377453,146.739629 116.647869,146.713875 116.905411,146.713875 C117.199746,146.713875 117.481199,146.745147 117.74978,146.807693 C118.01836,146.87024 118.261183,146.971416 118.478255,147.111225 C118.695327,147.251034 118.875604,147.43315 119.019092,147.657581 C119.16258,147.882011 119.252719,148.152427 119.289511,148.468837 L117.976049,148.468837 C117.917182,148.167144 117.779214,147.964792 117.562142,147.861774 C117.345071,147.758757 117.096729,147.707249 116.817111,147.707249 C116.728811,147.707249 116.623956,147.714608 116.502543,147.729324 C116.38113,147.744041 116.267077,147.771635 116.16038,147.812106 C116.053684,147.852577 115.963545,147.911443 115.889962,147.988706 C115.816378,148.065968 115.779587,148.167145 115.779587,148.292237 C115.779587,148.446763 115.832934,148.571853 115.93963,148.667512 C116.046327,148.76317 116.186134,148.842272 116.359055,148.904818 C116.531977,148.967364 116.72881,149.020711 116.949561,149.064862 C117.170312,149.109012 117.398418,149.15684 117.633886,149.208349 C117.861996,149.259858 118.086422,149.322403 118.307174,149.395986 C118.527925,149.46957 118.724758,149.568907 118.89768,149.693999 C119.070601,149.819091 119.210408,149.977294 119.317104,150.168611 C119.423801,150.359929 119.477148,150.595393 119.477148,150.875011 C119.477148,151.213496 119.399886,151.500468 119.245361,151.735936 C119.090835,151.971404 118.890323,152.162718 118.643817,152.309886 C118.397312,152.457053 118.123217,152.563748 117.821524,152.629973 C117.519831,152.696198 117.221821,152.729311 116.927486,152.729311 C116.566926,152.729311 116.233965,152.68884 115.928593,152.607898 C115.623221,152.526956 115.358323,152.403705 115.133893,152.238142 C114.909463,152.072579 114.732865,151.866547 114.604093,151.620042 C114.475322,151.373537 114.407258,151.081046 114.3999,150.742561 L115.658174,150.742561 Z" id="Wallet-Address" fill="#D3DDE5" opacity="0.799999952"></path>
            <path d="M222.721896,216.392098 L225.988995,216.392098 C226.592381,216.392098 227.114818,216.495113 227.55632,216.701148 C227.997822,216.907182 228.358376,217.188635 228.637994,217.545516 C228.917612,217.902397 229.125483,218.319978 229.261613,218.798272 C229.397743,219.276566 229.465807,219.787965 229.465807,220.332484 C229.465807,220.877003 229.397743,221.388402 229.261613,221.866696 C229.125483,222.34499 228.917612,222.762571 228.637994,223.119452 C228.358376,223.476333 227.997822,223.757786 227.55632,223.963821 C227.114818,224.169855 226.592381,224.272871 225.988995,224.272871 L222.721896,224.272871 L222.721896,216.392098 Z M224.101583,223.147046 L225.459195,223.147046 C225.996356,223.147046 226.436012,223.075303 226.778176,222.931815 C227.12034,222.788327 227.388917,222.589654 227.583913,222.33579 C227.77891,222.081926 227.911359,221.783917 227.981263,221.441753 C228.051168,221.099588 228.086119,220.729836 228.086119,220.332484 C228.086119,219.935132 228.051168,219.56538 227.981263,219.223216 C227.911359,218.881052 227.77891,218.583042 227.583913,218.329178 C227.388917,218.075315 227.12034,217.876642 226.778176,217.733154 C226.436012,217.589665 225.996356,217.517922 225.459195,217.517922 L224.101583,217.517922 L224.101583,223.147046 Z M233.240631,216.392098 L234.708618,216.392098 L237.743929,224.272871 L236.264905,224.272871 L235.525392,222.186784 L232.379706,222.186784 L231.640193,224.272871 L230.216356,224.272871 L233.240631,216.392098 Z M232.754981,221.138221 L235.161155,221.138221 L233.980143,217.74971 L233.94703,217.74971 L232.754981,221.138221 Z M238.935979,216.392098 L242.412791,216.392098 C242.972027,216.392098 243.428238,216.473039 243.78144,216.634923 C244.134642,216.796807 244.406897,216.999159 244.598215,217.241985 C244.789533,217.484811 244.920142,217.749708 244.990046,218.036685 C245.059951,218.323661 245.094902,218.588558 245.094902,218.831385 C245.094902,219.074211 245.059951,219.337268 244.990046,219.620566 C244.920142,219.903863 244.789533,220.16692 244.598215,220.409747 C244.406897,220.652573 244.134642,220.853085 243.78144,221.01129 C243.428238,221.169495 242.972027,221.248596 242.412791,221.248596 L240.315666,221.248596 L240.315666,224.272871 L238.935979,224.272871 L238.935979,216.392098 Z M240.315666,220.122772 L242.335528,220.122772 C242.490054,220.122772 242.648256,220.100697 242.81014,220.056547 C242.972025,220.012397 243.121029,219.940654 243.257159,219.841316 C243.393289,219.741978 243.503663,219.609529 243.588284,219.443966 C243.672905,219.278402 243.715215,219.070532 243.715215,218.820347 C243.715215,218.562804 243.678424,218.349415 243.60484,218.180172 C243.531257,218.01093 243.43192,217.876642 243.306828,217.777304 C243.181736,217.677966 243.038249,217.609902 242.876365,217.57311 C242.714481,217.536318 242.541562,217.517922 242.357603,217.517922 L240.315666,217.517922 L240.315666,220.122772 Z M246.739489,216.392098 L250.216301,216.392098 C250.775537,216.392098 251.231749,216.473039 251.584951,216.634923 C251.938152,216.796807 252.210408,216.999159 252.401725,217.241985 C252.593043,217.484811 252.723652,217.749708 252.793556,218.036685 C252.863461,218.323661 252.898413,218.588558 252.898413,218.831385 C252.898413,219.074211 252.863461,219.337268 252.793556,219.620566 C252.723652,219.903863 252.593043,220.16692 252.401725,220.409747 C252.210408,220.652573 251.938152,220.853085 251.584951,221.01129 C251.231749,221.169495 250.775537,221.248596 250.216301,221.248596 L248.119176,221.248596 L248.119176,224.272871 L246.739489,224.272871 L246.739489,216.392098 Z M248.119176,220.122772 L250.139038,220.122772 C250.293564,220.122772 250.451767,220.100697 250.613651,220.056547 C250.775535,220.012397 250.92454,219.940654 251.060669,219.841316 C251.196799,219.741978 251.307173,219.609529 251.391794,219.443966 C251.476416,219.278402 251.518726,219.070532 251.518726,218.820347 C251.518726,218.562804 251.481934,218.349415 251.408351,218.180172 C251.334767,218.01093 251.23543,217.876642 251.110338,217.777304 C250.985246,217.677966 250.84176,217.609902 250.679876,217.57311 C250.517992,217.536318 250.345073,217.517922 250.161113,217.517922 L248.119176,217.517922 L248.119176,220.122772 Z M259.432611,219.692309 L261.68426,219.692309 C262.015387,219.692309 262.291321,219.598492 262.512072,219.410853 C262.732824,219.223215 262.843197,218.952799 262.843197,218.599597 C262.843197,218.202245 262.743861,217.922631 262.545185,217.760747 C262.346509,217.598863 262.059537,217.517922 261.68426,217.517922 L259.432611,217.517922 L259.432611,219.692309 Z M258.052924,216.392098 L261.882935,216.392098 C262.589339,216.392098 263.155924,216.553979 263.58271,216.877748 C264.009495,217.201516 264.222885,217.69084 264.222885,218.345735 C264.222885,218.743087 264.125388,219.083406 263.930391,219.366703 C263.735394,219.65 263.45762,219.868909 263.09706,220.023434 L263.09706,220.045509 C263.582712,220.148526 263.950625,220.378472 264.20081,220.735353 C264.450994,221.092234 264.576084,221.539248 264.576084,222.076409 C264.576084,222.38546 264.520898,222.674272 264.410522,222.942852 C264.300146,223.211433 264.127227,223.443218 263.89176,223.638215 C263.656292,223.833211 263.354603,223.987735 262.986685,224.101789 C262.618766,224.215844 262.18095,224.272871 261.673223,224.272871 L258.052924,224.272871 L258.052924,216.392098 Z M259.432611,223.147046 L261.871898,223.147046 C262.291325,223.147046 262.616928,223.038512 262.848716,222.82144 C263.080505,222.604368 263.196397,222.297161 263.196397,221.899809 C263.196397,221.509815 263.080505,221.209966 262.848716,221.000253 C262.616928,220.790539 262.291325,220.685684 261.871898,220.685684 L259.432611,220.685684 L259.432611,223.147046 Z M270.867458,223.003558 C270.867458,223.158084 270.887693,223.268458 270.928164,223.334683 C270.968635,223.400909 271.047736,223.434021 271.16547,223.434021 L271.29792,223.434021 C271.349429,223.434021 271.408295,223.426663 271.47452,223.411946 L271.47452,224.283908 C271.43037,224.298625 271.373343,224.315181 271.303439,224.333577 C271.233534,224.351973 271.161791,224.368529 271.088208,224.383246 C271.014624,224.397962 270.941041,224.409 270.867458,224.416358 C270.793874,224.423716 270.731329,224.427396 270.67982,224.427396 C270.422277,224.427396 270.208888,224.375888 270.039645,224.272871 C269.870403,224.169853 269.760029,223.989576 269.708521,223.732033 C269.458336,223.974859 269.151129,224.151458 268.78689,224.261833 C268.42265,224.372209 268.071293,224.427396 267.732809,224.427396 C267.475266,224.427396 267.228764,224.392444 266.993296,224.322539 C266.757828,224.252635 266.549958,224.149619 266.369678,224.013489 C266.189398,223.87736 266.045912,223.704441 265.939215,223.494727 C265.832519,223.285014 265.779172,223.040351 265.779172,222.760733 C265.779172,222.407532 265.843556,222.12056 265.972328,221.899809 C266.101099,221.679058 266.270339,221.506139 266.480053,221.381046 C266.689766,221.255954 266.92523,221.165815 267.186452,221.110628 C267.447675,221.05544 267.710732,221.01313 267.975633,220.983696 C268.203743,220.939546 268.420811,220.908274 268.626846,220.889878 C268.83288,220.871482 269.014997,220.840209 269.173202,220.796059 C269.331407,220.751909 269.456497,220.683845 269.548477,220.591865 C269.640456,220.499886 269.686446,220.361918 269.686446,220.177959 C269.686446,220.016075 269.647815,219.883626 269.570552,219.780609 C269.493289,219.677592 269.397632,219.598491 269.283577,219.543303 C269.169522,219.488115 269.042592,219.451324 268.902783,219.432928 C268.762974,219.414532 268.630526,219.405334 268.505433,219.405334 C268.152232,219.405334 267.86158,219.478917 267.633471,219.626084 C267.405362,219.773252 267.276592,220.001358 267.247159,220.310409 L265.988884,220.310409 C266.010959,219.942491 266.099258,219.637123 266.253784,219.394297 C266.40831,219.151471 266.605143,218.956477 266.84429,218.80931 C267.083437,218.662142 267.353853,218.559127 267.655546,218.50026 C267.957239,218.441393 268.266286,218.41196 268.582696,218.41196 C268.862314,218.41196 269.138248,218.441393 269.410508,218.50026 C269.682768,218.559127 269.92743,218.654784 270.144502,218.787235 C270.361574,218.919685 270.536332,219.090765 270.668783,219.300478 C270.801233,219.510192 270.867458,219.765891 270.867458,220.067584 L270.867458,223.003558 Z M269.609183,221.414159 C269.417865,221.539251 269.182401,221.614673 268.902783,221.640428 C268.623165,221.666182 268.343551,221.704813 268.063933,221.756321 C267.931483,221.778396 267.802713,221.809669 267.677621,221.85014 C267.552529,221.890611 267.442155,221.945798 267.346496,222.015702 C267.250837,222.085607 267.175415,222.177585 267.120227,222.29164 C267.06504,222.405695 267.037446,222.543662 267.037446,222.705546 C267.037446,222.845355 267.077917,222.963087 267.158859,223.058746 C267.239801,223.154405 267.337298,223.229827 267.451352,223.285015 C267.565407,223.340202 267.690497,223.378833 267.826627,223.400908 C267.962757,223.422983 268.086008,223.434021 268.196383,223.434021 C268.336192,223.434021 268.487037,223.415625 268.648921,223.378833 C268.810805,223.342041 268.963489,223.279496 269.106977,223.191196 C269.250465,223.102895 269.370037,222.990682 269.465696,222.854552 C269.561354,222.718422 269.609183,222.551022 269.609183,222.352346 L269.609183,221.414159 Z M272.699682,216.392098 L273.957957,216.392098 L273.957957,224.272871 L272.699682,224.272871 L272.699682,216.392098 Z M280.547343,223.003558 C280.547343,223.158084 280.567578,223.268458 280.608049,223.334683 C280.64852,223.400909 280.727621,223.434021 280.845355,223.434021 L280.977805,223.434021 C281.029313,223.434021 281.08818,223.426663 281.154405,223.411946 L281.154405,224.283908 C281.110255,224.298625 281.053228,224.315181 280.983324,224.333577 C280.913419,224.351973 280.841676,224.368529 280.768092,224.383246 C280.694509,224.397962 280.620926,224.409 280.547343,224.416358 C280.473759,224.423716 280.411214,224.427396 280.359705,224.427396 C280.102162,224.427396 279.888773,224.375888 279.71953,224.272871 C279.550288,224.169853 279.439914,223.989576 279.388405,223.732033 C279.138221,223.974859 278.831014,224.151458 278.466774,224.261833 C278.102535,224.372209 277.751178,224.427396 277.412693,224.427396 C277.15515,224.427396 276.908649,224.392444 276.673181,224.322539 C276.437713,224.252635 276.229843,224.149619 276.049562,224.013489 C275.869282,223.87736 275.725796,223.704441 275.6191,223.494727 C275.512404,223.285014 275.459056,223.040351 275.459056,222.760733 C275.459056,222.407532 275.523441,222.12056 275.652213,221.899809 C275.780984,221.679058 275.950224,221.506139 276.159937,221.381046 C276.369651,221.255954 276.605115,221.165815 276.866337,221.110628 C277.127559,221.05544 277.390617,221.01313 277.655518,220.983696 C277.883628,220.939546 278.100696,220.908274 278.306731,220.889878 C278.512765,220.871482 278.694882,220.840209 278.853087,220.796059 C279.011292,220.751909 279.136382,220.683845 279.228362,220.591865 C279.320341,220.499886 279.36633,220.361918 279.36633,220.177959 C279.36633,220.016075 279.327699,219.883626 279.250437,219.780609 C279.173174,219.677592 279.077516,219.598491 278.963462,219.543303 C278.849407,219.488115 278.722477,219.451324 278.582668,219.432928 C278.442859,219.414532 278.31041,219.405334 278.185318,219.405334 C277.832116,219.405334 277.541465,219.478917 277.313356,219.626084 C277.085246,219.773252 276.956477,220.001358 276.927043,220.310409 L275.668769,220.310409 C275.690844,219.942491 275.779143,219.637123 275.933669,219.394297 C276.088194,219.151471 276.285028,218.956477 276.524175,218.80931 C276.763322,218.662142 277.033738,218.559127 277.335431,218.50026 C277.637124,218.441393 277.946171,218.41196 278.262581,218.41196 C278.542199,218.41196 278.818133,218.441393 279.090393,218.50026 C279.362653,218.559127 279.607315,218.654784 279.824386,218.787235 C280.041458,218.919685 280.216217,219.090765 280.348668,219.300478 C280.481118,219.510192 280.547343,219.765891 280.547343,220.067584 L280.547343,223.003558 Z M279.289068,221.414159 C279.09775,221.539251 278.862286,221.614673 278.582668,221.640428 C278.30305,221.666182 278.023436,221.704813 277.743818,221.756321 C277.611368,221.778396 277.482598,221.809669 277.357506,221.85014 C277.232414,221.890611 277.12204,221.945798 277.026381,222.015702 C276.930722,222.085607 276.8553,222.177585 276.800112,222.29164 C276.744925,222.405695 276.717331,222.543662 276.717331,222.705546 C276.717331,222.845355 276.757801,222.963087 276.838744,223.058746 C276.919686,223.154405 277.017182,223.229827 277.131237,223.285015 C277.245292,223.340202 277.370382,223.378833 277.506512,223.400908 C277.642642,223.422983 277.765893,223.434021 277.876268,223.434021 C278.016077,223.434021 278.166922,223.415625 278.328806,223.378833 C278.49069,223.342041 278.643374,223.279496 278.786862,223.191196 C278.93035,223.102895 279.049922,222.990682 279.14558,222.854552 C279.241239,222.718422 279.289068,222.551022 279.289068,222.352346 L279.289068,221.414159 Z M282.346454,218.566485 L283.538504,218.566485 L283.538504,219.405334 L283.560579,219.427409 C283.751897,219.111 284.002078,218.862658 284.311129,218.682378 C284.62018,218.502098 284.962339,218.41196 285.337616,218.41196 C285.963077,218.41196 286.456081,218.573841 286.816641,218.89761 C287.177201,219.221378 287.357478,219.707023 287.357478,220.354559 L287.357478,224.272871 L286.099203,224.272871 L286.099203,220.685684 C286.084487,220.236824 285.988829,219.911221 285.812229,219.708866 C285.635628,219.50651 285.359693,219.405334 284.984416,219.405334 C284.771024,219.405334 284.579709,219.443965 284.410466,219.521228 C284.241224,219.598491 284.097738,219.705186 283.980004,219.841316 C283.86227,219.977445 283.770292,220.137487 283.704067,220.321447 C283.637841,220.505406 283.604729,220.7004 283.604729,220.906434 L283.604729,224.272871 L282.346454,224.272871 L282.346454,218.566485 Z M292.975564,220.475972 C292.924056,220.12277 292.782409,219.856033 292.55062,219.675753 C292.318832,219.495473 292.026341,219.405334 291.673139,219.405334 C291.511255,219.405334 291.338336,219.432928 291.154377,219.488116 C290.970418,219.543303 290.801178,219.646319 290.646652,219.797166 C290.492126,219.948012 290.363357,220.157722 290.26034,220.426303 C290.157323,220.694883 290.105815,221.04624 290.105815,221.480384 C290.105815,221.715852 290.133408,221.951316 290.188596,222.186784 C290.243784,222.422251 290.332083,222.631962 290.453496,222.815921 C290.574909,222.99988 290.731272,223.148885 290.92259,223.26294 C291.113907,223.376994 291.345692,223.434021 291.617952,223.434021 C291.98587,223.434021 292.289399,223.319968 292.528545,223.091858 C292.767692,222.863749 292.916697,222.543665 292.975564,222.131596 L294.233839,222.131596 C294.116105,222.874791 293.834652,223.443217 293.38947,223.836889 C292.944289,224.230562 292.353789,224.427396 291.617952,224.427396 C291.169092,224.427396 290.773585,224.351973 290.431421,224.201127 C290.089257,224.05028 289.800445,223.844249 289.564978,223.583027 C289.32951,223.321805 289.151072,223.010919 289.029659,222.650359 C288.908246,222.289798 288.84754,221.899811 288.84754,221.480384 C288.84754,221.053598 288.906406,220.652573 289.02414,220.277297 C289.141874,219.90202 289.318472,219.576417 289.55394,219.300478 C289.789408,219.024539 290.081899,218.807471 290.431421,218.649266 C290.780944,218.491061 291.191166,218.41196 291.662102,218.41196 C291.993229,218.41196 292.307794,218.45427 292.605808,218.538891 C292.903822,218.623512 293.168719,218.750442 293.400508,218.919685 C293.632296,219.088927 293.821771,219.302316 293.968939,219.559859 C294.116106,219.817402 294.204405,220.12277 294.233839,220.475972 L292.975564,220.475972 Z M299.620137,220.917471 C299.605421,220.718796 299.563111,220.527481 299.493206,220.343522 C299.423302,220.159562 299.327644,219.99952 299.206231,219.863391 C299.084818,219.727261 298.937653,219.616887 298.764731,219.532266 C298.59181,219.447644 298.398655,219.405334 298.185263,219.405334 C297.964512,219.405334 297.763999,219.443965 297.583719,219.521228 C297.403439,219.598491 297.248916,219.705186 297.120144,219.841316 C296.991373,219.977445 296.888357,220.137487 296.811094,220.321447 C296.733831,220.505406 296.691521,220.704079 296.684163,220.917471 L299.620137,220.917471 Z M296.684163,221.745284 C296.684163,221.966035 296.715436,222.179424 296.777982,222.385459 C296.840528,222.591493 296.934346,222.77177 297.059438,222.926296 C297.18453,223.080822 297.342733,223.204072 297.53405,223.296052 C297.725368,223.388032 297.953474,223.434021 298.218375,223.434021 C298.586294,223.434021 298.882463,223.35492 299.106894,223.196715 C299.331324,223.03851 299.498724,222.801206 299.6091,222.484796 L300.801149,222.484796 C300.734924,222.793848 300.620871,223.069782 300.458987,223.312608 C300.297103,223.555434 300.102109,223.759626 299.874,223.925189 C299.64589,224.090753 299.390191,224.215843 299.106894,224.300464 C298.823596,224.385086 298.527427,224.427396 298.218375,224.427396 C297.769515,224.427396 297.372169,224.353813 297.026325,224.206646 C296.680482,224.059478 296.387991,223.853447 296.148844,223.588546 C295.909697,223.323645 295.72942,223.007239 295.608007,222.639321 C295.486594,222.271403 295.425888,221.866698 295.425888,221.425196 C295.425888,221.020486 295.490273,220.636017 295.619045,220.271778 C295.747816,219.907539 295.931772,219.587454 296.170919,219.311516 C296.410066,219.035577 296.698878,218.816669 297.037363,218.654785 C297.375848,218.492901 297.758477,218.41196 298.185263,218.41196 C298.634123,218.41196 299.036988,218.505777 299.393869,218.693416 C299.750749,218.881054 300.046919,219.129395 300.282387,219.438447 C300.517855,219.747498 300.688934,220.102534 300.795631,220.503565 C300.902327,220.904596 300.929921,221.318498 300.878412,221.745284 L296.684163,221.745284 Z" id="DAPP-Balance" fill="#D3DDE5" opacity="0.799999952"></path>
            <path d="M37.6230707,216.392098 L39.0248329,216.392098 L40.44867,222.418571 L40.470745,222.418571 L42.0601445,216.392098 L43.4729442,216.392098 L45.0181937,222.418571 L45.0402687,222.418571 L46.5082558,216.392098 L47.910018,216.392098 L45.7356311,224.272871 L44.3338689,224.272871 L42.7555069,218.246397 L42.7334319,218.246397 L41.1219573,224.272871 L39.6981202,224.272871 L37.6230707,216.392098 Z M53.4508414,223.003558 C53.4508414,223.158084 53.4710766,223.268458 53.5115477,223.334683 C53.5520187,223.400909 53.63112,223.434021 53.7488539,223.434021 L53.8813038,223.434021 C53.9328124,223.434021 53.9916785,223.426663 54.0579038,223.411946 L54.0579038,224.283908 C54.0137536,224.298625 53.9567271,224.315181 53.8868226,224.333577 C53.8169181,224.351973 53.7451751,224.368529 53.6715914,224.383246 C53.5980077,224.397962 53.5244251,224.409 53.4508414,224.416358 C53.3772578,224.423716 53.3147126,224.427396 53.263204,224.427396 C53.0056611,224.427396 52.7922716,224.375888 52.6230292,224.272871 C52.4537867,224.169853 52.3434128,223.989576 52.2919043,223.732033 C52.0417197,223.974859 51.7345125,224.151458 51.3702733,224.261833 C51.006034,224.372209 50.6546772,224.427396 50.3161923,224.427396 C50.0586494,224.427396 49.8121478,224.392444 49.57668,224.322539 C49.3412122,224.252635 49.1333414,224.149619 48.9530614,224.013489 C48.7727814,223.87736 48.6292954,223.704441 48.522599,223.494727 C48.4159027,223.285014 48.3625553,223.040351 48.3625553,222.760733 C48.3625553,222.407532 48.4269401,222.12056 48.5557115,221.899809 C48.684483,221.679058 48.8537229,221.506139 49.0634364,221.381046 C49.2731499,221.255954 49.5086141,221.165815 49.7698362,221.110628 C50.0310583,221.05544 50.294116,221.01313 50.5590172,220.983696 C50.7871266,220.939546 51.0041952,220.908274 51.2102295,220.889878 C51.4162639,220.871482 51.5983807,220.840209 51.7565856,220.796059 C51.9147906,220.751909 52.0398809,220.683845 52.1318605,220.591865 C52.2238401,220.499886 52.2698293,220.361918 52.2698293,220.177959 C52.2698293,220.016075 52.2311984,219.883626 52.1539355,219.780609 C52.0766727,219.677592 51.9810153,219.598491 51.8669606,219.543303 C51.7529059,219.488115 51.625976,219.451324 51.486167,219.432928 C51.346358,219.414532 51.2139093,219.405334 51.0888171,219.405334 C50.7356154,219.405334 50.4449642,219.478917 50.2168548,219.626084 C49.9887454,219.773252 49.8599759,220.001358 49.8305424,220.310409 L48.5722678,220.310409 C48.5943429,219.942491 48.682642,219.637123 48.8371677,219.394297 C48.9916934,219.151471 49.1885268,218.956477 49.4276738,218.80931 C49.6668207,218.662142 49.9372367,218.559127 50.2389298,218.50026 C50.5406229,218.441393 50.8496697,218.41196 51.1660796,218.41196 C51.4456975,218.41196 51.7216322,218.441393 51.9938918,218.50026 C52.2661515,218.559127 52.5108135,218.654784 52.7278854,218.787235 C52.9449572,218.919685 53.1197159,219.090765 53.2521665,219.300478 C53.3846171,219.510192 53.4508414,219.765891 53.4508414,220.067584 L53.4508414,223.003558 Z M52.1925668,221.414159 C52.0012492,221.539251 51.765785,221.614673 51.486167,221.640428 C51.206549,221.666182 50.9269352,221.704813 50.6473172,221.756321 C50.5148666,221.778396 50.3860971,221.809669 50.2610048,221.85014 C50.1359125,221.890611 50.0255387,221.945798 49.9298799,222.015702 C49.8342211,222.085607 49.758799,222.177585 49.7036112,222.29164 C49.6484234,222.405695 49.62083,222.543662 49.62083,222.705546 C49.62083,222.845355 49.6613004,222.963087 49.7422424,223.058746 C49.8231845,223.154405 49.9206814,223.229827 50.0347361,223.285015 C50.1487908,223.340202 50.2738812,223.378833 50.410011,223.400908 C50.5461408,223.422983 50.6693916,223.434021 50.7797672,223.434021 C50.9195762,223.434021 51.0704204,223.415625 51.2323045,223.378833 C51.3941886,223.342041 51.5468725,223.279496 51.6903607,223.191196 C51.8338488,223.102895 51.9534205,222.990682 52.0490793,222.854552 C52.1447381,222.718422 52.1925668,222.551022 52.1925668,222.352346 L52.1925668,221.414159 Z M55.2830659,216.392098 L56.5413406,216.392098 L56.5413406,224.272871 L55.2830659,224.272871 L55.2830659,216.392098 Z M58.3846025,216.392098 L59.6428772,216.392098 L59.6428772,224.272871 L58.3846025,224.272871 L58.3846025,216.392098 Z M65.3713381,220.917471 C65.3566214,220.718796 65.3143114,220.527481 65.2444069,220.343522 C65.1745024,220.159562 65.078845,219.99952 64.957432,219.863391 C64.8360189,219.727261 64.6888537,219.616887 64.5159321,219.532266 C64.3430104,219.447644 64.1498562,219.405334 63.9364635,219.405334 C63.7157125,219.405334 63.5151999,219.443965 63.3349199,219.521228 C63.1546399,219.598491 63.0001165,219.705186 62.871345,219.841316 C62.7425736,219.977445 62.639558,220.137487 62.5622951,220.321447 C62.4850323,220.505406 62.4427223,220.704079 62.4353639,220.917471 L65.3713381,220.917471 Z M62.4353639,221.745284 C62.4353639,221.966035 62.4666365,222.179424 62.5291826,222.385459 C62.5917288,222.591493 62.6855465,222.77177 62.8106388,222.926296 C62.9357311,223.080822 63.0939336,223.204072 63.2852512,223.296052 C63.4765687,223.388032 63.7046747,223.434021 63.969576,223.434021 C64.3374944,223.434021 64.6336643,223.35492 64.8580945,223.196715 C65.0825247,223.03851 65.2499251,222.801206 65.3603006,222.484796 L66.5523503,222.484796 C66.486125,222.793848 66.372072,223.069782 66.2101879,223.312608 C66.0483038,223.555434 65.85331,223.759626 65.6252005,223.925189 C65.3970911,224.090753 65.1413917,224.215843 64.8580945,224.300464 C64.5747973,224.385086 64.2786275,224.427396 63.969576,224.427396 C63.5207155,224.427396 63.1233696,224.353813 62.7775263,224.206646 C62.431683,224.059478 62.1391923,223.853447 61.9000453,223.588546 C61.6608983,223.323645 61.480621,223.007239 61.3592079,222.639321 C61.2377949,222.271403 61.1770892,221.866698 61.1770892,221.425196 C61.1770892,221.020486 61.241474,220.636017 61.3702454,220.271778 C61.4990169,219.907539 61.6829733,219.587454 61.9221203,219.311516 C62.1612673,219.035577 62.4500789,218.816669 62.7885638,218.654785 C63.1270487,218.492901 63.5096781,218.41196 63.9364635,218.41196 C64.385324,218.41196 64.7881886,218.505777 65.1450694,218.693416 C65.5019503,218.881054 65.7981202,219.129395 66.0335879,219.438447 C66.2690557,219.747498 66.4401352,220.102534 66.5468315,220.503565 C66.6535279,220.904596 66.6811214,221.318498 66.6296128,221.745284 L62.4353639,221.745284 Z M67.457425,218.566485 L68.4066498,218.566485 L68.4066498,216.855673 L69.6649244,216.855673 L69.6649244,218.566485 L70.8017866,218.566485 L70.8017866,219.504672 L69.6649244,219.504672 L69.6649244,222.551021 C69.6649244,222.683472 69.6704431,222.797525 69.6814807,222.893183 C69.6925182,222.988842 69.7182721,223.069783 69.7587431,223.136008 C69.7992142,223.202234 69.8599198,223.251902 69.9408618,223.285015 C70.0218039,223.318127 70.1321778,223.334683 70.2719868,223.334683 C70.3602872,223.334683 70.4485863,223.332844 70.5368867,223.329165 C70.6251871,223.325485 70.7134862,223.312608 70.8017866,223.290533 L70.8017866,224.261833 C70.6619776,224.27655 70.5258498,224.291266 70.3933992,224.305983 C70.2609486,224.3207 70.1248208,224.328058 69.9850118,224.328058 C69.6538853,224.328058 69.3871484,224.296785 69.1847933,224.234239 C68.9824382,224.171693 68.8242356,224.079715 68.7101809,223.958302 C68.5961262,223.836889 68.5188645,223.684205 68.4783935,223.500246 C68.4379225,223.316287 68.4140081,223.106576 68.4066498,222.871108 L68.4066498,219.504672 L67.457425,219.504672 L67.457425,218.566485 Z M77.2145723,219.692309 L79.4662217,219.692309 C79.7973483,219.692309 80.0732829,219.598492 80.294034,219.410853 C80.514785,219.223215 80.6251589,218.952799 80.6251589,218.599597 C80.6251589,218.202245 80.5258224,217.922631 80.3271465,217.760747 C80.1284705,217.598863 79.8414985,217.517922 79.4662217,217.517922 L77.2145723,217.517922 L77.2145723,219.692309 Z M75.8348852,216.392098 L79.6648966,216.392098 C80.3713,216.392098 80.9378858,216.553979 81.3646712,216.877748 C81.7914565,217.201516 82.004846,217.69084 82.004846,218.345735 C82.004846,218.743087 81.9073491,219.083406 81.7123523,219.366703 C81.5173556,219.65 81.2395814,219.868909 80.8790213,220.023434 L80.8790213,220.045509 C81.3646736,220.148526 81.7325865,220.378472 81.982771,220.735353 C82.2329555,221.092234 82.3580459,221.539248 82.3580459,222.076409 C82.3580459,222.38546 82.302859,222.674272 82.1924835,222.942852 C82.0821079,223.211433 81.9091889,223.443218 81.6737211,223.638215 C81.4382533,223.833211 81.1365648,223.987735 80.7686464,224.101789 C80.4007279,224.215844 79.9629116,224.272871 79.4551842,224.272871 L75.8348852,224.272871 L75.8348852,216.392098 Z M77.2145723,223.147046 L79.6538592,223.147046 C80.0732861,223.147046 80.398889,223.038512 80.6306776,222.82144 C80.8624662,222.604368 80.9783588,222.297161 80.9783588,221.899809 C80.9783588,221.509815 80.8624662,221.209966 80.6306776,221.000253 C80.398889,220.790539 80.0732861,220.685684 79.6538592,220.685684 L77.2145723,220.685684 L77.2145723,223.147046 Z M88.6494192,223.003558 C88.6494192,223.158084 88.6696544,223.268458 88.7101254,223.334683 C88.7505964,223.400909 88.8296977,223.434021 88.9474316,223.434021 L89.0798816,223.434021 C89.1313902,223.434021 89.1902562,223.426663 89.2564815,223.411946 L89.2564815,224.283908 C89.2123313,224.298625 89.1553048,224.315181 89.0854003,224.333577 C89.0154958,224.351973 88.9437528,224.368529 88.8701691,224.383246 C88.7965854,224.397962 88.7230029,224.409 88.6494192,224.416358 C88.5758355,224.423716 88.5132903,224.427396 88.4617817,224.427396 C88.2042389,224.427396 87.9908494,224.375888 87.8216069,224.272871 C87.6523644,224.169853 87.5419906,223.989576 87.490482,223.732033 C87.2402975,223.974859 86.9330902,224.151458 86.568851,224.261833 C86.2046118,224.372209 85.853255,224.427396 85.51477,224.427396 C85.2572271,224.427396 85.0107255,224.392444 84.7752577,224.322539 C84.53979,224.252635 84.3319192,224.149619 84.1516392,224.013489 C83.9713591,223.87736 83.8278731,223.704441 83.7211768,223.494727 C83.6144804,223.285014 83.5611331,223.040351 83.5611331,222.760733 C83.5611331,222.407532 83.6255178,222.12056 83.7542893,221.899809 C83.8830607,221.679058 84.0523006,221.506139 84.2620141,221.381046 C84.4717276,221.255954 84.7071919,221.165815 84.9684139,221.110628 C85.229636,221.05544 85.4926937,221.01313 85.757595,220.983696 C85.9857044,220.939546 86.202773,220.908274 86.4088073,220.889878 C86.6148416,220.871482 86.7969585,220.840209 86.9551634,220.796059 C87.1133683,220.751909 87.2384587,220.683845 87.3304383,220.591865 C87.4224179,220.499886 87.468407,220.361918 87.468407,220.177959 C87.468407,220.016075 87.4297762,219.883626 87.3525133,219.780609 C87.2752504,219.677592 87.1795931,219.598491 87.0655384,219.543303 C86.9514837,219.488115 86.8245537,219.451324 86.6847447,219.432928 C86.5449357,219.414532 86.4124871,219.405334 86.2873948,219.405334 C85.9341932,219.405334 85.643542,219.478917 85.4154326,219.626084 C85.1873231,219.773252 85.0585536,220.001358 85.0291202,220.310409 L83.7708455,220.310409 C83.7929206,219.942491 83.8812197,219.637123 84.0357454,219.394297 C84.1902712,219.151471 84.3871046,218.956477 84.6262515,218.80931 C84.8653985,218.662142 85.1358145,218.559127 85.4375076,218.50026 C85.7392006,218.441393 86.0482475,218.41196 86.3646573,218.41196 C86.6442753,218.41196 86.92021,218.441393 87.1924696,218.50026 C87.4647292,218.559127 87.7093913,218.654784 87.9264631,218.787235 C88.143535,218.919685 88.3182936,219.090765 88.4507442,219.300478 C88.5831949,219.510192 88.6494192,219.765891 88.6494192,220.067584 L88.6494192,223.003558 Z M87.3911445,221.414159 C87.199827,221.539251 86.9643627,221.614673 86.6847447,221.640428 C86.4051267,221.666182 86.1255129,221.704813 85.8458949,221.756321 C85.7134443,221.778396 85.5846748,221.809669 85.4595825,221.85014 C85.3344903,221.890611 85.2241164,221.945798 85.1284576,222.015702 C85.0327989,222.085607 84.9573767,222.177585 84.9021889,222.29164 C84.8470012,222.405695 84.8194077,222.543662 84.8194077,222.705546 C84.8194077,222.845355 84.8598781,222.963087 84.9408202,223.058746 C85.0217622,223.154405 85.1192592,223.229827 85.2333139,223.285015 C85.3473686,223.340202 85.4724589,223.378833 85.6085888,223.400908 C85.7447186,223.422983 85.8679694,223.434021 85.9783449,223.434021 C86.1181539,223.434021 86.2689982,223.415625 86.4308823,223.378833 C86.5927664,223.342041 86.7454502,223.279496 86.8889384,223.191196 C87.0324266,223.102895 87.1519983,222.990682 87.2476571,222.854552 C87.3433159,222.718422 87.3911445,222.551022 87.3911445,222.352346 L87.3911445,221.414159 Z M90.4816437,216.392098 L91.7399183,216.392098 L91.7399183,224.272871 L90.4816437,224.272871 L90.4816437,216.392098 Z M98.329304,223.003558 C98.329304,223.158084 98.3495392,223.268458 98.3900102,223.334683 C98.4304813,223.400909 98.5095825,223.434021 98.6273164,223.434021 L98.7597664,223.434021 C98.811275,223.434021 98.870141,223.426663 98.9363663,223.411946 L98.9363663,224.283908 C98.8922161,224.298625 98.8351896,224.315181 98.7652851,224.333577 C98.6953806,224.351973 98.6236376,224.368529 98.5500539,224.383246 C98.4764703,224.397962 98.4028877,224.409 98.329304,224.416358 C98.2557203,224.423716 98.1931751,224.427396 98.1416666,224.427396 C97.8841237,224.427396 97.6707342,224.375888 97.5014917,224.272871 C97.3322493,224.169853 97.2218754,223.989576 97.1703668,223.732033 C96.9201823,223.974859 96.612975,224.151458 96.2487358,224.261833 C95.8844966,224.372209 95.5331398,224.427396 95.1946549,224.427396 C94.937112,224.427396 94.6906103,224.392444 94.4551425,224.322539 C94.2196748,224.252635 94.011804,224.149619 93.831524,224.013489 C93.6512439,223.87736 93.5077579,223.704441 93.4010616,223.494727 C93.2943652,223.285014 93.2410179,223.040351 93.2410179,222.760733 C93.2410179,222.407532 93.3054026,222.12056 93.4341741,221.899809 C93.5629455,221.679058 93.7321854,221.506139 93.9418989,221.381046 C94.1516124,221.255954 94.3870767,221.165815 94.6482987,221.110628 C94.9095208,221.05544 95.1725785,221.01313 95.4374798,220.983696 C95.6655892,220.939546 95.8826578,220.908274 96.0886921,220.889878 C96.2947264,220.871482 96.4768433,220.840209 96.6350482,220.796059 C96.7932531,220.751909 96.9183435,220.683845 97.0103231,220.591865 C97.1023027,220.499886 97.1482918,220.361918 97.1482918,220.177959 C97.1482918,220.016075 97.109661,219.883626 97.0323981,219.780609 C96.9551352,219.677592 96.8594779,219.598491 96.7454232,219.543303 C96.6313685,219.488115 96.5044385,219.451324 96.3646295,219.432928 C96.2248205,219.414532 96.0923719,219.405334 95.9672796,219.405334 C95.614078,219.405334 95.3234268,219.478917 95.0953174,219.626084 C94.867208,219.773252 94.7384385,220.001358 94.709005,220.310409 L93.4507303,220.310409 C93.4728054,219.942491 93.5611045,219.637123 93.7156302,219.394297 C93.870156,219.151471 94.0669894,218.956477 94.3061363,218.80931 C94.5452833,218.662142 94.8156993,218.559127 95.1173924,218.50026 C95.4190855,218.441393 95.7281323,218.41196 96.0445421,218.41196 C96.3241601,218.41196 96.6000948,218.441393 96.8723544,218.50026 C97.144614,218.559127 97.3892761,218.654784 97.606348,218.787235 C97.8234198,218.919685 97.9981784,219.090765 98.1306291,219.300478 C98.2630797,219.510192 98.329304,219.765891 98.329304,220.067584 L98.329304,223.003558 Z M97.0710293,221.414159 C96.8797118,221.539251 96.6442475,221.614673 96.3646295,221.640428 C96.0850115,221.666182 95.8053978,221.704813 95.5257798,221.756321 C95.3933291,221.778396 95.2645596,221.809669 95.1394674,221.85014 C95.0143751,221.890611 94.9040012,221.945798 94.8083425,222.015702 C94.7126837,222.085607 94.6372615,222.177585 94.5820738,222.29164 C94.526886,222.405695 94.4992925,222.543662 94.4992925,222.705546 C94.4992925,222.845355 94.539763,222.963087 94.620705,223.058746 C94.7016471,223.154405 94.799144,223.229827 94.9131987,223.285015 C95.0272534,223.340202 95.1523438,223.378833 95.2884736,223.400908 C95.4246034,223.422983 95.5478542,223.434021 95.6582297,223.434021 C95.7980387,223.434021 95.948883,223.415625 96.1107671,223.378833 C96.2726512,223.342041 96.4253351,223.279496 96.5688232,223.191196 C96.7123114,223.102895 96.8318831,222.990682 96.9275419,222.854552 C97.0232007,222.718422 97.0710293,222.551022 97.0710293,222.352346 L97.0710293,221.414159 Z M100.128416,218.566485 L101.320466,218.566485 L101.320466,219.405334 L101.342541,219.427409 C101.533858,219.111 101.784039,218.862658 102.09309,218.682378 C102.402142,218.502098 102.744301,218.41196 103.119578,218.41196 C103.745039,218.41196 104.238042,218.573841 104.598602,218.89761 C104.959162,219.221378 105.13944,219.707023 105.13944,220.354559 L105.13944,224.272871 L103.881165,224.272871 L103.881165,220.685684 C103.866448,220.236824 103.770791,219.911221 103.59419,219.708866 C103.417589,219.50651 103.141655,219.405334 102.766378,219.405334 C102.552985,219.405334 102.36167,219.443965 102.192428,219.521228 C102.023185,219.598491 101.879699,219.705186 101.761966,219.841316 C101.644232,219.977445 101.552253,220.137487 101.486028,220.321447 C101.419803,220.505406 101.386691,220.7004 101.386691,220.906434 L101.386691,224.272871 L100.128416,224.272871 L100.128416,218.566485 Z M110.757526,220.475972 C110.706017,220.12277 110.564371,219.856033 110.332582,219.675753 C110.100793,219.495473 109.808303,219.405334 109.455101,219.405334 C109.293217,219.405334 109.120298,219.432928 108.936339,219.488116 C108.752379,219.543303 108.583139,219.646319 108.428614,219.797166 C108.274088,219.948012 108.145318,220.157722 108.042301,220.426303 C107.939284,220.694883 107.887776,221.04624 107.887776,221.480384 C107.887776,221.715852 107.91537,221.951316 107.970558,222.186784 C108.025745,222.422251 108.114044,222.631962 108.235458,222.815921 C108.356871,222.99988 108.513234,223.148885 108.704551,223.26294 C108.895869,223.376994 109.127654,223.434021 109.399913,223.434021 C109.767832,223.434021 110.07136,223.319968 110.310507,223.091858 C110.549654,222.863749 110.698659,222.543665 110.757526,222.131596 L112.0158,222.131596 C111.898066,222.874791 111.616613,223.443217 111.171432,223.836889 C110.72625,224.230562 110.13575,224.427396 109.399913,224.427396 C108.951053,224.427396 108.555547,224.351973 108.213383,224.201127 C107.871218,224.05028 107.582407,223.844249 107.346939,223.583027 C107.111471,223.321805 106.933033,223.010919 106.81162,222.650359 C106.690207,222.289798 106.629502,221.899811 106.629502,221.480384 C106.629502,221.053598 106.688368,220.652573 106.806102,220.277297 C106.923836,219.90202 107.100434,219.576417 107.335902,219.300478 C107.571369,219.024539 107.86386,218.807471 108.213383,218.649266 C108.562905,218.491061 108.973128,218.41196 109.444063,218.41196 C109.77519,218.41196 110.089756,218.45427 110.387769,218.538891 C110.685783,218.623512 110.950681,218.750442 111.182469,218.919685 C111.414258,219.088927 111.603733,219.302316 111.7509,219.559859 C111.898068,219.817402 111.986367,220.12277 112.0158,220.475972 L110.757526,220.475972 Z M117.402099,220.917471 C117.387382,220.718796 117.345072,220.527481 117.275168,220.343522 C117.205263,220.159562 117.109606,219.99952 116.988193,219.863391 C116.86678,219.727261 116.719614,219.616887 116.546693,219.532266 C116.373771,219.447644 116.180617,219.405334 115.967224,219.405334 C115.746473,219.405334 115.545961,219.443965 115.365681,219.521228 C115.185401,219.598491 115.030877,219.705186 114.902106,219.841316 C114.773334,219.977445 114.670319,220.137487 114.593056,220.321447 C114.515793,220.505406 114.473483,220.704079 114.466125,220.917471 L117.402099,220.917471 Z M114.466125,221.745284 C114.466125,221.966035 114.497397,222.179424 114.559943,222.385459 C114.622489,222.591493 114.716307,222.77177 114.841399,222.926296 C114.966492,223.080822 115.124694,223.204072 115.316012,223.296052 C115.507329,223.388032 115.735435,223.434021 116.000337,223.434021 C116.368255,223.434021 116.664425,223.35492 116.888855,223.196715 C117.113285,223.03851 117.280686,222.801206 117.391061,222.484796 L118.583111,222.484796 C118.516886,222.793848 118.402833,223.069782 118.240949,223.312608 C118.079064,223.555434 117.884071,223.759626 117.655961,223.925189 C117.427852,224.090753 117.172152,224.215843 116.888855,224.300464 C116.605558,224.385086 116.309388,224.427396 116.000337,224.427396 C115.551476,224.427396 115.15413,224.353813 114.808287,224.206646 C114.462444,224.059478 114.169953,223.853447 113.930806,223.588546 C113.691659,223.323645 113.511382,223.007239 113.389969,222.639321 C113.268556,222.271403 113.20785,221.866698 113.20785,221.425196 C113.20785,221.020486 113.272235,220.636017 113.401006,220.271778 C113.529778,219.907539 113.713734,219.587454 113.952881,219.311516 C114.192028,219.035577 114.48084,218.816669 114.819324,218.654785 C115.157809,218.492901 115.540439,218.41196 115.967224,218.41196 C116.416085,218.41196 116.818949,218.505777 117.17583,218.693416 C117.532711,218.881054 117.828881,219.129395 118.064349,219.438447 C118.299816,219.747498 118.470896,220.102534 118.577592,220.503565 C118.684289,220.904596 118.711882,221.318498 118.660373,221.745284 L114.466125,221.745284 Z" id="Wallet-Balance" fill="#D3DDE5" opacity="0.799999952"></path>
            <g id="Group-Copy" transform="translate(35.349346, 29.341118)">
                <path d="M20.2845604,49.2164094 L0.723271548,15.3360803 C-1.02516055,12.3067243 1.16060815,8.52124845 4.65777711,8.52124845 L43.7800501,8.52124845 C47.2772191,8.52124845 49.4629878,12.3067243 47.7139461,15.3360803 L28.1532668,49.2164094 C26.4051394,52.2451558 22.0329925,52.2451558 20.2845604,49.2164094" id="Fill-3" fill="#FDFDFE" opacity="0.802176339"></path>
                <path d="M15.1968272,47.853443 C12.1680808,49.6021799 8.38230015,47.4164112 8.38230015,43.9189374 L8.38230015,4.79666446 C8.38230015,1.29949549 12.1680808,-0.886273204 15.1968272,0.862768423 L49.0777658,20.4234478 C52.1065122,22.1721846 52.1065122,26.5434173 49.0777658,28.2921541 L15.1968272,47.853443 Z" id="Fill-9" fill="#FDFDFE"></path>
                <path d="M22.4661234,24.6198067 C22.3990753,24.3659382 22.3356843,24.1126791 22.2762553,23.8627725 C21.8590331,22.1042832 21.5783453,20.2613742 21.4424205,18.3849411 C21.3692771,17.3661145 21.3375816,16.330221 21.3485531,15.3010324 C21.9260812,16.5648894 22.3259319,17.8723278 22.5392668,19.1922614 C22.8263546,20.9382554 22.8019735,22.762269 22.4661234,24.6198067 Z M27.6007903,26.7562036 C27.5096658,26.7613846 27.4371319,26.7458416 27.3777029,26.710489 C27.3191882,26.6754411 27.2673783,26.618755 27.218616,26.5370782 C27.1134724,26.3636673 27.0449004,26.0835891 27.0388051,25.8041203 C27.0360622,25.6663669 27.0473385,25.5261754 27.0711101,25.3996982 C27.0735482,25.3841553 27.0775102,25.3686123 27.0805578,25.3524598 C27.1092057,25.3881172 27.137244,25.4249937 27.1640632,25.4627844 C27.2384257,25.5673185 27.3073024,25.6837385 27.3679504,25.8096061 C27.4971705,26.0799319 27.5965236,26.3956676 27.6626574,26.7501083 C27.6394953,26.7528512 27.6199904,26.7549846 27.6007903,26.7562036 Z M32.748562,21.2116289 L32.7293619,21.2482006 C31.9537371,22.4209332 31.0199396,23.7795719 29.9745985,24.970895 C29.7009202,25.2802307 29.449185,25.5423279 29.2056784,25.7727296 C29.1840402,25.7925393 29.1620972,25.8126537 29.1413732,25.8321586 C29.0008769,25.4332223 28.8271613,25.0827435 28.6110835,24.7645697 C28.5181305,24.6286449 28.4145106,24.4972915 28.3038812,24.3735573 C28.1670421,24.2220895 28.0466603,24.1081077 27.9098212,24.0044878 C27.7418961,23.8795345 27.5465423,23.754886 27.2591496,23.6911903 C27.0936627,23.6564471 26.9144613,23.6558376 26.7562887,23.6911903 C26.5926304,23.7253238 26.4280577,23.8018197 26.2924377,23.9069633 C26.0489311,24.0980504 25.9312921,24.3098615 25.8483962,24.4924153 C25.7786052,24.651807 25.7304525,24.8166844 25.6957094,25.0129525 C25.6442042,25.3125357 25.6384137,25.6169951 25.6777283,25.9443118 C25.7176524,26.2649238 25.7950625,26.5517068 25.9151396,26.8211184 C26.0675217,27.1621495 26.2662279,27.4233324 26.5216203,27.6196005 C26.6721738,27.7344966 26.8449751,27.8228782 27.0205193,27.8749929 C27.1890539,27.9255838 27.3728267,27.9463077 27.5544661,27.9359458 C27.6205999,27.9319838 27.68521,27.9243647 27.7525628,27.9133932 C27.7449437,28.398273 27.6882576,28.8898576 27.5837235,29.3780899 C27.4496272,30.0028564 27.2442162,30.5697178 26.9930905,31.0165021 L26.9168995,31.1438935 C26.8912993,31.1816843 26.8656991,31.2191703 26.8382703,31.2551324 C26.783108,31.3310187 26.7233742,31.3983716 26.6639452,31.4568863 C26.5277156,31.5885444 26.3774669,31.6738784 26.2287419,31.7040501 C26.0806265,31.7354408 25.9108729,31.7077072 25.7554432,31.627859 C25.6228707,31.5598966 25.4924317,31.4584101 25.3580307,31.3173043 C25.3275543,31.2865231 25.299516,31.2545229 25.2714776,31.2222179 C25.2437441,31.1905224 25.1980295,31.1347506 25.1593244,31.085074 C25.0782572,30.9808447 24.9984089,30.8717391 24.9237417,30.7608049 C24.779893,30.54747 24.6345205,30.3073158 24.4928052,30.0464377 C24.2499081,29.5999582 24.0124968,29.0955735 23.7686855,28.5052452 C23.650437,28.2181574 23.532798,27.9176599 23.4172924,27.6104576 C23.6342845,26.8430614 23.8073905,26.0683509 23.9332581,25.3088785 C24.2974513,23.1209765 24.2730702,20.9818367 23.8601147,18.9502787 C23.4614832,16.9574257 22.6812869,15.0371066 21.5368974,13.2399122 C21.4402871,13.1049017 21.3232577,13.0302345 21.2068378,13.0302345 C20.9563216,13.0302345 20.776206,13.3380463 20.6710624,13.9454413 L20.6664909,13.9695177 C20.6335764,14.1484143 20.6040142,14.3145107 20.5774998,14.47695 C20.3507552,15.845646 20.22184,17.2481707 20.1941064,18.6455145 C20.136506,21.4819547 20.4909467,24.2644517 21.2467619,26.9159 C21.3418483,27.2499216 21.4466872,27.5909527 21.5579261,27.9298505 C21.2367047,28.8048284 20.8469113,29.6904731 20.3995175,30.5611844 C19.9536475,31.4282385 19.4495675,32.2864544 18.9003825,33.1114511 C18.6248757,33.5253208 18.3380926,33.9306572 18.046738,34.3158791 C17.8986226,34.5133663 17.7465453,34.7075011 17.5966013,34.8934072 L17.3661996,35.172876 L17.0913023,35.4870878 L18.610247,36.8310979 L18.8004198,36.6010009 L19.1737559,36.1191687 C19.3282714,35.9116243 19.4861392,35.6940227 19.6409594,35.4703258 C19.9390188,35.0439607 20.2306781,34.5962621 20.5110612,34.1406397 C21.0666463,33.2351853 21.5728596,32.2965116 22.0144629,31.3511332 C22.1735498,31.0107116 22.3289795,30.6593185 22.4761806,30.3030491 C22.5578574,30.4804219 22.6288674,30.6282325 22.7001823,30.7678145 C22.871155,31.1048837 23.0424324,31.4066002 23.2240719,31.6906404 C23.3231202,31.8457654 23.4270448,31.997538 23.532798,32.1404724 C23.6345892,32.2763972 23.7406472,32.4147601 23.9161913,32.6107235 C24.2563082,32.986193 24.6177585,33.2735856 24.9907898,33.4658918 C25.4098406,33.6844077 25.8688154,33.7840656 26.2924377,33.7502368 C26.7169742,33.7188461 27.1418154,33.5557972 27.5203325,33.2793761 C27.851916,33.0389172 28.1533277,32.7137338 28.4163392,32.3126641 C28.4769873,32.2200158 28.5348925,32.1252342 28.5882262,32.031062 C28.6424742,31.9338423 28.6775221,31.8658799 28.7204939,31.7811554 C28.7966849,31.627859 28.8667807,31.4702959 28.9347431,31.2993232 C29.0566488,30.9921209 29.1575257,30.6772995 29.2431644,30.336878 C29.3985942,29.7157686 29.486671,29.0714971 29.5061759,28.4229589 C29.5211094,27.903336 29.4888044,27.3974274 29.4126133,26.9183382 C29.4436993,26.887557 29.4747852,26.8558615 29.5061759,26.8244708 C30.0882755,26.2176853 30.5140311,25.6044998 30.8870624,25.0315431 C31.6163631,23.8895917 32.0853952,22.9426894 32.3956451,22.31518 C32.6519518,21.7864141 32.8003719,21.4597069 32.8473056,21.3515157 C32.8543152,21.3371917 32.8585819,21.3280488 32.8604105,21.3243916 L32.9317253,21.2113241 L32.748562,21.2116289 Z" id="Fill-11" fill="#0984B6"></path>
                <text id="Belrium" font-family="Graphik-Bold, Graphik" font-size="15.516032" font-weight="bold" letter-spacing="0.0653895919" fill="#FDFDFE">
                    <tspan x="54.4837643" y="30.0531521">Belrium</tspan>
                </text>
            </g>
        </g>
    </g>
</svg>