<?xml version="1.0" encoding="UTF-8"?>
<svg width="421px" height="265px" viewBox="0 0 421 265" version="1.1" xmlns="http://www.w3.org/2000/svg" xmlns:xlink="http://www.w3.org/1999/xlink">
    <!-- Generator: Sketch 52.5 (67469) - http://www.bohemiancoding.com/sketch -->
    <title>Group 30</title>
    <desc>Created with Sketch.</desc>
    <defs>
        <linearGradient x1="50%" y1="0%" x2="50%" y2="100%" id="linearGradient-1">
            <stop stop-color="#7D858D" offset="0%"></stop>
            <stop stop-color="#414447" offset="100%"></stop>
        </linearGradient>
        <linearGradient x1="57.1042352%" y1="0%" x2="50%" y2="100%" id="linearGradient-2">
            <stop stop-color="#57B6D7" offset="0%"></stop>
            <stop stop-color="#3999C4" offset="27.5127019%"></stop>
            <stop stop-color="#0364A1" offset="100%"></stop>
        </linearGradient>
        <linearGradient x1="58.6831826%" y1="0%" x2="46.0516036%" y2="100%" id="linearGradient-3">
            <stop stop-color="#0D98C9" offset="0%"></stop>
            <stop stop-color="#005387" offset="100%"></stop>
        </linearGradient>
        <radialGradient cx="89.2094984%" cy="8.33604742%" fx="89.2094984%" fy="8.33604742%" r="135.706816%" gradientTransform="translate(0.892095,0.083360),scale(0.630382,1.000000),rotate(135.786710),scale(1.000000,0.700448),translate(-0.892095,-0.083360)" id="radialGradient-4">
            <stop stop-color="#FFFFFF" stop-opacity="0.499971694" offset="0%"></stop>
            <stop stop-color="#FFFFFF" stop-opacity="0" offset="100%"></stop>
        </radialGradient>
        <rect id="path-5" x="0.628291524" y="0.252689166" width="419.424887" height="264.397803" rx="15.4524958"></rect>
    </defs>
    <g id="new" stroke="none" stroke-width="1" fill="none" fill-rule="evenodd">
        <g id="Group-30">
            <g id="Card-BG">
                <use fill="url(#linearGradient-1)" xlink:href="#path-5"></use>
                <use fill="url(#linearGradient-2)" xlink:href="#path-5"></use>
                <rect stroke="url(#radialGradient-4)" stroke-width="1.1037497" stroke-linejoin="square" fill="url(#linearGradient-3)" x="1.18016638" y="0.804564017" width="418.321137" height="263.294053" rx="15.4524958"></rect>
            </g>
            <g id="Group-Copy" transform="translate(35.948282, 29.361442)">
                <path d="M20.2845604,49.2164094 L0.723271548,15.3360803 C-1.02516055,12.3067243 1.16060815,8.52124845 4.65777711,8.52124845 L43.7800501,8.52124845 C47.2772191,8.52124845 49.4629878,12.3067243 47.7139461,15.3360803 L28.1532668,49.2164094 C26.4051394,52.2451558 22.0329925,52.2451558 20.2845604,49.2164094" id="Fill-3" fill="#FDFDFE" opacity="0.802176339"></path>
                <path d="M15.1968272,47.853443 C12.1680808,49.6021799 8.38230015,47.4164112 8.38230015,43.9189374 L8.38230015,4.79666446 C8.38230015,1.29949549 12.1680808,-0.886273204 15.1968272,0.862768423 L49.0777658,20.4234478 C52.1065122,22.1721846 52.1065122,26.5434173 49.0777658,28.2921541 L15.1968272,47.853443 Z" id="Fill-9" fill="#FDFDFE"></path>
                <path d="M22.4661234,24.6198067 C22.3990753,24.3659382 22.3356843,24.1126791 22.2762553,23.8627725 C21.8590331,22.1042832 21.5783453,20.2613742 21.4424205,18.3849411 C21.3692771,17.3661145 21.3375816,16.330221 21.3485531,15.3010324 C21.9260812,16.5648894 22.3259319,17.8723278 22.5392668,19.1922614 C22.8263546,20.9382554 22.8019735,22.762269 22.4661234,24.6198067 Z M27.6007903,26.7562036 C27.5096658,26.7613846 27.4371319,26.7458416 27.3777029,26.710489 C27.3191882,26.6754411 27.2673783,26.618755 27.218616,26.5370782 C27.1134724,26.3636673 27.0449004,26.0835891 27.0388051,25.8041203 C27.0360622,25.6663669 27.0473385,25.5261754 27.0711101,25.3996982 C27.0735482,25.3841553 27.0775102,25.3686123 27.0805578,25.3524598 C27.1092057,25.3881172 27.137244,25.4249937 27.1640632,25.4627844 C27.2384257,25.5673185 27.3073024,25.6837385 27.3679504,25.8096061 C27.4971705,26.0799319 27.5965236,26.3956676 27.6626574,26.7501083 C27.6394953,26.7528512 27.6199904,26.7549846 27.6007903,26.7562036 Z M32.748562,21.2116289 L32.7293619,21.2482006 C31.9537371,22.4209332 31.0199396,23.7795719 29.9745985,24.970895 C29.7009202,25.2802307 29.449185,25.5423279 29.2056784,25.7727296 C29.1840402,25.7925393 29.1620972,25.8126537 29.1413732,25.8321586 C29.0008769,25.4332223 28.8271613,25.0827435 28.6110835,24.7645697 C28.5181305,24.6286449 28.4145106,24.4972915 28.3038812,24.3735573 C28.1670421,24.2220895 28.0466603,24.1081077 27.9098212,24.0044878 C27.7418961,23.8795345 27.5465423,23.754886 27.2591496,23.6911903 C27.0936627,23.6564471 26.9144613,23.6558376 26.7562887,23.6911903 C26.5926304,23.7253238 26.4280577,23.8018197 26.2924377,23.9069633 C26.0489311,24.0980504 25.9312921,24.3098615 25.8483962,24.4924153 C25.7786052,24.651807 25.7304525,24.8166844 25.6957094,25.0129525 C25.6442042,25.3125357 25.6384137,25.6169951 25.6777283,25.9443118 C25.7176524,26.2649238 25.7950625,26.5517068 25.9151396,26.8211184 C26.0675217,27.1621495 26.2662279,27.4233324 26.5216203,27.6196005 C26.6721738,27.7344966 26.8449751,27.8228782 27.0205193,27.8749929 C27.1890539,27.9255838 27.3728267,27.9463077 27.5544661,27.9359458 C27.6205999,27.9319838 27.68521,27.9243647 27.7525628,27.9133932 C27.7449437,28.398273 27.6882576,28.8898576 27.5837235,29.3780899 C27.4496272,30.0028564 27.2442162,30.5697178 26.9930905,31.0165021 L26.9168995,31.1438935 C26.8912993,31.1816843 26.8656991,31.2191703 26.8382703,31.2551324 C26.783108,31.3310187 26.7233742,31.3983716 26.6639452,31.4568863 C26.5277156,31.5885444 26.3774669,31.6738784 26.2287419,31.7040501 C26.0806265,31.7354408 25.9108729,31.7077072 25.7554432,31.627859 C25.6228707,31.5598966 25.4924317,31.4584101 25.3580307,31.3173043 C25.3275543,31.2865231 25.299516,31.2545229 25.2714776,31.2222179 C25.2437441,31.1905224 25.1980295,31.1347506 25.1593244,31.085074 C25.0782572,30.9808447 24.9984089,30.8717391 24.9237417,30.7608049 C24.779893,30.54747 24.6345205,30.3073158 24.4928052,30.0464377 C24.2499081,29.5999582 24.0124968,29.0955735 23.7686855,28.5052452 C23.650437,28.2181574 23.532798,27.9176599 23.4172924,27.6104576 C23.6342845,26.8430614 23.8073905,26.0683509 23.9332581,25.3088785 C24.2974513,23.1209765 24.2730702,20.9818367 23.8601147,18.9502787 C23.4614832,16.9574257 22.6812869,15.0371066 21.5368974,13.2399122 C21.4402871,13.1049017 21.3232577,13.0302345 21.2068378,13.0302345 C20.9563216,13.0302345 20.776206,13.3380463 20.6710624,13.9454413 L20.6664909,13.9695177 C20.6335764,14.1484143 20.6040142,14.3145107 20.5774998,14.47695 C20.3507552,15.845646 20.22184,17.2481707 20.1941064,18.6455145 C20.136506,21.4819547 20.4909467,24.2644517 21.2467619,26.9159 C21.3418483,27.2499216 21.4466872,27.5909527 21.5579261,27.9298505 C21.2367047,28.8048284 20.8469113,29.6904731 20.3995175,30.5611844 C19.9536475,31.4282385 19.4495675,32.2864544 18.9003825,33.1114511 C18.6248757,33.5253208 18.3380926,33.9306572 18.046738,34.3158791 C17.8986226,34.5133663 17.7465453,34.7075011 17.5966013,34.8934072 L17.3661996,35.172876 L17.0913023,35.4870878 L18.610247,36.8310979 L18.8004198,36.6010009 L19.1737559,36.1191687 C19.3282714,35.9116243 19.4861392,35.6940227 19.6409594,35.4703258 C19.9390188,35.0439607 20.2306781,34.5962621 20.5110612,34.1406397 C21.0666463,33.2351853 21.5728596,32.2965116 22.0144629,31.3511332 C22.1735498,31.0107116 22.3289795,30.6593185 22.4761806,30.3030491 C22.5578574,30.4804219 22.6288674,30.6282325 22.7001823,30.7678145 C22.871155,31.1048837 23.0424324,31.4066002 23.2240719,31.6906404 C23.3231202,31.8457654 23.4270448,31.997538 23.532798,32.1404724 C23.6345892,32.2763972 23.7406472,32.4147601 23.9161913,32.6107235 C24.2563082,32.986193 24.6177585,33.2735856 24.9907898,33.4658918 C25.4098406,33.6844077 25.8688154,33.7840656 26.2924377,33.7502368 C26.7169742,33.7188461 27.1418154,33.5557972 27.5203325,33.2793761 C27.851916,33.0389172 28.1533277,32.7137338 28.4163392,32.3126641 C28.4769873,32.2200158 28.5348925,32.1252342 28.5882262,32.031062 C28.6424742,31.9338423 28.6775221,31.8658799 28.7204939,31.7811554 C28.7966849,31.627859 28.8667807,31.4702959 28.9347431,31.2993232 C29.0566488,30.9921209 29.1575257,30.6772995 29.2431644,30.336878 C29.3985942,29.7157686 29.486671,29.0714971 29.5061759,28.4229589 C29.5211094,27.903336 29.4888044,27.3974274 29.4126133,26.9183382 C29.4436993,26.887557 29.4747852,26.8558615 29.5061759,26.8244708 C30.0882755,26.2176853 30.5140311,25.6044998 30.8870624,25.0315431 C31.6163631,23.8895917 32.0853952,22.9426894 32.3956451,22.31518 C32.6519518,21.7864141 32.8003719,21.4597069 32.8473056,21.3515157 C32.8543152,21.3371917 32.8585819,21.3280488 32.8604105,21.3243916 L32.9317253,21.2113241 L32.748562,21.2116289 Z" id="Fill-11" fill="#0984B6"></path>
                <text id="Belrium" font-family="Graphik-Bold, Graphik" font-size="15.516032" font-weight="bold" letter-spacing="0.0653895919" fill="#FDFDFE">
                    <tspan x="54.4837643" y="30.0531521">Belrium</tspan>
                </text>
            </g>
        </g>
    </g>
</svg>