<?xml version="1.0" encoding="UTF-8"?>
<svg width="16px" height="23px" viewBox="0 0 16 23" version="1.1" xmlns="http://www.w3.org/2000/svg" xmlns:xlink="http://www.w3.org/1999/xlink">
    <!-- Generator: Sketch 52.5 (67469) - http://www.bohemiancoding.com/sketch -->
    <title>GSTN Number</title>
    <desc>Created with Sketch.</desc>
    <g id="new" stroke="none" stroke-width="1" fill="none" fill-rule="evenodd">
        <g id="register" transform="translate(-678.000000, -368.000000)" fill="#000000">
            <g id="GSTN-Number" transform="translate(678.642934, 367.982179)">
                <path d="M14.8346,4.64742778 C14.8344309,4.64278959 14.8342618,4.6381514 14.8339236,4.63351321 C14.8325707,4.61512609 14.8307105,4.5970703 14.8269901,4.57918014 C14.8269901,4.57918014 14.8269901,4.57918014 14.8269901,4.57901446 C14.8232697,4.56112435 14.8180273,4.54339983 14.8121084,4.52617227 C14.8105864,4.52186536 14.8090644,4.51755849 14.8073733,4.51325158 C14.8011162,4.49685226 14.7940136,4.48078426 14.7858963,4.46521322 C14.785389,4.46438498 14.7850508,4.4635567 14.7845434,4.46272846 C14.7757498,4.44649478 14.7656031,4.43108938 14.754611,4.41601525 C14.7519052,4.41220534 14.7490303,4.40856103 14.7461555,4.40475112 C14.7344868,4.38984264 14.7223109,4.37543111 14.708613,4.3620135 L10.7910084,0.524574839 C10.7773104,0.51115719 10.7625979,0.499230418 10.7473779,0.487800606 C10.7434884,0.484984574 10.7395989,0.48200286 10.7357093,0.479352466 C10.7203203,0.468585252 10.7047622,0.458646276 10.6883585,0.450198136 C10.6871747,0.449535538 10.685991,0.44920426 10.6849763,0.448541661 C10.6694182,0.44059048 10.6531836,0.433798815 10.6367799,0.42766979 C10.632214,0.426013315 10.6278171,0.424522437 10.623082,0.423031601 C10.6054945,0.417233897 10.587738,0.412098749 10.569305,0.408454436 C10.5691359,0.408454436 10.5689668,0.408454436 10.5689668,0.408454436 C10.550872,0.404975805 10.532439,0.40298801 10.5138369,0.401662813 C10.5091018,0.401497166 10.5043667,0.401165862 10.4996316,0.401000215 C10.4947275,0.400834567 10.4898233,0.400337616 10.484919,0.400337616 L0.676363904,0.400337616 C0.437242195,0.400337616 0.243442037,0.590172039 0.243442037,0.824400598 L0.243442037,18.9752901 C0.243442037,19.2095186 0.437242195,19.3993531 0.676363904,19.3993531 L7.19420556,19.3993531 L7.19420556,21.6882993 C7.19420556,21.8425191 7.27977525,21.9846464 7.4176,22.0593544 C7.55559384,22.1340624 7.72385837,22.1295898 7.85728627,22.0475933 L9.50610976,21.0343147 L11.1549333,22.0475933 C11.225114,22.0906622 11.3051031,22.1123623 11.3850921,22.1123623 C11.4571331,22.1123623 11.5293431,22.0948034 11.5946196,22.05952 C11.7324443,21.9848121 11.818014,21.8426847 11.818014,21.6882993 L11.818014,19.3993531 L14.4023546,19.3993531 C14.6414763,19.3993531 14.8352765,19.2095186 14.8352765,18.9752901 L14.8352765,4.6618393 C14.8352765,4.65703543 14.8347692,4.65223161 14.8346,4.64742778 Z M10.9178409,1.84828078 L13.3572542,4.23777632 L10.9178409,4.23777632 L10.9178409,1.84828078 Z M6.98061949,13.4984173 C6.95017967,13.4174147 6.90063042,13.2850606 6.89944664,13.2308932 C6.93326866,13.1898121 7.05063105,13.1170919 7.12250288,13.0726978 C7.27673129,12.9772837 7.45159112,12.8689488 7.57842372,12.6996549 C7.70644006,12.5285389 7.75852597,12.3309189 7.80452392,12.1566555 C7.82464803,12.0804567 7.85711717,11.9573791 7.88485118,11.9108315 C7.90007112,11.9076842 7.93203291,11.9032116 7.99206701,11.9032116 C8.04026338,11.9032116 8.09420952,11.905862 8.15136871,11.9086781 C8.21698347,11.9118254 8.28462751,11.9151384 8.35531552,11.9151384 C8.51123501,11.9151384 8.63705293,11.8979108 8.75120226,11.8606397 C8.95058308,11.7957051 9.11005392,11.669977 9.25075353,11.5589918 C9.32854418,11.4977014 9.45875894,11.3949987 9.50408044,11.388704 C9.55362974,11.3949987 9.6836754,11.4977014 9.76146604,11.5589918 C9.90216565,11.669977 10.0618056,11.7957051 10.2611864,11.8606397 C10.3753357,11.8979108 10.5009845,11.9151384 10.6570732,11.9151384 C10.7275921,11.9151384 10.7954052,11.9118254 10.8608508,11.9086781 C10.91801,11.905862 10.9719561,11.9032116 11.0203217,11.9032116 C11.0803557,11.9032116 11.1121485,11.9075185 11.1275374,11.9108315 C11.1552715,11.9573791 11.1877406,12.0804567 11.2076957,12.1566555 C11.2536936,12.3309189 11.3059486,12.5285389 11.433965,12.6996549 C11.5606284,12.8689488 11.7354883,12.977118 11.8898858,13.0726978 C11.9615885,13.1172576 12.0789509,13.1898121 12.1127729,13.2308932 C12.1115892,13.2850606 12.0620399,13.4174147 12.0317692,13.4984173 C11.9673382,13.6701959 11.8944518,13.8649999 11.8944518,14.0808413 C11.8944518,14.2966827 11.9673382,14.4914867 12.0316001,14.663431 C12.0620399,14.7444336 12.1115892,14.8767877 12.1127729,14.9309551 C12.0789509,14.9720362 11.9615885,15.0445907 11.8898858,15.0891504 C11.7354883,15.1845646 11.5606284,15.2928995 11.433965,15.4621934 C11.3059486,15.6333094 11.2536936,15.8309294 11.2076957,16.0051927 C11.1877406,16.0812259 11.1551024,16.2044692 11.1275374,16.2510168 C11.1121485,16.2541641 11.0803557,16.2586367 11.0203217,16.2586367 C10.9719561,16.2586367 10.91801,16.2559863 10.8608508,16.2531702 C10.7954052,16.2500228 10.7275921,16.2467099 10.6570732,16.2467099 C10.5009845,16.2467099 10.3753357,16.2639374 10.2611864,16.3012086 C10.0618056,16.3661432 9.90216565,16.4920369 9.76146604,16.6028565 C9.68485918,16.6634842 9.5570119,16.7640336 9.50610976,16.7729787 C9.45520763,16.7640336 9.32752949,16.6634842 9.25092263,16.6028565 C9.11005392,16.4920369 8.95058308,16.3661432 8.75120226,16.3012086 C8.63705293,16.2639374 8.51123501,16.2467099 8.35531552,16.2467099 C8.28479661,16.2467099 8.21698347,16.2500228 8.15136871,16.2531702 C8.09437861,16.2559863 8.04043248,16.2586367 7.99206701,16.2586367 C7.93203291,16.2586367 7.90024022,16.2541641 7.88485118,16.2510168 C7.85711717,16.2044692 7.82464803,16.0813916 7.80452392,16.0051927 C7.75869507,15.8309294 7.70644006,15.6333094 7.57842372,15.4621934 C7.45176022,15.2928995 7.27690039,15.1845646 7.12250288,15.0891504 C7.05080019,15.0447564 6.93343776,14.9720362 6.89961574,14.9309551 C6.90079952,14.8769533 6.95034877,14.7444336 6.98061949,14.663431 C7.04505043,14.4916523 7.11793689,14.2968484 7.11793689,14.081007 C7.11793689,13.8649999 7.04488133,13.6701959 6.98061949,13.4984173 Z M10.9521703,20.9216729 L9.73626865,20.1744276 C9.59556904,20.0881241 9.41665053,20.0881241 9.27595092,20.1744276 L8.0600493,20.9216729 L8.0600493,17.1054374 C8.10604724,17.1041122 8.15119961,17.1024557 8.19499914,17.1003023 C8.25232747,17.0973206 8.30644271,17.0946702 8.35531552,17.0946702 C8.43209153,17.0946702 8.46489886,17.1016275 8.47758213,17.1057687 C8.5291607,17.122665 8.62825925,17.2008516 8.70791007,17.2636328 C8.90999666,17.4229877 9.16146339,17.6212703 9.50610976,17.6212703 C9.85075618,17.6212703 10.1022229,17.4229877 10.3043095,17.2636328 C10.3839603,17.2008516 10.4830589,17.122665 10.5344683,17.1059343 C10.5473207,17.1017931 10.580128,17.0948358 10.656904,17.0948358 C10.7057769,17.0948358 10.7598921,17.0974862 10.8172204,17.1003023 C10.8610199,17.1024557 10.9061723,17.1042779 10.9520012,17.1054374 L10.9520012,20.9216729 L10.9521703,20.9216729 Z M11.818014,18.5512271 L11.818014,16.7637023 C11.9467068,16.5924206 12.0004838,16.3896655 12.0459744,16.2173899 C12.0698189,16.1269452 12.1024572,16.0032049 12.1322206,15.9636147 C12.1618148,15.9238588 12.2719055,15.8557768 12.3522328,15.8060819 C12.5653116,15.6742249 12.8304762,15.5100661 12.9358318,15.1996387 C13.0400036,14.8933526 12.931604,14.6039627 12.8445123,14.3713907 C12.8049406,14.2658719 12.7601264,14.1461072 12.7601264,14.0808413 C12.7601264,14.0155754 12.8049406,13.8959764 12.8445123,13.7904575 C12.931604,13.5578855 13.0400036,13.26833 12.9358318,12.9620439 C12.8304762,12.6517822 12.5653116,12.4876234 12.3522328,12.3557663 C12.2719055,12.3060715 12.1618148,12.2378238 12.1322206,12.1983992 C12.1024572,12.1586433 12.0698189,12.0349031 12.0459744,11.9444584 C11.9837419,11.7084077 11.9062895,11.4145453 11.6411249,11.2240483 C11.4300755,11.0726445 11.1857113,11.0550857 11.0201526,11.0550857 C10.950141,11.0550857 10.8824969,11.0583987 10.8172204,11.0617117 C10.7598921,11.0645277 10.7057769,11.0671781 10.6570732,11.0671781 C10.580128,11.0671781 10.5473207,11.0602208 10.5346374,11.0560796 C10.483228,11.0393489 10.3841294,10.9611623 10.3044786,10.8982155 C10.1022229,10.7390262 9.85075618,10.5407437 9.50610976,10.5407437 C9.16163249,10.5407437 8.90999666,10.7390262 8.70791007,10.8982155 C8.62825925,10.9609967 8.5291607,11.0393489 8.47775123,11.0560796 C8.46506796,11.0602208 8.43209153,11.0671781 8.35531552,11.0671781 C8.30661181,11.0671781 8.25232747,11.0645277 8.19499914,11.061546 C8.12972262,11.0583987 8.06224772,11.0550857 7.99206701,11.0550857 C7.82667731,11.0550857 7.58231322,11.0726445 7.37143295,11.2240483 C7.10609917,11.4145453 7.02847762,11.7084077 6.9662451,11.9444584 C6.94240058,12.0349031 6.90976235,12.1586433 6.88016807,12.1982336 C6.85040469,12.2378238 6.740314,12.3060715 6.65998673,12.3557663 C6.446908,12.4876234 6.18191246,12.6517822 6.07638775,12.9620439 C5.97221593,13.2684957 6.08061549,13.5578855 6.16770721,13.7904575 C6.20727895,13.8959764 6.25209316,14.0155754 6.25209316,14.0808413 C6.25209316,14.1461072 6.20727895,14.2658719 6.16770721,14.3713907 C6.08061549,14.6039627 5.97221593,14.8933526 6.07638775,15.1998044 C6.18191246,15.5100661 6.4470771,15.6742249 6.65998673,15.8060819 C6.74048314,15.8557768 6.85040469,15.9240244 6.88016807,15.9636147 C6.90976235,16.0032049 6.94240058,16.1269452 6.9662451,16.2173899 C7.01173575,16.3896655 7.06568188,16.5925863 7.19437466,16.7637023 L7.19437466,18.5512271 L1.10928577,18.5512271 L1.10928577,1.24846358 L10.0519972,1.24846358 L10.0519972,4.6618393 C10.0519972,4.89606782 10.2457974,5.08590229 10.484919,5.08590229 L13.9694328,5.08590229 L13.9694328,18.5512271 L11.818014,18.5512271 Z" id="Shape-Copy" fill-rule="nonzero"></path>
                <path d="M2.79176219,5.08590229 L8.36935167,5.08590229 C8.60830423,5.08590229 8.80227353,4.89606782 8.80227353,4.6618393 C8.80227353,4.42761075 8.60830423,4.23777632 8.36935167,4.23777632 L2.79176219,4.23777632 C2.55264052,4.23777632 2.35884032,4.42761075 2.35884032,4.6618393 C2.35884032,4.89606782 2.55280962,5.08590229 2.79176219,5.08590229 Z" id="Path-Copy"></path>
                <path d="M12.3353218,6.37830046 L2.79176219,6.37830046 C2.55264052,6.37830046 2.35884032,6.56813488 2.35884032,6.80236344 C2.35884032,7.036592 2.55264052,7.22642642 2.79176219,7.22642642 L12.3353218,7.22642642 C12.5744435,7.22642642 12.7682437,7.036592 12.7682437,6.80236344 C12.7682437,6.56813488 12.5744435,6.37830046 12.3353218,6.37830046 Z" id="Path-Copy-2"></path>
                <path d="M10.6036344,8.5188246 L2.79176219,8.5188246 C2.55264052,8.5188246 2.35884032,8.7088247 2.35884032,8.94288758 C2.35884032,9.17711614 2.55264052,9.36695056 2.79176219,9.36695056 L10.6036344,9.36695056 C10.842756,9.36695056 11.0365562,9.17711614 11.0365562,8.94288758 C11.0365562,8.7088247 10.842756,8.5188246 10.6036344,8.5188246 Z" id="Path-Copy-3"></path>
                <path d="M12.3353218,8.5188246 C12.0968766,8.5188246 11.9024,8.70932166 11.9024,8.94288758 C11.9024,9.17645354 12.0968766,9.36695056 12.3353218,9.36695056 C12.5739362,9.36695056 12.7682437,9.17645354 12.7682437,8.94288758 C12.7682437,8.70932166 12.5739362,8.5188246 12.3353218,8.5188246 Z" id="Path-Copy-4"></path>
            </g>
        </g>
    </g>
</svg>