<?xml version="1.0" encoding="UTF-8"?>
<svg width="74px" height="73px" viewBox="0 0 74 73" version="1.1" xmlns="http://www.w3.org/2000/svg" xmlns:xlink="http://www.w3.org/1999/xlink">
    <!-- Generator: Sketch 52.5 (67469) - http://www.bohemiancoding.com/sketch -->
    <title>Issue once</title>
    <desc>Created with Sketch.</desc>
    <g id="new" stroke="none" stroke-width="1" fill="none" fill-rule="evenodd">
        <g id="landing-page" transform="translate(-240.000000, -1170.000000)" fill="#415BF6" fill-rule="nonzero">
            <path d="M261.465269,1212.07464 C262.461692,1211.26564 263.709511,1210.78139 265.005232,1210.73098 L256.729906,1198.77887 C256.265597,1198.11302 255.360527,1197.90677 254.634595,1198.28304 L252.588586,1199.40131 L261.465269,1212.07464 Z M265.493781,1201.23566 C265.002063,1200.55873 264.124402,1200.36355 263.39847,1200.73982 L262.342519,1201.30159 L268.864436,1210.72789 L272.097928,1210.69518 L265.493781,1201.23566 Z M243.270409,1195.31769 C245.800374,1193.94856 248.927281,1194.57424 250.747687,1196.77639 L253.123715,1195.47261 C255.263028,1194.36015 257.873861,1195.0005 259.277861,1196.97064 L260.419391,1198.64344 L261.832771,1197.90724 C263.972084,1196.79478 266.582917,1197.43513 267.986917,1199.40528 L275.863828,1210.68627 L289.71449,1210.57508 C294.089767,1210.55731 298.110965,1212.91531 300.255321,1216.68312 L313.002279,1238.80814 C313.319016,1239.28684 313.344219,1239.9347 313.040506,1240.44967 C312.736792,1240.96464 312.20328,1241.25923 311.632386,1241.25176 C311.034084,1241.23322 310.530188,1240.90209 310.274082,1240.35225 L297.51605,1218.25463 C295.911867,1215.43839 292.94802,1213.6989 289.687119,1213.72053 L265.214026,1213.84431 C263.65473,1213.91576 262.404152,1215.19599 262.409708,1216.76055 C262.415265,1218.32511 263.64594,1219.61943 265.215758,1219.67977 L281.650946,1219.87946 C282.232914,1219.85952 282.786368,1220.1469 283.092032,1220.653 C283.397695,1221.15911 283.368079,1221.78482 283.07544,1222.27238 C282.782801,1222.75994 282.210804,1223.07087 281.623575,1223.02491 L265.193648,1222.89111 C264.436149,1222.87202 263.695536,1222.73221 262.982885,1222.44428 C259.967824,1221.22612 258.453339,1217.87221 259.507045,1214.7907 L259.375809,1214.64203 L248.472724,1199.01375 C247.549368,1197.74794 245.815644,1197.46197 244.517163,1198.30835 C243.246092,1199.16582 242.855736,1200.92114 243.66364,1202.23595 L257.991058,1224.54048 C259.825592,1227.4179 262.865855,1229.28392 266.251627,1229.66346 L285.090292,1231.72698 C288.569367,1232.11233 291.636488,1234.14862 293.3002,1237.2121 L295.028687,1240.35225 C295.339612,1240.92424 295.238289,1241.64852 294.813863,1242.1466 C294.362027,1242.63361 293.686205,1242.80694 293.055783,1242.55223 C292.726867,1242.41934 292.442248,1242.17681 292.256745,1241.84679 L290.451291,1238.73931 C289.284007,1236.57785 287.126113,1235.1321 284.678634,1234.87658 L265.867379,1232.82414 C261.53224,1232.34799 257.664978,1229.92465 255.317128,1226.26592 L240.962302,1203.95033 C240.039497,1202.52532 239.781993,1200.7952 240.182872,1199.17167 C240.699202,1197.49913 241.796397,1196.12504 243.270409,1195.31769 Z M286.748575,1176.67507 L278.783585,1185.46492 L285.511295,1185.46492 C286.207265,1185.46492 286.748575,1184.79472 286.748575,1183.94409 L286.748575,1176.67507 Z M306.338843,1175.90177 C306.338843,1174.84493 305.488213,1173.9943 304.457146,1173.9943 L290.099542,1173.9943 L290.099542,1183.94409 C290.099542,1186.62487 288.063185,1188.79011 285.537072,1188.79011 L276.695675,1188.79011 L276.695675,1201.78155 C276.695675,1202.83839 277.546305,1203.68902 278.603148,1203.68902 L304.431369,1203.68902 C305.488213,1203.68902 306.338843,1202.83839 306.338843,1201.78155 L306.338843,1175.90177 Z M273.396262,1187.01152 C273.396262,1186.88263 273.422038,1186.72797 273.473592,1186.59909 C273.499368,1186.52176 273.499368,1186.47021 273.525145,1186.41865 C273.602475,1186.26399 273.679805,1186.10933 273.808688,1185.98045 L273.860242,1185.9289 L287.186779,1171.23619 C287.496099,1170.9011 287.934302,1170.66911 288.424059,1170.66911 L304.457146,1170.66911 C307.344133,1170.66911 309.689809,1173.01479 309.689809,1175.90177 L309.689809,1201.78155 C309.689809,1204.66853 307.344133,1207.01421 304.457146,1207.01421 L278.603148,1207.01421 C275.716162,1207.01421 273.370485,1204.66853 273.370485,1201.78155 L273.370485,1187.11462 C273.370485,1187.08885 273.396262,1187.06307 273.396262,1187.01152 Z M299.508026,1195.28583 C300.410209,1195.28583 301.157733,1196.03335 301.157733,1196.93553 C301.157733,1197.83772 300.435986,1198.58524 299.508026,1198.58524 L282.985182,1198.58524 C282.082999,1198.58524 281.335475,1197.86349 281.335475,1196.93553 C281.335475,1196.03335 282.057222,1195.28583 282.985182,1195.28583 L299.508026,1195.28583 Z M293.734052,1191.47088 C292.806092,1191.47088 292.058569,1190.72336 292.084346,1189.82117 C292.084346,1188.91899 292.806092,1188.17147 293.734052,1188.17147 L299.508026,1188.17147 C300.410209,1188.17147 301.157733,1188.89321 301.157733,1189.82117 C301.157733,1190.72336 300.435986,1191.47088 299.508026,1191.47088 L293.734052,1191.47088 Z" id="Issue-once"></path>
        </g>
    </g>
</svg>