<?xml version="1.0" encoding="UTF-8"?>
<svg width="1440px" height="900px" viewBox="0 0 1440 900" version="1.1" xmlns="http://www.w3.org/2000/svg" xmlns:xlink="http://www.w3.org/1999/xlink">
    <!-- Generator: Sketch 52.5 (67469) - http://www.bohemiancoding.com/sketch -->
    <title>background</title>
    <desc>Created with Sketch.</desc>
    <defs>
        <linearGradient x1="109.460025%" y1="119.706262%" x2="-22.7493853%" y2="-21.6800821%" id="linearGradient-1">
            <stop stop-color="#1B3BD8" offset="0%"></stop>
            <stop stop-color="#176CE0" offset="31.4739301%"></stop>
            <stop stop-color="#0B92E7" offset="49.1836977%"></stop>
            <stop stop-color="#0BB6EB" offset="71.3239784%"></stop>
            <stop stop-color="#00E0F2" offset="100%"></stop>
        </linearGradient>
        <rect id="path-2" x="-1.13686838e-13" y="-3.97903932e-13" width="1439.9158" height="900"></rect>
        <linearGradient x1="100%" y1="38.7352683%" x2="-13.6201493%" y2="32.2587263%" id="linearGradient-4">
            <stop stop-color="#1B3BD8" offset="0%"></stop>
            <stop stop-color="#176CE0" offset="31.4739301%"></stop>
            <stop stop-color="#0B92E7" offset="49.1836977%"></stop>
            <stop stop-color="#0BB6EB" offset="71.3239784%"></stop>
            <stop stop-color="#00E0F2" offset="100%"></stop>
        </linearGradient>
        <linearGradient x1="109.595889%" y1="94.7985912%" x2="-25.0511337%" y2="7.67698193%" id="linearGradient-5">
            <stop stop-color="#1B3BD8" offset="0%"></stop>
            <stop stop-color="#176CE0" offset="31.4739301%"></stop>
            <stop stop-color="#0B92E7" offset="49.1836977%"></stop>
            <stop stop-color="#0BB6EB" offset="71.3239784%"></stop>
            <stop stop-color="#00E0F2" offset="100%"></stop>
        </linearGradient>
        <linearGradient x1="-11.3193645%" y1="-27.3946712%" x2="100%" y2="106.923773%" id="linearGradient-6">
            <stop stop-color="#1B3BD8" offset="0%"></stop>
            <stop stop-color="#176CE0" offset="31.4739301%"></stop>
            <stop stop-color="#0B92E7" offset="49.1836977%"></stop>
            <stop stop-color="#0BB6EB" offset="71.3239784%"></stop>
            <stop stop-color="#00E0F2" offset="100%"></stop>
        </linearGradient>
        <linearGradient x1="0%" y1="50.0135382%" x2="99.4670074%" y2="50.0135382%" id="linearGradient-7">
            <stop stop-color="#4268CB" offset="0%"></stop>
            <stop stop-color="#4B7CE0" offset="19%"></stop>
            <stop stop-color="#57BEE8" offset="50.59%"></stop>
            <stop stop-color="#57BEE8" offset="90.64%"></stop>
            <stop stop-color="#67D9D4" offset="100%"></stop>
        </linearGradient>
        <linearGradient x1="19.9398791%" y1="-10.8616581%" x2="123.121397%" y2="138.706417%" id="linearGradient-8">
            <stop stop-color="#1B3BD8" offset="0%"></stop>
            <stop stop-color="#176CE0" offset="31.4739301%"></stop>
            <stop stop-color="#0B92E7" offset="49.1836977%"></stop>
            <stop stop-color="#0BB6EB" offset="71.3239784%"></stop>
            <stop stop-color="#00E0F2" offset="100%"></stop>
        </linearGradient>
        <linearGradient x1="-8.37721463%" y1="50.0135362%" x2="99.4670074%" y2="50.0135382%" id="linearGradient-9">
            <stop stop-color="#54AAF6" offset="0%"></stop>
            <stop stop-color="#529EFB" offset="24.2891921%"></stop>
            <stop stop-color="#4976DB" offset="58.2087751%"></stop>
            <stop stop-color="#3969D3" offset="92.4223266%"></stop>
            <stop stop-color="#456DD0" offset="100%"></stop>
        </linearGradient>
    </defs>
    <g id="new" stroke="none" stroke-width="1" fill="none" fill-rule="evenodd">
        <g id="landing-page" transform="translate(0.000000, -1614.000000)">
            <g id="background" transform="translate(720.000000, 2064.000000) scale(-1, 1) translate(-720.000000, -2064.000000) translate(0.000000, 1614.000000)">
                <mask id="mask-3" fill="white">
                    <use xlink:href="#path-2"></use>
                </mask>
                <use id="Mask-Copy-2" fill="url(#linearGradient-1)" xlink:href="#path-2"></use>
                <path d="M1490.59607,715.486113 C1490.59607,804.679222 1418.0595,877.215787 1328.8664,877.215787 C1239.67329,877.215787 1167.13672,804.947876 1167.13672,715.486113 C1167.13672,626.293004 1239.67329,553.75644 1328.8664,553.75644 C1418.32816,553.75644 1490.59607,626.293004 1490.59607,715.486113 Z" id="Shape" fill="url(#linearGradient-4)" fill-rule="nonzero" opacity="0.149999991" mask="url(#mask-3)"></path>
                <path d="M224.334708,51.7982134 C224.334708,133.79833 157.647867,200.485171 75.6477505,200.485171 C-6.35236581,200.485171 -73.0392074,134.045318 -73.0392074,51.7982134 C-73.0392074,-30.2019029 -6.35236581,-96.8887445 75.6477505,-96.8887445 C157.894855,-96.8887445 224.334708,-30.2019029 224.334708,51.7982134 Z" id="Shape" fill="url(#linearGradient-5)" fill-rule="nonzero" opacity="0.0999207428" mask="url(#mask-3)"></path>
                <path d="M121.48358,528.043657 C121.48358,540.580016 111.288348,550.775247 98.7519896,550.775247 C86.2156309,550.775247 76.0203995,540.617776 76.0203995,528.043657 C76.0203995,515.507299 86.2156309,505.312067 98.7519896,505.312067 C111.326108,505.312067 121.48358,515.507299 121.48358,528.043657 Z" id="Shape-Copy" fill="url(#linearGradient-6)" fill-rule="nonzero" opacity="0.0914855072" mask="url(#mask-3)"></path>
                <g id="oval" opacity="0.228091033" mask="url(#mask-3)" fill="url(#linearGradient-8)" fill-rule="nonzero">
                    <g transform="translate(1288.620302, 103.596427)" id="Shape">
                        <path d="M79.7468897,39.8734448 C79.7468897,61.863451 61.863451,79.7468897 39.8734448,79.7468897 C17.8834387,79.7468897 0,61.9296859 0,39.8734448 C0,17.8834387 17.8834387,0 39.8734448,0 C61.9296859,0 79.7468897,17.8834387 79.7468897,39.8734448 Z"></path>
                    </g>
                </g>
                <g id="oval" opacity="0.258152174" mask="url(#mask-3)" fill="url(#linearGradient-9)" fill-rule="nonzero">
                    <g transform="translate(714.524525, 161.200666) scale(-1, 1) translate(-714.524525, -161.200666) translate(680.024525, 126.700666)" id="Shape">
                        <path d="M68.5674192,34.2837096 C68.5674192,53.1910046 53.1910046,68.5674192 34.2837096,68.5674192 C15.3764146,68.5674192 0,53.2479543 0,34.2837096 C0,15.3764146 15.3764146,0 34.2837096,0 C53.2479543,0 68.5674192,15.3764146 68.5674192,34.2837096 Z"></path>
                    </g>
                </g>
            </g>
        </g>
    </g>
</svg>