<?xml version="1.0" encoding="UTF-8"?>
<svg width="593px" height="449px" viewBox="0 0 593 449" version="1.1" xmlns="http://www.w3.org/2000/svg" xmlns:xlink="http://www.w3.org/1999/xlink">
    <!-- Generator: Sketch 52.5 (67469) - http://www.bohemiancoding.com/sketch -->
    <title>landing</title>
    <desc>Created with Sketch.</desc>
    <defs>
        <path d="M532.769712,250.408165 L409.843795,250.408165 C406.484995,250.408165 403.763097,247.685618 403.763097,244.32651 L403.763097,189.688404 C403.763097,186.329699 406.484995,183.607151 409.843795,183.607151 L532.769712,183.607151 C536.128111,183.607151 538.85041,186.329699 538.85041,189.688404 L538.85041,244.32651 C538.85041,247.685618 536.128111,250.408165 532.769712,250.408165" id="path-1"></path>
        <filter x="-24.4%" y="-49.4%" width="148.9%" height="198.8%" filterUnits="objectBoundingBox" id="filter-2">
            <feOffset dx="0" dy="0" in="SourceAlpha" result="shadowOffsetOuter1"></feOffset>
            <feGaussianBlur stdDeviation="11" in="shadowOffsetOuter1" result="shadowBlurOuter1"></feGaussianBlur>
            <feColorMatrix values="0 0 0 0 0   0 0 0 0 0   0 0 0 0 0  0 0 0 0.189424819 0" type="matrix" in="shadowBlurOuter1"></feColorMatrix>
        </filter>
        <path d="M327.890667,131.398374 L205.065948,131.398374 C201.710762,131.398374 198.990872,128.677834 198.990872,125.32194 L198.990872,70.7292161 C198.990872,67.3733217 201.710762,64.6527821 205.065948,64.6527821 L327.890667,64.6527821 C331.245854,64.6527821 333.966145,67.3733217 333.966145,70.7292161 L333.966145,125.32194 C333.966145,128.677834 331.245854,131.398374 327.890667,131.398374" id="path-3"></path>
        <filter x="-25.6%" y="-51.7%" width="151.1%" height="203.4%" filterUnits="objectBoundingBox" id="filter-4">
            <feMorphology radius="0.5" operator="dilate" in="SourceAlpha" result="shadowSpreadOuter1"></feMorphology>
            <feOffset dx="0" dy="0" in="shadowSpreadOuter1" result="shadowOffsetOuter1"></feOffset>
            <feGaussianBlur stdDeviation="11" in="shadowOffsetOuter1" result="shadowBlurOuter1"></feGaussianBlur>
            <feColorMatrix values="0 0 0 0 0   0 0 0 0 0   0 0 0 0 0  0 0 0 0.12109375 0" type="matrix" in="shadowBlurOuter1"></feColorMatrix>
        </filter>
    </defs>
    <g id="new" stroke="none" stroke-width="1" fill="none" fill-rule="evenodd">
        <g id="landing-page" transform="translate(-747.000000, -263.000000)">
            <g id="landing" transform="translate(748.064838, 263.184297)">
                <path d="M61.2320997,382.553215 C-24.3281648,304.938317 -11.72182,179.681847 47.12586,148.878784 C105.97354,118.076123 170.988659,132.955555 192.675492,176.232376 C214.362324,219.510804 262.137688,234.885025 262.137688,234.885025 C262.137688,234.885025 319.55334,263.144259 401.126736,236.278227 C482.700131,209.412196 534.675201,221.079913 567.484145,261.322132 C593.982287,293.822821 606.823956,358.66034 555.162921,403.637598 L88.19808,403.637598 C78.4477597,397.030631 69.4299183,389.989518 61.2320997,382.553215" id="Fill-1" fill="#D4F1FF"></path>
                <path d="M46.1576147,367.294217 C44.8669422,368.394642 31.7758924,347.188169 27.6155416,319.60405 C27.6155416,319.60405 25.5935951,306.039505 38.8649535,312.348073 C38.8649535,312.348073 22.5773407,253.393409 58.4350669,256.103507 C64.618569,256.570585 68.1849855,257.768603 71.9120334,261.477918 C76.9578642,266.500113 80.0074496,274.849687 74.9495714,287.316217 C64.8338149,312.248874 55.3641979,322.199286 60.8541744,334.87345 C66.3433476,347.548417 64.8836106,351.321991 46.1576147,367.294217" id="Fill-6" fill="#83B9FD"></path>
                <path d="M51.5291255,405.918249 C52.2310843,405.738325 52.6547494,405.022648 52.4744408,404.320223 C42.3036681,364.658338 50.8223478,296.594646 52.1853044,293.560446 C52.5796543,292.951597 52.3848888,292.174472 51.7756946,291.78089 C51.1677051,291.387307 50.3328239,291.59695 49.9400804,292.206602 C47.6691553,295.717118 40.0644677,366.496931 49.9312456,404.972847 C50.1115543,405.67487 50.8271667,406.098172 51.5291255,405.918249" id="Fill-8" fill="#4B8DD9"></path>
                <path d="M590.633549,404.533802 L0.0249063321,404.533802" id="Stroke-10" stroke="#102236" stroke-width="0.940738449" stroke-linecap="round" stroke-linejoin="round"></path>
                <path d="M576.090369,299.129278 L576.97344,296.601112 L577.856109,299.129278 C578.600233,301.261051 580.367178,303.059884 582.760183,304.12336 C580.367178,305.186435 578.600233,306.985268 577.856109,309.11704 L576.97344,311.645206 L576.090369,309.11704 C575.346646,306.985268 573.579702,305.186435 571.186296,304.12336 C573.579702,303.059884 575.346646,301.261051 576.090369,299.129278" id="Fill-12" fill="#FFFFFF"></path>
                <path d="M75.1736119,186.40705 L76.6542309,182.167201 L78.1344484,186.40705 C79.3817505,189.981021 82.3445949,192.997952 86.357968,194.780721 C82.3445949,196.563088 79.3817505,199.58002 78.1344484,203.153589 L76.6542309,207.39384 L75.1736119,203.153589 C73.9263098,199.58002 70.9630638,196.563088 66.9504938,194.780721 C70.9630638,192.997952 73.9263098,189.981021 75.1736119,186.40705" id="Fill-14" fill="#FFFFFF"></path>
                <polygon id="Fill-16" fill="#FFFFFF" points="95.1244215 403.290763 504.272835 403.290763 504.272835 31.4423191 95.1244215 31.4423191"></polygon>
                <polygon id="Fill-18" fill="#415BF6" points="94.893514 180.795686 504.503341 180.795686 504.503341 31.3949285 94.893514 31.3949285"></polygon>
                <path d="M160.588585,117.608523 L120.832337,117.608523 C119.101937,117.608523 117.686373,116.19283 117.686373,114.462272 C117.686373,112.732115 119.101937,111.316422 120.832337,111.316422 L160.588585,111.316422 C162.318585,111.316422 163.734148,112.732115 163.734148,114.462272 C163.734148,116.19283 162.318585,117.608523 160.588585,117.608523" id="Fill-19" fill="#3535F0"></path>
                <path d="M170.761767,125.105108 L111.46191,125.105108 C110.247538,125.105108 109.25323,124.111111 109.25323,122.896226 C109.25323,121.681742 110.247538,120.687343 111.46191,120.687343 L170.761767,120.687343 C171.976542,120.687343 172.970448,121.681742 172.970448,122.896226 C172.970448,124.111111 171.976542,125.105108 170.761767,125.105108" id="Fill-20" fill="#3535F0"></path>
                <path d="M159.58464,159.10864 L120.898999,159.10864 C118.248583,159.10864 116.08006,156.939919 116.08006,154.28926 L116.08006,146.926454 C116.08006,144.275394 118.248583,142.107075 120.898999,142.107075 L159.58464,142.107075 C162.235056,142.107075 164.403579,144.275394 164.403579,146.926454 L164.403579,154.28926 C164.403579,156.939919 162.235056,159.10864 159.58464,159.10864" id="Fill-21" fill="#3535F0"></path>
                <path d="M121.351578,224.44127 L159.501513,224.44127 C163.937346,224.44127 167.533078,228.03733 167.533078,232.473568 L167.533078,270.626988 C167.533078,275.062825 163.937346,278.659286 159.501513,278.659286 L121.351578,278.659286 C116.916146,278.659286 113.320013,275.062825 113.320013,270.626988 L113.320013,232.473568 C113.320013,228.03733 116.916146,224.44127 121.351578,224.44127" id="Fill-22" fill="#415BF6"></path>
                <path d="M94.9305395,31.8641353 L504.40624,31.8641353 L504.40624,14.1954877 C504.40624,10.4942044 501.406048,7.49373917 497.705505,7.49373917 L101.631274,7.49373917 C97.9307307,7.49373917 94.9305395,10.4942044 94.9305395,14.1954877 L94.9305395,31.8641353 Z" id="Fill-23" fill="#F2F5F7"></path>
                <path d="M150.065588,116.824932 L149.300983,118.202873 C145.942183,124.251194 146.296375,131.538095 150.201723,136.714912 L189.019483,181.315857 C212.515827,170.230884 221.36621,139.712164 221.36621,139.712164 L183.271292,102.630254 C179.079216,98.3064674 172.500963,96.378314 166.870434,100.301289 L150.065588,116.824932 Z" id="Fill-24" fill="#2A4F98"></path>
                <path d="M192.783476,73.1226404 L483.634965,73.1226404 C487.153594,73.1226404 490.006005,75.9757129 490.006005,79.4938597 L490.006005,403.290683 L186.412838,403.290683 L186.412838,79.4938597 C186.412838,75.9757129 189.264847,73.1226404 192.783476,73.1226404" id="Fill-25" fill="#F4F4F4"></path>
                <path d="M470.520343,151.879571 L347.696025,151.879571 C344.340437,151.879571 341.620548,149.159433 341.620548,145.803538 L341.620548,91.2104133 C341.620548,87.8545189 344.340437,85.1343809 347.696025,85.1343809 L470.520343,85.1343809 C473.875529,85.1343809 476.595821,87.8545189 476.595821,91.2104133 L476.595821,145.803538 C476.595821,149.159433 473.875529,151.879571 470.520343,151.879571" id="Fill-26" fill="#FFFFFF"></path>
                <path d="M393.839295,118.503562 C393.839295,123.941428 391.801285,128.906594 388.444493,132.660489 C384.551995,137.036485 378.878899,139.781925 372.573317,139.781925 C366.267735,139.781925 360.59504,137.036485 356.702141,132.660489 C353.34575,128.906594 351.30774,123.941428 351.30774,118.503562 C351.30774,106.75994 360.830767,97.2360431 372.573317,97.2360431 C384.316268,97.2360431 393.839295,106.75994 393.839295,118.503562" id="Fill-27" fill="#7A96CC"></path>
                <path d="M378.203645,122.98683 C378.200432,122.985625 378.198023,122.985223 378.195212,122.984019 C380.423569,121.286392 381.86885,118.611637 381.86885,115.593902 C381.86885,110.46046 377.707294,106.298524 372.574321,106.298524 C367.440946,106.298524 363.280193,110.46046 363.280193,115.593902 C363.280193,118.611637 364.724269,121.285991 366.952627,122.983617 C366.949816,122.985223 366.946603,122.985625 366.94339,122.98683 C362.299539,124.584454 358.55683,128.134329 356.702341,132.660529 C360.59484,137.036525 366.267534,139.781965 372.573116,139.781965 C378.879099,139.781965 384.552195,137.036525 388.444694,132.660529 C386.590205,128.134329 382.847094,124.584454 378.203645,122.98683" id="Fill-28" fill="#A9C2E2"></path>
                <path d="M461.45897,119.918211 L401.956718,119.918211 C400.52469,119.918211 399.363727,118.757543 399.363727,117.325385 C399.363727,115.893226 400.52469,114.732559 401.956718,114.732559 L461.45897,114.732559 C462.890999,114.732559 464.051961,115.893226 464.051961,117.325385 C464.051961,118.757543 462.890999,119.918211 461.45897,119.918211" id="Fill-29" fill="#F4F4F4"></path>
                <path d="M461.45897,108.299611 L401.956718,108.299611 C400.52469,108.299611 399.363727,107.138542 399.363727,105.706785 C399.363727,104.274626 400.52469,103.113557 401.956718,103.113557 L461.45897,103.113557 C462.890999,103.113557 464.051961,104.274626 464.051961,105.706785 C464.051961,107.138542 462.890999,108.299611 461.45897,108.299611" id="Fill-30" fill="#F4F4F4"></path>
                <path d="M441.150234,132.058428 L401.956597,132.058428 C400.524569,132.058428 399.363607,130.897359 399.363607,129.4652 C399.363607,128.033443 400.524569,126.872374 401.956597,126.872374 L441.150234,126.872374 C442.581861,126.872374 443.743225,128.033443 443.743225,129.4652 C443.743225,130.897359 442.581861,132.058428 441.150234,132.058428" id="Fill-31" fill="#008EFF"></path>
                <polygon id="Fill-32" fill="#DD361F" points="410.839308 142.090207 405.796689 138.247957 400.513927 142.090207 400.513927 128.64213 410.839308 128.64213"></polygon>
                <path d="M412.847601,128.345458 C412.847601,132.350763 409.600439,135.599427 405.593892,135.599427 C401.587346,135.599427 398.339783,132.350763 398.339783,128.345458 C398.339783,124.338545 401.587346,121.090284 405.593892,121.090284 C409.600439,121.090284 412.847601,124.338545 412.847601,128.345458" id="Fill-33" fill="#FFD400"></path>
                <path d="M470.520343,227.383179 L347.696025,227.383179 C344.340437,227.383179 341.620548,224.663041 341.620548,221.307147 L341.620548,166.714022 C341.620548,163.358127 344.340437,160.637989 347.696025,160.637989 L470.520343,160.637989 C473.875529,160.637989 476.595821,163.358127 476.595821,166.714022 L476.595821,221.307147 C476.595821,224.663041 473.875529,227.383179 470.520343,227.383179 Z" id="Stroke-34" stroke="#999999" stroke-width="0.5" stroke-dasharray="1.415176270397138"></path>
                <path d="M327.680843,151.765432 L205.275773,151.765432 C201.93183,151.765432 199.221177,149.054531 199.221177,145.710283 L199.221177,91.3035077 C199.221177,87.9592601 201.93183,85.2479576 205.275773,85.2479576 L327.680843,85.2479576 C331.024785,85.2479576 333.735438,87.9592601 333.735438,91.3035077 L333.735438,145.710283 C333.735438,149.054531 331.024785,151.765432 327.680843,151.765432 Z" id="Stroke-35" stroke="#999999" stroke-width="0.5" stroke-dasharray="1.410223194994188"></path>
                <g id="Group-46" transform="translate(198.673786, 159.704476)">
                    <path d="M129.216881,66.871538 L6.39216214,66.871538 C3.03697576,66.871538 0.317086196,64.1514 0.317086196,60.7955056 L0.317086196,6.20278208 C0.317086196,2.84648604 3.03697576,0.12634806 6.39216214,0.12634806 L129.216881,0.12634806 C132.572068,0.12634806 135.292359,2.84648604 135.292359,6.20278208 L135.292359,60.7955056 C135.292359,64.1514 132.572068,66.871538 129.216881,66.871538" id="Fill-36" fill="#FFFFFF"></path>
                    <g id="Group-45" transform="translate(9.637878, 12.048448)">
                        <path d="M42.8979553,21.4470811 C42.8979553,26.8849474 40.8599456,31.8505145 37.5031529,35.6044093 C33.6106548,39.9800041 27.9375587,42.7254438 21.6319769,42.7254438 C15.3267966,42.7254438 9.65370047,39.9800041 5.7608008,35.6044093 C2.40440969,31.8505145 0.366400006,26.8849474 0.366400006,21.4470811 C0.366400006,9.70386031 9.88942691,0.179562039 21.6319769,0.179562039 C33.3749284,0.179562039 42.8979553,9.70386031 42.8979553,21.4470811" id="Fill-37" fill="#A5A5A5"></path>
                        <path d="M27.2622647,25.9303488 C27.2590521,25.929144 27.2566426,25.9287424 27.2538316,25.9275375 C29.4821894,24.2303128 30.9274695,21.5555573 30.9274695,18.5378227 C30.9274695,13.4043805 26.765914,9.24204329 21.6329407,9.24204329 C16.4995657,9.24204329 12.3388134,13.4043805 12.3388134,18.5378227 C12.3388134,21.5555573 13.7828888,24.2295096 16.0112466,25.9271359 C16.0084355,25.9287424 16.0052229,25.929144 16.0020103,25.9303488 C11.3581592,27.5283747 7.61544984,31.0778475 5.76096143,35.6044495 C9.65345952,39.9800443 15.3265556,42.725484 21.6317359,42.725484 C27.9377194,42.725484 33.6108155,39.9800443 37.5033136,35.6044495 C35.6488252,31.0778475 31.9057142,27.5283747 27.2622647,25.9303488" id="Fill-38" fill="#CACACA"></path>
                        <path d="M110.517992,22.8621312 L51.0153378,22.8621312 C49.5833097,22.8621312 48.422347,21.7010624 48.422347,20.2689035 C48.422347,18.8371463 49.5833097,17.6760775 51.0153378,17.6760775 L110.517992,17.6760775 C111.949619,17.6760775 113.110581,18.8371463 113.110581,20.2689035 C113.110581,21.7010624 111.949619,22.8621312 110.517992,22.8621312" id="Fill-39" fill="#EDEDED"></path>
                        <path d="M110.517992,11.2435315 L51.0153378,11.2435315 C49.5833097,11.2435315 48.422347,10.0824627 48.422347,8.65030384 C48.422347,7.21854659 49.5833097,6.0574778 51.0153378,6.0574778 L110.517992,6.0574778 C111.949619,6.0574778 113.110581,7.21854659 113.110581,8.65030384 C113.110581,10.0824627 111.949619,11.2435315 110.517992,11.2435315" id="Fill-40" fill="#EDEDED"></path>
                        <path d="M90.2088943,35.0023885 L51.0152575,35.0023885 C49.5832294,35.0023885 48.4222667,33.8413198 48.4222667,32.4091609 C48.4222667,30.9774036 49.5832294,29.8159332 51.0152575,29.8159332 L90.2088943,29.8159332 C91.6405208,29.8159332 92.8018851,30.9774036 92.8018851,32.4091609 C92.8018851,33.8413198 91.6405208,35.0023885 90.2088943,35.0023885" id="Fill-41" fill="#EDEDED"></path>
                        <g id="Group-44" transform="translate(47.386235, 23.695281)">
                            <polygon id="Fill-42" fill="#797979" points="12.511733 21.3384443 7.46911473 17.4961942 2.18635269 21.3384443 2.18635269 7.89036806 12.511733 7.89036806"></polygon>
                            <path d="M14.5199857,7.59373526 C14.5199857,11.5994427 11.2728239,14.8477043 7.26627755,14.8477043 C3.25973123,14.8477043 0.0121678213,11.5994427 0.0121678213,7.59373526 C0.0121678213,3.58722463 3.25973123,0.338963008 7.26627755,0.338963008 C11.2728239,0.338963008 14.5199857,3.58722463 14.5199857,7.59373526" id="Fill-43" fill="#D3D3D3"></path>
                        </g>
                    </g>
                </g>
                <g id="Group-57" transform="translate(198.673786, 234.404854)">
                    <path d="M129.216881,66.8680038 L6.39216214,66.8680038 C3.03697576,66.8680038 0.317086196,64.1478658 0.317086196,60.7919714 L0.317086196,6.19884626 C0.317086196,2.84295183 3.03697576,0.122813848 6.39216214,0.122813848 L129.216881,0.122813848 C132.572068,0.122813848 135.292359,2.84295183 135.292359,6.19884626 L135.292359,60.7919714 C135.292359,64.1478658 132.572068,66.8680038 129.216881,66.8680038" id="Fill-47" fill="#FFFFFF"></path>
                    <g id="Group-56" transform="translate(9.637878, 12.048448)">
                        <path d="M42.8979553,21.4435469 C42.8979553,26.8814132 40.8599456,31.8465787 37.5031529,35.6004735 C33.6106548,39.9764699 27.9375587,42.7219096 21.6319769,42.7219096 C15.3267966,42.7219096 9.65370047,39.9764699 5.7608008,35.6004735 C2.40440969,31.8465787 0.366400006,26.8814132 0.366400006,21.4435469 C0.366400006,9.69992449 9.88942691,0.176027828 21.6319769,0.176027828 C33.3749284,0.176027828 42.8979553,9.69992449 42.8979553,21.4435469" id="Fill-48" fill="#A5A5A5"></path>
                        <path d="M27.2622647,25.9268146 C27.2590521,25.9256098 27.2566426,25.9252082 27.2538316,25.9240033 C29.4821894,24.226377 30.9274695,21.5516215 30.9274695,18.5338868 C30.9274695,13.4004447 26.765914,9.23850908 21.6329407,9.23850908 C16.4995657,9.23850908 12.3388134,13.4004447 12.3388134,18.5338868 C12.3388134,21.5516215 13.7828888,24.2259754 16.0112466,25.9232001 C16.0084355,25.9252082 16.0052229,25.9256098 16.0020103,25.9268146 C11.3581592,27.5244389 7.61544984,31.0743133 5.76096143,35.6005137 C9.65345952,39.9761084 15.3265556,42.7219498 21.6317359,42.7219498 C27.9377194,42.7219498 33.6108155,39.9761084 37.5033136,35.6005137 C35.6488252,31.0743133 31.9057142,27.5244389 27.2622647,25.9268146" id="Fill-49" fill="#CACACA"></path>
                        <path d="M110.517992,22.8582355 L51.0153378,22.8582355 C49.5833097,22.8582355 48.422347,21.6975684 48.422347,20.2654095 C48.422347,18.8332506 49.5833097,17.6725834 51.0153378,17.6725834 L110.517992,17.6725834 C111.949619,17.6725834 113.110581,18.8332506 113.110581,20.2654095 C113.110581,21.6975684 111.949619,22.8582355 110.517992,22.8582355" id="Fill-50" fill="#EDEDED"></path>
                        <path d="M110.517992,11.2396358 L51.0153378,11.2396358 C49.5833097,11.2396358 48.422347,10.0785671 48.422347,8.64680979 C48.422347,7.21465092 49.5833097,6.05358213 51.0153378,6.05358213 L110.517992,6.05358213 C111.949619,6.05358213 113.110581,7.21465092 113.110581,8.64680979 C113.110581,10.0785671 111.949619,11.2396358 110.517992,11.2396358" id="Fill-51" fill="#EDEDED"></path>
                        <path d="M90.2088943,34.9984527 L51.0152575,34.9984527 C49.5832294,34.9984527 48.4222667,33.8373839 48.4222667,32.4052251 C48.4222667,30.9734678 49.5832294,29.812399 51.0152575,29.812399 L90.2088943,29.812399 C91.6405208,29.812399 92.8018851,30.9734678 92.8018851,32.4052251 C92.8018851,33.8373839 91.6405208,34.9984527 90.2088943,34.9984527" id="Fill-52" fill="#EDEDED"></path>
                        <g id="Group-55" transform="translate(47.386235, 23.695281)">
                            <polygon id="Fill-53" fill="#797979" points="12.511733 21.3349101 7.46911473 17.49266 2.18635269 21.3349101 2.18635269 7.88683385 12.511733 7.88683385"></polygon>
                            <path d="M14.5199857,7.59020105 C14.5199857,11.5955068 11.2728239,14.8441701 7.26627755,14.8441701 C3.25973123,14.8441701 0.0121678213,11.5955068 0.0121678213,7.59020105 C0.0121678213,3.58328881 3.25973123,0.335027182 7.26627755,0.335027182 C11.2728239,0.335027182 14.5199857,3.58328881 14.5199857,7.59020105" id="Fill-54" fill="#D3D3D3"></path>
                        </g>
                    </g>
                </g>
                <path d="M470.520343,302.886788 L347.696025,302.886788 C344.340437,302.886788 341.620548,300.16665 341.620548,296.810755 L341.620548,242.21763 C341.620548,238.861736 344.340437,236.141598 347.696025,236.141598 L470.520343,236.141598 C473.875529,236.141598 476.595821,238.861736 476.595821,242.21763 L476.595821,296.810755 C476.595821,300.16665 473.875529,302.886788 470.520343,302.886788" id="Fill-58" fill="#FFFFFF"></path>
                <path d="M393.839295,269.510779 C393.839295,274.948645 391.801285,279.913811 388.444493,283.667706 C384.551995,288.043702 378.878899,290.789142 372.573317,290.789142 C366.267735,290.789142 360.59504,288.043702 356.702141,283.667706 C353.34575,279.913811 351.30774,274.948645 351.30774,269.510779 C351.30774,257.767157 360.830767,248.24326 372.573317,248.24326 C384.316268,248.24326 393.839295,257.767157 393.839295,269.510779" id="Fill-59" fill="#7A96CC"></path>
                <path d="M378.203645,273.994047 C378.200432,273.992842 378.198023,273.99244 378.195212,273.991236 C380.423569,272.293609 381.86885,269.618854 381.86885,266.601119 C381.86885,261.467677 377.707294,257.305741 372.574321,257.305741 C367.440946,257.305741 363.280193,261.467677 363.280193,266.601119 C363.280193,269.618854 364.724269,272.293208 366.952627,273.990834 C366.949816,273.99244 366.946603,273.992842 366.94339,273.994047 C362.299539,275.591671 358.55683,279.141546 356.702341,283.667746 C360.59484,288.043742 366.267534,290.789182 372.573116,290.789182 C378.879099,290.789182 384.552195,288.043742 388.444694,283.667746 C386.590205,279.141546 382.847094,275.591671 378.203645,273.994047" id="Fill-60" fill="#A9C2E2"></path>
                <path d="M461.45897,270.925428 L401.956718,270.925428 C400.52469,270.925428 399.363727,269.76476 399.363727,268.332602 C399.363727,266.900443 400.52469,265.739776 401.956718,265.739776 L461.45897,265.739776 C462.890999,265.739776 464.051961,266.900443 464.051961,268.332602 C464.051961,269.76476 462.890999,270.925428 461.45897,270.925428" id="Fill-61" fill="#F4F4F4"></path>
                <path d="M461.45897,259.306828 L401.956718,259.306828 C400.52469,259.306828 399.363727,258.145759 399.363727,256.714002 C399.363727,255.281843 400.52469,254.120774 401.956718,254.120774 L461.45897,254.120774 C462.890999,254.120774 464.051961,255.281843 464.051961,256.714002 C464.051961,258.145759 462.890999,259.306828 461.45897,259.306828" id="Fill-62" fill="#F4F4F4"></path>
                <path d="M441.150234,283.065645 L401.956597,283.065645 C400.524569,283.065645 399.363607,281.904576 399.363607,280.472417 C399.363607,279.04066 400.524569,277.879591 401.956597,277.879591 L441.150234,277.879591 C442.581861,277.879591 443.743225,279.04066 443.743225,280.472417 C443.743225,281.904576 442.581861,283.065645 441.150234,283.065645" id="Fill-63" fill="#008EFF"></path>
                <polygon id="Fill-64" fill="#DD361F" points="410.839308 293.097424 405.796689 289.255174 400.513927 293.097424 400.513927 279.649347 410.839308 279.649347"></polygon>
                <path d="M412.847601,279.352675 C412.847601,283.35798 409.600439,286.606644 405.593892,286.606644 C401.587346,286.606644 398.339783,283.35798 398.339783,279.352675 C398.339783,275.345762 401.587346,272.097501 405.593892,272.097501 C409.600439,272.097501 412.847601,275.345762 412.847601,279.352675" id="Fill-65" fill="#FFD400"></path>
                <path d="M327.890667,378.390396 L205.065948,378.390396 C201.710762,378.390396 198.990872,375.670258 198.990872,372.314364 L198.990872,317.721239 C198.990872,314.365344 201.710762,311.645206 205.065948,311.645206 L327.890667,311.645206 C331.245854,311.645206 333.966145,314.365344 333.966145,317.721239 L333.966145,372.314364 C333.966145,375.670258 331.245854,378.390396 327.890667,378.390396" id="Fill-66" fill="#FFFFFF"></path>
                <path d="M251.209619,345.014388 C251.209619,350.452254 249.17161,355.417419 245.814817,359.171314 C241.922319,363.547311 236.249223,366.29275 229.943641,366.29275 C223.638461,366.29275 217.965365,363.547311 214.072465,359.171314 C210.716074,355.417419 208.678064,350.452254 208.678064,345.014388 C208.678064,333.270765 218.201091,323.746869 229.943641,323.746869 C241.686593,323.746869 251.209619,333.270765 251.209619,345.014388" id="Fill-67" fill="#7A96CC" style="mix-blend-mode: luminosity;"></path>
                <path d="M235.573929,349.497655 C235.570716,349.496451 235.568307,349.496049 235.565496,349.494844 C237.793853,347.797218 239.239134,345.122462 239.239134,342.104728 C239.239134,336.971285 235.077578,332.80935 229.944605,332.80935 C224.81123,332.80935 220.650477,336.971285 220.650477,342.104728 C220.650477,345.122462 222.094553,347.796816 224.322911,349.494442 C224.3201,349.496049 224.316887,349.496451 224.313674,349.497655 C219.669823,351.09528 215.927114,354.645154 214.072626,359.171354 C217.965124,363.547351 223.63822,366.29279 229.9434,366.29279 C236.249383,366.29279 241.92248,363.547351 245.814978,359.171354 C243.960489,354.645154 240.217378,351.09528 235.573929,349.497655" id="Fill-68" fill="#A9C2E2" style="mix-blend-mode: luminosity;"></path>
                <path d="M318.829656,346.429036 L259.327002,346.429036 C257.894974,346.429036 256.734011,345.268369 256.734011,343.83621 C256.734011,342.404051 257.894974,341.243384 259.327002,341.243384 L318.829656,341.243384 C320.261283,341.243384 321.422245,342.404051 321.422245,343.83621 C321.422245,345.268369 320.261283,346.429036 318.829656,346.429036" id="Fill-69" fill="#F4F4F4"></path>
                <path d="M318.829656,334.810436 L259.327002,334.810436 C257.894974,334.810436 256.734011,333.649368 256.734011,332.21761 C256.734011,330.785451 257.894974,329.624383 259.327002,329.624383 L318.829656,329.624383 C320.261283,329.624383 321.422245,330.785451 321.422245,332.21761 C321.422245,333.649368 320.261283,334.810436 318.829656,334.810436" id="Fill-70" fill="#F4F4F4"></path>
                <path d="M298.520558,358.569253 L259.326922,358.569253 C257.894894,358.569253 256.733931,357.408184 256.733931,355.976026 C256.733931,354.544268 257.894894,353.3832 259.326922,353.3832 L298.520558,353.3832 C299.952185,353.3832 301.113549,354.544268 301.113549,355.976026 C301.113549,357.408184 299.952185,358.569253 298.520558,358.569253" id="Fill-71" fill="#008EFF"></path>
                <polygon id="Fill-72" fill="#DD361F" points="268.209632 368.601032 263.167014 364.758782 257.884252 368.601032 257.884252 355.152956 268.209632 355.152956"></polygon>
                <path d="M270.217885,354.856283 C270.217885,358.861589 266.970723,362.110252 262.964177,362.110252 C258.95763,362.110252 255.710067,358.861589 255.710067,354.856283 C255.710067,350.849371 258.95763,347.601109 262.964177,347.601109 C266.970723,347.601109 270.217885,350.849371 270.217885,354.856283" id="Fill-73" fill="#FFD400"></path>
                <path d="M470.520343,378.390396 L347.696025,378.390396 C344.340437,378.390396 341.620548,375.670258 341.620548,372.314364 L341.620548,317.721239 C341.620548,314.365344 344.340437,311.645206 347.696025,311.645206 L470.520343,311.645206 C473.875529,311.645206 476.595821,314.365344 476.595821,317.721239 L476.595821,372.314364 C476.595821,375.670258 473.875529,378.390396 470.520343,378.390396" id="Fill-74" fill="#FFFFFF"></path>
                <path d="M393.839295,345.014388 C393.839295,350.452254 391.801285,355.417419 388.444493,359.171314 C384.551995,363.547311 378.878899,366.29275 372.573317,366.29275 C366.267735,366.29275 360.59504,363.547311 356.702141,359.171314 C353.34575,355.417419 351.30774,350.452254 351.30774,345.014388 C351.30774,333.270765 360.830767,323.746869 372.573317,323.746869 C384.316268,323.746869 393.839295,333.270765 393.839295,345.014388" id="Fill-75" fill="#7A96CC"></path>
                <path d="M378.203645,349.497655 C378.200432,349.496451 378.198023,349.496049 378.195212,349.494844 C380.423569,347.797218 381.86885,345.122462 381.86885,342.104728 C381.86885,336.971285 377.707294,332.80935 372.574321,332.80935 C367.440946,332.80935 363.280193,336.971285 363.280193,342.104728 C363.280193,345.122462 364.724269,347.796816 366.952627,349.494442 C366.949816,349.496049 366.946603,349.496451 366.94339,349.497655 C362.299539,351.09528 358.55683,354.645154 356.702341,359.171354 C360.59484,363.547351 366.267534,366.29279 372.573116,366.29279 C378.879099,366.29279 384.552195,363.547351 388.444694,359.171354 C386.590205,354.645154 382.847094,351.09528 378.203645,349.497655" id="Fill-76" fill="#A9C2E2"></path>
                <path d="M461.45897,346.429036 L401.956718,346.429036 C400.52469,346.429036 399.363727,345.268369 399.363727,343.83621 C399.363727,342.404051 400.52469,341.243384 401.956718,341.243384 L461.45897,341.243384 C462.890999,341.243384 464.051961,342.404051 464.051961,343.83621 C464.051961,345.268369 462.890999,346.429036 461.45897,346.429036" id="Fill-77" fill="#F4F4F4"></path>
                <path d="M461.45897,334.810436 L401.956718,334.810436 C400.52469,334.810436 399.363727,333.649368 399.363727,332.21761 C399.363727,330.785451 400.52469,329.624383 401.956718,329.624383 L461.45897,329.624383 C462.890999,329.624383 464.051961,330.785451 464.051961,332.21761 C464.051961,333.649368 462.890999,334.810436 461.45897,334.810436" id="Fill-78" fill="#F4F4F4"></path>
                <path d="M441.150234,358.569253 L401.956597,358.569253 C400.524569,358.569253 399.363607,357.408184 399.363607,355.976026 C399.363607,354.544268 400.524569,353.3832 401.956597,353.3832 L441.150234,353.3832 C442.581861,353.3832 443.743225,354.544268 443.743225,355.976026 C443.743225,357.408184 442.581861,358.569253 441.150234,358.569253" id="Fill-79" fill="#008EFF"></path>
                <polygon id="Fill-80" fill="#DD361F" points="410.839308 368.601032 405.796689 364.758782 400.513927 368.601032 400.513927 355.152956 410.839308 355.152956"></polygon>
                <path d="M412.847601,354.856283 C412.847601,358.861589 409.600439,362.110252 405.593892,362.110252 C401.587346,362.110252 398.339783,358.861589 398.339783,354.856283 C398.339783,350.849371 401.587346,347.601109 405.593892,347.601109 C409.600439,347.601109 412.847601,350.849371 412.847601,354.856283" id="Fill-81" fill="#FFD400"></path>
                <path d="M548.670846,349.48392 C588.715026,330.324879 553.154066,295.669928 553.154066,295.669928 C554.970003,268.564534 545.864216,261.833869 536.429134,261.833869 C529.538453,261.833869 513.854814,271.627651 518.192261,297.48081 C518.192261,297.48081 482.899154,330.324879 522.943333,349.48392" id="Fill-82" fill="#353C73"></path>
                <polygon id="Fill-83" fill="#EE897B" points="513.810038 431.575741 505.784095 431.539997 519.234156 371.998172 540.103375 371.998172"></polygon>
                <polygon id="Fill-84" fill="#EE897B" points="556.692211 430.636403 548.553425 430.636403 543.31845 378.516423 558.882821 378.516423"></polygon>
                <path d="M524.608718,338.697185 C524.608718,338.697185 512.402345,363.740287 508.803,392.083056 C508.803,392.083056 534.420882,399.167945 565.77049,389.845258 C565.77049,389.845258 561.659534,359.614898 551.101238,337.346956 L524.608718,338.697185 Z" id="Fill-85" fill="#B4BFD8"></path>
                <path d="M508.802839,281.242313 C508.802839,281.242313 516.628796,301.589331 531.026983,300.650355 C545.424768,299.710978 561.074675,302.841968 558.883664,259.329399 L565.77033,257.764707 C565.77033,257.764707 574.53357,292.980714 549.02291,308.475822 L547.462377,329.293131 L555.127702,338.527463 C555.127702,338.527463 540.729917,345.414758 521.949306,339.7801 L526.018097,331.328114 L521.323246,309.102341 C521.323246,309.102341 505.985767,299.085261 502.229806,284.685358 L508.802839,281.242313 Z" id="Fill-86" fill="#2A4F98"></path>
                <path d="M502.229726,284.685438 C502.229726,284.685438 499.748373,273.145434 492.436035,258.825452 C491.112835,256.235036 481.257702,255.729403 481.258506,251.190752 C481.258506,249.780682 484.543416,251.190752 493.778511,249.938115 C495.873143,249.654575 496.123327,245.203477 498.315944,245.242835 C501.506885,245.300266 496.036987,252.871511 497.532866,256.66878 C501.601657,266.999119 502.259041,264.074559 508.802759,281.242393 L502.229726,284.685438 Z" id="Fill-87" fill="#EE897B"></path>
                <path d="M543.318571,217.696147 C541.685352,216.922636 539.94692,223.643662 540.884605,229.904438 C541.033189,230.896025 537.285661,229.278722 537.128643,231.312901 C536.971626,233.347884 541.980512,234.28686 541.980512,234.28686 C541.980512,234.28686 555.285603,243.67742 558.883744,259.329559 L565.77041,257.764868 C565.77041,257.764868 559.823036,240.547233 546.675364,230.373925 C543.843032,228.181911 547.615458,219.730326 543.318571,217.696147" id="Fill-88" fill="#EE897B"></path>
                <path d="M516.784608,429.697468 L502.542635,427.819115 C502.542635,427.819115 503.535738,434.131698 502.542635,435.886756 C501.547524,437.645026 498.507577,438.275963 497.377937,438.775572 C495.759577,439.49125 493.358541,440.172389 493.309146,444.566056 C493.284249,446.75807 505.914688,444.974498 509.664224,443.314624 C511.458476,442.520631 512.268459,441.882063 513.028245,437.836998 C513.443076,435.633738 516.784608,429.697468 516.784608,429.697468" id="Fill-89" fill="#2A4F98"></path>
                <path d="M545.737437,428.688732 L560.08864,429.334127 C560.08864,429.334127 558.005252,435.375219 558.675486,437.277267 C559.347728,439.182127 562.229855,440.335966 563.255084,441.026343 C564.723254,442.014315 566.967274,443.105101 566.246441,447.43933 C565.887028,449.602026 553.764987,445.633669 550.36402,443.342857 C548.736022,442.246047 548.051331,441.476954 548.010772,437.360803 C547.987882,435.11939 545.737437,428.688732 545.737437,428.688732" id="Fill-90" fill="#2A4F98"></path>
                <path d="M547.462216,279.755093 C547.462216,287.405054 542.521599,293.606792 536.428853,293.606792 C530.334502,293.606792 525.39549,287.405054 525.39549,279.755093 C525.39549,272.105131 530.334502,265.903393 536.428853,265.903393 C542.521599,265.903393 547.462216,272.105131 547.462216,279.755093" id="Fill-91" fill="#EE897B"></path>
                <path d="M539.79693,290.554759 C539.79693,290.554759 538.153672,298.06777 543.318772,300.650556 C543.318772,300.650556 541.910035,304.406459 536.27549,304.406459 L536.581092,304.406459 C530.946949,304.406459 529.538614,300.650556 529.538614,300.650556 C534.70291,298.06777 533.060053,290.554759 533.060053,290.554759 L539.79693,290.554759 Z" id="Fill-92" fill="#EE897B"></path>
                <path d="M535.767815,263.555553 C535.767815,263.555553 533.060776,277.328937 549.649171,287.033159 C549.649171,287.033159 550.995663,267.937975 535.767815,263.555553" id="Fill-93" fill="#353C73"></path>
                <path d="M156.204957,88.2898695 C156.204957,97.014954 149.133164,104.087393 140.409278,104.087393 C131.68499,104.087393 124.613197,97.014954 124.613197,88.2898695 C124.613197,79.5651866 131.68499,72.4927475 140.409278,72.4927475 C149.133164,72.4927475 156.204957,79.5651866 156.204957,88.2898695" id="Fill-94" fill="#3535F0"></path>
                <path d="M153.042127,212.824638 L127.642302,212.824638 C126.17895,212.824638 124.981846,211.627424 124.981846,210.163939 C124.981846,208.700454 126.17895,207.50324 127.642302,207.50324 L153.042127,207.50324 C154.505478,207.50324 155.702583,208.700454 155.702583,210.163939 C155.702583,211.627424 154.505478,212.824638 153.042127,212.824638" id="Fill-95" fill="#F2F5F7"></path>
                <path d="M141.145371,203.085476 L139.338268,203.085476 C136.687852,203.085476 134.519329,200.916755 134.519329,198.266096 L134.519329,196.458829 C134.519329,193.80817 136.687852,191.63945 139.338268,191.63945 L141.145371,191.63945 C143.795787,191.63945 145.96431,193.80817 145.96431,196.458829 L145.96431,198.266096 C145.96431,200.916755 143.795787,203.085476 141.145371,203.085476" id="Fill-96" fill="#F2F5F7"></path>
                <path d="M153.042127,266.64104 L127.642302,266.64104 C126.17895,266.64104 124.981846,265.443825 124.981846,263.980341 C124.981846,262.516856 126.17895,261.319642 127.642302,261.319642 L153.042127,261.319642 C154.505478,261.319642 155.702583,262.516856 155.702583,263.980341 C155.702583,265.443825 154.505478,266.64104 153.042127,266.64104" id="Fill-97" fill="#3535F0"></path>
                <path d="M141.145371,252.484113 L139.338268,252.484113 C136.687852,252.484113 134.519329,250.315392 134.519329,247.664734 L134.519329,245.857467 C134.519329,243.206808 136.687852,241.038087 139.338268,241.038087 L141.145371,241.038087 C143.795787,241.038087 145.96431,243.206808 145.96431,245.857467 L145.96431,247.664734 C145.96431,250.315392 143.795787,252.484113 141.145371,252.484113" id="Fill-98" fill="#3535F0"></path>
                <path d="M153.042127,315.437255 L127.642302,315.437255 C126.17895,315.437255 124.981846,314.240041 124.981846,312.776556 C124.981846,311.313071 126.17895,310.115857 127.642302,310.115857 L153.042127,310.115857 C154.505478,310.115857 155.702583,311.313071 155.702583,312.776556 C155.702583,314.240041 154.505478,315.437255 153.042127,315.437255" id="Fill-99" fill="#F2F5F7"></path>
                <path d="M141.145371,305.698092 L139.338268,305.698092 C136.687852,305.698092 134.519329,303.529372 134.519329,300.878713 L134.519329,299.071446 C134.519329,296.420787 136.687852,294.252067 139.338268,294.252067 L141.145371,294.252067 C143.795787,294.252067 145.96431,296.420787 145.96431,299.071446 L145.96431,300.878713 C145.96431,303.529372 143.795787,305.698092 141.145371,305.698092" id="Fill-100" fill="#F2F5F7"></path>
                <path d="M153.042127,364.032662 L127.642302,364.032662 C126.17895,364.032662 124.981846,362.835448 124.981846,361.371963 C124.981846,359.908478 126.17895,358.711264 127.642302,358.711264 L153.042127,358.711264 C154.505478,358.711264 155.702583,359.908478 155.702583,361.371963 C155.702583,362.835448 154.505478,364.032662 153.042127,364.032662" id="Fill-101" fill="#F2F5F7"></path>
                <path d="M141.145371,354.2935 L139.338268,354.2935 C136.687852,354.2935 134.519329,352.124779 134.519329,349.474121 L134.519329,347.666854 C134.519329,345.016195 136.687852,342.847474 139.338268,342.847474 L141.145371,342.847474 C143.795787,342.847474 145.96431,345.016195 145.96431,347.666854 L145.96431,349.474121 C145.96431,352.124779 143.795787,354.2935 141.145371,354.2935" id="Fill-102" fill="#F2F5F7"></path>
                <path d="M471.374098,42.7791458 L483.421446,42.7791458 C485.638961,42.7791458 487.437229,44.5775775 487.437229,46.7952951 L487.437229,58.8437433 C487.437229,61.061461 485.638961,62.8598927 483.421446,62.8598927 L471.374098,62.8598927 C469.156182,62.8598927 467.358316,61.061461 467.358316,58.8437433 L467.358316,46.7952951 C467.358316,44.5775775 469.156182,42.7791458 471.374098,42.7791458" id="Fill-103" fill="#2F45C7"></path>
                <path d="M190.428541,42.7791458 L271.54735,42.7791458 C273.764865,42.7791458 275.563132,44.5779791 275.563132,46.7952951 L275.563132,58.8437433 C275.563132,61.0618626 273.764865,62.8598927 271.54735,62.8598927 L190.428541,62.8598927 C188.210624,62.8598927 186.412758,61.0618626 186.412758,58.8437433 L186.412758,46.7952951 C186.412758,44.5779791 188.210624,42.7791458 190.428541,42.7791458" id="Fill-104" fill="#3535F0"></path>
                <path d="M109.521083,42.7791458 L169.94817,42.7791458 C172.165685,42.7791458 173.963953,44.5779791 173.963953,46.7952951 L173.963953,58.8437433 C173.963953,61.0618626 172.165685,62.8598927 169.94817,62.8598927 L109.521083,62.8598927 C107.303567,62.8598927 105.5053,61.0618626 105.5053,58.8437433 L105.5053,46.7952951 C105.5053,44.5779791 107.303567,42.7791458 109.521083,42.7791458" id="Fill-105" fill="#F4F4F4" opacity="0.377720424"></path>
                <path d="M289.911323,42.7791458 L348.541749,42.7791458 C350.759666,42.7791458 352.557532,44.5779791 352.557532,46.7952951 L352.557532,58.8437433 C352.557532,61.0618626 350.759666,62.8598927 348.541749,62.8598927 L289.911323,62.8598927 C287.693808,62.8598927 285.89554,61.0618626 285.89554,58.8437433 L285.89554,46.7952951 C285.89554,44.5779791 287.693808,42.7791458 289.911323,42.7791458" id="Fill-106" fill="#3535F0"></path>
                <path d="M366.612771,42.7791458 L425.243197,42.7791458 C427.461114,42.7791458 429.25898,44.5779791 429.25898,46.7952951 L429.25898,58.8437433 C429.25898,61.0618626 427.461114,62.8598927 425.243197,62.8598927 L366.612771,62.8598927 C364.395256,62.8598927 362.596988,61.0618626 362.596988,58.8437433 L362.596988,46.7952951 C362.596988,44.5779791 364.395256,42.7791458 366.612771,42.7791458" id="Fill-107" fill="#3535F0"></path>
                <path d="M470.878029,19.6788167 C470.878029,21.1475226 469.687349,22.3383109 468.218778,22.3383109 C466.750206,22.3383109 465.559526,21.1475226 465.559526,19.6788167 C465.559526,18.2101109 466.750206,17.0197242 468.218778,17.0197242 C469.687349,17.0197242 470.878029,18.2101109 470.878029,19.6788167" id="Fill-108" fill="#FF4F72"></path>
                <path d="M482.132782,19.6788167 C482.132782,21.1475226 480.942102,22.3383109 479.47353,22.3383109 C478.004959,22.3383109 476.814279,21.1475226 476.814279,19.6788167 C476.814279,18.2101109 478.004959,17.0197242 479.47353,17.0197242 C480.942102,17.0197242 482.132782,18.2101109 482.132782,19.6788167" id="Fill-109" fill="#E8B172"></path>
                <path d="M493.387976,19.6788167 C493.387976,21.1475226 492.197297,22.3383109 490.728725,22.3383109 C489.259752,22.3383109 488.069474,21.1475226 488.069474,19.6788167 C488.069474,18.2101109 489.259752,17.0197242 490.728725,17.0197242 C492.197297,17.0197242 493.387976,18.2101109 493.387976,19.6788167" id="Fill-110" fill="#88C548"></path>
                <path d="M216.4527,265.398122 L220.996156,266.122635 L224.842874,259.633742 L228.573135,246.524228 C228.573135,246.524228 235.076293,243.977186 232.410215,238.321243 L230.050943,241.101221 L220.775288,237.882679 C220.775288,237.882679 207.199533,240.571893 208.40989,248.892953 C208.40989,248.892953 203.455218,257.357389 216.4527,265.398122" id="Fill-111" fill="#131637"></path>
                <path d="M220.775168,237.882799 L222.110014,235.046595 C222.110014,235.046595 223.642035,235.752232 223.547262,237.281984 L225.61017,232.897955 C225.61017,232.897955 229.123176,234.739359 228.387485,238.393654 L229.322359,236.407266 C229.322359,236.407266 231.737451,237.789223 230.725474,240.305742 L231.108579,242.141926 L228.867773,242.94877 L225.224655,241.941118 L220.652285,240.733061 L220.775168,237.882799 Z" id="Fill-112" fill="#131637"></path>
                <path d="M229.982433,248.449891 C229.982433,248.449891 233.334006,249.819799 235.885232,255.411083 L230.740212,257.263732 L229.982433,248.449891 Z" id="Fill-113" fill="#FFCDA9"></path>
                <path d="M218.303333,262.123635 L219.1346,264.432519 C219.1346,264.432519 220.861788,262.295927 220.24135,258.821557 C220.24135,258.821557 215.93121,259.437634 215.558144,256.270097 C215.248527,253.637511 218.596485,253.354372 220.321665,255.096176 L221.325209,257.884589 C221.325209,257.884589 222.881325,257.277749 221.232445,251.830244 L222.223138,248.810099 L228.572894,246.524107 C228.572894,246.524107 232.832434,251.02099 234.459228,257.811093 L230.155112,259.360524 C230.155112,259.360524 231.692755,260.717581 234.907389,260.269378 C235.076454,261.620411 235.156769,263.022047 235.044327,264.500793 L228.713446,266.779958 L230.377586,271.402546 L227.338442,274.356022 L224.564741,276.473336 L221.462147,276.214696 L219.250656,273.171258 L216.45286,265.398001 C216.45286,265.398001 217.872841,264.798792 218.303333,262.123635" id="Fill-114" fill="#FFCDA9"></path>
                <path d="M231.429521,272.421684 C231.429521,272.421684 258.034884,269.925647 256.691604,240.697719 L261.935012,243.027487 C261.935012,243.027487 270.844427,269.235271 243.178496,285.985024 C236.933151,285.193843 232.280867,275.986017 232.280867,275.986017" id="Fill-115" fill="#22007B"></path>
                <path d="M256.620324,245.956665 C256.746821,244.306831 256.777341,242.557798 256.691805,240.697518 L261.934811,243.026884 C261.934811,243.026884 264.206539,249.731444 262.882134,258.521992 L256.621931,245.962288 L256.620324,245.956665 Z" id="Fill-116" fill="#0D005D"></path>
                <path d="M231.882461,274.317588 L232.886808,272.199471 C232.886808,272.199471 241.040855,274.317186 247.008308,283.42019 C245.809998,284.294105 244.551452,285.153561 243.178456,285.985305 C236.933111,285.193722 232.280826,275.985896 232.280826,275.985896 L231.882461,274.317588 Z" id="Fill-117" fill="#0D005D"></path>
                <path d="M245.615128,334.5 C248.393255,319.5 249.097157,304.986471 242.663472,285.632647 C240.825448,280.103213 235.91013,271.850427 231.42932,272.421524 L217.984881,274.136018 L217.526279,274.194252 C213.61571,276.295501 210.656078,281.516897 212.581646,292.584602 C216.572531,315.522036 212.965153,336.184321 212.965153,336.184321 C213.327546,334.0405 229.253223,342.297354 245.615128,334.5 Z" id="Fill-118" fill="#3307AD"></path>
                <path d="M230.942045,276.679445 C230.25374,277.569022 228.974713,277.732078 228.085217,277.043308 L222.918913,274.062924 L227.961933,272.682975 C228.139832,272.631167 228.34544,272.78619 228.530969,272.791009 L231.913463,274.217144 L230.942045,276.679445 Z" id="Fill-119" fill="#FFFFFF"></path>
                <path d="M227.961973,272.682895 L233.934646,274.971296 C233.934646,274.971296 233.256782,270.565179 229.909627,270.101715 C229.909627,270.101715 229.981108,271.90336 227.961973,272.682895" id="Fill-120" fill="#2C078E"></path>
                <path d="M227.961973,272.682895 C227.961973,272.682895 222.656722,273.947982 218.875461,272.128264 C218.875461,272.128264 217.970706,272.678477 217.147872,274.835551 C217.147872,274.835551 218.356221,278.211124 225.149319,278.326388 L227.961973,272.682895 Z" id="Fill-121" fill="#2C078E"></path>
                <path d="M220.855925,249.764176 L223.128456,250.833676 C223.128456,250.833676 223.539672,249.801928 222.441356,248.925202 L224.688588,249.983056 C224.688588,249.983056 225.193773,248.62118 223.848486,247.649272 C222.503199,246.676962 220.918973,246.929578 220.918973,246.929578 L219.27451,248.284626 L220.855925,249.764176 Z" id="Fill-122" fill="#131637"></path>
                <path d="M227.989441,299.939778 C229.925048,288.301378 229.146789,280.442577 229.126309,277.430465 C229.768834,277.536893 230.392083,277.319218 230.797276,276.804347 C231.669102,279.312433 236.058754,289.927919 236.552294,300.140183 C237.037802,310.173729 235.328685,319.187174 235.328685,319.187174 L227.972574,326.058403 L221.213209,317.826904 C221.213209,317.826904 226.740934,307.446362 227.989441,299.939778" id="Fill-123" fill="#0D005D"></path>
                <path d="M225.382716,299.612662 C228.647547,288.141335 228.694532,280.385749 229.000133,277.415003 C229.653501,277.522234 230.32253,277.310181 230.797196,276.804147 C231.427673,279.282111 234.819002,289.771891 234.222257,299.847607 C233.636755,309.746612 230.890763,318.629933 230.890763,318.629933 L222.532715,325.375056 L216.42993,317.225887 C216.42993,317.225887 223.276438,307.011614 225.382716,299.612662" id="Fill-124" fill="#FFFFFF"></path>
                <path d="M299.822555,356.92713 C300.651011,356.673309 301.12126,355.78815 300.868265,354.96002 L297.708647,344.630886 C297.455252,343.802354 296.570173,343.331661 295.742119,343.58508 C294.913261,343.838499 294.443013,344.723659 294.696409,345.552592 L297.856027,355.881325 C298.109021,356.709856 298.994099,357.180549 299.822555,356.92713" id="Fill-125" fill="#0019B5"></path>
                <path d="M295.903232,351.986142 L285.73768,341.822071 L292.593424,333.292171 L303.047711,336.526376 L300.307341,350.639125 C299.908975,352.689771 297.38104,353.463282 295.903232,351.986142" id="Fill-126" fill="#008EFF"></path>
                <path d="M270.159094,228.550353 L303.162,336.08958 C303.736257,337.967531 300.22566,340.706947 295.320381,342.206979 C290.414701,343.707814 285.972844,343.402185 285.398186,341.523832 L252.395681,233.984203 L270.159094,228.550353 Z" id="Fill-127" fill="#C0E9FF"></path>
                <path d="M252.39552,233.984323 C252.970179,235.862676 257.412036,236.168305 262.317716,234.667872 C267.222994,233.167438 270.733592,230.428425 270.158933,228.550072 C269.584676,226.671718 265.142417,226.365688 260.237139,227.866925 C255.33186,229.367358 251.820862,232.106372 252.39552,233.984323" id="Fill-128" fill="#FFFFFF"></path>
                <path d="M253.789278,232.008418 C254.245872,233.500417 257.774139,233.742993 261.670251,232.551401 C265.565962,231.359408 268.354923,229.18386 267.89873,227.692262 C267.442136,226.200263 264.02109,220.830269 258.592555,222.490947 C253.405771,224.077728 253.333085,230.51682 253.789278,232.008418" id="Fill-129" fill="#0019B5"></path>
                <path d="M286.766523,270.52305 C287.411458,270.325455 287.778501,269.636284 287.580522,268.99129 L275.530765,229.59407 C275.332787,228.948273 274.64408,228.582 273.998744,228.779996 C273.353809,228.977189 272.987168,229.66636 273.184745,230.311354 L285.235305,269.708976 C285.43248,270.35397 286.121589,270.719841 286.766523,270.52305" id="Fill-130" fill="#0019B5"></path>
                <path d="M275.039996,240.442693 C275.665655,240.251524 276.020249,239.582836 275.829499,238.957923 L273.982239,232.91924 C273.791088,232.293926 273.123263,231.938898 272.497604,232.130067 C271.871945,232.321236 271.517352,232.989121 271.708503,233.614838 L273.555361,239.65352 C273.746513,240.278834 274.414739,240.634263 275.039996,240.442693" id="Fill-131" fill="#D0D9FF"></path>
                <path d="M274.022718,272.93784 C276.084823,272.307304 277.255423,270.103643 276.624544,268.042154 L268.230353,240.596994 C267.599876,238.535102 265.396817,237.363993 263.335114,237.994529 C261.27301,238.625064 260.102409,240.828324 260.732887,242.890616 L269.127881,270.335777 C269.757957,272.397266 271.961015,273.568375 274.022718,272.93784" id="Fill-132" fill="#A6C2FF"></path>
                <path d="M277.471031,311.618379 C277.471031,311.618379 279.749586,309.671349 280.755941,309.307085 C280.755941,309.307085 285.547974,306.727512 286.318603,306.3765 C286.318603,306.3765 287.377565,307.105833 286.265193,308.191398 C285.153223,309.27616 283.433665,310.264936 283.433665,310.264936 C283.433665,310.264936 285.828276,310.31554 287.268336,309.811111 C288.708395,309.306683 291.582089,308.388993 292.456325,308.764503 C293.331364,309.140414 292.653902,309.831995 292.653902,309.831995 C292.653902,309.831995 288.23895,311.238852 287.295241,311.547694 C286.466384,311.818784 286.805316,312.081039 286.805316,312.081039 C286.805316,312.081039 292.010975,310.875391 292.978778,310.786634 C293.946582,310.697475 294.391129,311.003506 294.183112,311.817178 C294.183112,311.817178 290.174156,312.885072 289.578615,313.054554 C288.983476,313.224035 286.967152,313.436088 287.143846,314.081885 C287.143846,314.081885 291.709791,313.287892 292.499696,313.201545 C293.289198,313.116001 293.726116,313.542516 293.283978,314.220442 L287.057909,315.639347 C287.057909,315.639347 286.62059,315.748587 286.794072,315.994777 C286.949884,316.216066 289.705514,316.491976 290.033603,316.491173 C290.361693,316.490369 291.390135,316.569086 291.20581,317.34862 C291.20581,317.34862 291.104211,317.606056 290.138415,317.545412 C289.17262,317.484768 284.720723,317.769111 284.720723,317.769111 C284.720723,317.769111 281.696036,317.967107 278.59545,316.634148 C275.471974,315.291549 275.416155,313.996341 276.26469,315.665854 L276.802403,313.979071 L277.471031,311.618379 Z" id="Fill-133" fill="#FFCDA9"></path>
                <path d="M228.870624,287.27714 C232.215771,290.922598 242.36285,300.827628 246.593076,304.359429 C245.783092,309.232625 247.92752,311.948747 246.45935,316.273738 C242.592955,314.387353 228.791513,307.92577 224.876928,304.783936 C221.082817,301.739695 212.571365,294.550788 214.151174,287.286377 C214.939472,283.660999 220.360377,278.001039 228.870624,287.27714" id="Fill-134" fill="#22007B"></path>
                <path d="M212.392221,285.698913 C213.446766,282.14181 219.271257,276.898727 227.071915,286.778454 C236.896125,299.221288 249.220964,315.03568 277.336261,311.025956 L279.729667,316.812023 C279.729667,316.812023 248.998489,329.306264 221.793168,303.942272 C218.235587,300.625334 210.279116,292.825972 212.392221,285.698913" id="Fill-135" fill="#22007B"></path>
                <polygon id="Fill-136" fill="#3907B4" points="275.610599 311.241865 276.891232 317.867708 279.768942 317.215485 278.567821 310.729805"></polygon>
                <polygon id="Fill-139" fill="#F2BE9B" points="256.97797 433.661086 257.345012 440.495367 249.97565 440.495367 248.98335 433.907678"></polygon>
                <polygon id="Fill-140" fill="#F2BE9B" points="215.600109 434.01523 214.232333 441.233857 206.405573 440.974815 207.437629 434.01523"></polygon>
                <path d="M255.922261,435.357748 L260.75646,435.357748 C263.517712,435.357748 266.560069,436.281864 267.288532,439.594786 L267.649551,441.770736 L248.429614,441.770736 C248.429614,441.770736 247.160626,438.096762 248.930382,435.357748 L255.922261,435.357748 Z" id="Fill-142" fill="#1F2E3B"></path>
                <path d="M213.700081,435.357748 L218.533879,435.357748 C221.295131,435.357748 224.338291,436.281864 225.065951,439.594786 L225.427371,441.770736 L206.207836,441.770736 C206.207836,441.770736 204.938447,438.096762 206.708202,435.357748 L213.700081,435.357748 Z" id="Fill-143" fill="#1F2E3B"></path>
                <path d="M144.611754,91.551023 C144.609345,91.5502197 144.607337,91.5498181 144.605329,91.5490149 C146.268666,90.2819198 147.347305,88.2854919 147.347305,86.0328337 C147.347305,82.2010256 144.241097,79.094534 140.410041,79.094534 C136.578181,79.094534 133.472375,82.2010256 133.472375,86.0328337 C133.472375,88.2854919 134.550211,90.2815181 136.213949,91.5486133 C136.21154,91.5498181 136.20913,91.5502197 136.206721,91.551023 C132.740699,92.7438193 129.946919,95.3932731 128.562679,98.7716579 C131.468499,102.037992 135.702339,104.087433 140.409238,104.087433 C145.115735,104.087433 149.350378,102.037992 152.255796,98.7716579 C150.871556,95.3932731 148.077776,92.7438193 144.611754,91.551023" id="Fill-144" fill="#F4F4F4" opacity="0.290643601"></path>
                <g id="Fill-146">
                    <use fill="black" fill-opacity="1" filter="url(#filter-2)" xlink:href="#path-1"></use>
                    <use fill="#FFFFFF" fill-rule="evenodd" xlink:href="#path-1"></use>
                </g>
                <path d="M456.025095,217.004325 C456.025095,222.446609 453.985479,227.416192 450.626276,231.172898 C446.730164,235.552911 441.052651,238.300359 434.741447,238.300359 C428.430644,238.300359 422.753131,235.552911 418.857019,231.172898 C415.497816,227.416192 413.4582,222.446609 413.4582,217.004325 C413.4582,205.250662 422.988857,195.718733 434.741447,195.718733 C446.494438,195.718733 456.025095,205.250662 456.025095,217.004325" id="Fill-147" fill="#7A96CC"></path>
                <path d="M440.376513,221.491127 C440.373301,221.489922 440.370891,221.48952 440.36808,221.488315 C442.598446,219.789484 444.044931,217.112721 444.044931,214.092175 C444.044931,208.954315 439.879761,204.789166 434.742772,204.789166 C429.60498,204.789166 425.440613,208.954315 425.440613,214.092175 C425.440613,217.112721 426.885893,219.789083 429.116259,221.487914 C429.113046,221.48952 429.109834,221.489922 429.107023,221.491127 C424.459557,223.089956 420.713234,226.643043 418.857139,231.172858 C422.753251,235.552871 428.430765,238.300318 434.741567,238.300318 C441.052771,238.300318 446.729883,235.552871 450.625995,231.172858 C448.769499,226.643043 445.023577,223.089956 440.376513,221.491127" id="Fill-148" fill="#A9C2E2"></path>
                <path d="M523.701232,218.420178 L464.149183,218.420178 C462.715951,218.420178 461.554185,217.258306 461.554185,215.824942 C461.554185,214.39198 462.715951,213.229707 464.149183,213.229707 L523.701232,213.229707 C525.134063,213.229707 526.296231,214.39198 526.296231,215.824942 C526.296231,217.258306 525.134063,218.420178 523.701232,218.420178" id="Fill-149" fill="#F4F4F4"></path>
                <path d="M523.701232,206.791779 L464.149183,206.791779 C462.715951,206.791779 461.554185,205.629907 461.554185,204.196543 C461.554185,202.763581 462.715951,201.601709 464.149183,201.601709 L523.701232,201.601709 C525.134063,201.601709 526.296231,202.763581 526.296231,204.196543 C526.296231,205.629907 525.134063,206.791779 523.701232,206.791779" id="Fill-150" fill="#F4F4F4"></path>
                <path d="M503.375669,230.570596 L464.149103,230.570596 C462.71587,230.570596 461.554104,229.408323 461.554104,227.975361 C461.554104,226.541997 462.71587,225.379723 464.149103,225.379723 L503.375669,225.379723 C504.808501,225.379723 505.970668,226.541997 505.970668,227.975361 C505.970668,229.408323 504.808501,230.570596 503.375669,230.570596" id="Fill-151" fill="#008EFF"></path>
                <polygon id="Fill-152" fill="#DD361F" points="473.039243 240.610568 467.99301 236.765105 462.705831 240.610568 462.705831 227.150845 473.039243 227.150845"></polygon>
                <path d="M475.049503,226.854092 C475.049503,230.863012 471.79953,234.114085 467.78937,234.114085 C463.779611,234.114085 460.529638,230.863012 460.529638,226.854092 C460.529638,222.844368 463.779611,219.593295 467.78937,219.593295 C471.79953,219.593295 475.049503,222.844368 475.049503,226.854092" id="Fill-153" fill="#FFD400"></path>
                <path d="M327.528283,131.251704 L204.744926,131.251704 C201.390543,131.251704 198.671457,128.532369 198.671457,125.17768 L198.671457,70.6026271 C198.671457,67.2479375 201.390543,64.5286028 204.744926,64.5286028 L327.528283,64.5286028 C330.882666,64.5286028 333.601753,67.2479375 333.601753,70.6026271 L333.601753,125.17768 C333.601753,128.532369 330.882666,131.251704 327.528283,131.251704" id="Fill-155" fill="#FFFFFF"></path>
                <path d="M250.872735,97.8866593 C250.872735,103.322517 248.835529,108.28688 245.479941,112.039168 C241.588648,116.413558 235.917559,119.158194 229.613985,119.158194 C223.310813,119.158194 217.639725,116.413558 213.748431,112.039168 C210.392843,108.28688 208.355637,103.322517 208.355637,97.8866593 C208.355637,86.1474546 217.87505,76.6259676 229.613985,76.6259676 C241.353323,76.6259676 250.872735,86.1474546 250.872735,97.8866593" id="Fill-156" fill="#7A96CC"></path>
                <path d="M235.242546,102.368361 C235.239334,102.367557 235.236924,102.366754 235.234113,102.365549 C237.461668,100.668726 238.906547,97.994774 238.906547,94.9782442 C238.906547,89.8460069 234.746196,85.6860794 229.61523,85.6860794 C224.483462,85.6860794 220.323914,89.8460069 220.323914,94.9782442 C220.323914,97.994774 221.767588,100.668325 223.995143,102.365148 C223.992331,102.366754 223.989119,102.367557 223.985906,102.368361 C219.344063,103.965985 215.602558,107.514253 213.748472,112.039248 C217.639765,116.413638 223.310853,119.158275 229.614026,119.158275 C235.9176,119.158275 241.588688,116.413638 245.479981,112.039248 C243.625894,107.514253 239.88439,103.965985 235.242546,102.368361" id="Fill-157" fill="#A9C2E2"></path>
                <path d="M318.470444,99.3013479 L258.987468,99.3013479 C257.556243,99.3013479 256.395681,98.1406807 256.395681,96.7089235 C256.395681,95.2771662 257.556243,94.1169006 258.987468,94.1169006 L318.470444,94.1169006 C319.901669,94.1169006 321.062231,95.2771662 321.062231,96.7089235 C321.062231,98.1406807 319.901669,99.3013479 318.470444,99.3013479" id="Fill-158" fill="#F4F4F4"></path>
                <path d="M318.470444,87.6862824 L258.987468,87.6862824 C257.556243,87.6862824 256.395681,86.5256152 256.395681,85.0942596 C256.395681,83.6625023 257.556243,82.5022368 258.987468,82.5022368 L318.470444,82.5022368 C319.901669,82.5022368 321.062231,83.6625023 321.062231,85.0942596 C321.062231,86.5256152 319.901669,87.6862824 318.470444,87.6862824" id="Fill-159" fill="#F4F4F4"></path>
                <path d="M298.167973,111.437228 L258.987588,111.437228 C257.555961,111.437228 256.3954,110.27656 256.3954,108.844803 C256.3954,107.413046 257.555961,106.25278 258.987588,106.25278 L298.167973,106.25278 C299.599599,106.25278 300.76016,107.413046 300.76016,108.844803 C300.76016,110.27656 299.599599,111.437228 298.167973,111.437228" id="Fill-160" fill="#008EFF"></path>
                <polygon id="Fill-161" fill="#DD361F" points="267.867246 121.465472 262.826234 117.624829 257.54548 121.465472 257.54548 108.021814 267.867246 108.021814"></polygon>
                <path d="M269.875138,107.725462 C269.875138,111.729563 266.628779,114.977022 262.623437,114.977022 C258.618497,114.977022 255.372139,111.729563 255.372139,107.725462 C255.372139,103.720156 258.618497,100.472296 262.623437,100.472296 C266.628779,100.472296 269.875138,103.720156 269.875138,107.725462" id="Fill-162" fill="#FFD400"></path>
                <polygon id="Fill-163" fill="#EDB48D" points="156.428877 117.424222 165.35556 108.413991 146.053701 88.8412868 137.127821 97.851518"></polygon>
                <path d="M161.912549,100.708566 C168.054688,94.6787198 168.145445,84.8114423 162.11655,78.6687419 L148.547221,64.844754 L126.305407,86.6809599 L139.874737,100.504546 C145.904434,106.647648 155.770811,106.738815 161.912549,100.708566" id="Fill-164" fill="#F2BE9B"></path>
                <path d="M136.382934,96.7245463 L139.615639,93.6738792 C140.495497,92.8437411 140.393897,91.4228275 139.412038,90.7159852 C136.764031,88.8111255 132.452286,85.3114529 133.495586,83.3845045 C134.977811,80.6458922 149.291667,72.6196176 150.332156,65.8921658 C151.798318,56.4212823 141.398646,53.5465226 136.176522,58.0313566 C130.954399,62.5165922 137.20376,67.5520404 131.324654,73.0027583 C125.446351,78.4530746 114.541493,84.666861 133.051842,96.3333733 L136.382934,96.7245463 Z" id="Fill-165" fill="#21283A"></path>
                <path d="M162.765903,78.4393394 C162.765903,78.4393394 161.781233,79.4240992 157.995153,79.5510096 C154.313082,79.6735021 149.339133,84.3748066 148.971288,90.1950103 C148.603442,96.0156156 137.829499,89.5255182 137.829499,89.5255182 L138.881634,93.8408707 C138.881634,93.8408707 143.805385,97.2734736 139.972722,101.2342 C139.972722,101.2342 153.230427,112.897901 164.242907,99.1321475 C164.242907,99.1321475 171.638774,88.7182721 162.765903,78.4393394" id="Fill-166" fill="#21283A"></path>
                <path d="M133.047545,101.170183 C134.942191,103.100344 138.042777,103.128859 139.972762,101.234039 C141.903149,99.3392202 141.931661,96.2387528 140.037015,94.3081898 C138.142368,92.3780284 135.041783,92.3495138 133.111798,94.2443331 C131.181812,96.1391523 131.152899,99.2396197 133.047545,101.170183" id="Fill-167" fill="#F2BE9B"></path>
                <polygon id="Fill-168" fill="#EDB48D" points="152.664482 113.659443 165.433868 111.680687 161.591166 104.649212"></polygon>
                <polygon id="Fill-169" fill="#826EF7" points="165.433828 111.680807 160.627338 121.622785 152.664442 113.659564"></polygon>
                <polygon id="Fill-170" fill="#826EF7" points="165.433828 111.680807 170.94549 109.853861 161.591125 104.649333"></polygon>
                <g id="Fill-171">
                    <use fill="black" fill-opacity="1" filter="url(#filter-4)" xlink:href="#path-3"></use>
                    <use fill="#FFFFFF" fill-rule="evenodd" xlink:href="#path-3"></use>
                </g>
                <g id="Group-180" transform="translate(208.311664, 76.570183)">
                    <path d="M42.8979553,21.45178 C42.8979553,26.8896463 40.8599456,31.8552134 37.5031529,35.6091082 C33.6106548,39.984703 27.9375587,42.7305443 21.6319769,42.7305443 C15.3267966,42.7305443 9.65370047,39.984703 5.7608008,35.6091082 C2.40440969,31.8552134 0.366400006,26.8896463 0.366400006,21.45178 C0.366400006,9.70855921 9.88942691,0.184260934 21.6319769,0.184260934 C33.3749284,0.184260934 42.8979553,9.70855921 42.8979553,21.45178" id="Fill-172" fill="#A5A5A5"></path>
                    <path d="M27.2622647,25.9350477 C27.2590521,25.9342445 27.2566426,25.9334413 27.2538316,25.9326381 C29.4821894,24.2350117 30.9274695,21.5602562 30.9274695,18.5425216 C30.9274695,13.4090794 26.765914,9.2471438 21.6329407,9.2471438 C16.4995657,9.2471438 12.3388134,13.4090794 12.3388134,18.5425216 C12.3388134,21.5602562 13.7828888,24.2342085 16.0112466,25.9318348 C16.0084355,25.9334413 16.0052229,25.9342445 16.0020103,25.9350477 C11.3581592,27.5330736 7.61544984,31.082948 5.76096143,35.6091484 C9.65345952,39.9847431 15.3265556,42.7305845 21.6317359,42.7305845 C27.9377194,42.7305845 33.6108155,39.9847431 37.5033136,35.6091484 C35.6488252,31.082948 31.9057142,27.5330736 27.2622647,25.9350477" id="Fill-173" fill="#CACACA"></path>
                    <path d="M110.517992,22.8668703 L51.0153378,22.8668703 C49.5833097,22.8668703 48.422347,21.7058015 48.422347,20.2736426 C48.422347,18.8418853 49.5833097,17.6808166 51.0153378,17.6808166 L110.517992,17.6808166 C111.949619,17.6808166 113.110581,18.8418853 113.110581,20.2736426 C113.110581,21.7058015 111.949619,22.8668703 110.517992,22.8668703" id="Fill-174" fill="#EDEDED"></path>
                    <path d="M110.517992,11.2482706 L51.0153378,11.2482706 C49.5833097,11.2482706 48.422347,10.0872018 48.422347,8.6550429 C48.422347,7.22328564 49.5833097,6.06221686 51.0153378,6.06221686 L110.517992,6.06221686 C111.949619,6.06221686 113.110581,7.22328564 113.110581,8.6550429 C113.110581,10.0872018 111.949619,11.2482706 110.517992,11.2482706" id="Fill-175" fill="#EDEDED"></path>
                    <path d="M90.2088943,35.0070874 L51.0152575,35.0070874 C49.5832294,35.0070874 48.4222667,33.8460186 48.4222667,32.4138598 C48.4222667,30.9821025 49.5832294,29.8206321 51.0152575,29.8206321 L90.2088943,29.8206321 C91.6405208,29.8206321 92.8018851,30.9821025 92.8018851,32.4138598 C92.8018851,33.8460186 91.6405208,35.0070874 90.2088943,35.0070874" id="Fill-176" fill="#EDEDED"></path>
                    <g id="Group-179" transform="translate(47.386235, 23.695281)">
                        <polygon id="Fill-177" fill="#797979" points="12.511733 21.3431432 7.46911473 17.5012947 2.18635269 21.3431432 2.18635269 7.89506695 12.511733 7.89506695"></polygon>
                        <path d="M14.5199857,7.59843416 C14.5199857,11.6041416 11.2728239,14.8524032 7.26627755,14.8524032 C3.25973123,14.8524032 0.0121678213,11.6041416 0.0121678213,7.59843416 C0.0121678213,3.59192353 3.25973123,0.343661903 7.26627755,0.343661903 C11.2728239,0.343661903 14.5199857,3.59192353 14.5199857,7.59843416" id="Fill-178" fill="#D3D3D3"></path>
                    </g>
                </g>
                <path d="M210.520786,115.891499 C213.086871,118.069858 216.932385,117.755795 219.110545,115.189877 C221.288706,112.623558 220.974672,108.777693 218.408988,106.598932 C215.843305,104.420573 211.99739,104.735037 209.819229,107.300554 C207.640667,109.866873 207.955103,113.712738 210.520786,115.891499" id="Fill-181" fill="#F2B173"></path>
                <path d="M210.311765,120.843411 L214.413485,116.01118 C215.485298,114.748904 215.329485,112.838824 214.067325,111.766913 C212.804763,110.695405 210.894856,110.851231 209.823446,112.11431 L205.720922,116.946541 C204.649511,118.208415 204.805324,120.118496 206.067886,121.190005 L206.068287,121.190406 C207.330046,122.261915 209.239551,122.106088 210.311765,120.843411" id="Fill-182" fill="#F2B173"></path>
                <path d="M214.355778,119.964115 L206.229842,112.059932 L184.450245,134.4588 L158.714299,124.358184 C155.768723,123.299929 152.522765,124.82968 151.464205,127.775526 C150.406046,130.721371 151.935658,133.968026 154.881235,135.026683 L184.052683,146.361462 C186.144504,147.113687 188.482493,146.572711 190.032585,144.979103 L214.355778,119.964115 Z" id="Fill-183" fill="#6F49FD"></path>
                <polygon id="Fill-184" fill="#353C73" points="533.35951 171.19002 536.217944 180.793838 531.861623 171.770354"></polygon>
                <polygon id="Fill-185" fill="#353C73" points="539.154927 170.875877 538.392732 179.556784 537.548614 170.883508"></polygon>
                <polygon id="Fill-186" fill="#353C73" points="547.501812 173.780517 541.434767 180.248124 546.236037 172.791741"></polygon>
                <polygon id="Fill-187" fill="#353C73" points="542.487183 182.835287 552.05599 181.026815 552.223047 182.624841"></polygon>
                <polygon id="Fill-188" fill="#353C73" points="540.769111 185.701894 549.704629 187.657357 549.225145 189.190723"></polygon>
                <path d="M118.631648,55.0689376 C123.416052,49.3170085 126.305407,41.9405469 126.305407,33.9190917 C126.305407,15.6785444 111.382759,0.754533298 93.1434761,0.754533298 L69.9511267,0.754533298 C51.7122452,0.754533298 36.789597,15.6785444 36.789597,33.9190917 C36.789597,52.159639 51.7122452,67.0828469 69.9511267,67.0828469 L93.1434761,67.0828469 C98.4575612,67.0828469 103.470061,65.7860323 107.9328,63.5402015 L124.549306,72.6488283 L118.631648,55.0689376 Z" id="Fill-189" fill="#81B7FB"></path>
                <path d="M81.5479841,40.426057 C77.3763891,40.426057 73.9934938,37.0440576 73.9934938,32.8720816 C73.9934938,28.7001056 77.3763891,25.3185078 81.5479841,25.3185078 C85.7183743,25.3185078 89.100868,28.7001056 89.100868,32.8720816 C89.100868,37.0440576 85.7183743,40.426057 81.5479841,40.426057 M98.675297,28.9278213 L95.0622973,28.9278213 C94.7739641,27.936234 94.385638,26.9872179 93.8973188,26.0996489 L96.4473408,23.5485908 C97.151709,22.8449614 97.151709,21.7027685 96.4473408,20.9987375 L93.4194407,17.9701593 C92.7158756,17.2661283 91.5741886,17.2661283 90.8702219,17.9701593 L88.3193967,20.5212174 C87.4315072,20.0320504 86.4833809,19.6436887 85.4918842,19.3557308 L85.4918842,15.741598 C85.4918842,14.7459945 84.6847119,13.9383469 83.6887978,13.9383469 L79.4059656,13.9383469 C78.4104531,13.9383469 77.6028792,14.7459945 77.6028792,15.741598 L77.6028792,19.3557308 C76.6113825,19.6436887 75.6636578,20.0320504 74.7745635,20.5212174 L72.2249432,17.9701593 C71.521378,17.2661283 70.3792895,17.2661283 69.6757244,17.9701593 L66.6478243,20.9987375 C65.9438576,21.7027685 65.9438576,22.8449614 66.6478243,23.5485908 L69.1966415,26.0996489 C68.7091255,26.9872179 68.3207993,27.936234 68.0316629,28.9278213 L64.4194665,28.9278213 C63.4235524,28.9278213 62.6159785,29.7342641 62.6159785,30.7298675 L62.6159785,35.0126892 C62.6159785,36.0086942 63.4235524,36.8163419 64.4194665,36.8163419 L68.0316629,36.8163419 C68.3207993,37.8075276 68.7091255,38.7573469 69.1966415,39.6449159 L66.6478243,42.1943675 C65.9438576,42.8996034 65.9438576,44.0417962 66.6478243,44.7458272 L69.6757244,47.772799 C70.3792895,48.4780349 71.521378,48.4780349 72.2249432,47.772799 L74.7745635,45.2229458 C75.6636578,45.7109079 76.6113825,46.0992696 77.6028792,46.3884323 L77.6028792,50.0009587 C77.6028792,50.9965621 78.4104531,51.8042098 79.4059656,51.8042098 L83.6887978,51.8042098 C84.6847119,51.8042098 85.4918842,50.9965621 85.4918842,50.0009587 L85.4918842,46.3884323 C86.4833809,46.0992696 87.4315072,45.7109079 88.3193967,45.2229458 L90.8702219,47.772799 C91.5741886,48.4780349 92.7158756,48.4780349 93.4194407,47.772799 L96.4473408,44.7458272 C97.151709,44.0417962 97.151709,42.8996034 96.4473408,42.1943675 L93.8973188,39.6449159 C94.385638,38.7573469 94.7735626,37.8075276 95.0622973,36.8163419 L98.675297,36.8163419 C99.6712111,36.8163419 100.478785,36.0086942 100.478785,35.0126892 L100.478785,30.7298675 C100.478785,29.7342641 99.6712111,28.9278213 98.675297,28.9278213" id="Fill-190" fill="#FFFFFF"></path>
                <g id="Group" transform="translate(207.371387, 332.873878)">
                    <path d="M38.1996317,0.981460267 L49.4365947,54.9663252 L49.6064623,100.806951 L41.6118422,101.040066 L34.3432757,56.5765238 L20.2988791,21.3546251 L20.2988791,57.5453721 L8.2286413,101.141272 L0.0661615458,101.141272 L6.34483767,57.5465093 L2.70171968,33.1331237 C1.41787398,24.5302359 1.78612124,15.7313799 4.26064649,7.36350216 C4.91481748,5.15137432 5.70793455,2.96426369 6.66690344,0.981460267 L38.1996317,0.981460267 Z" id="Fill-137" fill="#6138FB"></path>
                    <path d="M38.1996317,0.981460267 L29.2677258,18.4765259 L20.2988791,57.5453721 L8.2286413,101.141272 L0.0661615458,101.141272 L6.34483767,57.5465093 L2.70171968,33.1331237 C1.41787398,24.5302359 1.78612124,15.7313799 4.26064649,7.36350216 C4.91481748,5.15137432 5.70793455,2.96426369 6.66690344,0.981460267 L38.1996317,0.981460267 Z" id="Fill-137-Copy" fill="#4D25E3"></path>
                </g>
            </g>
        </g>
    </g>
</svg>