<?xml version="1.0" encoding="utf-8"?>
<!-- Generator: Adobe Illustrator 21.1.0, SVG Export Plug-In . SVG Version: 6.00 Build 0)  -->
<svg version="1.1" id="Layer_1" xmlns="http://www.w3.org/2000/svg" xmlns:xlink="http://www.w3.org/1999/xlink" x="0px" y="0px"
	 viewBox="0 0 504 473" style="enable-background:new 0 0 504 473;" xml:space="preserve">
<style type="text/css">
	.st0{fill:#C4C9E8;}
	.st1{fill:#FFFFFF;}
	.st2{fill:#0C99D5;}
	.st3{fill:#80CDDA;}
	.st4{fill:#3A41A1;}
	.st5{fill:#0C83BB;}
	.st6{fill:#3474B2;}
	.st7{fill:#FFBF58;}
	.st8{fill:#F60606;}
	.st9{fill:#3863ED;}
	.st10{fill:#FFB13D;}
	.st11{fill:#F48B5C;}
	.st12{fill:#D5D5D5;}
	.st13{fill:#4948D1;}
	.st14{fill:#00023B;}
	.st15{fill:#4345D2;}
	.st16{opacity:0.8;}
	.st17{fill:#80B5F9;}
	.st18{fill:#E4E6F7;}
	.st19{fill:#6AAFFA;}
	.st20{fill:#0095FA;}
	.st21{fill:#C4DAFF;}
	.st22{opacity:0.6;}
	.st23{fill:none;stroke:#FF6447;stroke-width:2.3729;stroke-miterlimit:10;}
	.st24{opacity:0.5;fill:#7A8EFF;}
	.st25{fill:#4658F9;}
	.st26{fill:#1B1CFF;}
	.st27{fill:#000DF9;}
	.st28{fill:#6F90F4;}
	.st29{fill:#00023C;}
	.st30{fill:#0098FF;}
	.st31{fill:#48484A;}
	.st32{fill:#80A040;}
	.st33{fill:#4692D9;}
	.st34{fill:#1E96F1;}
	.st35{fill:#2F72E8;}
	.st36{fill:#5C5CFF;}
	.st37{fill:#546EFF;}
	.st38{fill:#FF9F24;}
	.st39{fill:url(#SVGID_3_);}
	.st40{fill:#DEDFF3;}
	.st41{fill:url(#SVGID_4_);}
	.st42{fill:url(#SVGID_5_);}
	.st43{fill:#B2BCFF;}
	.st44{opacity:0.3;fill:#5CF7F9;}
	.st45{fill:#3735FF;}
	.st46{fill:#42D1EF;}
	.st47{fill:#1C7CF4;}
	.st48{fill:#6176FB;}
	.st49{fill:#7D86FF;}
	.st50{fill:#38C8F1;}
	.st51{fill:#434DFB;}
	.st52{fill:#11A8DA;}
	.st53{fill:#7091F4;}
	.st54{fill:#213BE7;}
	.st55{fill:#41B8D5;}
	.st56{fill:#5ACBFF;}
	.st57{fill:#009AFF;}
	.st58{fill:#42CCEA;}
	.st59{fill:#72A0F1;}
	.st60{fill:#1697FF;}
	.st61{fill:#0541D5;}
	.st62{fill:#2187F4;}
	.st63{fill:#273F96;}
	.st64{clip-path:url(#SVGID_7_);fill:#5154E5;}
	.st65{fill:#0070C9;}
	.st66{fill:#2A18F4;}
	.st67{fill:#6671F9;}
	.st68{fill:#242FF1;}
	.st69{fill:#7FD5DF;}
	.st70{fill:#4D6CFF;}
	.st71{fill:#0F1CEC;}
	.st72{fill:#1E3549;}
	.st73{clip-path:url(#SVGID_9_);fill:#0F0BDD;}
	.st74{opacity:0.7;fill:#7D86FF;}
	.st75{fill:#043ADF;}
	.st76{fill:#41C7F4;}
	.st77{fill:#4999EC;}
	.st78{opacity:0.4;fill:#19D3EC;}
	.st79{opacity:0.3;fill:#FFFFFF;}
	.st80{fill:#18243E;}
	.st81{fill:#031C6B;}
	.st82{fill:#013EC8;}
	.st83{fill:#00E1FF;}
	.st84{fill:#008FC8;}
	.st85{fill:#00F7F7;}
	.st86{fill:#006CF9;}
	.st87{fill:#FBDF00;}
	.st88{fill:#FF7900;}
	.st89{fill:#BE0073;}
	.st90{fill:#6900FF;}
	.st91{fill:none;stroke:#FFFFFF;stroke-width:2.3729;stroke-miterlimit:10;}
	.st92{fill:#3652CE;}
	.st93{fill:#FFD216;}
	.st94{fill:#FFB619;}
	.st95{fill:#F4D2AD;}
	.st96{fill:#FBC700;}
	.st97{fill:#0248A2;}
	.st98{fill:#012F80;}
	.st99{fill:#062D75;}
	.st100{fill:#0245AA;}
	.st101{fill:#0049A0;}
	.st102{fill:#1C1642;}
	.st103{fill:#FFDD00;}
	.st104{fill:#FF6D00;}
	.st105{fill:#17C6F4;}
	.st106{fill:#345FFF;}
	.st107{fill:none;stroke:#FF6447;stroke-width:2.1876;stroke-miterlimit:10;}
	.st108{fill:#C9E3F4;}
	.st109{fill:url(#SVGID_24_);}
	.st110{opacity:0.35;clip-path:url(#SVGID_26_);}
	.st111{fill:#2D1E56;}
	.st112{fill:none;}
	.st113{fill:url(#SVGID_27_);}
	.st114{fill:url(#SVGID_28_);}
	.st115{fill:url(#SVGID_29_);}
	.st116{fill:url(#SVGID_30_);}
	.st117{fill:url(#SVGID_31_);}
	.st118{fill:url(#SVGID_32_);}
	.st119{fill:url(#SVGID_33_);}
	.st120{fill:url(#SVGID_34_);}
	.st121{fill:url(#SVGID_35_);}
	.st122{fill:#EFEFEF;}
	.st123{fill:#549FFC;}
	.st124{fill:url(#SVGID_36_);}
	.st125{opacity:0.4;fill:#8E87AD;}
	.st126{fill:url(#SVGID_37_);}
	.st127{fill:url(#SVGID_38_);}
	.st128{opacity:0.22;fill:#FFFFFF;}
	.st129{opacity:0.66;fill:url(#SVGID_39_);}
	.st130{opacity:0.66;fill:url(#SVGID_40_);}
	.st131{fill:url(#SVGID_41_);}
	.st132{fill:#2D1E56;stroke:#2D1E56;stroke-width:0.1536;stroke-miterlimit:10;}
	.st133{fill:url(#SVGID_42_);}
	.st134{opacity:0.43;fill:#FFFFFF;}
	.st135{fill:url(#SVGID_43_);}
	.st136{fill:#F8C487;}
	.st137{fill:#D8A26C;}
	.st138{fill:url(#SVGID_44_);}
	.st139{fill:#DEDEE0;}
	.st140{fill:url(#SVGID_45_);}
	.st141{fill:url(#SVGID_46_);}
	.st142{opacity:0.35;fill:#2D1E56;}
	.st143{opacity:0.3;fill:#0095FA;}
	.st144{fill:#84B6FF;}
	.st145{fill:#DBDCF5;}
	.st146{fill:#FDFFFF;}
	.st147{fill:#EBFFF8;}
	.st148{fill:#FF6447;}
	.st149{fill:#536887;}
	.st150{fill:#C3C7E5;}
	.st151{fill:#617893;}
	.st152{fill:#293549;}
	.st153{fill:#B2BFCE;}
	.st154{fill:#E7EBFC;}
	.st155{fill:#E8EAFB;}
	.st156{fill:#ED8C62;}
	.st157{fill:#BFD6E8;}
	.st158{fill:#DDDEF2;}
	.st159{fill:#C5CAE8;}
	.st160{fill:#A5BBCE;}
	.st161{fill:#B1ECF2;}
	.st162{fill:#D6DDEA;}
	.st163{fill:#687C99;}
	.st164{fill:#7EB5F7;}
	.st165{fill:url(#SVGID_55_);}
	.st166{fill:url(#SVGID_56_);}
	.st167{fill:#DDDDDD;}
	.st168{fill:url(#SVGID_59_);}
	.st169{fill:url(#SVGID_60_);}
	.st170{fill:url(#SVGID_61_);}
	.st171{fill:url(#SVGID_62_);}
	.st172{fill:url(#SVGID_63_);}
	.st173{fill:url(#SVGID_64_);}
	.st174{fill:url(#SVGID_65_);}
	.st175{fill:url(#SVGID_66_);}
	.st176{fill:none;stroke:#B7B7B7;stroke-width:1.152;stroke-linecap:round;stroke-linejoin:round;stroke-miterlimit:10;}
	.st177{fill:url(#SVGID_67_);}
	.st178{fill:url(#SVGID_68_);}
	.st179{fill:url(#SVGID_69_);}
	.st180{fill:url(#SVGID_70_);}
	.st181{fill:url(#SVGID_71_);}
	.st182{fill:#F9F4EA;}
	.st183{fill:url(#SVGID_72_);}
	.st184{fill:#33333D;}
	.st185{fill:url(#SVGID_73_);}
	.st186{fill:url(#SVGID_74_);}
	.st187{fill:#57AFFF;}
	.st188{opacity:0.9;fill:#E1EBFF;}
	.st189{fill:#D3D3D3;}
	.st190{fill:#F2F2F2;}
	.st191{fill:url(#SVGID_75_);}
	.st192{fill:url(#SVGID_76_);}
	.st193{fill:url(#SVGID_77_);}
	.st194{fill:#FFAF84;}
	.st195{fill:url(#SVGID_82_);}
	.st196{fill:url(#SVGID_83_);}
	.st197{fill:url(#SVGID_84_);}
	.st198{fill:url(#SVGID_85_);}
	.st199{fill:url(#SVGID_86_);}
	.st200{fill:url(#SVGID_87_);}
	.st201{fill:url(#SVGID_88_);}
	.st202{fill:#4BADF7;}
	.st203{fill:url(#SVGID_89_);}
	.st204{fill:url(#SVGID_90_);}
	.st205{fill:url(#SVGID_91_);}
	.st206{fill:url(#SVGID_94_);}
	.st207{fill:url(#SVGID_95_);}
	.st208{fill:url(#SVGID_98_);}
	.st209{fill:url(#SVGID_99_);}
	.st210{fill:url(#SVGID_100_);}
	.st211{fill:url(#SVGID_101_);}
	.st212{fill:url(#SVGID_102_);}
	.st213{fill:url(#SVGID_103_);}
	.st214{fill:url(#SVGID_104_);}
	.st215{fill:url(#SVGID_105_);}
	.st216{fill:url(#SVGID_106_);}
	.st217{fill:url(#SVGID_107_);}
	.st218{fill:url(#SVGID_108_);}
	.st219{fill:url(#SVGID_109_);}
	.st220{fill:url(#SVGID_110_);}
	.st221{fill:url(#SVGID_111_);}
	.st222{fill:url(#SVGID_112_);}
	.st223{fill:url(#SVGID_113_);}
	.st224{fill:url(#SVGID_114_);}
	.st225{fill:url(#SVGID_115_);}
	.st226{fill:url(#SVGID_116_);}
	.st227{fill:url(#SVGID_121_);}
	.st228{fill:url(#SVGID_122_);}
	.st229{fill:url(#SVGID_123_);}
	.st230{fill:url(#SVGID_124_);}
	.st231{fill:url(#SVGID_125_);}
	.st232{fill:url(#SVGID_126_);}
	.st233{fill:url(#SVGID_127_);}
	.st234{fill:url(#SVGID_128_);}
	.st235{fill:url(#SVGID_129_);}
	.st236{fill:url(#SVGID_130_);}
	.st237{opacity:0.335;}
	.st238{fill:#00A49F;}
	.st239{fill:#EBE0BE;}
	.st240{fill:#EF65A5;}
	.st241{fill:#00BEB9;}
	.st242{fill:#FF6748;}
	.st243{fill:#5202B5;}
	.st244{opacity:0.1;fill:#353537;}
	.st245{fill:#F4EED8;}
	.st246{fill:#0E0E15;}
	.st247{fill:#353537;}
	.st248{fill:#3E039C;}
	.st249{fill:#E34932;}
	.st250{fill:#C7D8E2;}
	.st251{fill:#F0F7F7;}
	.st252{fill:#E58F00;}
	.st253{fill:#FFDA00;}
	.st254{fill:#FFB000;}
	.st255{fill:#6A9304;}
	.st256{fill:#8CC004;}
	.st257{fill:#5F8403;}
	.st258{fill:#4B6A02;}
	.st259{fill:#BFBAAD;}
	.st260{opacity:0.3;fill:#26697A;}
	.st261{fill:#537703;}
	.st262{fill:#D8E1EA;}
	.st263{fill:#A5BDD6;}
	.st264{fill:#C4CBD6;}
	.st265{fill:#C8CDCE;}
	.st266{fill:#B5B5B5;}
	.st267{fill:#EFF4F4;}
	.st268{opacity:0.31;fill:#C8CDCE;}
	.st269{fill:#2D548C;}
	.st270{fill:#C8D6DB;}
	.st271{fill:#658BC1;}
	.st272{fill:#C0D0D8;}
	.st273{fill:#808791;}
	.st274{fill:#CAD3DB;}
	.st275{fill:#ED9558;}
	.st276{fill:#C97841;}
	.st277{fill:#5C81B7;}
	.st278{fill:#6F7475;}
	.st279{fill:#8A9596;}
	.st280{fill:#FFC197;}
	.st281{fill:#F0F6F7;}
	.st282{fill:#E2E2E2;}
	.st283{fill:#E8E8E8;}
	.st284{fill:#3962A8;}
	.st285{fill:#82AACE;}
	.st286{fill:#4E7CAF;}
	.st287{fill:#424344;}
</style>
<g class="st16">
	<polygon class="st0" points="145.5,30.1 145.5,307.2 468.5,282.4 468.5,65.4 	"/>
	<polygon class="st2" points="157,300.2 474.9,277.1 474.9,82.8 157,52.6 	"/>
	<polygon class="st0" points="304.8,274.3 443.8,265.7 443.8,88.9 304.8,76.8 	"/>
	<path class="st17" d="M326.1,122.4l120.9,6.5c1.5,0.1,2.7-1.4,2.7-3.3v-24c0-1.9-1.2-3.5-2.7-3.7l-120.9-9.6
		c-1.8-0.1-3.3,1.4-3.3,3.6v26.5C322.8,120.5,324.3,122.3,326.1,122.4z"/>
	<path class="st17" d="M321.8,172.3l121.6,1.9c1.5,0,2.7-1.5,2.7-3.4v-24c0-1.9-1.2-3.5-2.7-3.6l-121.6-5.1
		c-1.8-0.1-3.3,1.6-3.3,3.7v26.6C318.5,170.5,320,172.3,321.8,172.3z"/>
	<path class="st17" d="M326.1,212.3l120.9-1.8c1.5,0,2.7-1.6,2.7-3.5v-24c0-1.9-1.2-3.5-2.7-3.5l-120.9-1.3c-1.8,0-3.3,1.7-3.3,3.8
		v26.5C322.8,210.6,324.3,212.3,326.1,212.3z"/>
	<polygon class="st18" points="97.3,252.9 267.6,246.2 267.6,27.7 97.3,7.1 	"/>
	<path class="st17" d="M326.1,257.2l120.9-6c1.5-0.1,2.7-1.7,2.7-3.6v-24c0-1.9-1.2-3.4-2.7-3.4l-120.9,2.8c-1.8,0-3.3,1.8-3.3,3.9
		v26.5C322.8,255.7,324.3,257.3,326.1,257.2z"/>
	<g>
		<path class="st19" d="M192.7,163.6c-20.4,8.1-45.2,3.1-62.7-15.4c-8.6-9.1-14.1-20.1-16.5-31.6l29.6-4.9
			c2.9,14.1,14.8,24.9,28.7,25.5c3.8,0.2,7.3-0.4,10.6-1.7L192.7,163.6z"/>
		<path class="st20" d="M213.6,143.4c-0.4,0.4-0.9,0.9-1.3,1.3l-18.7-22.3c5.4-5.2,8.8-12.7,8.8-21.3c0-16.4-12.5-30.8-28.2-32.1
			c-11.4-1-21.4,5.2-26.3,15l-27-15.8c2.9-5.7,6.8-11,11.6-15.5c23.3-21.7,59.7-17.7,81.2,7.6C234.5,84.8,234.5,121.5,213.6,143.4z"
			/>
		<path class="st1" d="M144.8,97.4c0,2.3,0.2,4.5,0.7,6.6l-29.6,4.9c-3-13.9-1.3-28.4,4.9-40.8l27,15.8
			C145.9,87.9,144.8,92.5,144.8,97.4z"/>
		<path class="st21" d="M212.3,144.7c-5.1,5-10.9,8.8-17.2,11.3l-10.4-28c3.3-1.2,6.3-3.1,8.8-5.5L212.3,144.7z"/>
	</g>
	<g class="st22">
		<polygon class="st1" points="391.6,150.1 440.3,151.8 440.3,148.3 391.6,146.5 		"/>
		<polygon class="st1" points="391.6,156.7 440.3,158.1 440.3,154.5 391.6,153 		"/>
		<polygon class="st1" points="419.2,163.9 440.3,164.4 440.3,160.8 419.2,160.3 		"/>
	</g>
	<polygon class="st1" points="356.8,220.4 371.4,220.7 371.4,203.3 356.8,202.8 	"/>
	<polygon class="st1" points="331.4,180.5 346.3,180.9 346.3,163.3 331.4,162.7 	"/>
	<polygon class="st1" points="184.9,175 184.9,285.2 187.4,285 187.4,175 	"/>
	<polygon class="st1" points="290,244 290,278.5 292.2,278.3 292.2,244 	"/>
	<polygon class="st1" points="239.4,206.9 239.4,281.7 241.8,281.5 241.8,206.9 	"/>
	<path class="st23" d="M126.6,260.5c30.4-1.4,30.4-70.6,59.6-70.5c28,0.1,28,66.6,55,65.4c26-1.2,26-65.2,51-65.2"/>
	<polygon class="st8" points="224.7,172.2 224.7,166.5 214.2,166.3 214.2,172 	"/>
	<polygon class="st8" points="242.9,172.4 242.9,166.8 232.6,166.6 232.6,172.3 	"/>
	<polygon class="st8" points="260.6,172.7 260.6,167.2 250.6,167 250.6,172.5 	"/>
	<polygon class="st1" points="388.1,193.2 437.5,193.2 437.5,188.4 388.1,188.2 	"/>
	<polygon class="st1" points="404.7,201.9 437.5,201.6 437.5,196.9 404.7,197 	"/>
	<polygon class="st1" points="392.2,202 400.7,201.9 400.7,197 392.2,197 	"/>
	<polygon class="st1" points="388.1,108.6 437.5,111.9 437.5,107.2 388.1,103.6 	"/>
	<polygon class="st1" points="408.6,118.7 437.5,120.4 437.5,115.6 408.6,113.8 	"/>
	<polygon class="st1" points="372.3,116.5 404.7,118.4 404.7,113.5 372.3,111.4 	"/>
	<polygon class="st24" points="418.2,235 437.5,234.3 437.5,229.5 418.2,230.1 	"/>
	<polygon class="st24" points="394.6,235.8 414.6,235.1 414.6,230.2 394.6,230.8 	"/>
	<polygon class="st1" points="404.7,244.1 437.5,242.8 437.5,238 404.7,239.2 	"/>
	<polygon class="st1" points="366.4,245.7 400.7,244.3 400.7,239.4 366.4,240.7 	"/>
	<g>
		<path class="st25" d="M253.8,69.6c-3.3-1.7-7.1-1.3-9.8,1.4c-1.3,1.3-2.1,3-2.5,4.8l4.4,1.4c0.4-2.2,2.3-3.8,4.5-3.6
			c0.6,0.1,1.2,0.2,1.7,0.5L253.8,69.6z"/>
		<path class="st10" d="M256.8,72.1c-0.1-0.1-0.1-0.2-0.2-0.2l-3.1,3.4c0.9,1,1.4,2.3,1.4,3.8c0,2.8-2,4.9-4.5,4.7
			c-1.8-0.1-3.3-1.4-4.1-3.1l-4.1,1.9c0.4,1,1,2,1.7,2.8c3.6,4.2,9.3,4.6,12.8,1C260.3,82.6,260.3,76.3,256.8,72.1z"/>
		<path class="st26" d="M245.9,78.3c0-0.4,0-0.7,0.1-1.1l-4.4-1.4c-0.4,2.2-0.2,4.5,0.7,6.7l4.1-1.9C246,79.9,245.9,79.1,245.9,78.3
			z"/>
		<path class="st3" d="M256.6,71.9c-0.8-1-1.8-1.7-2.8-2.2l-1.7,4.5c0.5,0.3,1,0.7,1.4,1.1L256.6,71.9z"/>
	</g>
	<g>
		<path class="st3" d="M242,143.2c1.4,3.6,4.6,6.3,8.4,6.4c1.8,0.1,3.5-0.5,4.9-1.4l-2.4-4.3c-1.8,1.2-4.1,0.9-5.7-0.9
			c-0.4-0.5-0.7-1-1-1.6L242,143.2z"/>
		<path class="st10" d="M241.3,139.2c0,0.1,0,0.2,0,0.3l4.5,0c0-1.4,0.4-2.7,1.3-3.7c1.8-1.9,4.7-1.8,6.4,0.3
			c1.3,1.5,1.6,3.5,1.1,5.2l4.2,1.8c0.3-1,0.5-2.1,0.5-3.2c0-5.5-4-10.2-9-10.4C245.4,129.2,241.3,133.6,241.3,139.2z"/>
		<path class="st27" d="M253.6,143.2c-0.2,0.3-0.5,0.5-0.8,0.7l2.4,4.3c1.7-1.2,3-2.9,3.7-5.1l-4.2-1.8
			C254.5,142,254.1,142.7,253.6,143.2z"/>
		<path class="st27" d="M241.3,139.5c0,1.3,0.3,2.5,0.7,3.7l4.2-1.8c-0.2-0.6-0.4-1.2-0.4-1.8L241.3,139.5z"/>
	</g>
	<g>
		<path class="st28" d="M254,118.5c3.2-1.4,5.4-4.8,5.4-8.9c0-2-0.5-3.9-1.4-5.5l-3.8,2.5c1.1,2,0.9,4.6-0.6,6.2
			c-0.4,0.4-0.9,0.8-1.4,1L254,118.5z"/>
		<path class="st10" d="M250.4,119.2c0.1,0,0.2,0,0.3,0l-0.2-5c-1.2,0-2.4-0.6-3.4-1.7c-1.8-2.1-1.8-5.3,0-7.2
			c1.3-1.3,3.1-1.6,4.7-0.9l1.4-4.6c-0.9-0.4-1.9-0.7-2.9-0.7c-5-0.3-9.1,3.9-9.1,9.5C241.3,114.1,245.4,118.9,250.4,119.2z"/>
		<path class="st27" d="M253.6,105.7c0.2,0.3,0.4,0.6,0.6,0.9l3.8-2.5c-1.1-2-2.7-3.5-4.7-4.4l-1.4,4.6
			C252.5,104.7,253.1,105.1,253.6,105.7z"/>
		<path class="st25" d="M250.7,119.2c1.2,0,2.3-0.2,3.3-0.6l-1.8-4.7c-0.5,0.2-1.1,0.3-1.6,0.3L250.7,119.2z"/>
	</g>
</g>
<g>
	<ellipse class="st12" cx="443.5" cy="464.9" rx="51.5" ry="3.9"/>
	<g>
		<g>
			<path class="st10" d="M439.1,256.7c4.1,1.3,7.5,0.1,17.3-2.1c14.1-3.1,17.3-4.7,25.2-9.7c5.2-3.2-3.5-14-11.4-11.6
				c-6.7,2-27.2,16.9-31.2,18.1C436.2,252.2,435.8,255.6,439.1,256.7z"/>
			<path class="st10" d="M483,242.8c1-3.2,2.1-10.6,0-28.7c-1.3-11-2.6-15.7-3.4-19c-1.5-5.9-7.6-7.4-10.3-5.6
				c-4.2,3-7.9,10-7.2,13.1c3.4,17.8,7.1,31.3,7.2,35.7C469.4,244.8,481.9,246.5,483,242.8z"/>
			<path class="st11" d="M474.4,452.5c-0.6,2.3-0.4,3.2-0.6,4.7c-0.3,1.9-2.1,2.6-3.2,4.1c-1.2,1.7-3,4.2,4.1,4.3
				c7.6,0.1,12.1-0.1,10.8-4.2c-1.3-4.1-1.5-6-1.5-7.3c0.1-1.3,0-2.7-0.9-3.6C482.4,449.9,475.6,448.4,474.4,452.5z"/>
			<path class="st11" d="M383.2,219.5c-2.5-1.3-22.3-10.3-22.5-5.5c-0.2,5.2,6.9,10.5,9.5,12c4.8,2.7,10.5,1.7,12.8-0.8
				C384.6,223.5,385.5,220.7,383.2,219.5z"/>
			<path class="st11" d="M382.5,218.1c-0.8-1-5.4-7-6.6-6.2c-1.8,1.2,1,5.3,2.9,8c1,1.5,3.3,2.8,4.4,1.8
				C384.3,220.7,383.7,219.7,382.5,218.1z"/>
			<path class="st11" d="M416.2,456c-0.6,1.1-3.4,3.7-7.4,5.4c-3.9,1.7-12.3,2.5-7.6,4c4.6,1.5,10,0.6,12.8,0.2
				c2.7-0.4,5.4-0.5,8.6-0.5c4.3,0,4.3-0.3,3.7-4.9C425.5,453.7,418.1,452.4,416.2,456z"/>
			<path class="st11" d="M464.5,160.7c-0.9,8.6-1.1,10.5-4.9,14c-3.8,3.5-9.6,4-13.7,4c-4.4,0-7.3-5.3-8.3-9
				c-1-3.8-2.1-10.9-0.9-20.3c0.6-4.8,6.5-10.6,12.6-10.6C455.4,139,466.6,139.7,464.5,160.7z"/>
			<path class="st10" d="M378.5,225c2.7,3.3,4.9,5.2,14.5,8.1c13,3.8,20.5,5.2,27.1,5.6c6.1,0.4,5.1-14.2-2.8-16.5
				c-6.7-1.9-32-0.5-36-1.7C378.4,219.7,376.3,222.3,378.5,225z"/>
			<path class="st10" d="M420.6,235c2.5-2.2,7.5-7.8,15.5-24.2c4.9-10,6.3-14.6,7.3-17.9c1.9-5.8-2.4-10.4-5.7-10.2
				c-5.2,0.3-12,4.2-13.2,7.2c-6.7,16.8-10.8,30.2-13.1,34C408,229.4,417.6,237.5,420.6,235z"/>
			<path class="st11" d="M460.1,175.9c0.2,3,0.5,6.4,0.6,9.6c0.1,4.1-3.1,8-7.2,8.3c-0.2,0-0.3,0-0.5,0c-3.7,0-8.1-3.4-7.8-7.1
				c0.2-2.4,0.3-4.9,0.3-7c0-4.1,2.6-7.7,6.4-9.1l0,0C455.8,169.3,459.8,171.9,460.1,175.9z"/>
			<path class="st7" d="M477.3,212.7c-6.9,22.7-9.2,46.4-7.8,62.3h-52c0,0,0.3-48.7,3.8-75.4c0.8-6.2,4.4-11.8,11-15.3
				c3.9-2.1,11-3.1,13.9-3.1h9.6c3.2,0,7,0.3,10.2,1.3C480.1,186.8,481.4,199.5,477.3,212.7z"/>
			<path class="st29" d="M469.3,306.8c0,0,4.5-10.9,0.2-31.8h-52c0,0-1.9,14.9-1.9,31.8H469.3z"/>
			<g>
				<g>
					<path class="st29" d="M459,375c-4.2-16.9,13.1-19.9,18.6-7.7c7.7,17.3,7.1,72.8,6.7,83.8c-0.1,1.5,0.2,3.2-0.5,3.7
						c-1.4,0.9-4.3,0.9-5.5,0.9c-1.9-0.1-3.8-0.1-4-2.5C472.9,437.1,463.1,391.4,459,375z"/>
					<path class="st29" d="M443.5,309.1c-1.8-21,6.5-37.4,19.6-30.4c5.5,2.9,7.5,8.8,8.2,14.3c0.7,5.5,4.8,62.8,6.2,73.1
						c3.2,23.3-15.2,17-17.2,10.6C455.2,360.3,444.5,320.6,443.5,309.1z"/>
				</g>
			</g>
			<path class="st29" d="M426.2,459.7c0.7-24.8,11.2-68.2,5.1-88.4c-3.9-12.9-19.2-13.2-18.6,2.6c0.7,16.9,5.8,49.6,4.1,82.2
				C416.6,459.3,426.1,462.6,426.2,459.7z"/>
			<path class="st29" d="M430.7,375.6c-2,6.4-19.6,13.9-17.8-9.6c0.8-10.4,3-67.9,3.4-73.4c0.4-5.5,1.4-13.6,4.2-14.7
				c13.9-5.1,27.4,11.5,23.7,32.3C441.7,324.1,434.9,362.2,430.7,375.6z"/>
			
				<ellipse transform="matrix(0.9257 -0.3782 0.3782 0.9257 -28.146 176.8602)" class="st11" cx="436.2" cy="160.1" rx="3.1" ry="5.8"/>
			
				<ellipse transform="matrix(0.3781 -0.9258 0.9258 0.3781 140.5265 529.3521)" class="st11" cx="464.3" cy="160.1" rx="5.8" ry="3.1"/>
			<path class="st14" d="M461.8,143.8c-3.4,5-19.6,5.5-24.8,3.6c-5.3-1.8-4.9-12.1,2.6-12.8c4.3,0,1.2,1,4.6,2.4
				C446,137.8,465.4,138.4,461.8,143.8z"/>
		</g>
		<path class="st14" d="M443.6,142.9c-5,3-6.1,5.7-6,11.8c0.1,6.2,2.8,16.7,14.1,19c11.4,2.4,14-8.9,14.7-16.7s0.2-13.6-5.5-15
			C452.4,140,446.6,141.1,443.6,142.9z"/>
	</g>
	<g>
		<defs>
			<path id="SVGID_1_" d="M485.5,461.5c-1.2-4-1.5-5.8-1.5-7.1c0.3-0.7,0.2-2.1,0.3-3.3c0.4-11.1,1-66.5-6.7-83.8c0,0,0,0,0,0
				c0-0.4-0.1-0.8-0.1-1.2c-1.4-10.1-5.3-65-6.1-72.6c0.1-4.9-0.3-11-1.8-18.4c-0.6-6.8-0.5-15,0.3-24c4.3-1.5,7.2-3.3,11.7-6.1
				c0.8-0.5,1.3-1.2,1.4-2c0,0,0-0.1,0.1-0.1c1-3.2,2.1-10.6,0-28.7c-1.3-11-2.6-15.7-3.4-19c-0.5-2-1.5-3.4-2.7-4.4
				c-2.1-3.7-5.6-6.5-11-8.2c-1.7-0.5-3.5-0.8-5.4-1c-0.1-1.9-0.2-3.8-0.4-5.5c0-0.5-0.1-0.9-0.3-1.3c2-1.9,3-3.4,3.6-5.9
				c0.8-1.4,1.4-2.9,1.8-4.5c0.7-0.8,1.4-1.8,1.8-2.9c1.2-2.9,0.9-5.6-0.4-6.4c0.3-6-0.4-10.5-4.4-12.2c0.2-4.3-16.4-4.9-18-5.5
				c-3.5-1.4-0.4-2.4-4.6-2.4c-7.6,0.7-7.9,10.9-2.6,12.8c0.1,0,0.2,0.1,0.3,0.1c-0.3,0.7-0.5,1.4-0.6,2.1c-0.3,2-0.4,3.9-0.5,5.6
				c-0.8-0.6-1.6-0.8-2.3-0.5c-1.6,0.6-1.8,3.6-0.6,6.5c0.8,2,2.1,3.5,3.3,4.1c0.3,1.8,0.6,3.4,0.9,4.5c1,3.6,3.8,8.7,8,8.9
				c0,0.3-0.1,0.6-0.1,1c0,0.5,0,1,0,1.5c-2.6,0.1-7.6,0.8-11.3,2.2c-4.3,1.3-8.7,4.1-9.6,6.5c-0.4,1-0.7,1.9-1.1,2.8
				c-0.8,1.5-1.4,3.1-1.8,4.8c-5,13.2-8.2,23.2-10.2,26.4c-0.3,0.6-0.5,1.1-0.6,1.7c-5.3,4.6-16.6,22.1-20.9,26.9
				c-0.1,0-0.2,0.1-0.2,0.1c-0.5-0.1-1.2-0.1-2-0.1c-1.3,0.1-8.8,0.4-8.9,1.8c0,1.4,2,1.9,4.3,2.1c-6.1,3.9-13.9,9.7-11.3,11.6
				c4.2,3.1,12.6,0.3,15.3-0.9c4.1-1.9,6.4-5.9,6.7-9.1c3-0.6,6.1-2,12.1-6.7c5.2-4,9.1-7.4,12.3-10.3c-0.7,18.4-0.8,34.1-0.8,34.1
				s-1.9,14.9-1.9,31.8l0,0c-0.8,19.3-2.1,51.6-2.7,59.2c-0.1,1.9-0.2,3.5-0.1,5c-0.1,0.9-0.1,1.8-0.1,2.8c0.7,16.7,5.7,49,4.1,81.3
				c-0.3,0.3-0.5,0.5-0.7,0.9c-0.6,1.1-3.4,3.7-7.4,5.4c-3.9,1.7-12.3,2.5-7.6,4c4.6,1.5,10,0.6,12.8,0.2c2.7-0.4,5.4-0.5,8.6-0.5
				c4.3,0,4.3-0.3,3.7-4.9c0-0.1-0.1-0.3-0.1-0.4c0,0,0,0,0,0c0.6-24.3,10.8-66.6,5.4-87.3c4.1-14.8,9.8-46.4,12.2-60.4
				c1.9,12.5,9.6,41.6,14.6,58.7c0,1.3,0.2,2.7,0.6,4.3c4,16.4,13.9,62.2,15.2,78.3c0,0,0,0,0,0c-0.4,1.8-0.2,2.6-0.5,4
				c-0.3,1.9-2.1,2.6-3.2,4.1c-1.2,1.7-3,4.2,4.1,4.3C482.3,465.9,486.8,465.7,485.5,461.5z"/>
		</defs>
		<clipPath id="SVGID_2_">
			<use xlink:href="#SVGID_1_"  style="overflow:visible;"/>
		</clipPath>
	</g>
</g>
<g>
	<path class="st15" d="M444.2,73.9c-1.5,0-3-0.4-4.4-1.4c-0.7-0.4-1.3-1-1.8-1.7c-0.6-0.7-1-1.4-1.4-2.2c-1.7-3.4-1.7-7.5,0-10.8
		c0.4-0.8,0.9-1.5,1.4-2.1c0.6-0.6,1.2-1.1,1.8-1.5c1.4-0.8,2.9-1.2,4.4-1c1.5,0.1,2.9,0.7,4.2,1.7c0.6,0.5,1.2,1,1.7,1.7
		c0.5,0.7,0.9,1.4,1.3,2.2c1.4,3.2,1.4,7,0,10.1c-0.3,0.7-0.8,1.4-1.3,2.1c-0.5,0.6-1.1,1.2-1.7,1.6
		C447.1,73.4,445.6,73.9,444.2,73.9 M447.6,42.2l-7-1l-0.2,3.4c-1.6,0.3-3.2,0.8-4.6,1.7l-2.3-2.6l-5.6,5.8l2.1,3
		c-1,1.7-1.7,3.6-2.1,5.6l-3.3,0.1v9.3l3.3,0.3c0.4,2,1.1,4,2.1,5.8l-2.1,2.8l5.6,6.2l2.3-2.5c1.5,1,3.1,1.7,4.6,2.1l0.2,3.5l7-0.5
		l0.2-3.4c1.5-0.5,2.9-1.3,4.1-2.4l1.9,2l4.4-5.8l-1.6-2.4c0.7-1.6,1.3-3.3,1.6-5l2.4-0.2v-7.8l-2.4-0.4c-0.3-1.8-0.9-3.5-1.6-5.1
		l1.6-2.3l-4.4-6.2l-1.9,1.9c-1.3-1.1-2.7-2-4.1-2.7L447.6,42.2"/>
	<path class="st30" d="M410.9,49.9c-0.5,0-0.9-0.2-1.4-0.5c-0.2-0.1-0.4-0.3-0.6-0.5c-0.2-0.2-0.3-0.4-0.4-0.6c-0.5-0.9-0.5-2,0-2.9
		c0.1-0.2,0.3-0.4,0.4-0.5c0.2-0.2,0.4-0.3,0.6-0.4c0.4-0.2,0.9-0.3,1.4-0.2c0.5,0.1,0.9,0.2,1.3,0.5c0.2,0.1,0.4,0.3,0.5,0.5
		c0.2,0.2,0.3,0.4,0.4,0.6c0.5,0.9,0.5,2,0,2.8c-0.1,0.2-0.3,0.4-0.4,0.5c-0.2,0.2-0.4,0.3-0.5,0.4
		C411.8,49.8,411.4,49.9,410.9,49.9 M413.1,35.4l-4.5-0.7l-0.1,1.9c-1,0.1-2,0.4-2.9,0.8l-1.4-1.5l-3.4,3l1.3,1.6
		c-0.6,0.9-1,1.9-1.3,2.9l-2-0.1v4.9l2,0.3c0.3,1.1,0.7,2.2,1.3,3.2l-1.3,1.4l3.4,3.6l1.4-1.2c0.9,0.6,1.9,1.1,2.9,1.4l0.1,1.9
		l4.5,0.2l0.1-1.9c1-0.2,1.9-0.5,2.7-1l1.3,1.3l2.9-3l-1.1-1.5c0.5-0.9,0.9-1.8,1.1-2.7l1.6,0v-4.5l-1.6-0.3c-0.2-1-0.6-2-1.1-3
		l1.1-1.2l-2.9-3.6l-1.3,1c-0.8-0.7-1.8-1.2-2.7-1.6L413.1,35.4"/>
</g>
<g>
	<ellipse class="st12" cx="65" cy="464.9" rx="51.5" ry="3.9"/>
	<g>
		<path class="st11" d="M33.5,452.5c0.6,2.3,0.4,3.2,0.6,4.7c0.3,1.9,2.1,2.6,3.2,4.1c1.2,1.7,3,4.5-4.1,4.6
			c-7.6,0.1-12.1-0.4-10.8-4.5c1.3-4.1,1.5-6,1.4-7.3c-0.1-1.3,0-2.7,0.9-3.6C25.5,449.9,32.4,448.4,33.5,452.5z"/>
		<path class="st10" d="M135.6,168.7c0.3,4.2,0.1,7.1-4.9,15.8c-6.8,11.7-11.3,17.8-15.8,22.7c-4.1,4.5-13.4-6.8-9.3-13.9
			c3.5-6,22.8-22.4,25-26.1C132,164.9,135.3,165.3,135.6,168.7z"/>
		<path class="st10" d="M112.4,208.2c-3.3,0.6-10.8,1-28.6-3c-10.9-2.4-15.3-4.2-18.5-5.4c-5.7-2.1-6.6-8.4-4.4-10.8
			c3.5-3.9,10.7-6.8,13.8-5.8c17.3,5.3,30.3,10.4,34.8,10.9C115.9,194.9,116.3,207.4,112.4,208.2z"/>
		<path class="st80" d="M66.7,161.2c3.1,1.5,4.5,1.5,5.6-2.4c0.9-3,2.3-13.5-2.5-14.2c-4.8-0.7-8.6-0.8-8,5.6
			C62.3,156.7,63,159.5,66.7,161.2z"/>
		<path class="st11" d="M48.5,166.9c-0.1,0.5-1.1,10.6-1.3,18.3c-0.1,3.8,3.7,7.4,7.5,7.5c0.1,0,0.1,0,0.2,0c3.7,0,8.1-3.4,7.8-7.1
			c-0.6-6.7-0.1-13.6-0.1-13.7L48.5,166.9z"/>
		<path class="st7" d="M29.7,208.9c6.9,22.7,10,50.3,8.7,66.1h52c0,0-0.3-48.7-3.8-75.4c-0.8-6.2-4.4-11.8-11-15.3
			c-3.9-2.1-11-3.1-13.9-3.1h-9.6c-3.2,0-6.9,0.7-10.2,1.3C28.2,185,25.7,195.7,29.7,208.9z"/>
		<path class="st13" d="M38.6,306.8c0,0-4.5-10.9-0.2-31.8h52c0,0,1.9,14.9,1.9,31.8H38.6z"/>
		<g>
			<g>
				<path class="st13" d="M48.9,375C53,358,35.7,355,30.3,367.3c-7.7,17.3-7.1,72.8-6.7,83.8c0.1,1.5,0.8,1.2,1.7,0.9
					c2.5-0.9,4.5-1.2,5.5-1c1.9,0.4,2.9,2.3,2.9,2.3C35.3,438.2,44.8,391.4,48.9,375z"/>
				<path class="st13" d="M64.4,309.1c1.8-21-6.5-37.4-19.6-30.4c-5.5,2.9-7.5,8.8-8.2,14.3c-0.7,5.5-4.8,62.8-6.2,73.1
					c-3.2,23.3,15.2,17,17.2,10.6C52.7,360.3,63.4,320.6,64.4,309.1z"/>
			</g>
		</g>
		<path class="st13" d="M95.2,373.9c0.7-15.8-14.7-15.5-18.6-2.6c-6.1,20.2,4.4,63.6,5.1,88.4c2.7-4.3,5.2-5.3,6.4-5.2
			c1.9,0.1,3,1.6,3,1.6C90.7,423.4,94.5,390.7,95.2,373.9z"/>
		<path class="st13" d="M77.2,375.6c2,6.4,19.6,13.9,17.8-9.6c-0.8-10.4-3-67.9-3.4-73.4c-0.4-5.5-1.4-13.6-4.2-14.7
			c-13.9-5.1-27.4,11.5-23.7,32.3C66.2,324.1,73,362.2,77.2,375.6z"/>
		<path class="st10" d="M38,263.2c-4.1-1.2-6.2-4.1-13.2-11.3c-10-10.4-11.7-13.6-15.5-22.1c-2.5-5.6,10.7-9.6,15.9-3.2
			c4.4,5.4,13.1,29.2,15.8,32.5C42.9,261.1,41.3,264.1,38,263.2z"/>
		<path class="st10" d="M9,227.7c0.5-3.3,2.8-10.4,12.7-25.7c6-9.3,9.3-12.9,11.5-15.5c4-4.6,10.2-3.3,11.7-0.4
			c2.4,4.6,2.6,12.4,0.7,15c-11,14.4-20.3,24.8-22.3,28.8C20.3,235.6,8.4,231.6,9,227.7z"/>
		<path class="st11" d="M43.4,159.6c0.9,8.6,1.1,10.5,4.9,14s9.1,5.1,13.2,5.1c4.4,0,7.7-4.7,8.7-8.3c1-3.8,2.2-12.6,1-22.1
			c-0.6-4.8-6.5-10.6-12.6-10.6S41.3,138.5,43.4,159.6z"/>
		<path class="st11" d="M36.4,257.7c2-2.2,5.1-5.6,6.7-7.5c1.5-1.9,6.1,1.4,6.2,3.1c0.1,2.5-2.4,9.3-5.6,9.3c-3.2,0-4.1,2.9-6.8,2
			C34.2,263.7,33.1,261.3,36.4,257.7z"/>
		<path class="st11" d="M91.8,456c0.6,1.1,3.4,3.7,7.4,5.4c3.9,1.7,12.3,2.5,7.6,4c-4.6,1.5-10,0.6-12.8,0.2
			c-2.7-0.4-5.4-0.5-8.6-0.5c-4.3,0-4.3-0.3-3.7-4.9C82.4,453.7,89.8,452.4,91.8,456z"/>
		<path class="st14" d="M43.4,158.2c2.3,2.3,3.5,2.8,5.8-0.3c1.8-2.4,6.5-11.5,2.4-13.7s-7.5-3.6-9.1,2.5
			C41,152.8,40.7,155.5,43.4,158.2z"/>
		
			<ellipse transform="matrix(0.9257 -0.3782 0.3782 0.9257 -57.6169 28.2619)" class="st11" cx="43.1" cy="160.8" rx="3.1" ry="5.8"/>
		<path class="st14" d="M46.1,142.6c3.4,5,19.6,5.5,24.8,3.6c5.3-1.8,4.9-12.1-2.6-12.8c-4.3,0-1.2,1-4.6,2.4
			C61.9,136.6,42.5,137.3,46.1,142.6z"/>
		<path class="st11" d="M129.9,167.8c0.9-2.6,9.4-22.7,12.7-19.3c3.7,3.7,2.1,12.4,1.2,15.3c-1.6,5.2-6.6,8.3-9.9,8.1
			C131.5,171.7,129,170.2,129.9,167.8z"/>
		<path class="st11" d="M129.4,166.2c-0.1-1.3-0.8-8.8,0.6-9c2.1-0.4,2.8,4.6,3.3,7.8c0.3,1.8-0.6,4.3-2,4.3
			C129.8,169.4,129.6,168.3,129.4,166.2z"/>
	</g>
	<g>
		<defs>
			<path id="SVGID_10_" d="M142.6,148.4c-2.3-2.3-6.9,6.3-9.9,12.8c-0.5-2.3-1.3-4.2-2.7-4c-1.4,0.2-0.7,7.8-0.6,9
				c0.1,0.8,0.2,1.4,0.4,1.9c0,0.1,0,0.2-0.1,0.2c-4.2,5.1-20.6,19.2-24,24.8c-6.2-1.8-17.2-5.9-31-10.1c-0.6-0.2-1.3-0.2-2.1-0.1
				c-3.5-1.1-7.8-1.7-10.2-1.8c0-0.9,0-1.8-0.1-2.6c4-0.6,6.9-4.8,7.8-8.2c0.6-2,1.2-5.6,1.4-9.9c0.2-0.5,0.4-1,0.7-1.7
				c0.7-2.5,1.8-10-0.5-13c4.4-2.6,3.6-11.7-3.5-12.4c-4.3,0-1.2,1-4.6,2.4c-1.7,0.7-20.7,1.4-17.7,6.5c-1.4,0.2-2.6,1.4-3.4,4.3
				c-1.1,4-1.5,6.5-0.9,8.6c-0.2,0-0.5,0-0.7,0.1c-1.6,0.6-1.8,3.6-0.6,6.5c0.9,2.3,2.5,4,3.9,4.3c0.6,3.2,1.5,4.8,3.7,7
				c-0.2,2.5-0.4,5.4-0.6,8.3c-1.8,0.2-3.6,0.6-5.3,0.9c-1.6,0.3-3.1,0.7-4.4,1.2c-1.1,0.3-2.2,0.8-3.2,1.7
				c-2.2,1.5-3.8,3.3-4.9,5.5c-1.9,2.5-4.4,5.9-7.8,11.1C11.9,217.3,9.6,224.4,9,227.7c0,0.3,0,0.5,0,0.8c0,0.4,0.1,0.8,0.3,1.3
				c3.8,8.5,5.5,11.7,15.5,22.1c4.7,4.9,7.2,7.8,9.6,9.6c-0.2,1.6,0.8,2.7,2.5,3.2c0.7,0.2,1.3,0.2,1.8,0.1c0.1,3.8,0,7.3-0.3,10.4
				c-1.5,7.4-1.9,13.6-1.8,18.4c-0.9,7.6-4.8,62.5-6.1,72.6c-0.1,0.4-0.1,0.8-0.1,1.2c0,0,0,0,0,0c-7.7,17.3-7.1,72.8-6.7,83.8
				c0,0.6,0.2,0.9,0.4,1c-0.1,0.7-0.2,1.4-0.1,2.1c0.1,1.3-0.2,3.2-1.4,7.3c-1.3,4.1,3.2,4.6,10.8,4.5c7.1-0.1,5.3-2.9,4.1-4.6
				c-1-1.6-2.9-2.2-3.2-4.1c-0.2-1.4-0.1-2.2-0.5-4c0,0,0,0,0,0c1.6-15.1,11.2-61.9,15.2-78.3c0.4-1.6,0.5-3,0.6-4.3
				c5-17.1,12.7-46.2,14.6-58.7c2.5,14,8.2,45.7,12.2,60.4c-5.4,20.7,4.8,62.9,5.4,87.3c0,0,0,0,0,0c0,0.2-0.1,0.3-0.1,0.4
				c-0.6,4.6-0.5,4.9,3.7,4.9c3.2,0,5.9,0.1,8.6,0.5c2.7,0.4,8.1,1.3,12.8-0.2c4.6-1.5-3.7-2.3-7.6-4c-3.9-1.7-6.8-4.3-7.4-5.4
				c-0.2-0.3-0.4-0.6-0.6-0.8c-0.3-32.4,3.4-64.6,4.1-81.3c0-1,0-1.9-0.1-2.8c0.1-1.5,0.1-3.2-0.1-5c-0.6-7.6-1.9-39.9-2.7-59.2l0,0
				c0-16.9-1.9-31.8-1.9-31.8s-0.3-41.7-3.1-69.1c14.8,3.1,21.6,2.9,24.7,2.3c1,0.1,2-0.1,2.8-1c4.5-4.8,9-11,15.8-22.7
				c3.8-6.6,4.9-9.9,5-12.9c3.1-0.7,6.7-3.6,8.1-7.9C144.7,160.8,146.3,152.1,142.6,148.4z M25.4,226.6c1.6-2.2,4-5.2,6.8-8.7
				c2.9,11.8,4.9,24.2,5.8,35.3C34.3,245,28.7,230.8,25.4,226.6z"/>
		</defs>
		<clipPath id="SVGID_3_">
			<use xlink:href="#SVGID_10_"  style="overflow:visible;"/>
		</clipPath>
	</g>
</g>
</svg>
