<?xml version="1.0" encoding="UTF-8"?>
<svg width="19px" height="13px" viewBox="0 0 19 13" version="1.1" xmlns="http://www.w3.org/2000/svg" xmlns:xlink="http://www.w3.org/1999/xlink">
    <!-- Generator: Sketch 52.5 (67469) - http://www.bohemiancoding.com/sketch -->
    <title>mail</title>
    <desc>Created with Sketch.</desc>
    <g id="new" stroke="none" stroke-width="1" fill="none" fill-rule="evenodd">
        <g id="register" transform="translate(-1013.000000, -373.000000)" fill="#000000" fill-rule="nonzero">
            <g id="mail" transform="translate(1013.424701, 373.182179)">
                <g id="Group" transform="translate(2.891355, 6.015275)">
                    <path d="M11.6284521,3.70712471 C11.5573248,3.70712471 11.4861974,3.68149943 11.4306834,3.62967941 L8.10331192,0.555783982 C7.98707944,0.448727231 7.98129673,0.268211327 8.09058995,0.153751716 C8.19988318,0.0381532037 8.38203855,0.0330281465 8.49942757,0.141223799 L11.8267991,3.21511922 C11.9430315,3.32217597 11.9488143,3.50269188 11.839521,3.61715149 C11.7822722,3.67694382 11.7059404,3.70712471 11.6284521,3.70712471 Z" id="Shape"></path>
                    <path d="M0.521600467,3.70712471 C0.444690421,3.70712471 0.367780374,3.67694382 0.310531542,3.61715149 C0.201238318,3.50269188 0.207021028,3.32217597 0.323253505,3.21511922 L3.65178154,0.141223799 C3.76859229,0.0341670481 3.95190421,0.0387226545 4.06061916,0.153751716 C4.16991238,0.268211327 4.16412967,0.448727231 4.0478972,0.555783982 L0.719369159,3.62967941 C0.66385514,3.68149943 0.592727804,3.70712471 0.521600467,3.70712471 Z" id="Shape"></path>
                </g>
                <path d="M16.4876636,12.5804729 L1.44567757,12.5804729 C0.648820093,12.5804729 0,11.9421185 0,11.1568459 L0,1.44941808 C0,0.664145423 0.648820093,0.0257910755 1.44567757,0.0257910755 L16.4876636,0.0257910755 C17.284521,0.0257910755 17.9333411,0.664145423 17.9333411,1.44941808 L17.9333411,11.1568459 C17.9333411,11.9421185 17.284521,12.5804729 16.4876636,12.5804729 Z M1.44567757,0.595241876 C0.96744743,0.595241876 0.578271028,0.978482265 0.578271028,1.44941808 L0.578271028,11.1568459 C0.578271028,11.6277817 0.96744743,12.0110221 1.44567757,12.0110221 L16.4876636,12.0110221 C16.9658937,12.0110221 17.3550701,11.6277817 17.3550701,11.1568459 L17.3550701,1.44941808 C17.3550701,0.978482265 16.9658937,0.595241876 16.4876636,0.595241876 L1.44567757,0.595241876 Z" id="Shape"></path>
                <path d="M8.96667056,7.73387712 C8.58212033,7.73387712 8.19757009,7.60802849 7.90496495,7.35690069 L0.479964953,0.978482265 C0.359684579,0.87541167 0.346962617,0.695465217 0.451629673,0.57645 C0.557453271,0.458004233 0.739608645,0.447184668 0.859889019,0.549116362 L8.28488902,6.92696533 C8.65440421,7.24414943 9.27893692,7.24414943 9.64787383,6.92696533 L17.0636215,0.559366476 C17.1833236,0.456295881 17.365479,0.467684897 17.4718808,0.586700114 C17.5765479,0.705715332 17.5644042,0.885092334 17.4441238,0.98873238 L10.0283762,7.35633124 C9.73519276,7.60802849 9.35122079,7.73387712 8.96667056,7.73387712 Z" id="Shape"></path>
            </g>
        </g>
    </g>
</svg>