<?xml version="1.0" encoding="UTF-8"?>
<svg width="19px" height="21px" viewBox="0 0 19 21" version="1.1" xmlns="http://www.w3.org/2000/svg" xmlns:xlink="http://www.w3.org/1999/xlink">
    <!-- Generator: Sketch 52.5 (67469) - http://www.bohemiancoding.com/sketch -->
    <title>Password</title>
    <desc>Created with Sketch.</desc>
    <g id="new" stroke="none" stroke-width="1" fill="none" fill-rule="evenodd">
        <g id="register" transform="translate(-677.000000, -440.000000)" stroke="#000000" stroke-width="0.7">
            <g id="Password" transform="translate(677.729049, 440.137676)">
                <path d="M2,7.58328488 C1.08873016,7.58328488 0.35,8.32201504 0.35,9.23328488 L0.35,18 C0.35,18.9112698 1.08873016,19.65 2,19.65 L15.3913043,19.65 C16.3025742,19.65 17.0413043,18.9112698 17.0413043,18 L17.0413043,9.23328488 C17.0413043,8.32201504 16.3025742,7.58328488 15.3913043,7.58328488 L2,7.58328488 Z" id="Rectangle-3"></path>
                <path d="M3.52721023,7.47608696 L13.5880798,7.47608696 L13.5880798,5.38043478 C13.5880798,2.60220237 11.3358774,0.35 8.55764502,0.35 C5.7794126,0.35 3.52721023,2.60220237 3.52721023,5.38043478 L3.52721023,7.47608696 Z" id="Rectangle-4"></path>
                <path d="M7.82608696,14.549944 C7.30625968,14.2492402 6.95652174,13.687202 6.95652174,13.0434783 C6.95652174,12.082983 7.73515696,11.3043478 8.69565217,11.3043478 C9.65614739,11.3043478 10.4347826,12.082983 10.4347826,13.0434783 C10.4347826,13.687202 10.0850447,14.2492402 9.56521739,14.549944 L9.56521739,16.5217391 C9.56521739,17.0019867 9.17589978,17.3913043 8.69565217,17.3913043 C8.21540457,17.3913043 7.82608696,17.0019867 7.82608696,16.5217391 L7.82608696,14.549944 Z" id="Combined-Shape"></path>
            </g>
        </g>
    </g>
</svg>