<?xml version="1.0" encoding="UTF-8"?>
<svg width="172px" height="53px" viewBox="0 0 172 53" version="1.1" xmlns="http://www.w3.org/2000/svg" xmlns:xlink="http://www.w3.org/1999/xlink">
    <!-- Generator: Sketch 52.5 (67469) - http://www.bohemiancoding.com/sketch -->
    <title>premium user</title>
    <desc>Created with Sketch.</desc>
    <g id="new" stroke="none" stroke-width="1" fill="none" fill-rule="evenodd">
        <g id="premium-user" transform="translate(0.236922, -0.032679)">
            <g id="Group-2" transform="translate(87.885129, 26.500000) scale(1, -1) translate(-87.885129, -26.500000) translate(0.385129, 0.000000)">
                <polygon id="Triangle-Copy-2" fill="#000000" fill-rule="nonzero" transform="translate(5.437948, 42.049424) scale(-1, -1) translate(-5.437948, -42.049424) " points="10.5115742 42.0494242 0.364321064 52.8778085 0.364321064 31.2210398"></polygon>
                <path d="M25.5413477,0.577427449 L174.408534,0.577427449 L174.408534,42.0494242 L25.5413477,42.0494242 C17.9369604,42.0494242 10.8692537,38.1309723 6.84060067,31.681425 L6.84060067,31.681425 C2.87786018,25.3373984 2.87786018,17.2894532 6.84060067,10.9454266 L6.84060067,10.9454266 C10.8692537,4.4958793 17.9369604,0.577427449 25.5413477,0.577427449 Z" id="Rectangle-Copy-16" fill="#DB0303" fill-rule="nonzero" transform="translate(87.386427, 21.313426) scale(-1, -1) translate(-87.386427, -21.313426) "></path>
                <path d="M150.381917,36.1167312 C142.206478,36.1167312 135.579106,29.4888652 135.579106,21.3134258 C135.579106,13.1379864 142.206478,6.51012038 150.381917,6.51012038 C158.557357,6.51012038 165.184728,13.1379864 165.184728,21.3134258 C165.184728,29.4888652 158.557357,36.1167312 150.381917,36.1167312 Z M150.381917,30.6795218 C145.209101,30.6795218 141.01563,26.4860508 141.01563,21.3136175 C141.01563,16.1408008 145.209101,11.9473298 150.381917,11.9473298 C155.554734,11.9473298 159.748205,16.1408008 159.748205,21.3136175 C159.748205,26.4860508 155.554734,30.6795218 150.381917,30.6795218 Z M150.381917,32.8772199 C156.768504,32.8772199 161.945948,27.6997761 161.945948,21.3136625 C161.945948,14.9270755 156.768504,9.74963172 150.381917,9.74963172 C143.99533,9.74963172 138.817887,14.9270755 138.817887,21.3136625 C138.817887,27.6997761 143.99533,32.8772199 150.381917,32.8772199 Z M150.591702,13.7119057 L148.443346,18.0663578 L143.638226,18.7644799 L147.114589,22.1531089 L146.29424,26.9394819 L150.591702,24.679396 L154.889165,26.9394819 L154.068815,22.1531089 L157.545178,18.7644799 L152.740058,18.0663578 L150.591702,13.7119057 Z" id="Combined-Shape-Copy-7" fill="#FFFFFF" transform="translate(150.381917, 21.313426) scale(-1, 1) rotate(90.000000) translate(-150.381917, -21.313426) "></path>
            </g>
            <path d="M38.2549506,28.4128633 L38.2549506,31.7728633 L40.7989506,31.7728633 C43.0189506,31.7728633 43.0069506,28.4128633 40.7989506,28.4128633 L38.2549506,28.4128633 Z M40.7989506,33.0088633 L38.2549506,33.0088633 L38.2549506,35.5888633 L36.9109506,35.5888633 L36.9109506,27.1888633 C38.1949506,27.1888633 39.5149506,27.1768633 40.7989506,27.1768633 C44.8069506,27.1768633 44.8189506,32.9848633 40.7989506,33.0088633 Z M44.9869506,29.6728633 L46.1389506,29.6728633 L46.2229506,30.4528633 C46.6549506,29.6968633 47.3269506,29.5408633 47.9629506,29.5408633 C48.5389506,29.5408633 49.0909506,29.7448633 49.4269506,30.0448633 L48.8629506,31.1248633 C48.5629506,30.8848633 48.2749506,30.7648633 47.8189506,30.7648633 C46.9669506,30.7648633 46.2229506,31.2928633 46.2229506,32.3848633 L46.2229506,35.5888633 L44.9869506,35.5888633 L44.9869506,29.6728633 Z M55.9909506,33.0928633 L51.1909506,33.0928633 C51.2989506,33.9928633 52.0429506,34.5808633 53.1229506,34.5808633 C53.7229506,34.5808633 54.4789506,34.3528633 54.8389506,33.9448633 L55.6429506,34.7248633 C55.0309506,35.3968633 54.0109506,35.7328633 53.0989506,35.7328633 C51.1549506,35.7328633 49.9069506,34.4968633 49.9069506,32.6008633 C49.9069506,30.8008633 51.1669506,29.5168633 53.0149506,29.5168633 C54.9229506,29.5168633 56.2189506,30.6808633 55.9909506,33.0928633 Z M51.2149506,32.0488633 L54.8029506,32.0488633 C54.7309506,31.1128633 54.0469506,30.6208633 53.0509506,30.6208633 C52.1509506,30.6208633 51.4069506,31.1128633 51.2149506,32.0488633 Z M62.5429506,35.5888633 L61.2949506,35.5888633 L61.2949506,32.3368633 C61.2949506,31.4608633 60.7909506,30.7288633 59.9149506,30.7288633 C59.0389506,30.7288633 58.4869506,31.4608633 58.4869506,32.3368633 L58.4869506,35.5888633 L57.2509506,35.5888633 L57.2509506,29.6608633 L58.4029506,29.6608633 L58.4869506,30.4528633 C58.8229506,29.8048633 59.5189506,29.5648633 60.1429506,29.5648633 C60.8989506,29.5648633 61.6669506,29.8768633 62.0029506,30.7528633 C62.4829506,29.8768633 63.2269506,29.5768633 64.0309506,29.5768633 C65.6629506,29.5768633 66.5389506,30.6088633 66.5389506,32.3128633 L66.5389506,35.5888633 L65.2909506,35.5888633 L65.2909506,32.3128633 C65.2909506,31.4368633 64.8589506,30.7408633 63.9829506,30.7408633 C63.1069506,30.7408633 62.5429506,31.4608633 62.5429506,32.3368633 L62.5429506,35.5888633 Z M69.3709506,29.6488633 L69.3709506,35.5888633 L68.1349506,35.5888633 L68.1349506,29.6488633 L69.3709506,29.6488633 Z M67.9909506,27.9328633 C67.9909506,26.9248633 69.5269506,26.9248633 69.5269506,27.9328633 C69.5269506,28.9528633 67.9909506,28.9528633 67.9909506,27.9328633 Z M70.9549506,29.6728633 L72.1909506,29.6728633 L72.1909506,32.8408633 C72.1909506,33.8488633 72.7669506,34.5448633 73.7989506,34.5448633 C74.7709506,34.5448633 75.4429506,33.7408633 75.4429506,32.7568633 L75.4429506,29.6728633 L76.6789506,29.6728633 L76.6789506,35.6008633 L75.5629506,35.6008633 L75.4909506,34.7248633 C74.9149506,35.3848633 74.2789506,35.6848633 73.4509506,35.6848633 C71.9989506,35.6848633 70.9549506,34.6408633 70.9549506,32.8528633 L70.9549506,29.6728633 Z M83.6509506,35.5888633 L82.4029506,35.5888633 L82.4029506,32.3368633 C82.4029506,31.4608633 81.8989506,30.7288633 81.0229506,30.7288633 C80.1469506,30.7288633 79.5949506,31.4608633 79.5949506,32.3368633 L79.5949506,35.5888633 L78.3589506,35.5888633 L78.3589506,29.6608633 L79.5109506,29.6608633 L79.5949506,30.4528633 C79.9309506,29.8048633 80.6269506,29.5648633 81.2509506,29.5648633 C82.0069506,29.5648633 82.7749506,29.8768633 83.1109506,30.7528633 C83.5909506,29.8768633 84.3349506,29.5768633 85.1389506,29.5768633 C86.7709506,29.5768633 87.6469506,30.6088633 87.6469506,32.3128633 L87.6469506,35.5888633 L86.3989506,35.5888633 L86.3989506,32.3128633 C86.3989506,31.4368633 85.9669506,30.7408633 85.0909506,30.7408633 C84.2149506,30.7408633 83.6509506,31.4608633 83.6509506,32.3368633 L83.6509506,35.5888633 Z M98.1349506,27.2008633 L99.4669506,27.2008633 L99.4669506,32.1088633 C99.4669506,34.5808633 97.8349506,35.8168633 95.8069506,35.7448633 C93.9349506,35.6968633 92.3389506,34.4968633 92.3389506,32.1088633 L92.3389506,27.2008633 L93.6709506,27.2008633 L93.6709506,32.1088633 C93.6709506,33.6328633 94.5589506,34.4608633 95.8069506,34.5088633 C97.1509506,34.5808633 98.1349506,33.7048633 98.1349506,32.1088633 L98.1349506,27.2008633 Z M105.730951,30.3088633 L105.034951,31.1248633 C104.566951,30.6928633 104.062951,30.5728633 103.474951,30.5728633 C102.718951,30.5608633 102.214951,30.8128633 102.214951,31.2808633 C102.226951,31.7728633 102.742951,31.9648633 103.498951,32.0368633 C104.590951,32.1328633 106.018951,32.3728633 106.006951,33.8968633 C105.994951,35.0008633 105.022951,35.7688633 103.486951,35.7688633 C102.526951,35.7688633 101.566951,35.5528633 100.786951,34.6768633 L101.434951,33.8008633 C101.986951,34.4128633 102.814951,34.6648633 103.510951,34.6768633 C104.098951,34.6768633 104.758951,34.4608633 104.770951,33.9088633 C104.782951,33.3808633 104.278951,33.1768633 103.402951,33.0928633 C102.286951,32.9848633 101.002951,32.6248633 100.990951,31.3168633 C100.990951,30.0088633 102.346951,29.5168633 103.450951,29.5168633 C104.362951,29.5168633 105.070951,29.7208633 105.730951,30.3088633 Z M112.966951,33.0928633 L108.166951,33.0928633 C108.274951,33.9928633 109.018951,34.5808633 110.098951,34.5808633 C110.698951,34.5808633 111.454951,34.3528633 111.814951,33.9448633 L112.618951,34.7248633 C112.006951,35.3968633 110.986951,35.7328633 110.074951,35.7328633 C108.130951,35.7328633 106.882951,34.4968633 106.882951,32.6008633 C106.882951,30.8008633 108.142951,29.5168633 109.990951,29.5168633 C111.898951,29.5168633 113.194951,30.6808633 112.966951,33.0928633 Z M108.190951,32.0488633 L111.778951,32.0488633 C111.706951,31.1128633 111.022951,30.6208633 110.026951,30.6208633 C109.126951,30.6208633 108.382951,31.1128633 108.190951,32.0488633 Z M114.226951,29.6728633 L115.378951,29.6728633 L115.462951,30.4528633 C115.894951,29.6968633 116.566951,29.5408633 117.202951,29.5408633 C117.778951,29.5408633 118.330951,29.7448633 118.666951,30.0448633 L118.102951,31.1248633 C117.802951,30.8848633 117.514951,30.7648633 117.058951,30.7648633 C116.206951,30.7648633 115.462951,31.2928633 115.462951,32.3848633 L115.462951,35.5888633 L114.226951,35.5888633 L114.226951,29.6728633 Z" id="Premium-User" fill="#FFFFFF"></path>
        </g>
    </g>
</svg>