<?xml version="1.0" encoding="UTF-8"?>
<svg width="81px" height="80px" viewBox="0 0 81 80" version="1.1" xmlns="http://www.w3.org/2000/svg" xmlns:xlink="http://www.w3.org/1999/xlink">
    <!-- Generator: Sketch 52.5 (67469) - http://www.bohemiancoding.com/sketch -->
    <title>Update DAPP Balance 2</title>
    <desc>Created with Sketch.</desc>
    <g id="new" stroke="none" stroke-width="1" fill="none" fill-rule="evenodd">
        <g id="Update-DAPP-Balance-2">
            <rect id="base-copy-9" fill="#415BF6" x="0.412965099" y="0.00737465962" width="80" height="80" rx="40"></rect>
            <g id="Group-2-Copy-8" transform="translate(20.412965, 13.007375)" stroke="#FFFFFF" stroke-linecap="round" stroke-width="2.603125">
                <path d="M16.7225268,11.8352345 L4.32318775,11.8352345 C2.10935905,11.8352345 0.308278077,13.6363155 0.308278077,15.8501442 L0.308278077,43.4542116 C0.308278077,45.6680403 2.10935905,47.4691213 4.32318775,47.4691213 L35.7420447,47.4691213 C37.9558734,47.4691213 39.7569544,45.6680403 39.7569544,43.4542116 L39.7569544,35.3493472 L41.770663,35.3493472 L41.770663,25.0931917 L39.7569544,25.0931917 L39.7569544,15.8501442 C39.7569544,13.6363155 37.9558734,11.8352345 35.7420447,11.8352345 L31.9897927,11.8352345" id="Path"></path>
                <path d="M41.770663,35.3243322 L41.1828102,35.3243322 L30.3012793,35.3243322 C27.6246728,35.3243322 25.4358592,33.148026 25.4358592,30.4589121 L25.4358592,29.9586118 C25.4358592,27.2820053 27.6121653,25.0931917 30.3012793,25.0931917 L41.1828102,25.0931917 L41.770663,25.0931917 L41.770663,35.3243322 Z" id="Path"></path>
                <path d="M32.5584704,30.2212694 C32.5584704,30.6229558 32.2288815,30.9525447 31.8271951,30.9525447 C31.4255087,30.9525447 31.0959199,30.6229558 31.0959199,30.2212694 C31.0959199,29.819583 31.4255087,29.4899942 31.8271951,29.4899942 C32.2288815,29.4899942 32.5584704,29.8144332 32.5584704,30.2212694 Z" id="Path" fill="#FFFFFF" transform="translate(31.827195, 30.221269) scale(-1, 1) translate(-31.827195, -30.221269) "></path>
                <path d="M5.61828007,18.7198515 L39.6318793,18.7198515" id="Path"></path>
                <path d="M24.5940878,0.252435987 L24.5940878,12.24302" id="Path-Copy-5"></path>
                <path d="M20.1776081,7.82654026 L24.5940878,12.24302" id="Path-Copy-8"></path>
                <path d="M25.1776081,7.82654026 L29.5940878,12.24302" id="Path-Copy-9" transform="translate(27.094088, 10.159467) scale(-1, 1) translate(-27.094088, -10.159467) "></path>
            </g>
        </g>
    </g>
</svg>