<?xml version="1.0" encoding="UTF-8"?>
<svg width="81px" height="80px" viewBox="0 0 81 80" version="1.1" xmlns="http://www.w3.org/2000/svg" xmlns:xlink="http://www.w3.org/1999/xlink">
    <!-- Generator: Sketch 52.5 (67469) - http://www.bohemiancoding.com/sketch -->
    <title>Register DAPP 2</title>
    <desc>Created with Sketch.</desc>
    <g id="new" stroke="none" stroke-width="1" fill="none" fill-rule="evenodd">
        <g id="Register-DAPP-2">
            <rect id="base-copy-9" fill="#415BF6" x="0.333388796" y="0.00737465962" width="80" height="80" rx="40"></rect>
            <g id="download" transform="translate(17.833388, 17.507374)" fill="#FFFFFF" stroke="#FFFFFF">
                <path d="M40.3125016,0 L4.68750019,0 C2.10187508,0 0,2.10375008 0,4.68750019 L0,40.3125016 C0,42.8962517 2.10187508,45.0000018 4.68750019,45.0000018 L40.3125016,45.0000018 C42.8981267,45.0000018 45.0000018,42.8962517 45.0000018,40.3125016 L45.0000018,4.68750019 C45.0000018,2.10375008 42.8981267,0 40.3125016,0 Z M4.68750019,1.87500007 L40.3125016,1.87500007 C41.8631267,1.87500007 43.1250017,3.13687512 43.1250017,4.68750019 L43.1250017,7.5000003 L1.87500007,7.5000003 L1.87500007,4.68750019 C1.87500007,3.13687512 3.13687512,1.87500007 4.68750019,1.87500007 Z M40.3125016,43.1250017 L4.68750019,43.1250017 C3.13687512,43.1250017 1.87500007,41.8631267 1.87500007,40.3125016 L1.87500007,9.37500037 L43.1250017,9.37500037 L43.1250017,40.3125016 C43.1250017,41.8631267 41.8631267,43.1250017 40.3125016,43.1250017 Z" id="Shape" fill-rule="nonzero"></path>
                <circle id="Oval" cx="4.68750019" cy="4.68750019" r="1"></circle>
                <circle id="Oval" cx="8.43750034" cy="4.68750019" r="1"></circle>
                <circle id="Oval" cx="12.1875005" cy="4.68750019" r="1"></circle>
                <path d="M9.09937536,19.0275008 C8.73375035,18.6618757 8.13937532,18.6618757 7.77375031,19.0275008 C7.40812529,19.3931258 7.40812529,19.9875008 7.77375031,20.3531258 L12.7350005,25.314376 L7.77375031,30.2756262 C7.40812529,30.6412512 7.40812529,31.2356262 7.77375031,31.6012513 C7.95750032,31.7831263 8.19750033,31.8750013 8.43750034,31.8750013 C8.67750034,31.8750013 8.91750035,31.7831263 9.09937536,31.6031263 L14.7243756,25.978126 C15.0900006,25.612501 15.0900006,25.018126 14.7243756,24.652501 L9.09937536,19.0275008 Z" id="Path"></path>
                <path d="M27.1875011,28.1250011 L17.8125007,28.1250011 C17.2950007,28.1250011 16.8750007,28.5450011 16.8750007,29.0625012 C16.8750007,29.5800012 17.2950007,30.0000012 17.8125007,30.0000012 L27.1875011,30.0000012 C27.7050011,30.0000012 28.1250011,29.5800012 28.1250011,29.0625012 C28.1250011,28.5450011 27.7050011,28.1250011 27.1875011,28.1250011 Z" id="Path"></path>
            </g>
        </g>
    </g>
</svg>