<?xml version="1.0" encoding="UTF-8"?>
<svg width="102px" height="103px" viewBox="0 0 102 103" version="1.1" xmlns="http://www.w3.org/2000/svg" xmlns:xlink="http://www.w3.org/1999/xlink">
    <!-- Generator: Sketch 52.5 (67469) - http://www.bohemiancoding.com/sketch -->
    <title>Register New Employee </title>
    <desc>Created with Sketch.</desc>
    <g id="new" stroke="none" stroke-width="1" fill="none" fill-rule="evenodd">
        <g id="Register-New-Employee-" transform="translate(-1.000000, 0.000000)">
            <circle id="Mask-Copy-8" fill="#F8F8F8" cx="52" cy="51.6761558" r="51.0078298"></circle>
            <path d="M66.5,59.0350074 C66.5,60.6759895 66.0279995,62.0835999 65.0839844,63.2578806 C64.1399692,64.4321614 63.0033921,65.019293 61.6742187,65.019293 L42.3257813,65.019293 C40.9966079,65.019293 39.8600308,64.4321614 38.9160156,63.2578806 C37.9720005,62.0835999 37.5,60.6759895 37.5,59.0350074 C37.5,57.7553424 37.5641921,56.5472063 37.6925781,55.4105627 C37.8209642,54.2739191 38.0588524,53.1297652 38.40625,51.9780668 C38.7536476,50.8263683 39.19544,49.8402883 39.7316406,49.0197973 C40.2678412,48.1993062 40.97773,47.529374 41.8613281,47.0099806 C42.7449263,46.4905871 43.7606713,46.2308943 44.9085938,46.2308943 C46.8872495,48.1579192 49.2510279,49.1214172 52,49.1214172 C54.7489721,49.1214172 57.1127505,48.1579192 59.0914062,46.2308943 C60.2393287,46.2308943 61.2550737,46.4905871 62.1386719,47.0099806 C63.02227,47.529374 63.7321588,48.1993062 64.2683594,49.0197973 C64.80456,49.8402883 65.2463524,50.8263683 65.59375,51.9780668 C65.9411476,53.1297652 66.1790358,54.2739191 66.3074219,55.4105627 C66.4358079,56.5472063 66.5,57.7553424 66.5,59.0350074 Z M62.1945509,39.0045871 C62.1945509,41.8095255 61.1989992,44.2042719 59.2078661,46.1888981 C57.2167329,48.1735243 54.8141349,49.1658225 52,49.1658225 C49.1858651,49.1658225 46.7832671,48.1735243 44.7921339,46.1888981 C42.8010008,44.2042719 41.8054491,41.8095255 41.8054491,39.0045871 C41.8054491,36.1996488 42.8010008,33.8049024 44.7921339,31.8202762 C46.7832671,29.83565 49.1858651,28.8433518 52,28.8433518 C54.8141349,28.8433518 57.2167329,29.83565 59.2078661,31.8202762 C61.1989992,33.8049024 62.1945509,36.1996488 62.1945509,39.0045871 Z" id="user-copy-2" stroke="#DDDDDD" stroke-width="5"></path>
        </g>
    </g>
</svg>