<?xml version="1.0" encoding="UTF-8"?>
<svg width="80px" height="81px" viewBox="0 0 80 81" version="1.1" xmlns="http://www.w3.org/2000/svg" xmlns:xlink="http://www.w3.org/1999/xlink">
    <!-- Generator: Sketch 52.5 (67469) - http://www.bohemiancoding.com/sketch -->
    <title>Register New Employee 1</title>
    <desc>Created with Sketch.</desc>
    <defs>
        <path d="M16.0889339,1.10166167 C21.5587064,1.10166167 26.0086909,5.55164611 26.0086909,11.0214186 C26.0086909,14.729739 23.9691147,17.9745193 21.0024584,19.6432635 C27.028479,21.5901317 31.4784634,26.8744882 32.0347115,33.4567568 C32.2201275,35.125501 29.0680552,35.218209 28.9753472,33.6421729 C28.3263911,27.0599042 22.6712025,22.0536717 16.0889339,22.0536717 C9.41395725,22.0536717 3.8514767,27.0599042 3.20252064,33.6421729 C3.01710462,35.218209 -0.134967686,35.125501 0.0504483322,33.4567568 C0.699404396,26.9671962 5.14938883,21.5901317 11.0827014,19.6432635 C8.11604512,17.9745193 6.07646892,14.729739 6.07646892,11.0214186 C6.07646892,5.55164611 10.6191614,1.10166167 16.0889339,1.10166167 Z M16.0889339,4.25373398 C12.2879055,4.25373398 9.22854123,7.31309828 9.22854123,11.0214186 C9.22854123,14.822447 12.2879055,17.8818113 16.0889339,17.8818113 C19.7972543,17.8818113 22.8566186,14.822447 22.8566186,11.0214186 C22.8566186,7.31309828 19.7972543,4.25373398 16.0889339,4.25373398 Z" id="path-1"></path>
    </defs>
    <g id="new" stroke="none" stroke-width="1" fill="none" fill-rule="evenodd">
        <g id="Register-New-Employee-1">
            <rect id="base-copy-21" fill="#415BF6" x="0" y="0.815363314" width="80" height="80" rx="40"></rect>
            <g id="Group-23-Copy" transform="translate(20.000001, 23.215364)" fill-rule="nonzero">
                <g id="Shape" transform="translate(16.042581, 17.935077) scale(-1, 1) translate(-16.042581, -17.935077) ">
                    <use fill="#2F45C7" xlink:href="#path-1"></use>
                    <use fill="#FFFFFF" xlink:href="#path-1"></use>
                </g>
                <path d="M34.1011288,10.220417 L34.1011288,19.8636749" id="Line-4" stroke="#FFFFFF" stroke-width="2.6"></path>
                <path d="M39.0056977,15.0420459 L29.1965599,15.0420459 L39.0056977,15.0420459 Z" id="Line-4-Copy" stroke="#FFFFFF" stroke-width="2.6"></path>
            </g>
        </g>
    </g>
</svg>