<?xml version="1.0" encoding="UTF-8"?>
<svg width="452px" height="332px" viewBox="0 0 452 332" version="1.1" xmlns="http://www.w3.org/2000/svg" xmlns:xlink="http://www.w3.org/1999/xlink">
    <!-- Generator: Sketch 52.5 (67469) - http://www.bohemiancoding.com/sketch -->
    <title>Share the certificate</title>
    <desc>Created with Sketch.</desc>
    <g id="new" stroke="none" stroke-width="1" fill="none" fill-rule="evenodd">
        <g id="Share-the-certificate" transform="translate(-0.259573, 0.804678)">
            <rect id="Rectangle-Copy" fill="#39ADED" fill-rule="nonzero" opacity="0.664434524" x="37.0003996" y="87.2098918" width="334.153688" height="192.073062" rx="30"></rect>
            <rect id="Rectangle" fill="#F4F4F4" fill-rule="nonzero" x="54.8467113" y="58" width="334.153688" height="203.902834" rx="15"></rect>
            <path d="M342.624673,225.951417 L101.223177,225.951417 C94.6277784,225.951417 89.2818163,220.571694 89.2818163,213.934644 L89.2818163,105.96819 C89.2818163,99.3318841 94.6277784,93.951417 101.223177,93.951417 L342.624673,93.951417 C349.219333,93.951417 354.565295,99.3318841 354.565295,105.96819 L354.565295,213.934644 C354.565295,220.571694 349.219333,225.951417 342.624673,225.951417" id="Fill-107" stroke="#FFFFFF" stroke-width="21" fill="#FFFFFF" opacity="0.3"></path>
            <rect id="Rectangle" fill="#544DB8" fill-rule="nonzero" x="0.580340057" y="0" width="138" height="138" rx="16"></rect>
            <path d="M96.8581759,85.2172404 C92.3326676,85.2172404 88.1923089,87.2392761 85.4962614,90.513048 L56.8989004,74.0479008 C57.4766248,72.5073022 57.7654871,70.7741288 57.7654871,69.0409554 C57.7654871,67.307782 57.4766248,65.5746086 56.8989004,64.03401 L85.4962614,47.5688628 C88.1923089,50.8426348 92.2363801,52.8646704 96.8581759,52.8646704 C105.042606,52.8646704 111.59015,46.220839 111.59015,38.1326965 C111.59015,30.044554 104.946318,23.4007227 96.8581759,23.4007227 C88.6737459,23.4007227 82.126202,30.044554 82.126202,38.1326965 C82.126202,39.8658699 82.4150642,41.5990433 82.9927887,43.1396419 L54.3954277,59.6047891 C51.6993802,56.3310172 47.6553089,54.3089816 43.0335132,54.3089816 C34.8490833,54.3089816 28.3015393,60.9528129 28.3015393,69.0409554 C28.3015393,77.2253853 34.9453707,83.7729293 43.0335132,83.7729293 C47.5590215,83.7729293 51.6993802,81.7508936 54.3954277,78.4771217 L82.9927887,94.9422689 C82.4150642,96.4828675 82.126202,98.2160409 82.126202,99.9492143 C82.126202,108.133644 88.7700333,114.681188 96.8581759,114.681188 C105.042606,114.681188 111.59015,108.037357 111.59015,99.9492143 C111.686437,91.7647844 105.042606,85.2172404 96.8581759,85.2172404 Z M43.1298006,78.6696965 C37.833993,78.6696965 33.4047721,74.336763 33.4047721,68.944668 C33.4047721,63.552573 37.7377056,59.2196395 43.1298006,59.2196395 C48.5218956,59.2196395 52.8548291,63.552573 52.8548291,68.944668 C52.8548291,74.336763 48.4256082,78.6696965 43.1298006,78.6696965 Z" id="Shape" fill="#00C6FF" fill-rule="nonzero"></path>
            <path d="M342.624673,225.951417 L101.223177,225.951417 C94.6277784,225.951417 89.2818163,220.571694 89.2818163,213.934644 L89.2818163,105.96819 C89.2818163,99.3318841 94.6277784,93.951417 101.223177,93.951417 L342.624673,93.951417 C349.219333,93.951417 354.565295,99.3318841 354.565295,105.96819 L354.565295,213.934644 C354.565295,220.571694 349.219333,225.951417 342.624673,225.951417" id="Fill-107" stroke="#979797" fill="#FFFFFF" opacity="0.3" stroke-dasharray="5"></path>
            <g id="Group-29" transform="translate(147.919835, 30.000000)">
                <polygon id="Fill-1" fill="#2F3787" points="207.611805 290.350794 206.939628 295.741866 216.724354 300.461902 222.624647 297.821941 218.068707 291.73705 208.283982 284.959722"></polygon>
                <polygon id="Fill-2" fill="#B4BFD8" points="207.281274 288.54093 214.827195 219.783878 205.748121 142.810775 207.790093 126.437353 248.340967 124.84882 249.803822 151.498347 242.997027 219.890195 217.386019 292.054895"></polygon>
                <polygon id="Fill-4" fill="#B4BFD8" points="278.095168 132.553793 278.201619 201.938388 264.658327 291.259386 254.909085 291.158592 249.550416 208.558312 237.009365 125.883472"></polygon>
                <polygon id="Fill-5" fill="#2F3787" points="254.924216 295.398754 265.413923 298.884415 270.737778 295.56099 265.519035 290.071196 254.977106 289.962808"></polygon>
                <path d="M201.830482,149.74026 C202.039366,141.674018 202.736314,133.626415 203.715121,125.617474 C204.592834,118.441114 214.951262,101.444682 216.142301,94.3125054 C217.333339,87.1803291 211.301882,72.9045398 213.777688,67.4423601 C219.935069,53.8587089 218.032353,52.6036226 245.080106,48.5705015 C256.934252,46.8024729 259.735435,54.4206672 269.4271,63.1807277 C270.383144,64.0443762 270.329584,69.1889873 270.552528,70.5510804 C270.942845,72.950104 271.361282,75.3449854 271.840643,77.7288209 C272.217571,79.6024756 272.633999,81.469917 273.099971,83.3256221 C273.099301,83.3249317 281.23572,121.502889 286.615813,129.611244 C291.995905,137.719598 303.110255,149.055416 284.517603,155.97634 C281.22233,157.075404 277.906972,158.120619 274.477799,158.678435 C274.477799,158.678435 259.271472,156.93664 251.451057,156.996702 C244.248588,157.051931 237.017332,157.803741 229.936043,159.062969 C225.201347,159.878292 220.369574,161.064342 216.134324,163.346003 C212.093899,165.522038 209.177562,168.723958 205.077551,170.978004 C204.689242,171.191328 204.263441,171.411555 203.822241,171.349422 C201.466944,171.012523 201.356477,162.480283 201.55197,156.151694 C201.645031,153.145838 201.807049,150.636356 201.830482,149.74026 Z" id="Fill-6" fill="#6DB8FF"></path>
                <path d="M245.111238,52.4012071 C243.746129,53.0957158 240.525171,53.3449381 237.164956,51.9876776 C236.488093,51.7149828 236.030825,51.0411851 236.040198,50.2914471 C236.066978,48.18721 236.231005,46.0843537 236.53228,44.0028987 C234.011617,43.0888535 231.099297,41.718476 230.660105,39.0011934 C230.522189,38.1458293 230.665461,37.271135 230.808734,36.4164613 C231.400571,32.8817848 231.993078,29.346418 232.585584,25.8124319 C232.790451,24.5897928 233.008707,23.331945 233.653435,22.2839687 C234.784218,20.4462131 236.979505,19.6426265 239.059638,19.2698286 C244.368094,18.3198843 250.151225,19.5059339 254.267303,23.0903168 C255.362604,24.0444033 256.352792,25.191102 256.83617,26.5835712 C257.579984,28.7299207 257.02363,31.0971874 256.461921,33.302218 C255.943728,35.3367281 255.425536,37.3719285 254.907344,39.4078193 C254.310821,41.7474714 253.450515,44.4088342 251.263262,45.28629 C250.102351,45.7529778 248.731218,45.6162852 247.680105,46.3059613 C245.825593,47.5223871 246.075316,50.3653163 245.111238,52.4012071" id="Fill-8" fill="#CE7361"></path>
                <path d="M275.745361,17.1520603 C276.266231,16.2690815 276.827941,15.4171693 277.4566,14.6184152 C278.817691,12.8883568 280.494786,11.4054496 281.589416,9.48484997 C282.684717,7.56356001 283.070348,4.96087832 281.756791,3.19146898 C280.908536,2.05098353 279.532047,1.48005044 278.194388,1.07411494 C273.786408,-0.263815336 269.030288,-0.353562981 264.576782,0.814537133 C260.336176,1.92740793 256.540118,3.77137684 252.271394,2.12692384 C248.259757,0.58257399 245.362835,1.21149787 241.170434,2.75446699 C236.63391,4.42377318 230.543479,4.81728208 226.436773,7.17350294 C224.722187,8.15796557 223.353731,9.69541176 222.28655,11.3937133 C218.591586,17.2797781 218.571501,25.3936555 222.237007,31.2990506 C223.059151,32.6238639 224.043315,33.8347667 225.077021,34.9911306 C227.218078,37.3853216 229.778242,40.3414709 232.722028,41.2279015 C232.792325,38.5119997 230.393511,29.9480033 232.415397,27.7222617 C235.625644,24.1896564 242.883681,25.4219606 246.86586,26.2918224 C251.210238,27.2403859 255.08195,30.41262 259.387497,31.0898695 C262.486607,31.5779586 266.442006,30.0108267 269.077153,28.3587796 C272.328239,26.319437 273.842646,20.3733104 275.745361,17.1520603" id="Fill-10" fill="#242449"></path>
                <path d="M222.624781,53.7907078 C216.313636,56.2018454 210.688061,61.2847838 205.748054,69.039523 C198.78705,79.9667916 192.511614,93.565861 186.921747,109.836731 L210.700337,139.008168 C196.147664,143.023637 194.496903,136.486766 205.748054,119.397555 C216.999205,102.308343 222.624781,80.4393944 222.624781,53.7907078 Z" id="Fill-12" fill="#6DB8FF"></path>
                <path d="M265.938813,78.5004376 L283.319233,104.510383 L304,109.851938 C287.34227,81.5585028 276.675604,64.6580362 272,59.1505376 C267.324396,53.6430391 260.70673,50.1839012 252.147001,48.7731241 L265.938813,78.5004376 Z" id="Fill-3" fill="#6DB8FF"></path>
                <polygon id="Fill-3-Copy" fill="#6DB8FF" points="267 129.999939 304 109.851938 285.319233 102.763738 270.737778 118.584544 261.297077 116.821338"></polygon>
                <g id="Group-28" transform="translate(0.220635, 84.902398)">
                    <path d="M253.759178,131.631115 L11.9901782,131.631115 C5.38617824,131.631115 0.0311782419,126.277115 0.0311782419,119.672115 L0.0311782419,12.2201154 C0.0311782419,5.61511543 5.38617824,0.261115426 11.9901782,0.261115426 L253.759178,0.261115426 C260.363178,0.261115426 265.718178,5.61511543 265.718178,12.2201154 L265.718178,119.672115 C265.718178,126.277115 260.363178,131.631115 253.759178,131.631115" id="Fill-2" fill="#FFFFFF"></path>
                    <path d="M102.818778,65.9388154 C102.818778,76.6418154 98.8077782,86.4158154 92.2007782,93.8038154 C84.5387782,102.416815 73.3717782,107.820815 60.9597782,107.820815 C48.5477782,107.820815 37.3807782,102.416815 29.7177782,93.8038154 C23.1117782,86.4158154 19.0997782,76.6418154 19.0997782,65.9388154 C19.0997782,42.8258154 37.8447782,24.0798154 60.9597782,24.0798154 C84.0747782,24.0798154 102.818778,42.8258154 102.818778,65.9388154" id="Fill-4" fill="#7A96CC"></path>
                    <path d="M72.0423782,74.7630154 C72.0353782,74.7610154 72.0313782,74.7600154 72.0253782,74.7580154 C76.4123782,71.4160154 79.2573782,66.1530154 79.2573782,60.2120154 C79.2573782,50.1090154 71.0643782,41.9170154 60.9613782,41.9170154 C50.8563782,41.9170154 42.6663782,50.1090154 42.6663782,60.2120154 C42.6663782,66.1530154 45.5093782,71.4150154 49.8963782,74.7570154 C49.8903782,74.7600154 49.8833782,74.7610154 49.8773782,74.7630154 C40.7363782,77.9080154 33.3693782,84.8950154 29.7183782,93.8040154 C37.3813782,102.416015 48.5473782,107.821015 60.9593782,107.821015 C73.3713782,107.821015 84.5383782,102.416015 92.2003782,93.8040154 C88.5503782,84.8950154 81.1823782,77.9080154 72.0423782,74.7630154" id="Fill-6" fill="#A9C2E2"></path>
                    <path d="M235.923278,68.7239154 L118.798278,68.7239154 C115.979278,68.7239154 113.694278,66.4399154 113.694278,63.6199154 C113.694278,60.8019154 115.979278,58.5169154 118.798278,58.5169154 L235.923278,58.5169154 C238.741278,58.5169154 241.027278,60.8019154 241.027278,63.6199154 C241.027278,66.4399154 238.741278,68.7239154 235.923278,68.7239154" id="Fill-8" fill="#F4F4F4"></path>
                    <path d="M235.923278,45.8557154 L118.798278,45.8557154 C115.979278,45.8557154 113.694278,43.5707154 113.694278,40.7517154 C113.694278,37.9337154 115.979278,35.6487154 118.798278,35.6487154 L235.923278,35.6487154 C238.741278,35.6487154 241.027278,37.9337154 241.027278,40.7517154 C241.027278,43.5707154 238.741278,45.8557154 235.923278,45.8557154" id="Fill-10" fill="#F4F4F4"></path>
                    <path d="M195.946678,92.6184154 L118.798678,92.6184154 C115.978678,92.6184154 113.693678,90.3334154 113.693678,87.5144154 C113.693678,84.6964154 115.978678,82.4114154 118.798678,82.4114154 L195.946678,82.4114154 C198.764678,82.4114154 201.050678,84.6964154 201.050678,87.5144154 C201.050678,90.3334154 198.764678,92.6184154 195.946678,92.6184154" id="Fill-12" fill="#008EFF"></path>
                    <polygon id="Fill-14" fill="#DD361F" points="136.282578 112.362615 126.356578 104.800615 115.958578 112.362615 115.958578 85.8936154 136.282578 85.8936154"></polygon>
                    <path d="M140.235778,85.3098154 C140.235778,93.1938154 133.843778,99.5878154 125.957778,99.5878154 C118.070778,99.5878154 111.677778,93.1938154 111.677778,85.3098154 C111.677778,77.4238154 118.070778,71.0308154 125.957778,71.0308154 C133.843778,71.0308154 140.235778,77.4238154 140.235778,85.3098154" id="Fill-16" fill="#FFD400"></path>
                </g>
                <polygon id="Fill-14" fill="#CE7361" transform="translate(190.078347, 85.878118) rotate(10.000000) translate(-190.078347, -85.878118) " points="179.88958 86.7783557 184.833159 79.9727228 194.864929 77.9623756 200.267115 83.5232777 190.701316 93.7938601"></polygon>
                <polygon id="Fill-14-Copy" fill="#CE7361" transform="translate(264.575626, 121.546100) rotate(99.000000) translate(-264.575626, -121.546100) " points="254.386859 122.446338 259.330438 115.640705 269.362208 113.630358 274.764394 119.19126 265.198595 129.461842"></polygon>
            </g>
        </g>
    </g>
</svg>