<?xml version="1.0" encoding="UTF-8"?>
<svg width="120px" height="30px" viewBox="0 0 83 27" version="1.1" xmlns="http://www.w3.org/2000/svg" xmlns:xlink="http://www.w3.org/1999/xlink">
    <!-- Generator: Sketch 52.5 (67469) - http://www.bohemiancoding.com/sketch -->
    <title>valid copy</title>
    <desc>Created with Sketch.</desc>
    <g id="new" stroke="none" stroke-width="1" fill="none" fill-rule="evenodd">
        <g id="valid-copy" transform="translate(0.701801, 0.207901)" fill="#D3DDE5">
            <path d="M36.0767277,0.615213605 L37.2422874,0.615213605 L38.5469195,4.31719011 L38.5601645,4.31719011 L39.8316842,0.615213605 L40.9839989,0.615213605 L40.9839989,5.34367733 L40.1959216,5.34367733 L40.1959216,1.69468081 L40.1826766,1.69468081 L38.8714219,5.34367733 L38.1893046,5.34367733 L36.87805,1.69468081 L36.864805,1.69468081 L36.864805,5.34367733 L36.0767277,5.34367733 L36.0767277,0.615213605 Z M44.255513,1.17812595 C44.0038568,1.17812595 43.7864203,1.22889793 43.6031969,1.33044341 C43.4199735,1.43198889 43.2709688,1.56774875 43.1561783,1.73772705 C43.0413877,1.90770536 42.9563999,2.10085962 42.9012121,2.31719565 C42.8460243,2.53353167 42.8184309,2.7542794 42.8184309,2.97944547 C42.8184309,3.20461153 42.8460243,3.42535927 42.9012121,3.64169529 C42.9563999,3.85803131 43.0413877,4.05118558 43.1561783,4.22116388 C43.2709688,4.39114219 43.4199735,4.52690204 43.6031969,4.62844752 C43.7864203,4.729993 44.0038568,4.78076498 44.255513,4.78076498 C44.5071692,4.78076498 44.7246057,4.729993 44.9078291,4.62844752 C45.0910524,4.52690204 45.2400571,4.39114219 45.3548477,4.22116388 C45.4696382,4.05118558 45.5546261,3.85803131 45.6098139,3.64169529 C45.6650016,3.42535927 45.6925951,3.20461153 45.6925951,2.97944547 C45.6925951,2.7542794 45.6650016,2.53353167 45.6098139,2.31719565 C45.5546261,2.10085962 45.4696382,1.90770536 45.3548477,1.73772705 C45.2400571,1.56774875 45.0910524,1.43198889 44.9078291,1.33044341 C44.7246057,1.22889793 44.5071692,1.17812595 44.255513,1.17812595 Z M44.255513,0.502631135 C44.6087147,0.502631135 44.9254877,0.568855455 45.2058415,0.701306082 C45.4861953,0.833756708 45.7234991,1.01256237 45.91776,1.23772844 C46.112021,1.4628945 46.2610257,1.7255843 46.3647787,2.02580573 C46.4685317,2.32602715 46.5204074,2.64390388 46.5204074,2.97944547 C46.5204074,3.31940208 46.4685317,3.63948629 46.3647787,3.93970771 C46.2610257,4.23992913 46.112021,4.50261893 45.91776,4.727785 C45.7234991,4.95295106 45.4861953,5.13065299 45.2058415,5.2608961 C44.9254877,5.39113922 44.6087147,5.4562598 44.255513,5.4562598 C43.9023113,5.4562598 43.5855383,5.39113922 43.3051845,5.2608961 C43.0248307,5.13065299 42.7875268,4.95295106 42.5932659,4.727785 C42.399005,4.50261893 42.2500003,4.23992913 42.1462473,3.93970771 C42.0424943,3.63948629 41.9906186,3.31940208 41.9906186,2.97944547 C41.9906186,2.64390388 42.0424943,2.32602715 42.1462473,2.02580573 C42.2500003,1.7255843 42.399005,1.4628945 42.5932659,1.23772844 C42.7875268,1.01256237 43.0248307,0.833756708 43.3051845,0.701306082 C43.5855383,0.568855455 43.9023113,0.502631135 44.255513,0.502631135 Z M47.5071596,0.615213605 L48.3813294,0.615213605 L50.5402638,4.09864767 L50.5535088,4.09864767 L50.5535088,0.615213605 L51.3415861,0.615213605 L51.3415861,5.34367733 L50.4674163,5.34367733 L48.3151044,1.86686577 L48.2952369,1.86686577 L48.2952369,5.34367733 L47.5071596,5.34367733 L47.5071596,0.615213605 Z M52.1362858,0.615213605 L55.9640898,0.615213605 L55.9640898,1.33044341 L54.4607827,1.33044341 L54.4607827,5.34367733 L53.6329704,5.34367733 L53.6329704,1.33044341 L52.1362858,1.33044341 L52.1362858,0.615213605 Z M56.7587896,0.615213605 L57.5866019,0.615213605 L57.5866019,2.4960031 L59.7389138,2.4960031 L59.7389138,0.615213605 L60.5667261,0.615213605 L60.5667261,5.34367733 L59.7389138,5.34367733 L59.7389138,3.21123291 L57.5866019,3.21123291 L57.5866019,5.34367733 L56.7587896,5.34367733 L56.7587896,0.615213605 Z M63.0766529,0.502631135 L63.7985052,0.502631135 L61.8978482,5.4562598 L61.1759959,5.4562598 L63.0766529,0.502631135 Z M65.6528047,3.48937783 L63.8779751,0.615213605 L64.8382374,0.615213605 L66.0898895,2.73441303 L67.3216742,0.615213605 L68.248824,0.615213605 L66.4806169,3.48937783 L66.4806169,5.34367733 L65.6528047,5.34367733 L65.6528047,3.48937783 Z M68.9772988,0.615213605 L72.3812628,0.615213605 L72.3812628,1.33044341 L69.805111,1.33044341 L69.805111,2.56885058 L72.1892104,2.56885058 L72.1892104,3.2443454 L69.805111,3.2443454 L69.805111,4.62844752 L72.4276203,4.62844752 L72.4276203,5.34367733 L68.9772988,5.34367733 L68.9772988,0.615213605 Z M74.6792697,0.615213605 L75.560062,0.615213605 L77.381249,5.34367733 L76.4938342,5.34367733 L76.0501268,4.09202517 L74.1627149,4.09202517 L73.7190075,5.34367733 L72.8647052,5.34367733 L74.6792697,0.615213605 Z M74.3878798,3.46288784 L75.8315844,3.46288784 L75.1229771,1.42978089 L75.1031096,1.42978089 L74.3878798,3.46288784 Z M78.0964788,0.615213605 L80.3547507,0.615213605 C80.8757231,0.615213605 81.2664466,0.727794949 81.5269329,0.952961014 C81.7874191,1.17812708 81.9176603,1.49158886 81.9176603,1.89335576 C81.9176603,2.11852183 81.8845481,2.30505366 81.8183228,2.45295686 C81.7520975,2.60086006 81.6748358,2.72006384 81.5865353,2.81057176 C81.4982349,2.90107969 81.4110396,2.96620027 81.3249467,3.00593546 C81.2388538,3.04567065 81.1759407,3.07216038 81.1362055,3.08540544 L81.1362055,3.09865044 C81.2068458,3.10748048 81.2830038,3.12955525 81.3646817,3.16487542 C81.4463595,3.20019559 81.5225175,3.25648626 81.5931578,3.33374912 C81.6637982,3.41101199 81.7222963,3.51145221 81.768654,3.63507279 C81.8150118,3.75869338 81.8381903,3.91321679 81.8381903,4.09864767 C81.8381903,4.37679398 81.8591613,4.62955014 81.901104,4.85692371 C81.9430467,5.08429729 82.0081673,5.24654687 82.0964677,5.34367733 L81.2090529,5.34367733 C81.1472427,5.24213185 81.1108193,5.12955051 81.0997817,5.00592992 C81.0887442,4.88230934 81.0832255,4.76310556 81.0832255,4.64831502 C81.0832255,4.431979 81.0699806,4.24544716 81.0434905,4.08871392 C81.0170004,3.93198068 80.9684359,3.80173952 80.8977955,3.69798652 C80.8271552,3.59423353 80.7311299,3.51807557 80.6097169,3.46951034 C80.4883038,3.42094511 80.3326766,3.39666286 80.1428307,3.39666286 L78.9242911,3.39666286 L78.9242911,5.34367733 L78.0964788,5.34367733 L78.0964788,0.615213605 Z M78.9242911,2.76752553 L80.2819032,2.76752553 C80.5468044,2.76752553 80.7476849,2.70461242 80.8845505,2.57878433 C81.0214162,2.45295623 81.089848,2.26421692 81.089848,2.01256073 C81.089848,1.86245002 81.0677732,1.73993503 81.023623,1.64501208 C80.9794728,1.55008913 80.9187672,1.47613864 80.8415043,1.42315839 C80.7642414,1.37017814 80.6759423,1.3348585 80.5766044,1.31719842 C80.4772664,1.29953833 80.3746187,1.29070842 80.2686582,1.29070842 L78.9242911,1.29070842 L78.9242911,2.76752553 Z" id="MONTH/YEAR" opacity="0.799999952"></path>
            <path d="M4.36268751,17.5897427 L3.83288765,17.5897427 L3.70706018,17.0334529 C3.48630914,17.2851091 3.26556141,17.4594998 3.04481036,17.5566303 C2.82405932,17.6537607 2.57019943,17.7023252 2.28322307,17.7023252 C1.9300214,17.7023252 1.6132484,17.6372046 1.33289457,17.5069615 C1.05254075,17.3767184 0.815236935,17.1990165 0.620976016,16.9738504 C0.426715097,16.7486843 0.277710377,16.4859945 0.173957386,16.1857731 C0.0702043954,15.8855517 0.0183286781,15.5654675 0.0183286781,15.2255109 C0.0183286781,14.8899693 0.0702043954,14.5720926 0.173957386,14.2718711 C0.277710377,13.9716497 0.426715097,13.7089599 0.620976016,13.4837938 C0.815236935,13.2586278 1.05254075,13.0798221 1.33289457,12.9473715 C1.6132484,12.8149209 1.9300214,12.7486965 2.28322307,12.7486965 C2.53929428,12.7486965 2.78322052,12.7829124 3.01500912,12.8513453 C3.24679772,12.9197781 3.45319685,13.021322 3.6342127,13.1559802 C3.81522856,13.2906383 3.96533702,13.4595103 4.08454258,13.6626013 C4.20374815,13.8656923 4.27880238,14.0996849 4.30970752,14.3645861 L3.50176274,14.3645861 C3.47968764,14.2100604 3.43222687,14.0743005 3.35937903,13.9573025 C3.28653118,13.8403044 3.19492087,13.7420717 3.08454535,13.6626013 C2.97416983,13.5831309 2.8505511,13.523529 2.71368545,13.4837938 C2.5768198,13.4440587 2.43333378,13.4241914 2.28322307,13.4241914 C2.03156688,13.4241914 1.81413036,13.4749633 1.63090699,13.5765088 C1.44768363,13.6780543 1.29867891,13.8138142 1.18388836,13.9837925 C1.06909782,14.1537708 0.984109944,14.346925 0.928922183,14.5632611 C0.873734422,14.7795971 0.846140955,15.0003448 0.846140955,15.2255109 C0.846140955,15.4506769 0.873734422,15.6714247 0.928922183,15.8877607 C0.984109944,16.1040967 1.06909782,16.297251 1.18388836,16.4672293 C1.29867891,16.6372076 1.44768363,16.7729675 1.63090699,16.8745129 C1.81413036,16.9760584 2.03156688,17.0268304 2.28322307,17.0268304 C2.49514407,17.0312454 2.68277964,17.0036519 2.84613542,16.9440492 C3.00949119,16.8844464 3.14745852,16.7983548 3.26004156,16.6857717 C3.37262459,16.5731887 3.45761247,16.4352214 3.51500774,16.2718656 C3.57240301,16.1085098 3.60330769,15.9274967 3.60772271,15.7288207 L2.34944805,15.7288207 L2.34944805,15.0996834 L4.36268751,15.0996834 L4.36268751,17.5897427 Z M7.54148664,13.4241914 C7.28983045,13.4241914 7.07239393,13.4749633 6.88917057,13.5765088 C6.7059472,13.6780543 6.55694248,13.8138142 6.44215194,13.9837925 C6.32736139,14.1537708 6.24237352,14.346925 6.18718576,14.5632611 C6.13199799,14.7795971 6.10440453,15.0003448 6.10440453,15.2255109 C6.10440453,15.4506769 6.13199799,15.6714247 6.18718576,15.8877607 C6.24237352,16.1040967 6.32736139,16.297251 6.44215194,16.4672293 C6.55694248,16.6372076 6.7059472,16.7729675 6.88917057,16.8745129 C7.07239393,16.9760584 7.28983045,17.0268304 7.54148664,17.0268304 C7.79314283,17.0268304 8.01057935,16.9760584 8.19380272,16.8745129 C8.37702608,16.7729675 8.5260308,16.6372076 8.64082135,16.4672293 C8.75561189,16.297251 8.84059977,16.1040967 8.89578753,15.8877607 C8.95097529,15.6714247 8.97856875,15.4506769 8.97856875,15.2255109 C8.97856875,15.0003448 8.95097529,14.7795971 8.89578753,14.5632611 C8.84059977,14.346925 8.75561189,14.1537708 8.64082135,13.9837925 C8.5260308,13.8138142 8.37702608,13.6780543 8.19380272,13.5765088 C8.01057935,13.4749633 7.79314283,13.4241914 7.54148664,13.4241914 Z M7.54148664,12.7486965 C7.89468831,12.7486965 8.21146131,12.8149209 8.49181514,12.9473715 C8.77216896,13.0798221 9.00947277,13.2586278 9.20373369,13.4837938 C9.39799461,13.7089599 9.54699933,13.9716497 9.65075232,14.2718711 C9.75450531,14.5720926 9.80638103,14.8899693 9.80638103,15.2255109 C9.80638103,15.5654675 9.75450531,15.8855517 9.65075232,16.1857731 C9.54699933,16.4859945 9.39799461,16.7486843 9.20373369,16.9738504 C9.00947277,17.1990165 8.77216896,17.3767184 8.49181514,17.5069615 C8.21146131,17.6372046 7.89468831,17.7023252 7.54148664,17.7023252 C7.18828497,17.7023252 6.87151197,17.6372046 6.59115815,17.5069615 C6.31080432,17.3767184 6.07350051,17.1990165 5.87923959,16.9738504 C5.68497867,16.7486843 5.53597395,16.4859945 5.43222096,16.1857731 C5.32846797,15.8855517 5.27659225,15.5654675 5.27659225,15.2255109 C5.27659225,14.8899693 5.32846797,14.5720926 5.43222096,14.2718711 C5.53597395,13.9716497 5.68497867,13.7089599 5.87923959,13.4837938 C6.07350051,13.2586278 6.31080432,13.0798221 6.59115815,12.9473715 C6.87151197,12.8149209 7.18828497,12.7486965 7.54148664,12.7486965 Z M12.8394852,13.4241914 C12.587829,13.4241914 12.3703925,13.4749633 12.1871691,13.5765088 C12.0039458,13.6780543 11.854941,13.8138142 11.7401505,13.9837925 C11.62536,14.1537708 11.5403721,14.346925 11.4851843,14.5632611 C11.4299966,14.7795971 11.4024031,15.0003448 11.4024031,15.2255109 C11.4024031,15.4506769 11.4299966,15.6714247 11.4851843,15.8877607 C11.5403721,16.1040967 11.62536,16.297251 11.7401505,16.4672293 C11.854941,16.6372076 12.0039458,16.7729675 12.1871691,16.8745129 C12.3703925,16.9760584 12.587829,17.0268304 12.8394852,17.0268304 C13.0911414,17.0268304 13.3085779,16.9760584 13.4918013,16.8745129 C13.6750246,16.7729675 13.8240294,16.6372076 13.9388199,16.4672293 C14.0536105,16.297251 14.1385983,16.1040967 14.1937861,15.8877607 C14.2489738,15.6714247 14.2765673,15.4506769 14.2765673,15.2255109 C14.2765673,15.0003448 14.2489738,14.7795971 14.1937861,14.5632611 C14.1385983,14.346925 14.0536105,14.1537708 13.9388199,13.9837925 C13.8240294,13.8138142 13.6750246,13.6780543 13.4918013,13.5765088 C13.3085779,13.4749633 13.0911414,13.4241914 12.8394852,13.4241914 Z M12.8394852,12.7486965 C13.1926869,12.7486965 13.5094599,12.8149209 13.7898137,12.9473715 C14.0701675,13.0798221 14.3074713,13.2586278 14.5017323,13.4837938 C14.6959932,13.7089599 14.8449979,13.9716497 14.9487509,14.2718711 C15.0525039,14.5720926 15.1043796,14.8899693 15.1043796,15.2255109 C15.1043796,15.5654675 15.0525039,15.8855517 14.9487509,16.1857731 C14.8449979,16.4859945 14.6959932,16.7486843 14.5017323,16.9738504 C14.3074713,17.1990165 14.0701675,17.3767184 13.7898137,17.5069615 C13.5094599,17.6372046 13.1926869,17.7023252 12.8394852,17.7023252 C12.4862835,17.7023252 12.1695105,17.6372046 11.8891567,17.5069615 C11.6088029,17.3767184 11.3714991,17.1990165 11.1772382,16.9738504 C10.9829772,16.7486843 10.8339725,16.4859945 10.7302195,16.1857731 C10.6264665,15.8855517 10.5745908,15.5654675 10.5745908,15.2255109 C10.5745908,14.8899693 10.6264665,14.5720926 10.7302195,14.2718711 C10.8339725,13.9716497 10.9829772,13.7089599 11.1772382,13.4837938 C11.3714991,13.2586278 11.6088029,13.0798221 11.8891567,12.9473715 C12.1695105,12.8149209 12.4862835,12.7486965 12.8394852,12.7486965 Z M16.1242443,12.861279 L18.0845038,12.861279 C18.4465355,12.861279 18.7599973,12.9230884 19.0248985,13.046709 C19.2897998,13.1703295 19.5061326,13.3392016 19.6739034,13.5533301 C19.8416741,13.7674586 19.9663966,14.0180073 20.0480745,14.3049836 C20.1297524,14.59196 20.1705907,14.8987993 20.1705907,15.2255109 C20.1705907,15.5522224 20.1297524,15.8590618 20.0480745,16.1460381 C19.9663966,16.4330145 19.8416741,16.6835632 19.6739034,16.8976917 C19.5061326,17.1118202 19.2897998,17.2806922 19.0248985,17.4043128 C18.7599973,17.5279334 18.4465355,17.5897427 18.0845038,17.5897427 L16.1242443,17.5897427 L16.1242443,12.861279 Z M16.9520566,16.9142479 L17.7666239,16.9142479 C18.0889204,16.9142479 18.3527139,16.8712021 18.5580124,16.7851092 C18.7633109,16.6990163 18.9244567,16.5798125 19.0414548,16.4274943 C19.1584528,16.2751761 19.237922,16.0963704 19.2798647,15.8910719 C19.3218074,15.6857735 19.3427784,15.463922 19.3427784,15.2255109 C19.3427784,14.9870998 19.3218074,14.7652483 19.2798647,14.5599498 C19.237922,14.3546513 19.1584528,14.1758457 19.0414548,14.0235275 C18.9244567,13.8712092 18.7633109,13.7520055 18.5580124,13.6659125 C18.3527139,13.5798196 18.0889204,13.5367738 17.7666239,13.5367738 L16.9520566,13.5367738 L16.9520566,16.9142479 Z M0.647466009,21.8833752 L4.47526998,21.8833752 L4.47526998,22.598605 L2.97196288,22.598605 L2.97196288,26.6118389 L2.14415061,26.6118389 L2.14415061,22.598605 L0.647466009,22.598605 L0.647466009,21.8833752 Z M5.26996975,21.8833752 L6.09778203,21.8833752 L6.09778203,23.7641647 L8.25009395,23.7641647 L8.25009395,21.8833752 L9.07790623,21.8833752 L9.07790623,26.6118389 L8.25009395,26.6118389 L8.25009395,24.4793945 L6.09778203,24.4793945 L6.09778203,26.6118389 L5.26996975,26.6118389 L5.26996975,21.8833752 Z M10.3361809,21.8833752 L12.5944528,21.8833752 C13.1154252,21.8833752 13.5061487,21.9959565 13.766635,22.2211226 C14.0271212,22.4462886 14.1573623,22.7597504 14.1573623,23.1615173 C14.1573623,23.3866834 14.1242502,23.5732152 14.0580249,23.7211184 C13.9917996,23.8690216 13.9145379,23.9882254 13.8262374,24.0787333 C13.737937,24.1692413 13.6507417,24.2343618 13.5646488,24.274097 C13.4785559,24.3138322 13.4156427,24.3403219 13.3759076,24.353567 L13.3759076,24.366812 C13.4465479,24.375642 13.5227059,24.3977168 13.6043837,24.433037 C13.6860616,24.4683571 13.7622196,24.5246478 13.8328599,24.6019107 C13.9035003,24.6791735 13.9619984,24.7796138 14.0083561,24.9032344 C14.0547139,25.0268549 14.0778924,25.1813784 14.0778924,25.3668092 C14.0778924,25.6449555 14.0988634,25.8977117 14.1408061,26.1250853 C14.1827488,26.3524588 14.2478694,26.5147084 14.3361698,26.6118389 L13.448755,26.6118389 C13.3869447,26.5102934 13.3505214,26.3977121 13.3394838,26.2740915 C13.3284463,26.1504709 13.3229276,26.0312671 13.3229276,25.9164766 C13.3229276,25.7001406 13.3096827,25.5136087 13.2831926,25.3568755 C13.2567025,25.2001422 13.208138,25.0699011 13.1374976,24.9661481 C13.0668573,24.8623951 12.970832,24.7862371 12.849419,24.7376719 C12.7280059,24.6891067 12.5723787,24.6648244 12.3825328,24.6648244 L11.1639932,24.6648244 L11.1639932,26.6118389 L10.3361809,26.6118389 L10.3361809,21.8833752 Z M11.1639932,24.0356871 L12.5216053,24.0356871 C12.7865065,24.0356871 12.987387,23.972774 13.1242526,23.8469459 C13.2611183,23.7211178 13.3295501,23.5323785 13.3295501,23.2807223 C13.3295501,23.1306116 13.3074753,23.0080966 13.2633251,22.9131736 C13.2191749,22.8182507 13.1584693,22.7443002 13.0812064,22.6913199 C13.0039435,22.6383397 12.9156444,22.6030201 12.8163065,22.58536 C12.7169685,22.5676999 12.6143208,22.55887 12.5083603,22.55887 L11.1639932,22.55887 L11.1639932,24.0356871 Z M15.2103396,21.8833752 L16.0381518,21.8833752 L16.0381518,24.6383344 C16.0381518,24.7972752 16.045878,24.958421 16.0613306,25.1217768 C16.0767831,25.2851326 16.1209327,25.4319298 16.1937805,25.5621729 C16.2666284,25.692416 16.3770022,25.7994787 16.5249054,25.8833641 C16.6728086,25.9672495 16.8814153,26.0091916 17.1507315,26.0091916 C17.4200478,26.0091916 17.6286544,25.9672495 17.7765576,25.8833641 C17.9244608,25.7994787 18.0348347,25.692416 18.1076825,25.5621729 C18.1805304,25.4319298 18.2246799,25.2851326 18.2401325,25.1217768 C18.2555851,24.958421 18.2633112,24.7972752 18.2633112,24.6383344 L18.2633112,21.8833752 L19.0911235,21.8833752 L19.0911235,24.9098569 C19.0911235,25.2144933 19.0447665,25.4793906 18.952051,25.7045566 C18.8593356,25.9297227 18.7279907,26.118462 18.5580124,26.2707802 C18.3880341,26.4230985 18.1838424,26.5367835 17.9454313,26.6118389 C17.7070202,26.6868942 17.4421229,26.7244214 17.1507315,26.7244214 C16.8593402,26.7244214 16.5944429,26.6868942 16.3560317,26.6118389 C16.1176206,26.5367835 15.913429,26.4230985 15.7434507,26.2707802 C15.5734724,26.118462 15.4421275,25.9297227 15.349412,25.7045566 C15.2566966,25.4793906 15.2103396,25.2144933 15.2103396,24.9098569 L15.2103396,21.8833752 Z" id="GOOD-THRU" opacity="0.799999952"></path>
            <polygon id="Triangle-1" fill-opacity="0.799999952" transform="translate(28.412290, 20.431754) rotate(-270.000000) translate(-28.412290, -20.431754) " points="28.4122898 18.2212512 32.2754137 22.6422568 24.5491658 22.6422568"></polygon>
        </g>
    </g>
</svg>